%TF.GenerationSoftware,KiCad,Pcbnew,(6.0.9)*%
%TF.CreationDate,2022-11-26T15:45:46+01:00*%
%TF.ProjectId,h3_extra_ports,68335f65-7874-4726-915f-706f7274732e,rev?*%
%TF.SameCoordinates,Original*%
%TF.FileFunction,Legend,Top*%
%TF.FilePolarity,Positive*%
%FSLAX46Y46*%
G04 Gerber Fmt 4.6, Leading zero omitted, Abs format (unit mm)*
G04 Created by KiCad (PCBNEW (6.0.9)) date 2022-11-26 15:45:46*
%MOMM*%
%LPD*%
G01*
G04 APERTURE LIST*
%ADD10C,0.500000*%
%ADD11C,0.200000*%
%ADD12C,0.120000*%
G04 APERTURE END LIST*
D10*
X184150000Y-72390000D02*
X186750000Y-72390000D01*
X186750000Y-72390000D02*
X186750000Y-74930000D01*
X186750000Y-74930000D02*
X184150000Y-74930000D01*
X184150000Y-74930000D02*
X184150000Y-72390000D01*
D11*
X178831904Y-50456714D02*
X179010476Y-50516238D01*
X179070000Y-50575761D01*
X179129523Y-50694809D01*
X179129523Y-50873380D01*
X179070000Y-50992428D01*
X179010476Y-51051952D01*
X178891428Y-51111476D01*
X178415238Y-51111476D01*
X178415238Y-49861476D01*
X178831904Y-49861476D01*
X178950952Y-49921000D01*
X179010476Y-49980523D01*
X179070000Y-50099571D01*
X179070000Y-50218619D01*
X179010476Y-50337666D01*
X178950952Y-50397190D01*
X178831904Y-50456714D01*
X178415238Y-50456714D01*
X179843809Y-51111476D02*
X179724761Y-51051952D01*
X179665238Y-50932904D01*
X179665238Y-49861476D01*
X179651380Y-52461000D02*
X179532333Y-52401476D01*
X179353761Y-52401476D01*
X179175190Y-52461000D01*
X179056142Y-52580047D01*
X178996619Y-52699095D01*
X178937095Y-52937190D01*
X178937095Y-53115761D01*
X178996619Y-53353857D01*
X179056142Y-53472904D01*
X179175190Y-53591952D01*
X179353761Y-53651476D01*
X179472809Y-53651476D01*
X179651380Y-53591952D01*
X179710904Y-53532428D01*
X179710904Y-53115761D01*
X179472809Y-53115761D01*
X176916904Y-51111476D02*
X176500238Y-50516238D01*
X176202619Y-51111476D02*
X176202619Y-49861476D01*
X176678809Y-49861476D01*
X176797857Y-49921000D01*
X176857380Y-49980523D01*
X176916904Y-50099571D01*
X176916904Y-50278142D01*
X176857380Y-50397190D01*
X176797857Y-50456714D01*
X176678809Y-50516238D01*
X176202619Y-50516238D01*
X157952809Y-49998226D02*
X158190904Y-49998226D01*
X158309952Y-50057750D01*
X158429000Y-50176797D01*
X158488523Y-50414892D01*
X158488523Y-50831559D01*
X158429000Y-51069654D01*
X158309952Y-51188702D01*
X158190904Y-51248226D01*
X157952809Y-51248226D01*
X157833761Y-51188702D01*
X157714714Y-51069654D01*
X157655190Y-50831559D01*
X157655190Y-50414892D01*
X157714714Y-50176797D01*
X157833761Y-50057750D01*
X157952809Y-49998226D01*
X159559952Y-51248226D02*
X159559952Y-49998226D01*
X159559952Y-51188702D02*
X159440904Y-51248226D01*
X159202809Y-51248226D01*
X159083761Y-51188702D01*
X159024238Y-51129178D01*
X158964714Y-51010130D01*
X158964714Y-50652988D01*
X159024238Y-50533940D01*
X159083761Y-50474416D01*
X159202809Y-50414892D01*
X159440904Y-50414892D01*
X159559952Y-50474416D01*
X160155190Y-51248226D02*
X160155190Y-50414892D01*
X160155190Y-50652988D02*
X160214714Y-50533940D01*
X160274238Y-50474416D01*
X160393285Y-50414892D01*
X160512333Y-50414892D01*
X161107571Y-51248226D02*
X160988523Y-51188702D01*
X160929000Y-51129178D01*
X160869476Y-51010130D01*
X160869476Y-50652988D01*
X160929000Y-50533940D01*
X160988523Y-50474416D01*
X161107571Y-50414892D01*
X161286142Y-50414892D01*
X161405190Y-50474416D01*
X161464714Y-50533940D01*
X161524238Y-50652988D01*
X161524238Y-51010130D01*
X161464714Y-51129178D01*
X161405190Y-51188702D01*
X161286142Y-51248226D01*
X161107571Y-51248226D01*
X162059952Y-51248226D02*
X162059952Y-50414892D01*
X162059952Y-49998226D02*
X162000428Y-50057750D01*
X162059952Y-50117273D01*
X162119476Y-50057750D01*
X162059952Y-49998226D01*
X162059952Y-50117273D01*
X163190904Y-51248226D02*
X163190904Y-49998226D01*
X163190904Y-51188702D02*
X163071857Y-51248226D01*
X162833761Y-51248226D01*
X162714714Y-51188702D01*
X162655190Y-51129178D01*
X162595666Y-51010130D01*
X162595666Y-50652988D01*
X162655190Y-50533940D01*
X162714714Y-50474416D01*
X162833761Y-50414892D01*
X163071857Y-50414892D01*
X163190904Y-50474416D01*
X164738523Y-51248226D02*
X164738523Y-49998226D01*
X164738523Y-50593464D02*
X165452809Y-50593464D01*
X165452809Y-51248226D02*
X165452809Y-49998226D01*
X165929000Y-49998226D02*
X166702809Y-49998226D01*
X166286142Y-50474416D01*
X166464714Y-50474416D01*
X166583761Y-50533940D01*
X166643285Y-50593464D01*
X166702809Y-50712511D01*
X166702809Y-51010130D01*
X166643285Y-51129178D01*
X166583761Y-51188702D01*
X166464714Y-51248226D01*
X166107571Y-51248226D01*
X165988523Y-51188702D01*
X165929000Y-51129178D01*
X157238523Y-52605964D02*
X157655190Y-52605964D01*
X157833761Y-53260726D02*
X157238523Y-53260726D01*
X157238523Y-52010726D01*
X157833761Y-52010726D01*
X158250428Y-53260726D02*
X158905190Y-52427392D01*
X158250428Y-52427392D02*
X158905190Y-53260726D01*
X159202809Y-52427392D02*
X159679000Y-52427392D01*
X159381380Y-52010726D02*
X159381380Y-53082154D01*
X159440904Y-53201202D01*
X159559952Y-53260726D01*
X159679000Y-53260726D01*
X160095666Y-53260726D02*
X160095666Y-52427392D01*
X160095666Y-52665488D02*
X160155190Y-52546440D01*
X160214714Y-52486916D01*
X160333761Y-52427392D01*
X160452809Y-52427392D01*
X161405190Y-53260726D02*
X161405190Y-52605964D01*
X161345666Y-52486916D01*
X161226619Y-52427392D01*
X160988523Y-52427392D01*
X160869476Y-52486916D01*
X161405190Y-53201202D02*
X161286142Y-53260726D01*
X160988523Y-53260726D01*
X160869476Y-53201202D01*
X160809952Y-53082154D01*
X160809952Y-52963107D01*
X160869476Y-52844059D01*
X160988523Y-52784535D01*
X161286142Y-52784535D01*
X161405190Y-52725011D01*
X162952809Y-52427392D02*
X162952809Y-53677392D01*
X162952809Y-52486916D02*
X163071857Y-52427392D01*
X163309952Y-52427392D01*
X163429000Y-52486916D01*
X163488523Y-52546440D01*
X163548047Y-52665488D01*
X163548047Y-53022630D01*
X163488523Y-53141678D01*
X163429000Y-53201202D01*
X163309952Y-53260726D01*
X163071857Y-53260726D01*
X162952809Y-53201202D01*
X164262333Y-53260726D02*
X164143285Y-53201202D01*
X164083761Y-53141678D01*
X164024238Y-53022630D01*
X164024238Y-52665488D01*
X164083761Y-52546440D01*
X164143285Y-52486916D01*
X164262333Y-52427392D01*
X164440904Y-52427392D01*
X164559952Y-52486916D01*
X164619476Y-52546440D01*
X164679000Y-52665488D01*
X164679000Y-53022630D01*
X164619476Y-53141678D01*
X164559952Y-53201202D01*
X164440904Y-53260726D01*
X164262333Y-53260726D01*
X165214714Y-53260726D02*
X165214714Y-52427392D01*
X165214714Y-52665488D02*
X165274238Y-52546440D01*
X165333761Y-52486916D01*
X165452809Y-52427392D01*
X165571857Y-52427392D01*
X165809952Y-52427392D02*
X166286142Y-52427392D01*
X165988523Y-52010726D02*
X165988523Y-53082154D01*
X166048047Y-53201202D01*
X166167095Y-53260726D01*
X166286142Y-53260726D01*
X166643285Y-53201202D02*
X166762333Y-53260726D01*
X167000428Y-53260726D01*
X167119476Y-53201202D01*
X167179000Y-53082154D01*
X167179000Y-53022630D01*
X167119476Y-52903583D01*
X167000428Y-52844059D01*
X166821857Y-52844059D01*
X166702809Y-52784535D01*
X166643285Y-52665488D01*
X166643285Y-52605964D01*
X166702809Y-52486916D01*
X166821857Y-52427392D01*
X167000428Y-52427392D01*
X167119476Y-52486916D01*
X176621333Y-52996714D02*
X176799904Y-53056238D01*
X176859428Y-53115761D01*
X176918952Y-53234809D01*
X176918952Y-53413380D01*
X176859428Y-53532428D01*
X176799904Y-53591952D01*
X176680857Y-53651476D01*
X176204666Y-53651476D01*
X176204666Y-52401476D01*
X176621333Y-52401476D01*
X176740380Y-52461000D01*
X176799904Y-52520523D01*
X176859428Y-52639571D01*
X176859428Y-52758619D01*
X176799904Y-52877666D01*
X176740380Y-52937190D01*
X176621333Y-52996714D01*
X176204666Y-52996714D01*
X177454666Y-53651476D02*
X177454666Y-52401476D01*
X177573714Y-53175285D02*
X177930857Y-53651476D01*
X177930857Y-52818142D02*
X177454666Y-53294333D01*
D12*
%TO.C,J2*%
X162281000Y-68295000D02*
X162281000Y-63345000D01*
X156281000Y-68295000D02*
X156281000Y-54895000D01*
X162281000Y-54895000D02*
X162281000Y-59845000D01*
X162281000Y-54895000D02*
X159681000Y-54895000D01*
X162281000Y-68295000D02*
X159681000Y-68295000D01*
%TO.C,J1*%
X171806000Y-68295000D02*
X171806000Y-63345000D01*
X171806000Y-54895000D02*
X169206000Y-54895000D01*
X165806000Y-68295000D02*
X165806000Y-54895000D01*
X171806000Y-54895000D02*
X171806000Y-59845000D01*
X171806000Y-68295000D02*
X169206000Y-68295000D01*
%TO.C,J4*%
X188504000Y-50161000D02*
X194504000Y-50161000D01*
X185446929Y-53461000D02*
X185844000Y-53461000D01*
X188504000Y-50461000D02*
X194504000Y-50461000D01*
X188504000Y-50341000D02*
X194504000Y-50341000D01*
X185844000Y-49211000D02*
X185844000Y-54411000D01*
X188504000Y-52701000D02*
X194504000Y-52701000D01*
X188504000Y-50701000D02*
X194504000Y-50701000D01*
X194504000Y-53461000D02*
X188504000Y-53461000D01*
X185844000Y-51811000D02*
X188504000Y-51811000D01*
X188504000Y-49211000D02*
X185844000Y-49211000D01*
X182974000Y-50921000D02*
X183361071Y-50921000D01*
X188504000Y-54411000D02*
X188504000Y-49211000D01*
X194504000Y-52701000D02*
X194504000Y-53461000D01*
X185446929Y-52701000D02*
X185844000Y-52701000D01*
X180594000Y-49271000D02*
X181864000Y-49271000D01*
X182906929Y-53461000D02*
X183361071Y-53461000D01*
X188504000Y-50581000D02*
X194504000Y-50581000D01*
X185844000Y-54411000D02*
X188504000Y-54411000D01*
X180594000Y-50541000D02*
X180594000Y-49271000D01*
X194504000Y-50921000D02*
X188504000Y-50921000D01*
X188504000Y-50221000D02*
X194504000Y-50221000D01*
X182974000Y-50161000D02*
X183361071Y-50161000D01*
X182906929Y-52701000D02*
X183361071Y-52701000D01*
X185446929Y-50921000D02*
X185844000Y-50921000D01*
X194504000Y-50161000D02*
X194504000Y-50921000D01*
X185446929Y-50161000D02*
X185844000Y-50161000D01*
X188504000Y-50821000D02*
X194504000Y-50821000D01*
%TO.C,J3*%
X181331000Y-54895000D02*
X178731000Y-54895000D01*
X175331000Y-68295000D02*
X175331000Y-54895000D01*
X181331000Y-68295000D02*
X181331000Y-63345000D01*
X181331000Y-54895000D02*
X181331000Y-59845000D01*
X181331000Y-68295000D02*
X178731000Y-68295000D01*
%TO.C,J6*%
X159660000Y-72610000D02*
X159660000Y-72170000D01*
X156624285Y-83750000D02*
X156624285Y-75120000D01*
X165460000Y-75120000D02*
X165460000Y-74710000D01*
X179980000Y-72610000D02*
X179980000Y-72170000D01*
X158277615Y-83750000D02*
X158277615Y-75120000D01*
X157840000Y-75120000D02*
X157840000Y-74710000D01*
X162920000Y-75120000D02*
X162920000Y-74710000D01*
X178160000Y-72610000D02*
X178160000Y-72170000D01*
X158750000Y-83750000D02*
X158750000Y-75120000D01*
X183240000Y-72610000D02*
X183240000Y-72170000D01*
X168000000Y-72610000D02*
X168000000Y-72170000D01*
X156388095Y-83750000D02*
X156388095Y-75120000D01*
X157923330Y-83750000D02*
X157923330Y-75120000D01*
X185780000Y-72610000D02*
X185780000Y-72170000D01*
X173080000Y-75120000D02*
X173080000Y-74710000D01*
X156150000Y-70010000D02*
X157480000Y-70010000D01*
X161290000Y-83750000D02*
X161290000Y-75120000D01*
X156150000Y-71120000D02*
X156150000Y-70010000D01*
X174900000Y-75120000D02*
X174900000Y-74710000D01*
X156150000Y-75120000D02*
X186750000Y-75120000D01*
X169820000Y-72610000D02*
X169820000Y-72170000D01*
X157569045Y-83750000D02*
X157569045Y-75120000D01*
X157214760Y-83750000D02*
X157214760Y-75120000D01*
X158159520Y-83750000D02*
X158159520Y-75120000D01*
X180700000Y-75120000D02*
X180700000Y-74710000D01*
X157120000Y-72610000D02*
X157120000Y-72230000D01*
X168000000Y-75120000D02*
X168000000Y-74710000D01*
X156150000Y-83750000D02*
X156150000Y-75120000D01*
X170540000Y-72610000D02*
X170540000Y-72170000D01*
X156270000Y-83750000D02*
X156270000Y-75120000D01*
X157840000Y-72610000D02*
X157840000Y-72230000D01*
X182520000Y-75120000D02*
X182520000Y-74710000D01*
X178160000Y-75120000D02*
X178160000Y-74710000D01*
X185060000Y-75120000D02*
X185060000Y-74710000D01*
X185780000Y-75120000D02*
X185780000Y-74710000D01*
X175620000Y-72610000D02*
X175620000Y-72170000D01*
X164740000Y-72610000D02*
X164740000Y-72170000D01*
X165460000Y-72610000D02*
X165460000Y-72170000D01*
X182520000Y-72610000D02*
X182520000Y-72170000D01*
X175620000Y-75120000D02*
X175620000Y-74710000D01*
X157120000Y-75120000D02*
X157120000Y-74710000D01*
X183240000Y-75120000D02*
X183240000Y-74710000D01*
X156978570Y-83750000D02*
X156978570Y-75120000D01*
X158395710Y-83750000D02*
X158395710Y-75120000D01*
X157450950Y-83750000D02*
X157450950Y-75120000D01*
X174900000Y-72610000D02*
X174900000Y-72170000D01*
X159660000Y-75120000D02*
X159660000Y-74710000D01*
X181610000Y-83750000D02*
X181610000Y-75120000D01*
X167280000Y-75120000D02*
X167280000Y-74710000D01*
X186750000Y-83750000D02*
X186750000Y-75120000D01*
X156506190Y-83750000D02*
X156506190Y-75120000D01*
X172360000Y-72610000D02*
X172360000Y-72170000D01*
X162920000Y-72610000D02*
X162920000Y-72170000D01*
X162200000Y-75120000D02*
X162200000Y-74710000D01*
X156860475Y-83750000D02*
X156860475Y-75120000D01*
X163830000Y-83750000D02*
X163830000Y-75120000D01*
X156150000Y-83750000D02*
X186750000Y-83750000D01*
X160380000Y-75120000D02*
X160380000Y-74710000D01*
X171450000Y-83750000D02*
X171450000Y-75120000D01*
X157805235Y-83750000D02*
X157805235Y-75120000D01*
X170540000Y-75120000D02*
X170540000Y-74710000D01*
X167280000Y-72610000D02*
X167280000Y-72170000D01*
X176530000Y-83750000D02*
X176530000Y-75120000D01*
X166370000Y-83750000D02*
X166370000Y-75120000D01*
X162200000Y-72610000D02*
X162200000Y-72170000D01*
X173080000Y-72610000D02*
X173080000Y-72170000D01*
X168910000Y-83750000D02*
X168910000Y-75120000D01*
X157096665Y-83750000D02*
X157096665Y-75120000D01*
X185060000Y-72610000D02*
X185060000Y-72170000D01*
X172360000Y-75120000D02*
X172360000Y-74710000D01*
X158631900Y-83750000D02*
X158631900Y-75120000D01*
X179980000Y-75120000D02*
X179980000Y-74710000D01*
X169820000Y-75120000D02*
X169820000Y-74710000D01*
X173990000Y-83750000D02*
X173990000Y-75120000D01*
X157332855Y-83750000D02*
X157332855Y-75120000D01*
X164740000Y-75120000D02*
X164740000Y-74710000D01*
X180700000Y-72610000D02*
X180700000Y-72170000D01*
X179070000Y-83750000D02*
X179070000Y-75120000D01*
X184150000Y-83750000D02*
X184150000Y-75120000D01*
X177440000Y-72610000D02*
X177440000Y-72170000D01*
X157687140Y-83750000D02*
X157687140Y-75120000D01*
X156742380Y-83750000D02*
X156742380Y-75120000D01*
X177440000Y-75120000D02*
X177440000Y-74710000D01*
X158513805Y-83750000D02*
X158513805Y-75120000D01*
X160380000Y-72610000D02*
X160380000Y-72170000D01*
X158041425Y-83750000D02*
X158041425Y-75120000D01*
%TD*%
M02*
