%TF.GenerationSoftware,KiCad,Pcbnew,(6.0.9)*%
%TF.CreationDate,2022-11-26T15:45:46+01:00*%
%TF.ProjectId,h3_extra_ports,68335f65-7874-4726-915f-706f7274732e,rev?*%
%TF.SameCoordinates,Original*%
%TF.FileFunction,Soldermask,Top*%
%TF.FilePolarity,Negative*%
%FSLAX46Y46*%
G04 Gerber Fmt 4.6, Leading zero omitted, Abs format (unit mm)*
G04 Created by KiCad (PCBNEW (6.0.9)) date 2022-11-26 15:45:46*
%MOMM*%
%LPD*%
G01*
G04 APERTURE LIST*
G04 Aperture macros list*
%AMRoundRect*
0 Rectangle with rounded corners*
0 $1 Rounding radius*
0 $2 $3 $4 $5 $6 $7 $8 $9 X,Y pos of 4 corners*
0 Add a 4 corners polygon primitive as box body*
4,1,4,$2,$3,$4,$5,$6,$7,$8,$9,$2,$3,0*
0 Add four circle primitives for the rounded corners*
1,1,$1+$1,$2,$3*
1,1,$1+$1,$4,$5*
1,1,$1+$1,$6,$7*
1,1,$1+$1,$8,$9*
0 Add four rect primitives between the rounded corners*
20,1,$1+$1,$2,$3,$4,$5,0*
20,1,$1+$1,$4,$5,$6,$7,0*
20,1,$1+$1,$6,$7,$8,$9,0*
20,1,$1+$1,$8,$9,$2,$3,0*%
G04 Aperture macros list end*
%ADD10C,5.600000*%
%ADD11R,1.300000X1.300000*%
%ADD12C,1.300000*%
%ADD13O,2.900000X1.900000*%
%ADD14O,1.900000X2.900000*%
%ADD15R,1.700000X1.700000*%
%ADD16O,1.700000X1.700000*%
%ADD17C,1.700000*%
%ADD18RoundRect,0.250000X-0.600000X-0.600000X0.600000X-0.600000X0.600000X0.600000X-0.600000X0.600000X0*%
G04 APERTURE END LIST*
D10*
%TO.C,H2*%
X171450000Y-79375000D03*
%TD*%
D11*
%TO.C,J2*%
X157381000Y-58095000D03*
D12*
X157381000Y-60595000D03*
X157381000Y-62595000D03*
X157381000Y-65095000D03*
D13*
X157981000Y-55025000D03*
X157981000Y-68165000D03*
D14*
X162161000Y-61595000D03*
%TD*%
D11*
%TO.C,J1*%
X166906000Y-58095000D03*
D12*
X166906000Y-60595000D03*
X166906000Y-62595000D03*
X166906000Y-65095000D03*
D13*
X167506000Y-68165000D03*
X167506000Y-55025000D03*
D14*
X171686000Y-61595000D03*
%TD*%
D10*
%TO.C,H1*%
X171450000Y-51816000D03*
%TD*%
D15*
%TO.C,J4*%
X181864000Y-50541000D03*
D16*
X184404000Y-50541000D03*
X181864000Y-53081000D03*
X184404000Y-53081000D03*
%TD*%
D11*
%TO.C,J3*%
X176431000Y-58095000D03*
D12*
X176431000Y-60595000D03*
X176431000Y-62595000D03*
X176431000Y-65095000D03*
D14*
X181211000Y-61595000D03*
D13*
X177031000Y-55025000D03*
X177031000Y-68165000D03*
%TD*%
D17*
%TO.C,J6*%
X157480000Y-71120000D03*
D16*
X157480000Y-73660000D03*
X160020000Y-71120000D03*
X160020000Y-73660000D03*
X162560000Y-71120000D03*
X162560000Y-73660000D03*
X165100000Y-71120000D03*
X165100000Y-73660000D03*
X167640000Y-71120000D03*
X167640000Y-73660000D03*
X170180000Y-71120000D03*
X170180000Y-73660000D03*
X172720000Y-71120000D03*
X172720000Y-73660000D03*
X175260000Y-71120000D03*
X175260000Y-73660000D03*
X177800000Y-71120000D03*
X177800000Y-73660000D03*
X180340000Y-71120000D03*
X180340000Y-73660000D03*
X182880000Y-71120000D03*
X182880000Y-73660000D03*
X185420000Y-71120000D03*
X185420000Y-73660000D03*
%TD*%
D15*
%TO.C,J9*%
X185420000Y-73660000D03*
D16*
X185420000Y-71120000D03*
X182880000Y-73660000D03*
X182880000Y-71120000D03*
X180340000Y-73660000D03*
X180340000Y-71120000D03*
X177800000Y-73660000D03*
X177800000Y-71120000D03*
X175260000Y-73660000D03*
X175260000Y-71120000D03*
X172720000Y-73660000D03*
X172720000Y-71120000D03*
X170180000Y-73660000D03*
X170180000Y-71120000D03*
X167640000Y-73660000D03*
X167640000Y-71120000D03*
X165100000Y-73660000D03*
X165100000Y-71120000D03*
X162560000Y-73660000D03*
X162560000Y-71120000D03*
X160020000Y-73660000D03*
X160020000Y-71120000D03*
X157480000Y-73660000D03*
X157480000Y-71120000D03*
%TD*%
D18*
%TO.C,J5*%
X184167500Y-66294000D03*
D17*
X186707500Y-66294000D03*
X184167500Y-63754000D03*
X186707500Y-63754000D03*
X184167500Y-61214000D03*
X186707500Y-61214000D03*
X184167500Y-58674000D03*
X186707500Y-58674000D03*
X184167500Y-56134000D03*
X186707500Y-56134000D03*
%TD*%
M02*
