M48
INCH,TZ
T1C0.0118
T2C0.0157
T3C0.0354
T4C0.0394
T5C0.0512
T6C0.1260
%
G90
G05
T1
X63858Y-21732
X64252Y-21732
X64646Y-21732
X65157Y-31535
X69055Y-31378
X69488Y-19764
X69550Y-31376
X73150Y-29646
T2
X73720Y-32382
T3
X61961Y-22872
X61961Y-23856
X61961Y-24644
X61961Y-25628
X65711Y-22872
X65711Y-23856
X65711Y-24644
X65711Y-25628
X69461Y-22872
X69461Y-23856
X69461Y-24644
X69461Y-25628
T4
X62000Y-28000
X62000Y-28000
X62000Y-29000
X62000Y-29000
X63000Y-28000
X63000Y-28000
X63000Y-29000
X63000Y-29000
X64000Y-28000
X64000Y-28000
X64000Y-29000
X64000Y-29000
X65000Y-28000
X65000Y-28000
X65000Y-29000
X65000Y-29000
X66000Y-28000
X66000Y-28000
X66000Y-29000
X66000Y-29000
X67000Y-28000
X67000Y-28000
X67000Y-29000
X67000Y-29000
X68000Y-28000
X68000Y-28000
X68000Y-29000
X68000Y-29000
X69000Y-28000
X69000Y-28000
X69000Y-29000
X69000Y-29000
X70000Y-28000
X70000Y-28000
X70000Y-29000
X70000Y-29000
X71000Y-28000
X71000Y-28000
X71000Y-29000
X71000Y-29000
X71600Y-19898
X71600Y-20898
X72000Y-28000
X72000Y-28000
X72000Y-29000
X72000Y-29000
X72600Y-19898
X72600Y-20898
X72736Y-22093
X72736Y-23093
X72736Y-24093
X72736Y-25093
X72736Y-26093
X73000Y-28000
X73000Y-28000
X73000Y-29000
X73000Y-29000
X73736Y-22093
X73736Y-23093
X73736Y-24093
X73736Y-25093
X73736Y-26093
T6
X67500Y-20400
X67500Y-31250
T5
G00X62000Y-21663
M15
G01X62394Y-21663
M16
G05
G00X62394Y-26837
M15
G01X62000Y-26837
M16
G05
G00X63843Y-24053
M15
G01X63843Y-24447
M16
G05
G00X65750Y-21663
M15
G01X66144Y-21663
M16
G05
G00X66144Y-26837
M15
G01X65750Y-26837
M16
G05
G00X67593Y-24053
M15
G01X67593Y-24447
M16
G05
G00X69500Y-21663
M15
G01X69894Y-21663
M16
G05
G00X69894Y-26837
M15
G01X69500Y-26837
M16
G05
G00X71343Y-24053
M15
G01X71343Y-24447
M16
G05
T0
M30
