%TF.GenerationSoftware,KiCad,Pcbnew,(6.0.9)*%
%TF.CreationDate,2022-11-26T15:45:46+01:00*%
%TF.ProjectId,h3_extra_ports,68335f65-7874-4726-915f-706f7274732e,rev?*%
%TF.SameCoordinates,Original*%
%TF.FileFunction,Copper,L1,Top*%
%TF.FilePolarity,Positive*%
%FSLAX46Y46*%
G04 Gerber Fmt 4.6, Leading zero omitted, Abs format (unit mm)*
G04 Created by KiCad (PCBNEW (6.0.9)) date 2022-11-26 15:45:46*
%MOMM*%
%LPD*%
G01*
G04 APERTURE LIST*
G04 Aperture macros list*
%AMRoundRect*
0 Rectangle with rounded corners*
0 $1 Rounding radius*
0 $2 $3 $4 $5 $6 $7 $8 $9 X,Y pos of 4 corners*
0 Add a 4 corners polygon primitive as box body*
4,1,4,$2,$3,$4,$5,$6,$7,$8,$9,$2,$3,0*
0 Add four circle primitives for the rounded corners*
1,1,$1+$1,$2,$3*
1,1,$1+$1,$4,$5*
1,1,$1+$1,$6,$7*
1,1,$1+$1,$8,$9*
0 Add four rect primitives between the rounded corners*
20,1,$1+$1,$2,$3,$4,$5,0*
20,1,$1+$1,$4,$5,$6,$7,0*
20,1,$1+$1,$6,$7,$8,$9,0*
20,1,$1+$1,$8,$9,$2,$3,0*%
G04 Aperture macros list end*
%TA.AperFunction,ComponentPad*%
%ADD10C,5.600000*%
%TD*%
%TA.AperFunction,ComponentPad*%
%ADD11R,1.300000X1.300000*%
%TD*%
%TA.AperFunction,ComponentPad*%
%ADD12C,1.300000*%
%TD*%
%TA.AperFunction,ComponentPad*%
%ADD13O,2.900000X1.900000*%
%TD*%
%TA.AperFunction,ComponentPad*%
%ADD14O,1.900000X2.900000*%
%TD*%
%TA.AperFunction,ComponentPad*%
%ADD15R,1.700000X1.700000*%
%TD*%
%TA.AperFunction,ComponentPad*%
%ADD16O,1.700000X1.700000*%
%TD*%
%TA.AperFunction,ComponentPad*%
%ADD17C,1.700000*%
%TD*%
%TA.AperFunction,ComponentPad*%
%ADD18RoundRect,0.250000X-0.600000X-0.600000X0.600000X-0.600000X0.600000X0.600000X-0.600000X0.600000X0*%
%TD*%
%TA.AperFunction,ViaPad*%
%ADD19C,0.400000*%
%TD*%
G04 APERTURE END LIST*
D10*
%TO.P,H2,1,1*%
%TO.N,GND*%
X171450000Y-79375000D03*
%TD*%
D11*
%TO.P,J2,1,VBUS*%
%TO.N,Net-(J2-Pad1)*%
X157381000Y-58095000D03*
D12*
%TO.P,J2,2,D-*%
%TO.N,/USB2_P6_DN*%
X157381000Y-60595000D03*
%TO.P,J2,3,D+*%
%TO.N,/USB2_P6_DP*%
X157381000Y-62595000D03*
%TO.P,J2,4,GND*%
%TO.N,GND*%
X157381000Y-65095000D03*
D13*
%TO.P,J2,5,Shield*%
X157981000Y-55025000D03*
X157981000Y-68165000D03*
D14*
X162161000Y-61595000D03*
%TD*%
D11*
%TO.P,J1,1,VBUS*%
%TO.N,Net-(J1-Pad1)*%
X166906000Y-58095000D03*
D12*
%TO.P,J1,2,D-*%
%TO.N,/USB2_P5_DN*%
X166906000Y-60595000D03*
%TO.P,J1,3,D+*%
%TO.N,/USB2_P5_DP*%
X166906000Y-62595000D03*
%TO.P,J1,4,GND*%
%TO.N,GND*%
X166906000Y-65095000D03*
D13*
%TO.P,J1,5,Shield*%
X167506000Y-68165000D03*
X167506000Y-55025000D03*
D14*
X171686000Y-61595000D03*
%TD*%
D10*
%TO.P,H1,1,1*%
%TO.N,GND*%
X171450000Y-51816000D03*
%TD*%
D15*
%TO.P,J4,1,Pin_1*%
%TO.N,Net-(J4-Pad1)*%
X181864000Y-50541000D03*
D16*
%TO.P,J4,2,Pin_2*%
%TO.N,/PWR_BTN#*%
X184404000Y-50541000D03*
%TO.P,J4,3,Pin_3*%
%TO.N,GND*%
X181864000Y-53081000D03*
%TO.P,J4,4,Pin_4*%
X184404000Y-53081000D03*
%TD*%
D11*
%TO.P,J3,1,VBUS*%
%TO.N,Net-(J3-Pad1)*%
X176431000Y-58095000D03*
D12*
%TO.P,J3,2,D-*%
%TO.N,/USB2_P7_DN*%
X176431000Y-60595000D03*
%TO.P,J3,3,D+*%
%TO.N,/USB2_P7_DP*%
X176431000Y-62595000D03*
%TO.P,J3,4,GND*%
%TO.N,GND*%
X176431000Y-65095000D03*
D14*
%TO.P,J3,5,Shield*%
X181211000Y-61595000D03*
D13*
X177031000Y-55025000D03*
X177031000Y-68165000D03*
%TD*%
D17*
%TO.P,J6,1,Pin_1*%
%TO.N,/+V5P0A*%
X157480000Y-71120000D03*
D16*
%TO.P,J6,2,Pin_2*%
%TO.N,/USB2_P6_DN*%
X157480000Y-73660000D03*
%TO.P,J6,3,Pin_3*%
%TO.N,/HDMI_CEC*%
X160020000Y-71120000D03*
%TO.P,J6,4,Pin_4*%
%TO.N,/USB2_P6_DP*%
X160020000Y-73660000D03*
%TO.P,J6,5,Pin_5*%
%TO.N,/I2C_0_SDA*%
X162560000Y-71120000D03*
%TO.P,J6,6,Pin_6*%
%TO.N,GND*%
X162560000Y-73660000D03*
%TO.P,J6,7,Pin_7*%
%TO.N,/I2C_0_SCL*%
X165100000Y-71120000D03*
%TO.P,J6,8,Pin_8*%
%TO.N,/PWR_BTN#*%
X165100000Y-73660000D03*
%TO.P,J6,9,Pin_9*%
%TO.N,GND*%
X167640000Y-71120000D03*
%TO.P,J6,10,Pin_10*%
%TO.N,/I2C_1_SDA*%
X167640000Y-73660000D03*
%TO.P,J6,11,Pin_11*%
%TO.N,/UART0_RTS#*%
X170180000Y-71120000D03*
%TO.P,J6,12,Pin_12*%
%TO.N,/I2C_1_SCL*%
X170180000Y-73660000D03*
%TO.P,J6,13,Pin_13*%
%TO.N,/UART0_CTS#*%
X172720000Y-71120000D03*
%TO.P,J6,14,Pin_14*%
%TO.N,GND*%
X172720000Y-73660000D03*
%TO.P,J6,15,Pin_15*%
%TO.N,/UART0_TXD*%
X175260000Y-71120000D03*
%TO.P,J6,16,Pin_16*%
%TO.N,/USB2_P5_DN*%
X175260000Y-73660000D03*
%TO.P,J6,17,Pin_17*%
%TO.N,/UART0_RXD*%
X177800000Y-71120000D03*
%TO.P,J6,18,Pin_18*%
%TO.N,/USB2_P5_DP*%
X177800000Y-73660000D03*
%TO.P,J6,19,Pin_19*%
%TO.N,GND*%
X180340000Y-71120000D03*
%TO.P,J6,20,Pin_20*%
%TO.N,/USB2_P7_DN*%
X180340000Y-73660000D03*
%TO.P,J6,21,Pin_21*%
%TO.N,/+3.3V_RUN_H*%
X182880000Y-71120000D03*
%TO.P,J6,22,Pin_22*%
%TO.N,/USB2_P7_DP*%
X182880000Y-73660000D03*
%TO.P,J6,23,Pin_23*%
%TO.N,/+5V_RUN_H*%
X185420000Y-71120000D03*
%TO.P,J6,24,Pin_24*%
%TO.N,GND*%
X185420000Y-73660000D03*
%TD*%
D15*
%TO.P,J9,1,Pin_1*%
%TO.N,GND*%
X185420000Y-73660000D03*
D16*
%TO.P,J9,2,Pin_2*%
%TO.N,/+5V_RUN_H*%
X185420000Y-71120000D03*
%TO.P,J9,3,Pin_3*%
%TO.N,/USB2_P7_DP*%
X182880000Y-73660000D03*
%TO.P,J9,4,Pin_4*%
%TO.N,/+3.3V_RUN_H*%
X182880000Y-71120000D03*
%TO.P,J9,5,Pin_5*%
%TO.N,/USB2_P7_DN*%
X180340000Y-73660000D03*
%TO.P,J9,6,Pin_6*%
%TO.N,GND*%
X180340000Y-71120000D03*
%TO.P,J9,7,Pin_7*%
%TO.N,/USB2_P5_DP*%
X177800000Y-73660000D03*
%TO.P,J9,8,Pin_8*%
%TO.N,/UART0_RXD*%
X177800000Y-71120000D03*
%TO.P,J9,9,Pin_9*%
%TO.N,/USB2_P5_DN*%
X175260000Y-73660000D03*
%TO.P,J9,10,Pin_10*%
%TO.N,/UART0_TXD*%
X175260000Y-71120000D03*
%TO.P,J9,11,Pin_11*%
%TO.N,GND*%
X172720000Y-73660000D03*
%TO.P,J9,12,Pin_12*%
%TO.N,/UART0_CTS#*%
X172720000Y-71120000D03*
%TO.P,J9,13,Pin_13*%
%TO.N,/I2C_1_SCL*%
X170180000Y-73660000D03*
%TO.P,J9,14,Pin_14*%
%TO.N,/UART0_RTS#*%
X170180000Y-71120000D03*
%TO.P,J9,15,Pin_15*%
%TO.N,/I2C_1_SDA*%
X167640000Y-73660000D03*
%TO.P,J9,16,Pin_16*%
%TO.N,GND*%
X167640000Y-71120000D03*
%TO.P,J9,17,Pin_17*%
%TO.N,/PWR_BTN#*%
X165100000Y-73660000D03*
%TO.P,J9,18,Pin_18*%
%TO.N,/I2C_0_SCL*%
X165100000Y-71120000D03*
%TO.P,J9,19,Pin_19*%
%TO.N,GND*%
X162560000Y-73660000D03*
%TO.P,J9,20,Pin_20*%
%TO.N,/I2C_0_SDA*%
X162560000Y-71120000D03*
%TO.P,J9,21,Pin_21*%
%TO.N,/USB2_P6_DP*%
X160020000Y-73660000D03*
%TO.P,J9,22,Pin_22*%
%TO.N,/HDMI_CEC*%
X160020000Y-71120000D03*
%TO.P,J9,23,Pin_23*%
%TO.N,/USB2_P6_DN*%
X157480000Y-73660000D03*
%TO.P,J9,24,Pin_24*%
%TO.N,/+V5P0A*%
X157480000Y-71120000D03*
%TD*%
D18*
%TO.P,J5,1,Pin_1*%
%TO.N,unconnected-(J5-Pad1)*%
X184167500Y-66294000D03*
D17*
%TO.P,J5,2,Pin_2*%
%TO.N,/RS232_RX*%
X186707500Y-66294000D03*
%TO.P,J5,3,Pin_3*%
%TO.N,/RS232_TX*%
X184167500Y-63754000D03*
%TO.P,J5,4,Pin_4*%
%TO.N,unconnected-(J5-Pad4)*%
X186707500Y-63754000D03*
%TO.P,J5,5,Pin_5*%
%TO.N,GND*%
X184167500Y-61214000D03*
%TO.P,J5,6,Pin_6*%
%TO.N,unconnected-(J5-Pad6)*%
X186707500Y-61214000D03*
%TO.P,J5,7,Pin_7*%
%TO.N,/RS232_RTS*%
X184167500Y-58674000D03*
%TO.P,J5,8,Pin_8*%
%TO.N,/RS232_CTS*%
X186707500Y-58674000D03*
%TO.P,J5,9,Pin_9*%
%TO.N,unconnected-(J5-Pad9)*%
X184167500Y-56134000D03*
%TO.P,J5,10,Pin_10*%
%TO.N,unconnected-(J5-Pad10)*%
X186707500Y-56134000D03*
%TD*%
D19*
%TO.N,GND*%
X185801000Y-83185000D03*
%TO.N,/+3.3V_RUN_H*%
X176500000Y-50200000D03*
X162200000Y-55200000D03*
X165500000Y-80100000D03*
X185800000Y-75300000D03*
%TO.N,/RS232_RTS*%
X176657000Y-79694000D03*
%TO.N,/RS232_CTS*%
X175400000Y-79700000D03*
%TO.N,/I2C_0_SCL*%
X164200000Y-55200000D03*
%TO.N,/I2C_0_SDA*%
X163200000Y-55200000D03*
%TD*%
%TA.AperFunction,Conductor*%
%TO.N,GND*%
G36*
X170171746Y-48985813D02*
G01*
X170197056Y-49029650D01*
X170188266Y-49079500D01*
X170156038Y-49109291D01*
X170004209Y-49181710D01*
X170000488Y-49183755D01*
X169711026Y-49365334D01*
X169707542Y-49367810D01*
X169440863Y-49581460D01*
X169437710Y-49584299D01*
X169408097Y-49614223D01*
X169403652Y-49623887D01*
X169405288Y-49629867D01*
X171440774Y-51665353D01*
X171450413Y-51669848D01*
X171456312Y-51668267D01*
X173492450Y-49632129D01*
X173496945Y-49622490D01*
X173495684Y-49617785D01*
X173268496Y-49423749D01*
X173265098Y-49421169D01*
X172981483Y-49230588D01*
X172977818Y-49228420D01*
X172745008Y-49108258D01*
X172710680Y-49071057D01*
X172708296Y-49020494D01*
X172738970Y-48980228D01*
X172778948Y-48968500D01*
X188320500Y-48968500D01*
X188368066Y-48985813D01*
X188393376Y-49029650D01*
X188394500Y-49042500D01*
X188394500Y-83799500D01*
X188377187Y-83847066D01*
X188333350Y-83872376D01*
X188320500Y-83873500D01*
X155849500Y-83873500D01*
X155801934Y-83856187D01*
X155776624Y-83812350D01*
X155775500Y-83799500D01*
X155775500Y-81566538D01*
X169405027Y-81566538D01*
X169406407Y-81571685D01*
X169557265Y-81708956D01*
X169560571Y-81711634D01*
X169838059Y-81911029D01*
X169841662Y-81913315D01*
X170140224Y-82079493D01*
X170144073Y-82081354D01*
X170459754Y-82212112D01*
X170463780Y-82213514D01*
X170792406Y-82307127D01*
X170796573Y-82308058D01*
X171133780Y-82363278D01*
X171138008Y-82363722D01*
X171479343Y-82379819D01*
X171483591Y-82379774D01*
X171824518Y-82356532D01*
X171828727Y-82356001D01*
X172164711Y-82293730D01*
X172168854Y-82292712D01*
X172495452Y-82192237D01*
X172499441Y-82190753D01*
X172812321Y-82053409D01*
X172816129Y-82051469D01*
X173111147Y-81879074D01*
X173114689Y-81876720D01*
X173387952Y-81671550D01*
X173391200Y-81668804D01*
X173490093Y-81574959D01*
X173494838Y-81565441D01*
X173493517Y-81559938D01*
X171459226Y-79525647D01*
X171449587Y-79521152D01*
X171443688Y-79522733D01*
X169409522Y-81556899D01*
X169405027Y-81566538D01*
X155775500Y-81566538D01*
X155775500Y-80100000D01*
X165094508Y-80100000D01*
X165095419Y-80105752D01*
X165113442Y-80219549D01*
X165113443Y-80219552D01*
X165114354Y-80225304D01*
X165116999Y-80230495D01*
X165117000Y-80230498D01*
X165169304Y-80333150D01*
X165169306Y-80333152D01*
X165171950Y-80338342D01*
X165261658Y-80428050D01*
X165266848Y-80430694D01*
X165266850Y-80430696D01*
X165369502Y-80483000D01*
X165369505Y-80483001D01*
X165374696Y-80485646D01*
X165380448Y-80486557D01*
X165380451Y-80486558D01*
X165494248Y-80504581D01*
X165500000Y-80505492D01*
X165505752Y-80504581D01*
X165619549Y-80486558D01*
X165619552Y-80486557D01*
X165625304Y-80485646D01*
X165630495Y-80483001D01*
X165630498Y-80483000D01*
X165733150Y-80430696D01*
X165733152Y-80430694D01*
X165738342Y-80428050D01*
X165828050Y-80338342D01*
X165830694Y-80333152D01*
X165830696Y-80333150D01*
X165883000Y-80230498D01*
X165883001Y-80230495D01*
X165885646Y-80225304D01*
X165886557Y-80219552D01*
X165886558Y-80219549D01*
X165904581Y-80105752D01*
X165905492Y-80100000D01*
X165903219Y-80085646D01*
X165886558Y-79980451D01*
X165886557Y-79980448D01*
X165885646Y-79974696D01*
X165883000Y-79969502D01*
X165830696Y-79866850D01*
X165830694Y-79866848D01*
X165828050Y-79861658D01*
X165738342Y-79771950D01*
X165733152Y-79769306D01*
X165733150Y-79769304D01*
X165630498Y-79717000D01*
X165630495Y-79716999D01*
X165625304Y-79714354D01*
X165619552Y-79713443D01*
X165619549Y-79713442D01*
X165505752Y-79695419D01*
X165500000Y-79694508D01*
X165494248Y-79695419D01*
X165380451Y-79713442D01*
X165380448Y-79713443D01*
X165374696Y-79714354D01*
X165369505Y-79716999D01*
X165369502Y-79717000D01*
X165266850Y-79769304D01*
X165266848Y-79769306D01*
X165261658Y-79771950D01*
X165171950Y-79861658D01*
X165169306Y-79866848D01*
X165169304Y-79866850D01*
X165117000Y-79969502D01*
X165114354Y-79974696D01*
X165113443Y-79980448D01*
X165113442Y-79980451D01*
X165096781Y-80085646D01*
X165094508Y-80100000D01*
X155775500Y-80100000D01*
X155775500Y-79282728D01*
X168446455Y-79282728D01*
X168455400Y-79624341D01*
X168455754Y-79628557D01*
X168503903Y-79966868D01*
X168504744Y-79971039D01*
X168591453Y-80301556D01*
X168592771Y-80305614D01*
X168716894Y-80623971D01*
X168718666Y-80627842D01*
X168878563Y-80929833D01*
X168880768Y-80933475D01*
X169074313Y-81215083D01*
X169076913Y-81218436D01*
X169249217Y-81415951D01*
X169258530Y-81421092D01*
X169263453Y-81420126D01*
X171299353Y-79384226D01*
X171303463Y-79375413D01*
X171596152Y-79375413D01*
X171597733Y-79381312D01*
X173634998Y-81418577D01*
X173644637Y-81423072D01*
X173649203Y-81421848D01*
X173861160Y-81168349D01*
X173863706Y-81164922D01*
X174051312Y-80879318D01*
X174053436Y-80875639D01*
X174206967Y-80570377D01*
X174208665Y-80566454D01*
X174326091Y-80245573D01*
X174327326Y-80241483D01*
X174407091Y-79909233D01*
X174407846Y-79905036D01*
X174432658Y-79700000D01*
X174994508Y-79700000D01*
X174995419Y-79705752D01*
X175013442Y-79819549D01*
X175013443Y-79819552D01*
X175014354Y-79825304D01*
X175016999Y-79830495D01*
X175017000Y-79830498D01*
X175069304Y-79933150D01*
X175069306Y-79933152D01*
X175071950Y-79938342D01*
X175161658Y-80028050D01*
X175166848Y-80030694D01*
X175166850Y-80030696D01*
X175269502Y-80083000D01*
X175269505Y-80083001D01*
X175274696Y-80085646D01*
X175280448Y-80086557D01*
X175280451Y-80086558D01*
X175394248Y-80104581D01*
X175400000Y-80105492D01*
X175405752Y-80104581D01*
X175519549Y-80086558D01*
X175519552Y-80086557D01*
X175525304Y-80085646D01*
X175530495Y-80083001D01*
X175530498Y-80083000D01*
X175633150Y-80030696D01*
X175633152Y-80030694D01*
X175638342Y-80028050D01*
X175728050Y-79938342D01*
X175730694Y-79933152D01*
X175730696Y-79933150D01*
X175783000Y-79830498D01*
X175783001Y-79830495D01*
X175785646Y-79825304D01*
X175786557Y-79819552D01*
X175786558Y-79819549D01*
X175804581Y-79705752D01*
X175805492Y-79700000D01*
X175804542Y-79694000D01*
X176251508Y-79694000D01*
X176252419Y-79699752D01*
X176270442Y-79813549D01*
X176270443Y-79813552D01*
X176271354Y-79819304D01*
X176273999Y-79824495D01*
X176274000Y-79824498D01*
X176326304Y-79927150D01*
X176326306Y-79927152D01*
X176328950Y-79932342D01*
X176418658Y-80022050D01*
X176423848Y-80024694D01*
X176423850Y-80024696D01*
X176526502Y-80077000D01*
X176526505Y-80077001D01*
X176531696Y-80079646D01*
X176537448Y-80080557D01*
X176537451Y-80080558D01*
X176651248Y-80098581D01*
X176657000Y-80099492D01*
X176662752Y-80098581D01*
X176776549Y-80080558D01*
X176776552Y-80080557D01*
X176782304Y-80079646D01*
X176787495Y-80077001D01*
X176787498Y-80077000D01*
X176890150Y-80024696D01*
X176890152Y-80024694D01*
X176895342Y-80022050D01*
X176985050Y-79932342D01*
X176987694Y-79927152D01*
X176987696Y-79927150D01*
X177040000Y-79824498D01*
X177040001Y-79824495D01*
X177042646Y-79819304D01*
X177043557Y-79813552D01*
X177043558Y-79813549D01*
X177061581Y-79699752D01*
X177062492Y-79694000D01*
X177052127Y-79628557D01*
X177043558Y-79574451D01*
X177043557Y-79574448D01*
X177042646Y-79568696D01*
X177039255Y-79562040D01*
X176987696Y-79460850D01*
X176987694Y-79460848D01*
X176985050Y-79455658D01*
X176895342Y-79365950D01*
X176890152Y-79363306D01*
X176890150Y-79363304D01*
X176787498Y-79311000D01*
X176787495Y-79310999D01*
X176782304Y-79308354D01*
X176776552Y-79307443D01*
X176776549Y-79307442D01*
X176662752Y-79289419D01*
X176657000Y-79288508D01*
X176651248Y-79289419D01*
X176537451Y-79307442D01*
X176537448Y-79307443D01*
X176531696Y-79308354D01*
X176526505Y-79310999D01*
X176526502Y-79311000D01*
X176423850Y-79363304D01*
X176423848Y-79363306D01*
X176418658Y-79365950D01*
X176328950Y-79455658D01*
X176326306Y-79460848D01*
X176326304Y-79460850D01*
X176274745Y-79562040D01*
X176271354Y-79568696D01*
X176270443Y-79574448D01*
X176270442Y-79574451D01*
X176261873Y-79628557D01*
X176251508Y-79694000D01*
X175804542Y-79694000D01*
X175793509Y-79624341D01*
X175786558Y-79580451D01*
X175786557Y-79580448D01*
X175785646Y-79574696D01*
X175782589Y-79568696D01*
X175730696Y-79466850D01*
X175730694Y-79466848D01*
X175728050Y-79461658D01*
X175638342Y-79371950D01*
X175633152Y-79369306D01*
X175633150Y-79369304D01*
X175530498Y-79317000D01*
X175530495Y-79316999D01*
X175525304Y-79314354D01*
X175519552Y-79313443D01*
X175519549Y-79313442D01*
X175405752Y-79295419D01*
X175400000Y-79294508D01*
X175394248Y-79295419D01*
X175280451Y-79313442D01*
X175280448Y-79313443D01*
X175274696Y-79314354D01*
X175269505Y-79316999D01*
X175269502Y-79317000D01*
X175166850Y-79369304D01*
X175166848Y-79369306D01*
X175161658Y-79371950D01*
X175071950Y-79461658D01*
X175069306Y-79466848D01*
X175069304Y-79466850D01*
X175017411Y-79568696D01*
X175014354Y-79574696D01*
X175013443Y-79580448D01*
X175013442Y-79580451D01*
X175006491Y-79624341D01*
X174994508Y-79700000D01*
X174432658Y-79700000D01*
X174448956Y-79565325D01*
X174449206Y-79562040D01*
X174455032Y-79376663D01*
X174454988Y-79373341D01*
X174435292Y-79031740D01*
X174434801Y-79027498D01*
X174376051Y-78690876D01*
X174375084Y-78686754D01*
X174278030Y-78359103D01*
X174276591Y-78355108D01*
X174142526Y-78040796D01*
X174140632Y-78036982D01*
X173971331Y-77740164D01*
X173969015Y-77736598D01*
X173766718Y-77461204D01*
X173764003Y-77457923D01*
X173649817Y-77335044D01*
X173640348Y-77330198D01*
X173634997Y-77331424D01*
X171600647Y-79365774D01*
X171596152Y-79375413D01*
X171303463Y-79375413D01*
X171303848Y-79374587D01*
X171302267Y-79368688D01*
X169267465Y-77333886D01*
X169257826Y-77329391D01*
X169252016Y-77330948D01*
X169197348Y-77386191D01*
X169194540Y-77389377D01*
X168983691Y-77658283D01*
X168981265Y-77661775D01*
X168802726Y-77953121D01*
X168800709Y-77956883D01*
X168656842Y-78266820D01*
X168655273Y-78270785D01*
X168547982Y-78595200D01*
X168546879Y-78599317D01*
X168477589Y-78933907D01*
X168476964Y-78938141D01*
X168446588Y-79278492D01*
X168446455Y-79282728D01*
X155775500Y-79282728D01*
X155775500Y-77182887D01*
X169403652Y-77182887D01*
X169405288Y-77188867D01*
X171440774Y-79224353D01*
X171450413Y-79228848D01*
X171456312Y-79227267D01*
X173492450Y-77191129D01*
X173496945Y-77181490D01*
X173495684Y-77176785D01*
X173268496Y-76982749D01*
X173265098Y-76980169D01*
X172981483Y-76789588D01*
X172977818Y-76787420D01*
X172674168Y-76630695D01*
X172670287Y-76628966D01*
X172350637Y-76508181D01*
X172346572Y-76506908D01*
X172015164Y-76423663D01*
X172010989Y-76422866D01*
X171672195Y-76378263D01*
X171667962Y-76377953D01*
X171326290Y-76372585D01*
X171322038Y-76372764D01*
X170982016Y-76406703D01*
X170977821Y-76407368D01*
X170643957Y-76480162D01*
X170639856Y-76481306D01*
X170316585Y-76591987D01*
X170312622Y-76593604D01*
X170004209Y-76740709D01*
X170000488Y-76742755D01*
X169711026Y-76924334D01*
X169707542Y-76926810D01*
X169440863Y-77140460D01*
X169437710Y-77143299D01*
X169408097Y-77173223D01*
X169403652Y-77182887D01*
X155775500Y-77182887D01*
X155775500Y-75300000D01*
X185394508Y-75300000D01*
X185395419Y-75305752D01*
X185413442Y-75419549D01*
X185413443Y-75419552D01*
X185414354Y-75425304D01*
X185416999Y-75430495D01*
X185417000Y-75430498D01*
X185469304Y-75533150D01*
X185469306Y-75533152D01*
X185471950Y-75538342D01*
X185561658Y-75628050D01*
X185566848Y-75630694D01*
X185566850Y-75630696D01*
X185669502Y-75683000D01*
X185669505Y-75683001D01*
X185674696Y-75685646D01*
X185680448Y-75686557D01*
X185680451Y-75686558D01*
X185794248Y-75704581D01*
X185800000Y-75705492D01*
X185805752Y-75704581D01*
X185919549Y-75686558D01*
X185919552Y-75686557D01*
X185925304Y-75685646D01*
X185930495Y-75683001D01*
X185930498Y-75683000D01*
X186033150Y-75630696D01*
X186033152Y-75630694D01*
X186038342Y-75628050D01*
X186128050Y-75538342D01*
X186130694Y-75533152D01*
X186130696Y-75533150D01*
X186183000Y-75430498D01*
X186183001Y-75430495D01*
X186185646Y-75425304D01*
X186186557Y-75419552D01*
X186186558Y-75419549D01*
X186204581Y-75305752D01*
X186205492Y-75300000D01*
X186204581Y-75294248D01*
X186186558Y-75180451D01*
X186186557Y-75180448D01*
X186185646Y-75174696D01*
X186183000Y-75169502D01*
X186130696Y-75066850D01*
X186130694Y-75066848D01*
X186128050Y-75061658D01*
X186038342Y-74971950D01*
X186033152Y-74969306D01*
X186033150Y-74969304D01*
X185930498Y-74917000D01*
X185930495Y-74916999D01*
X185925304Y-74914354D01*
X185919552Y-74913443D01*
X185919549Y-74913442D01*
X185805752Y-74895419D01*
X185800000Y-74894508D01*
X185794248Y-74895419D01*
X185680451Y-74913442D01*
X185680448Y-74913443D01*
X185674696Y-74914354D01*
X185669505Y-74916999D01*
X185669502Y-74917000D01*
X185566850Y-74969304D01*
X185566848Y-74969306D01*
X185561658Y-74971950D01*
X185471950Y-75061658D01*
X185469306Y-75066848D01*
X185469304Y-75066850D01*
X185417000Y-75169502D01*
X185414354Y-75174696D01*
X185413443Y-75180448D01*
X185413442Y-75180451D01*
X185395419Y-75294248D01*
X185394508Y-75300000D01*
X155775500Y-75300000D01*
X155775500Y-73645262D01*
X156424520Y-73645262D01*
X156424823Y-73648871D01*
X156424823Y-73648873D01*
X156428404Y-73691519D01*
X156441759Y-73850553D01*
X156498544Y-74048586D01*
X156500196Y-74051800D01*
X156500197Y-74051803D01*
X156521001Y-74092283D01*
X156592712Y-74231818D01*
X156720677Y-74393270D01*
X156723430Y-74395613D01*
X156723433Y-74395616D01*
X156754062Y-74421683D01*
X156877564Y-74526791D01*
X156923508Y-74552468D01*
X157054239Y-74625532D01*
X157054243Y-74625534D01*
X157057398Y-74627297D01*
X157060834Y-74628414D01*
X157060840Y-74628416D01*
X157185256Y-74668841D01*
X157253329Y-74690959D01*
X157303590Y-74696952D01*
X157454294Y-74714922D01*
X157454297Y-74714922D01*
X157457894Y-74715351D01*
X157527437Y-74710000D01*
X157659689Y-74699824D01*
X157659691Y-74699824D01*
X157663300Y-74699546D01*
X157861725Y-74644145D01*
X157893776Y-74627955D01*
X158042376Y-74552892D01*
X158042379Y-74552890D01*
X158045610Y-74551258D01*
X158207951Y-74424424D01*
X158232817Y-74395616D01*
X158340201Y-74271210D01*
X158340203Y-74271208D01*
X158342564Y-74268472D01*
X158344347Y-74265333D01*
X158344350Y-74265329D01*
X158393443Y-74178908D01*
X158444323Y-74089344D01*
X158456812Y-74051803D01*
X158508208Y-73897299D01*
X158509351Y-73893863D01*
X158509820Y-73890155D01*
X158534913Y-73691519D01*
X158534913Y-73691513D01*
X158535171Y-73689474D01*
X158535583Y-73660000D01*
X158534138Y-73645262D01*
X158964520Y-73645262D01*
X158964823Y-73648871D01*
X158964823Y-73648873D01*
X158968404Y-73691519D01*
X158981759Y-73850553D01*
X159038544Y-74048586D01*
X159040196Y-74051800D01*
X159040197Y-74051803D01*
X159061001Y-74092283D01*
X159132712Y-74231818D01*
X159260677Y-74393270D01*
X159263430Y-74395613D01*
X159263433Y-74395616D01*
X159294062Y-74421683D01*
X159417564Y-74526791D01*
X159463508Y-74552468D01*
X159594239Y-74625532D01*
X159594243Y-74625534D01*
X159597398Y-74627297D01*
X159600834Y-74628414D01*
X159600840Y-74628416D01*
X159725256Y-74668841D01*
X159793329Y-74690959D01*
X159843590Y-74696952D01*
X159994294Y-74714922D01*
X159994297Y-74714922D01*
X159997894Y-74715351D01*
X160067437Y-74710000D01*
X160199689Y-74699824D01*
X160199691Y-74699824D01*
X160203300Y-74699546D01*
X160401725Y-74644145D01*
X160433776Y-74627955D01*
X160582376Y-74552892D01*
X160582379Y-74552890D01*
X160585610Y-74551258D01*
X160747951Y-74424424D01*
X160772817Y-74395616D01*
X160880201Y-74271210D01*
X160880203Y-74271208D01*
X160882564Y-74268472D01*
X160884347Y-74265333D01*
X160884350Y-74265329D01*
X160933443Y-74178908D01*
X160984323Y-74089344D01*
X160996812Y-74051803D01*
X161048208Y-73897299D01*
X161049351Y-73893863D01*
X161049820Y-73890155D01*
X161065278Y-73767792D01*
X161515310Y-73767792D01*
X161521949Y-73846855D01*
X161523250Y-73853942D01*
X161578013Y-74044922D01*
X161580663Y-74051617D01*
X161671479Y-74228326D01*
X161675384Y-74234384D01*
X161798789Y-74390083D01*
X161803794Y-74395267D01*
X161955094Y-74524032D01*
X161961013Y-74528146D01*
X162134440Y-74625072D01*
X162141041Y-74627955D01*
X162329991Y-74689348D01*
X162337036Y-74690897D01*
X162447043Y-74704015D01*
X162457400Y-74701586D01*
X162460000Y-74698111D01*
X162460000Y-74692407D01*
X162660000Y-74692407D01*
X162663638Y-74702403D01*
X162667875Y-74704849D01*
X162739602Y-74699330D01*
X162746701Y-74698078D01*
X162938062Y-74644649D01*
X162944770Y-74642047D01*
X163122107Y-74552468D01*
X163128195Y-74548604D01*
X163284751Y-74426289D01*
X163289970Y-74421319D01*
X163419791Y-74270920D01*
X163423939Y-74265040D01*
X163522078Y-74092283D01*
X163525006Y-74085708D01*
X163587719Y-73897189D01*
X163589316Y-73890155D01*
X163604124Y-73772946D01*
X163601767Y-73762573D01*
X163598377Y-73760000D01*
X162673048Y-73760000D01*
X162663052Y-73763638D01*
X162660000Y-73768925D01*
X162660000Y-74692407D01*
X162460000Y-74692407D01*
X162460000Y-73773048D01*
X162456362Y-73763052D01*
X162451075Y-73760000D01*
X161527704Y-73760000D01*
X161517708Y-73763638D01*
X161515310Y-73767792D01*
X161065278Y-73767792D01*
X161074913Y-73691519D01*
X161074913Y-73691513D01*
X161075171Y-73689474D01*
X161075583Y-73660000D01*
X161074138Y-73645262D01*
X164044520Y-73645262D01*
X164044823Y-73648871D01*
X164044823Y-73648873D01*
X164048404Y-73691519D01*
X164061759Y-73850553D01*
X164118544Y-74048586D01*
X164120196Y-74051800D01*
X164120197Y-74051803D01*
X164141001Y-74092283D01*
X164212712Y-74231818D01*
X164340677Y-74393270D01*
X164343430Y-74395613D01*
X164343433Y-74395616D01*
X164374062Y-74421683D01*
X164497564Y-74526791D01*
X164543508Y-74552468D01*
X164674239Y-74625532D01*
X164674243Y-74625534D01*
X164677398Y-74627297D01*
X164680834Y-74628414D01*
X164680840Y-74628416D01*
X164805256Y-74668841D01*
X164873329Y-74690959D01*
X164923590Y-74696952D01*
X165074294Y-74714922D01*
X165074297Y-74714922D01*
X165077894Y-74715351D01*
X165147437Y-74710000D01*
X165279689Y-74699824D01*
X165279691Y-74699824D01*
X165283300Y-74699546D01*
X165481725Y-74644145D01*
X165513776Y-74627955D01*
X165662376Y-74552892D01*
X165662379Y-74552890D01*
X165665610Y-74551258D01*
X165827951Y-74424424D01*
X165852817Y-74395616D01*
X165960201Y-74271210D01*
X165960203Y-74271208D01*
X165962564Y-74268472D01*
X165964347Y-74265333D01*
X165964350Y-74265329D01*
X166013443Y-74178908D01*
X166064323Y-74089344D01*
X166076812Y-74051803D01*
X166128208Y-73897299D01*
X166129351Y-73893863D01*
X166129820Y-73890155D01*
X166154913Y-73691519D01*
X166154913Y-73691513D01*
X166155171Y-73689474D01*
X166155583Y-73660000D01*
X166154138Y-73645262D01*
X166584520Y-73645262D01*
X166584823Y-73648871D01*
X166584823Y-73648873D01*
X166588404Y-73691519D01*
X166601759Y-73850553D01*
X166658544Y-74048586D01*
X166660196Y-74051800D01*
X166660197Y-74051803D01*
X166681001Y-74092283D01*
X166752712Y-74231818D01*
X166880677Y-74393270D01*
X166883430Y-74395613D01*
X166883433Y-74395616D01*
X166914062Y-74421683D01*
X167037564Y-74526791D01*
X167083508Y-74552468D01*
X167214239Y-74625532D01*
X167214243Y-74625534D01*
X167217398Y-74627297D01*
X167220834Y-74628414D01*
X167220840Y-74628416D01*
X167345256Y-74668841D01*
X167413329Y-74690959D01*
X167463590Y-74696952D01*
X167614294Y-74714922D01*
X167614297Y-74714922D01*
X167617894Y-74715351D01*
X167687437Y-74710000D01*
X167819689Y-74699824D01*
X167819691Y-74699824D01*
X167823300Y-74699546D01*
X168021725Y-74644145D01*
X168053776Y-74627955D01*
X168202376Y-74552892D01*
X168202379Y-74552890D01*
X168205610Y-74551258D01*
X168367951Y-74424424D01*
X168392817Y-74395616D01*
X168500201Y-74271210D01*
X168500203Y-74271208D01*
X168502564Y-74268472D01*
X168504347Y-74265333D01*
X168504350Y-74265329D01*
X168553443Y-74178908D01*
X168604323Y-74089344D01*
X168616812Y-74051803D01*
X168668208Y-73897299D01*
X168669351Y-73893863D01*
X168669820Y-73890155D01*
X168694913Y-73691519D01*
X168694913Y-73691513D01*
X168695171Y-73689474D01*
X168695583Y-73660000D01*
X168694138Y-73645262D01*
X169124520Y-73645262D01*
X169124823Y-73648871D01*
X169124823Y-73648873D01*
X169128404Y-73691519D01*
X169141759Y-73850553D01*
X169198544Y-74048586D01*
X169200196Y-74051800D01*
X169200197Y-74051803D01*
X169221001Y-74092283D01*
X169292712Y-74231818D01*
X169420677Y-74393270D01*
X169423430Y-74395613D01*
X169423433Y-74395616D01*
X169454062Y-74421683D01*
X169577564Y-74526791D01*
X169623508Y-74552468D01*
X169754239Y-74625532D01*
X169754243Y-74625534D01*
X169757398Y-74627297D01*
X169760834Y-74628414D01*
X169760840Y-74628416D01*
X169885256Y-74668841D01*
X169953329Y-74690959D01*
X170003590Y-74696952D01*
X170154294Y-74714922D01*
X170154297Y-74714922D01*
X170157894Y-74715351D01*
X170227437Y-74710000D01*
X170359689Y-74699824D01*
X170359691Y-74699824D01*
X170363300Y-74699546D01*
X170561725Y-74644145D01*
X170593776Y-74627955D01*
X170742376Y-74552892D01*
X170742379Y-74552890D01*
X170745610Y-74551258D01*
X170907951Y-74424424D01*
X170932817Y-74395616D01*
X171040201Y-74271210D01*
X171040203Y-74271208D01*
X171042564Y-74268472D01*
X171044347Y-74265333D01*
X171044350Y-74265329D01*
X171093443Y-74178908D01*
X171144323Y-74089344D01*
X171156812Y-74051803D01*
X171208208Y-73897299D01*
X171209351Y-73893863D01*
X171209820Y-73890155D01*
X171225278Y-73767792D01*
X171675310Y-73767792D01*
X171681949Y-73846855D01*
X171683250Y-73853942D01*
X171738013Y-74044922D01*
X171740663Y-74051617D01*
X171831479Y-74228326D01*
X171835384Y-74234384D01*
X171958789Y-74390083D01*
X171963794Y-74395267D01*
X172115094Y-74524032D01*
X172121013Y-74528146D01*
X172294440Y-74625072D01*
X172301041Y-74627955D01*
X172489991Y-74689348D01*
X172497036Y-74690897D01*
X172607043Y-74704015D01*
X172617400Y-74701586D01*
X172620000Y-74698111D01*
X172620000Y-74692407D01*
X172820000Y-74692407D01*
X172823638Y-74702403D01*
X172827875Y-74704849D01*
X172899602Y-74699330D01*
X172906701Y-74698078D01*
X173098062Y-74644649D01*
X173104770Y-74642047D01*
X173282107Y-74552468D01*
X173288195Y-74548604D01*
X173444751Y-74426289D01*
X173449970Y-74421319D01*
X173579791Y-74270920D01*
X173583939Y-74265040D01*
X173682078Y-74092283D01*
X173685006Y-74085708D01*
X173747719Y-73897189D01*
X173749316Y-73890155D01*
X173764124Y-73772946D01*
X173761767Y-73762573D01*
X173758377Y-73760000D01*
X172833048Y-73760000D01*
X172823052Y-73763638D01*
X172820000Y-73768925D01*
X172820000Y-74692407D01*
X172620000Y-74692407D01*
X172620000Y-73773048D01*
X172616362Y-73763052D01*
X172611075Y-73760000D01*
X171687704Y-73760000D01*
X171677708Y-73763638D01*
X171675310Y-73767792D01*
X171225278Y-73767792D01*
X171234913Y-73691519D01*
X171234913Y-73691513D01*
X171235171Y-73689474D01*
X171235583Y-73660000D01*
X171234138Y-73645262D01*
X174204520Y-73645262D01*
X174204823Y-73648871D01*
X174204823Y-73648873D01*
X174208404Y-73691519D01*
X174221759Y-73850553D01*
X174278544Y-74048586D01*
X174280196Y-74051800D01*
X174280197Y-74051803D01*
X174301001Y-74092283D01*
X174372712Y-74231818D01*
X174500677Y-74393270D01*
X174503430Y-74395613D01*
X174503433Y-74395616D01*
X174534062Y-74421683D01*
X174657564Y-74526791D01*
X174703508Y-74552468D01*
X174834239Y-74625532D01*
X174834243Y-74625534D01*
X174837398Y-74627297D01*
X174840834Y-74628414D01*
X174840840Y-74628416D01*
X174965256Y-74668841D01*
X175033329Y-74690959D01*
X175083590Y-74696952D01*
X175234294Y-74714922D01*
X175234297Y-74714922D01*
X175237894Y-74715351D01*
X175307437Y-74710000D01*
X175439689Y-74699824D01*
X175439691Y-74699824D01*
X175443300Y-74699546D01*
X175641725Y-74644145D01*
X175673776Y-74627955D01*
X175822376Y-74552892D01*
X175822379Y-74552890D01*
X175825610Y-74551258D01*
X175987951Y-74424424D01*
X176012817Y-74395616D01*
X176120201Y-74271210D01*
X176120203Y-74271208D01*
X176122564Y-74268472D01*
X176124347Y-74265333D01*
X176124350Y-74265329D01*
X176173443Y-74178908D01*
X176224323Y-74089344D01*
X176236812Y-74051803D01*
X176288208Y-73897299D01*
X176289351Y-73893863D01*
X176289820Y-73890155D01*
X176314913Y-73691519D01*
X176314913Y-73691513D01*
X176315171Y-73689474D01*
X176315583Y-73660000D01*
X176314138Y-73645262D01*
X176744520Y-73645262D01*
X176744823Y-73648871D01*
X176744823Y-73648873D01*
X176748404Y-73691519D01*
X176761759Y-73850553D01*
X176818544Y-74048586D01*
X176820196Y-74051800D01*
X176820197Y-74051803D01*
X176841001Y-74092283D01*
X176912712Y-74231818D01*
X177040677Y-74393270D01*
X177043430Y-74395613D01*
X177043433Y-74395616D01*
X177074062Y-74421683D01*
X177197564Y-74526791D01*
X177243508Y-74552468D01*
X177374239Y-74625532D01*
X177374243Y-74625534D01*
X177377398Y-74627297D01*
X177380834Y-74628414D01*
X177380840Y-74628416D01*
X177505256Y-74668841D01*
X177573329Y-74690959D01*
X177623590Y-74696952D01*
X177774294Y-74714922D01*
X177774297Y-74714922D01*
X177777894Y-74715351D01*
X177847437Y-74710000D01*
X177979689Y-74699824D01*
X177979691Y-74699824D01*
X177983300Y-74699546D01*
X178181725Y-74644145D01*
X178213776Y-74627955D01*
X178362376Y-74552892D01*
X178362379Y-74552890D01*
X178365610Y-74551258D01*
X178527951Y-74424424D01*
X178552817Y-74395616D01*
X178660201Y-74271210D01*
X178660203Y-74271208D01*
X178662564Y-74268472D01*
X178664347Y-74265333D01*
X178664350Y-74265329D01*
X178713443Y-74178908D01*
X178764323Y-74089344D01*
X178776812Y-74051803D01*
X178828208Y-73897299D01*
X178829351Y-73893863D01*
X178829820Y-73890155D01*
X178854913Y-73691519D01*
X178854913Y-73691513D01*
X178855171Y-73689474D01*
X178855583Y-73660000D01*
X178854138Y-73645262D01*
X179284520Y-73645262D01*
X179284823Y-73648871D01*
X179284823Y-73648873D01*
X179288404Y-73691519D01*
X179301759Y-73850553D01*
X179358544Y-74048586D01*
X179360196Y-74051800D01*
X179360197Y-74051803D01*
X179381001Y-74092283D01*
X179452712Y-74231818D01*
X179580677Y-74393270D01*
X179583430Y-74395613D01*
X179583433Y-74395616D01*
X179614062Y-74421683D01*
X179737564Y-74526791D01*
X179783508Y-74552468D01*
X179914239Y-74625532D01*
X179914243Y-74625534D01*
X179917398Y-74627297D01*
X179920834Y-74628414D01*
X179920840Y-74628416D01*
X180045256Y-74668841D01*
X180113329Y-74690959D01*
X180163590Y-74696952D01*
X180314294Y-74714922D01*
X180314297Y-74714922D01*
X180317894Y-74715351D01*
X180387437Y-74710000D01*
X180519689Y-74699824D01*
X180519691Y-74699824D01*
X180523300Y-74699546D01*
X180721725Y-74644145D01*
X180753776Y-74627955D01*
X180902376Y-74552892D01*
X180902379Y-74552890D01*
X180905610Y-74551258D01*
X181067951Y-74424424D01*
X181092817Y-74395616D01*
X181200201Y-74271210D01*
X181200203Y-74271208D01*
X181202564Y-74268472D01*
X181204347Y-74265333D01*
X181204350Y-74265329D01*
X181253443Y-74178908D01*
X181304323Y-74089344D01*
X181316812Y-74051803D01*
X181368208Y-73897299D01*
X181369351Y-73893863D01*
X181369820Y-73890155D01*
X181394913Y-73691519D01*
X181394913Y-73691513D01*
X181395171Y-73689474D01*
X181395583Y-73660000D01*
X181394138Y-73645262D01*
X181824520Y-73645262D01*
X181824823Y-73648871D01*
X181824823Y-73648873D01*
X181828404Y-73691519D01*
X181841759Y-73850553D01*
X181898544Y-74048586D01*
X181900196Y-74051800D01*
X181900197Y-74051803D01*
X181921001Y-74092283D01*
X181992712Y-74231818D01*
X182120677Y-74393270D01*
X182123430Y-74395613D01*
X182123433Y-74395616D01*
X182154062Y-74421683D01*
X182277564Y-74526791D01*
X182323508Y-74552468D01*
X182454239Y-74625532D01*
X182454243Y-74625534D01*
X182457398Y-74627297D01*
X182460834Y-74628414D01*
X182460840Y-74628416D01*
X182585256Y-74668841D01*
X182653329Y-74690959D01*
X182703590Y-74696952D01*
X182854294Y-74714922D01*
X182854297Y-74714922D01*
X182857894Y-74715351D01*
X182927437Y-74710000D01*
X183059689Y-74699824D01*
X183059691Y-74699824D01*
X183063300Y-74699546D01*
X183261725Y-74644145D01*
X183293776Y-74627955D01*
X183442376Y-74552892D01*
X183442379Y-74552890D01*
X183445610Y-74551258D01*
X183477865Y-74526058D01*
X184370000Y-74526058D01*
X184370710Y-74533268D01*
X184380182Y-74580890D01*
X184385652Y-74594094D01*
X184421759Y-74648132D01*
X184431868Y-74658241D01*
X184485906Y-74694348D01*
X184499110Y-74699818D01*
X184546732Y-74709290D01*
X184553942Y-74710000D01*
X185306952Y-74710000D01*
X185316948Y-74706362D01*
X185320000Y-74701075D01*
X185320000Y-74696952D01*
X185520000Y-74696952D01*
X185523638Y-74706948D01*
X185528925Y-74710000D01*
X186286058Y-74710000D01*
X186293268Y-74709290D01*
X186340890Y-74699818D01*
X186354094Y-74694348D01*
X186408132Y-74658241D01*
X186418241Y-74648132D01*
X186454348Y-74594094D01*
X186459818Y-74580890D01*
X186469290Y-74533268D01*
X186470000Y-74526058D01*
X186470000Y-73773048D01*
X186466362Y-73763052D01*
X186461075Y-73760000D01*
X185533048Y-73760000D01*
X185523052Y-73763638D01*
X185520000Y-73768925D01*
X185520000Y-74696952D01*
X185320000Y-74696952D01*
X185320000Y-73773048D01*
X185316362Y-73763052D01*
X185311075Y-73760000D01*
X184383048Y-73760000D01*
X184373052Y-73763638D01*
X184370000Y-73768925D01*
X184370000Y-74526058D01*
X183477865Y-74526058D01*
X183607951Y-74424424D01*
X183632817Y-74395616D01*
X183740201Y-74271210D01*
X183740203Y-74271208D01*
X183742564Y-74268472D01*
X183744347Y-74265333D01*
X183744350Y-74265329D01*
X183793443Y-74178908D01*
X183844323Y-74089344D01*
X183856812Y-74051803D01*
X183908208Y-73897299D01*
X183909351Y-73893863D01*
X183909820Y-73890155D01*
X183934913Y-73691519D01*
X183934913Y-73691513D01*
X183935171Y-73689474D01*
X183935583Y-73660000D01*
X183925521Y-73557372D01*
X183924499Y-73546952D01*
X184370000Y-73546952D01*
X184373638Y-73556948D01*
X184378925Y-73560000D01*
X185306952Y-73560000D01*
X185316948Y-73556362D01*
X185320000Y-73551075D01*
X185320000Y-73546952D01*
X185520000Y-73546952D01*
X185523638Y-73556948D01*
X185528925Y-73560000D01*
X186456952Y-73560000D01*
X186466948Y-73556362D01*
X186470000Y-73551075D01*
X186470000Y-72793942D01*
X186469290Y-72786732D01*
X186459818Y-72739110D01*
X186454348Y-72725906D01*
X186418241Y-72671868D01*
X186408132Y-72661759D01*
X186354094Y-72625652D01*
X186340890Y-72620182D01*
X186293268Y-72610710D01*
X186286058Y-72610000D01*
X185533048Y-72610000D01*
X185523052Y-72613638D01*
X185520000Y-72618925D01*
X185520000Y-73546952D01*
X185320000Y-73546952D01*
X185320000Y-72623048D01*
X185316362Y-72613052D01*
X185311075Y-72610000D01*
X184553942Y-72610000D01*
X184546732Y-72610710D01*
X184499110Y-72620182D01*
X184485906Y-72625652D01*
X184431868Y-72661759D01*
X184421759Y-72671868D01*
X184385652Y-72725906D01*
X184380182Y-72739110D01*
X184370710Y-72786732D01*
X184370000Y-72793942D01*
X184370000Y-73546952D01*
X183924499Y-73546952D01*
X183915833Y-73458570D01*
X183915480Y-73454970D01*
X183855935Y-73257749D01*
X183759218Y-73075849D01*
X183629011Y-72916200D01*
X183470275Y-72784882D01*
X183460161Y-72779413D01*
X183292238Y-72688618D01*
X183289055Y-72686897D01*
X183285605Y-72685829D01*
X183285600Y-72685827D01*
X183160996Y-72647256D01*
X183092254Y-72625977D01*
X182887369Y-72604443D01*
X182883765Y-72604771D01*
X182883764Y-72604771D01*
X182883215Y-72604821D01*
X182682203Y-72623114D01*
X182667165Y-72627540D01*
X182488043Y-72680258D01*
X182488039Y-72680260D01*
X182484572Y-72681280D01*
X182399211Y-72725906D01*
X182305209Y-72775049D01*
X182305206Y-72775051D01*
X182302002Y-72776726D01*
X182299184Y-72778992D01*
X182299182Y-72778993D01*
X182144266Y-72903548D01*
X182144263Y-72903551D01*
X182141447Y-72905815D01*
X182139121Y-72908587D01*
X182139119Y-72908589D01*
X182011351Y-73060856D01*
X182011348Y-73060860D01*
X182009024Y-73063630D01*
X181909776Y-73244162D01*
X181847484Y-73440532D01*
X181847081Y-73444123D01*
X181847081Y-73444124D01*
X181843003Y-73480485D01*
X181824520Y-73645262D01*
X181394138Y-73645262D01*
X181385521Y-73557372D01*
X181375833Y-73458570D01*
X181375480Y-73454970D01*
X181315935Y-73257749D01*
X181219218Y-73075849D01*
X181089011Y-72916200D01*
X180930275Y-72784882D01*
X180920161Y-72779413D01*
X180752238Y-72688618D01*
X180749055Y-72686897D01*
X180745605Y-72685829D01*
X180745600Y-72685827D01*
X180620996Y-72647256D01*
X180552254Y-72625977D01*
X180347369Y-72604443D01*
X180343765Y-72604771D01*
X180343764Y-72604771D01*
X180343215Y-72604821D01*
X180142203Y-72623114D01*
X180127165Y-72627540D01*
X179948043Y-72680258D01*
X179948039Y-72680260D01*
X179944572Y-72681280D01*
X179859211Y-72725906D01*
X179765209Y-72775049D01*
X179765206Y-72775051D01*
X179762002Y-72776726D01*
X179759184Y-72778992D01*
X179759182Y-72778993D01*
X179604266Y-72903548D01*
X179604263Y-72903551D01*
X179601447Y-72905815D01*
X179599121Y-72908587D01*
X179599119Y-72908589D01*
X179471351Y-73060856D01*
X179471348Y-73060860D01*
X179469024Y-73063630D01*
X179369776Y-73244162D01*
X179307484Y-73440532D01*
X179307081Y-73444123D01*
X179307081Y-73444124D01*
X179303003Y-73480485D01*
X179284520Y-73645262D01*
X178854138Y-73645262D01*
X178845521Y-73557372D01*
X178835833Y-73458570D01*
X178835480Y-73454970D01*
X178775935Y-73257749D01*
X178679218Y-73075849D01*
X178549011Y-72916200D01*
X178390275Y-72784882D01*
X178380161Y-72779413D01*
X178212238Y-72688618D01*
X178209055Y-72686897D01*
X178205605Y-72685829D01*
X178205600Y-72685827D01*
X178080996Y-72647256D01*
X178012254Y-72625977D01*
X177807369Y-72604443D01*
X177803765Y-72604771D01*
X177803764Y-72604771D01*
X177803215Y-72604821D01*
X177602203Y-72623114D01*
X177587165Y-72627540D01*
X177408043Y-72680258D01*
X177408039Y-72680260D01*
X177404572Y-72681280D01*
X177319211Y-72725906D01*
X177225209Y-72775049D01*
X177225206Y-72775051D01*
X177222002Y-72776726D01*
X177219184Y-72778992D01*
X177219182Y-72778993D01*
X177064266Y-72903548D01*
X177064263Y-72903551D01*
X177061447Y-72905815D01*
X177059121Y-72908587D01*
X177059119Y-72908589D01*
X176931351Y-73060856D01*
X176931348Y-73060860D01*
X176929024Y-73063630D01*
X176829776Y-73244162D01*
X176767484Y-73440532D01*
X176767081Y-73444123D01*
X176767081Y-73444124D01*
X176763003Y-73480485D01*
X176744520Y-73645262D01*
X176314138Y-73645262D01*
X176305521Y-73557372D01*
X176295833Y-73458570D01*
X176295480Y-73454970D01*
X176235935Y-73257749D01*
X176139218Y-73075849D01*
X176009011Y-72916200D01*
X175850275Y-72784882D01*
X175840161Y-72779413D01*
X175672238Y-72688618D01*
X175669055Y-72686897D01*
X175665605Y-72685829D01*
X175665600Y-72685827D01*
X175540996Y-72647256D01*
X175472254Y-72625977D01*
X175267369Y-72604443D01*
X175263765Y-72604771D01*
X175263764Y-72604771D01*
X175263215Y-72604821D01*
X175062203Y-72623114D01*
X175047165Y-72627540D01*
X174868043Y-72680258D01*
X174868039Y-72680260D01*
X174864572Y-72681280D01*
X174779211Y-72725906D01*
X174685209Y-72775049D01*
X174685206Y-72775051D01*
X174682002Y-72776726D01*
X174679184Y-72778992D01*
X174679182Y-72778993D01*
X174524266Y-72903548D01*
X174524263Y-72903551D01*
X174521447Y-72905815D01*
X174519121Y-72908587D01*
X174519119Y-72908589D01*
X174391351Y-73060856D01*
X174391348Y-73060860D01*
X174389024Y-73063630D01*
X174289776Y-73244162D01*
X174227484Y-73440532D01*
X174227081Y-73444123D01*
X174227081Y-73444124D01*
X174223003Y-73480485D01*
X174204520Y-73645262D01*
X171234138Y-73645262D01*
X171225521Y-73557372D01*
X171224507Y-73547033D01*
X171676040Y-73547033D01*
X171678542Y-73557372D01*
X171682107Y-73560000D01*
X172606952Y-73560000D01*
X172616948Y-73556362D01*
X172620000Y-73551075D01*
X172620000Y-73546952D01*
X172820000Y-73546952D01*
X172823638Y-73556948D01*
X172828925Y-73560000D01*
X173752228Y-73560000D01*
X173762224Y-73556362D01*
X173764528Y-73552371D01*
X173755340Y-73458670D01*
X173753941Y-73451602D01*
X173696516Y-73261403D01*
X173693772Y-73254745D01*
X173600498Y-73079322D01*
X173596512Y-73073323D01*
X173470942Y-72919358D01*
X173465866Y-72914247D01*
X173312789Y-72787610D01*
X173306804Y-72783573D01*
X173132043Y-72689081D01*
X173125405Y-72686290D01*
X172935612Y-72627540D01*
X172928552Y-72626091D01*
X172832977Y-72616045D01*
X172822657Y-72618618D01*
X172820000Y-72622275D01*
X172820000Y-73546952D01*
X172620000Y-73546952D01*
X172620000Y-72627764D01*
X172616362Y-72617768D01*
X172612290Y-72615418D01*
X172525912Y-72623278D01*
X172518818Y-72624631D01*
X172328231Y-72680724D01*
X172321555Y-72683422D01*
X172145483Y-72775469D01*
X172139456Y-72779413D01*
X171984619Y-72903906D01*
X171979471Y-72908947D01*
X171851765Y-73061140D01*
X171847696Y-73067083D01*
X171751980Y-73241191D01*
X171749144Y-73247808D01*
X171689068Y-73437189D01*
X171687572Y-73444228D01*
X171676040Y-73547033D01*
X171224507Y-73547033D01*
X171215833Y-73458570D01*
X171215480Y-73454970D01*
X171155935Y-73257749D01*
X171059218Y-73075849D01*
X170929011Y-72916200D01*
X170770275Y-72784882D01*
X170760161Y-72779413D01*
X170592238Y-72688618D01*
X170589055Y-72686897D01*
X170585605Y-72685829D01*
X170585600Y-72685827D01*
X170460996Y-72647256D01*
X170392254Y-72625977D01*
X170187369Y-72604443D01*
X170183765Y-72604771D01*
X170183764Y-72604771D01*
X170183215Y-72604821D01*
X169982203Y-72623114D01*
X169967165Y-72627540D01*
X169788043Y-72680258D01*
X169788039Y-72680260D01*
X169784572Y-72681280D01*
X169699211Y-72725906D01*
X169605209Y-72775049D01*
X169605206Y-72775051D01*
X169602002Y-72776726D01*
X169599184Y-72778992D01*
X169599182Y-72778993D01*
X169444266Y-72903548D01*
X169444263Y-72903551D01*
X169441447Y-72905815D01*
X169439121Y-72908587D01*
X169439119Y-72908589D01*
X169311351Y-73060856D01*
X169311348Y-73060860D01*
X169309024Y-73063630D01*
X169209776Y-73244162D01*
X169147484Y-73440532D01*
X169147081Y-73444123D01*
X169147081Y-73444124D01*
X169143003Y-73480485D01*
X169124520Y-73645262D01*
X168694138Y-73645262D01*
X168685521Y-73557372D01*
X168675833Y-73458570D01*
X168675480Y-73454970D01*
X168615935Y-73257749D01*
X168519218Y-73075849D01*
X168389011Y-72916200D01*
X168230275Y-72784882D01*
X168220161Y-72779413D01*
X168052238Y-72688618D01*
X168049055Y-72686897D01*
X168045605Y-72685829D01*
X168045600Y-72685827D01*
X167920996Y-72647256D01*
X167852254Y-72625977D01*
X167647369Y-72604443D01*
X167643765Y-72604771D01*
X167643764Y-72604771D01*
X167643215Y-72604821D01*
X167442203Y-72623114D01*
X167427165Y-72627540D01*
X167248043Y-72680258D01*
X167248039Y-72680260D01*
X167244572Y-72681280D01*
X167159211Y-72725906D01*
X167065209Y-72775049D01*
X167065206Y-72775051D01*
X167062002Y-72776726D01*
X167059184Y-72778992D01*
X167059182Y-72778993D01*
X166904266Y-72903548D01*
X166904263Y-72903551D01*
X166901447Y-72905815D01*
X166899121Y-72908587D01*
X166899119Y-72908589D01*
X166771351Y-73060856D01*
X166771348Y-73060860D01*
X166769024Y-73063630D01*
X166669776Y-73244162D01*
X166607484Y-73440532D01*
X166607081Y-73444123D01*
X166607081Y-73444124D01*
X166603003Y-73480485D01*
X166584520Y-73645262D01*
X166154138Y-73645262D01*
X166145521Y-73557372D01*
X166135833Y-73458570D01*
X166135480Y-73454970D01*
X166075935Y-73257749D01*
X165979218Y-73075849D01*
X165849011Y-72916200D01*
X165690275Y-72784882D01*
X165680161Y-72779413D01*
X165512238Y-72688618D01*
X165509055Y-72686897D01*
X165505605Y-72685829D01*
X165505600Y-72685827D01*
X165380996Y-72647256D01*
X165312254Y-72625977D01*
X165107369Y-72604443D01*
X165103765Y-72604771D01*
X165103764Y-72604771D01*
X165103215Y-72604821D01*
X164902203Y-72623114D01*
X164887165Y-72627540D01*
X164708043Y-72680258D01*
X164708039Y-72680260D01*
X164704572Y-72681280D01*
X164619211Y-72725906D01*
X164525209Y-72775049D01*
X164525206Y-72775051D01*
X164522002Y-72776726D01*
X164519184Y-72778992D01*
X164519182Y-72778993D01*
X164364266Y-72903548D01*
X164364263Y-72903551D01*
X164361447Y-72905815D01*
X164359121Y-72908587D01*
X164359119Y-72908589D01*
X164231351Y-73060856D01*
X164231348Y-73060860D01*
X164229024Y-73063630D01*
X164129776Y-73244162D01*
X164067484Y-73440532D01*
X164067081Y-73444123D01*
X164067081Y-73444124D01*
X164063003Y-73480485D01*
X164044520Y-73645262D01*
X161074138Y-73645262D01*
X161065521Y-73557372D01*
X161064507Y-73547033D01*
X161516040Y-73547033D01*
X161518542Y-73557372D01*
X161522107Y-73560000D01*
X162446952Y-73560000D01*
X162456948Y-73556362D01*
X162460000Y-73551075D01*
X162460000Y-73546952D01*
X162660000Y-73546952D01*
X162663638Y-73556948D01*
X162668925Y-73560000D01*
X163592228Y-73560000D01*
X163602224Y-73556362D01*
X163604528Y-73552371D01*
X163595340Y-73458670D01*
X163593941Y-73451602D01*
X163536516Y-73261403D01*
X163533772Y-73254745D01*
X163440498Y-73079322D01*
X163436512Y-73073323D01*
X163310942Y-72919358D01*
X163305866Y-72914247D01*
X163152789Y-72787610D01*
X163146804Y-72783573D01*
X162972043Y-72689081D01*
X162965405Y-72686290D01*
X162775612Y-72627540D01*
X162768552Y-72626091D01*
X162672977Y-72616045D01*
X162662657Y-72618618D01*
X162660000Y-72622275D01*
X162660000Y-73546952D01*
X162460000Y-73546952D01*
X162460000Y-72627764D01*
X162456362Y-72617768D01*
X162452290Y-72615418D01*
X162365912Y-72623278D01*
X162358818Y-72624631D01*
X162168231Y-72680724D01*
X162161555Y-72683422D01*
X161985483Y-72775469D01*
X161979456Y-72779413D01*
X161824619Y-72903906D01*
X161819471Y-72908947D01*
X161691765Y-73061140D01*
X161687696Y-73067083D01*
X161591980Y-73241191D01*
X161589144Y-73247808D01*
X161529068Y-73437189D01*
X161527572Y-73444228D01*
X161516040Y-73547033D01*
X161064507Y-73547033D01*
X161055833Y-73458570D01*
X161055480Y-73454970D01*
X160995935Y-73257749D01*
X160899218Y-73075849D01*
X160769011Y-72916200D01*
X160610275Y-72784882D01*
X160600161Y-72779413D01*
X160432238Y-72688618D01*
X160429055Y-72686897D01*
X160425605Y-72685829D01*
X160425600Y-72685827D01*
X160300996Y-72647256D01*
X160232254Y-72625977D01*
X160027369Y-72604443D01*
X160023765Y-72604771D01*
X160023764Y-72604771D01*
X160023215Y-72604821D01*
X159822203Y-72623114D01*
X159807165Y-72627540D01*
X159628043Y-72680258D01*
X159628039Y-72680260D01*
X159624572Y-72681280D01*
X159539211Y-72725906D01*
X159445209Y-72775049D01*
X159445206Y-72775051D01*
X159442002Y-72776726D01*
X159439184Y-72778992D01*
X159439182Y-72778993D01*
X159284266Y-72903548D01*
X159284263Y-72903551D01*
X159281447Y-72905815D01*
X159279121Y-72908587D01*
X159279119Y-72908589D01*
X159151351Y-73060856D01*
X159151348Y-73060860D01*
X159149024Y-73063630D01*
X159049776Y-73244162D01*
X158987484Y-73440532D01*
X158987081Y-73444123D01*
X158987081Y-73444124D01*
X158983003Y-73480485D01*
X158964520Y-73645262D01*
X158534138Y-73645262D01*
X158525521Y-73557372D01*
X158515833Y-73458570D01*
X158515480Y-73454970D01*
X158455935Y-73257749D01*
X158359218Y-73075849D01*
X158229011Y-72916200D01*
X158070275Y-72784882D01*
X158060161Y-72779413D01*
X157892238Y-72688618D01*
X157889055Y-72686897D01*
X157885605Y-72685829D01*
X157885600Y-72685827D01*
X157760996Y-72647256D01*
X157692254Y-72625977D01*
X157487369Y-72604443D01*
X157483765Y-72604771D01*
X157483764Y-72604771D01*
X157483215Y-72604821D01*
X157282203Y-72623114D01*
X157267165Y-72627540D01*
X157088043Y-72680258D01*
X157088039Y-72680260D01*
X157084572Y-72681280D01*
X156999211Y-72725906D01*
X156905209Y-72775049D01*
X156905206Y-72775051D01*
X156902002Y-72776726D01*
X156899184Y-72778992D01*
X156899182Y-72778993D01*
X156744266Y-72903548D01*
X156744263Y-72903551D01*
X156741447Y-72905815D01*
X156739121Y-72908587D01*
X156739119Y-72908589D01*
X156611351Y-73060856D01*
X156611348Y-73060860D01*
X156609024Y-73063630D01*
X156509776Y-73244162D01*
X156447484Y-73440532D01*
X156447081Y-73444123D01*
X156447081Y-73444124D01*
X156443003Y-73480485D01*
X156424520Y-73645262D01*
X155775500Y-73645262D01*
X155775500Y-71105262D01*
X156424520Y-71105262D01*
X156424823Y-71108871D01*
X156424823Y-71108873D01*
X156428404Y-71151519D01*
X156441759Y-71310553D01*
X156498544Y-71508586D01*
X156500196Y-71511800D01*
X156500197Y-71511803D01*
X156521001Y-71552283D01*
X156592712Y-71691818D01*
X156720677Y-71853270D01*
X156723430Y-71855613D01*
X156723433Y-71855616D01*
X156754062Y-71881683D01*
X156877564Y-71986791D01*
X156923508Y-72012468D01*
X157054239Y-72085532D01*
X157054243Y-72085534D01*
X157057398Y-72087297D01*
X157060834Y-72088414D01*
X157060840Y-72088416D01*
X157185256Y-72128841D01*
X157253329Y-72150959D01*
X157313033Y-72158078D01*
X157454294Y-72174922D01*
X157454297Y-72174922D01*
X157457894Y-72175351D01*
X157526714Y-72170056D01*
X157659689Y-72159824D01*
X157659691Y-72159824D01*
X157663300Y-72159546D01*
X157861725Y-72104145D01*
X157893776Y-72087955D01*
X158042376Y-72012892D01*
X158042379Y-72012890D01*
X158045610Y-72011258D01*
X158207951Y-71884424D01*
X158232817Y-71855616D01*
X158340201Y-71731210D01*
X158340203Y-71731208D01*
X158342564Y-71728472D01*
X158344347Y-71725333D01*
X158344350Y-71725329D01*
X158393444Y-71638908D01*
X158444323Y-71549344D01*
X158456812Y-71511803D01*
X158508208Y-71357299D01*
X158509351Y-71353863D01*
X158509820Y-71350155D01*
X158534913Y-71151519D01*
X158534913Y-71151513D01*
X158535171Y-71149474D01*
X158535583Y-71120000D01*
X158534138Y-71105262D01*
X158964520Y-71105262D01*
X158964823Y-71108871D01*
X158964823Y-71108873D01*
X158968404Y-71151519D01*
X158981759Y-71310553D01*
X159038544Y-71508586D01*
X159040196Y-71511800D01*
X159040197Y-71511803D01*
X159061001Y-71552283D01*
X159132712Y-71691818D01*
X159260677Y-71853270D01*
X159263430Y-71855613D01*
X159263433Y-71855616D01*
X159294062Y-71881683D01*
X159417564Y-71986791D01*
X159463508Y-72012468D01*
X159594239Y-72085532D01*
X159594243Y-72085534D01*
X159597398Y-72087297D01*
X159600834Y-72088414D01*
X159600840Y-72088416D01*
X159725256Y-72128841D01*
X159793329Y-72150959D01*
X159853033Y-72158078D01*
X159994294Y-72174922D01*
X159994297Y-72174922D01*
X159997894Y-72175351D01*
X160066714Y-72170056D01*
X160199689Y-72159824D01*
X160199691Y-72159824D01*
X160203300Y-72159546D01*
X160401725Y-72104145D01*
X160433776Y-72087955D01*
X160582376Y-72012892D01*
X160582379Y-72012890D01*
X160585610Y-72011258D01*
X160747951Y-71884424D01*
X160772817Y-71855616D01*
X160880201Y-71731210D01*
X160880203Y-71731208D01*
X160882564Y-71728472D01*
X160884347Y-71725333D01*
X160884350Y-71725329D01*
X160933444Y-71638908D01*
X160984323Y-71549344D01*
X160996812Y-71511803D01*
X161048208Y-71357299D01*
X161049351Y-71353863D01*
X161049820Y-71350155D01*
X161074913Y-71151519D01*
X161074913Y-71151513D01*
X161075171Y-71149474D01*
X161075583Y-71120000D01*
X161074138Y-71105262D01*
X161504520Y-71105262D01*
X161504823Y-71108871D01*
X161504823Y-71108873D01*
X161508404Y-71151519D01*
X161521759Y-71310553D01*
X161578544Y-71508586D01*
X161580196Y-71511800D01*
X161580197Y-71511803D01*
X161601001Y-71552283D01*
X161672712Y-71691818D01*
X161800677Y-71853270D01*
X161803430Y-71855613D01*
X161803433Y-71855616D01*
X161834062Y-71881683D01*
X161957564Y-71986791D01*
X162003508Y-72012468D01*
X162134239Y-72085532D01*
X162134243Y-72085534D01*
X162137398Y-72087297D01*
X162140834Y-72088414D01*
X162140840Y-72088416D01*
X162265256Y-72128841D01*
X162333329Y-72150959D01*
X162393033Y-72158078D01*
X162534294Y-72174922D01*
X162534297Y-72174922D01*
X162537894Y-72175351D01*
X162606714Y-72170056D01*
X162739689Y-72159824D01*
X162739691Y-72159824D01*
X162743300Y-72159546D01*
X162941725Y-72104145D01*
X162973776Y-72087955D01*
X163122376Y-72012892D01*
X163122379Y-72012890D01*
X163125610Y-72011258D01*
X163287951Y-71884424D01*
X163312817Y-71855616D01*
X163420201Y-71731210D01*
X163420203Y-71731208D01*
X163422564Y-71728472D01*
X163424347Y-71725333D01*
X163424350Y-71725329D01*
X163473444Y-71638908D01*
X163524323Y-71549344D01*
X163536812Y-71511803D01*
X163588208Y-71357299D01*
X163589351Y-71353863D01*
X163589820Y-71350155D01*
X163614913Y-71151519D01*
X163614913Y-71151513D01*
X163615171Y-71149474D01*
X163615583Y-71120000D01*
X163614138Y-71105262D01*
X164044520Y-71105262D01*
X164044823Y-71108871D01*
X164044823Y-71108873D01*
X164048404Y-71151519D01*
X164061759Y-71310553D01*
X164118544Y-71508586D01*
X164120196Y-71511800D01*
X164120197Y-71511803D01*
X164141001Y-71552283D01*
X164212712Y-71691818D01*
X164340677Y-71853270D01*
X164343430Y-71855613D01*
X164343433Y-71855616D01*
X164374062Y-71881683D01*
X164497564Y-71986791D01*
X164543508Y-72012468D01*
X164674239Y-72085532D01*
X164674243Y-72085534D01*
X164677398Y-72087297D01*
X164680834Y-72088414D01*
X164680840Y-72088416D01*
X164805256Y-72128841D01*
X164873329Y-72150959D01*
X164933033Y-72158078D01*
X165074294Y-72174922D01*
X165074297Y-72174922D01*
X165077894Y-72175351D01*
X165146714Y-72170056D01*
X165279689Y-72159824D01*
X165279691Y-72159824D01*
X165283300Y-72159546D01*
X165481725Y-72104145D01*
X165513776Y-72087955D01*
X165662376Y-72012892D01*
X165662379Y-72012890D01*
X165665610Y-72011258D01*
X165827951Y-71884424D01*
X165852817Y-71855616D01*
X165960201Y-71731210D01*
X165960203Y-71731208D01*
X165962564Y-71728472D01*
X165964347Y-71725333D01*
X165964350Y-71725329D01*
X166013444Y-71638908D01*
X166064323Y-71549344D01*
X166076812Y-71511803D01*
X166128208Y-71357299D01*
X166129351Y-71353863D01*
X166129820Y-71350155D01*
X166145278Y-71227792D01*
X166595310Y-71227792D01*
X166601949Y-71306855D01*
X166603250Y-71313942D01*
X166658013Y-71504922D01*
X166660663Y-71511617D01*
X166751479Y-71688326D01*
X166755384Y-71694384D01*
X166878789Y-71850083D01*
X166883794Y-71855267D01*
X167035094Y-71984032D01*
X167041013Y-71988146D01*
X167214440Y-72085072D01*
X167221041Y-72087955D01*
X167409991Y-72149348D01*
X167417036Y-72150897D01*
X167527043Y-72164015D01*
X167537400Y-72161586D01*
X167540000Y-72158111D01*
X167540000Y-72152407D01*
X167740000Y-72152407D01*
X167743638Y-72162403D01*
X167747875Y-72164849D01*
X167819602Y-72159330D01*
X167826701Y-72158078D01*
X168018062Y-72104649D01*
X168024770Y-72102047D01*
X168202107Y-72012468D01*
X168208195Y-72008604D01*
X168364751Y-71886289D01*
X168369970Y-71881319D01*
X168499791Y-71730920D01*
X168503939Y-71725040D01*
X168602078Y-71552283D01*
X168605006Y-71545708D01*
X168667719Y-71357189D01*
X168669316Y-71350155D01*
X168684124Y-71232946D01*
X168681767Y-71222573D01*
X168678377Y-71220000D01*
X167753048Y-71220000D01*
X167743052Y-71223638D01*
X167740000Y-71228925D01*
X167740000Y-72152407D01*
X167540000Y-72152407D01*
X167540000Y-71233048D01*
X167536362Y-71223052D01*
X167531075Y-71220000D01*
X166607704Y-71220000D01*
X166597708Y-71223638D01*
X166595310Y-71227792D01*
X166145278Y-71227792D01*
X166154913Y-71151519D01*
X166154913Y-71151513D01*
X166155171Y-71149474D01*
X166155583Y-71120000D01*
X166154138Y-71105262D01*
X169124520Y-71105262D01*
X169124823Y-71108871D01*
X169124823Y-71108873D01*
X169128404Y-71151519D01*
X169141759Y-71310553D01*
X169198544Y-71508586D01*
X169200196Y-71511800D01*
X169200197Y-71511803D01*
X169221001Y-71552283D01*
X169292712Y-71691818D01*
X169420677Y-71853270D01*
X169423430Y-71855613D01*
X169423433Y-71855616D01*
X169454062Y-71881683D01*
X169577564Y-71986791D01*
X169623508Y-72012468D01*
X169754239Y-72085532D01*
X169754243Y-72085534D01*
X169757398Y-72087297D01*
X169760834Y-72088414D01*
X169760840Y-72088416D01*
X169885256Y-72128841D01*
X169953329Y-72150959D01*
X170013033Y-72158078D01*
X170154294Y-72174922D01*
X170154297Y-72174922D01*
X170157894Y-72175351D01*
X170226714Y-72170056D01*
X170359689Y-72159824D01*
X170359691Y-72159824D01*
X170363300Y-72159546D01*
X170561725Y-72104145D01*
X170593776Y-72087955D01*
X170742376Y-72012892D01*
X170742379Y-72012890D01*
X170745610Y-72011258D01*
X170907951Y-71884424D01*
X170932817Y-71855616D01*
X171040201Y-71731210D01*
X171040203Y-71731208D01*
X171042564Y-71728472D01*
X171044347Y-71725333D01*
X171044350Y-71725329D01*
X171093444Y-71638908D01*
X171144323Y-71549344D01*
X171156812Y-71511803D01*
X171208208Y-71357299D01*
X171209351Y-71353863D01*
X171209820Y-71350155D01*
X171234913Y-71151519D01*
X171234913Y-71151513D01*
X171235171Y-71149474D01*
X171235583Y-71120000D01*
X171234138Y-71105262D01*
X171664520Y-71105262D01*
X171664823Y-71108871D01*
X171664823Y-71108873D01*
X171668404Y-71151519D01*
X171681759Y-71310553D01*
X171738544Y-71508586D01*
X171740196Y-71511800D01*
X171740197Y-71511803D01*
X171761001Y-71552283D01*
X171832712Y-71691818D01*
X171960677Y-71853270D01*
X171963430Y-71855613D01*
X171963433Y-71855616D01*
X171994062Y-71881683D01*
X172117564Y-71986791D01*
X172163508Y-72012468D01*
X172294239Y-72085532D01*
X172294243Y-72085534D01*
X172297398Y-72087297D01*
X172300834Y-72088414D01*
X172300840Y-72088416D01*
X172425256Y-72128841D01*
X172493329Y-72150959D01*
X172553033Y-72158078D01*
X172694294Y-72174922D01*
X172694297Y-72174922D01*
X172697894Y-72175351D01*
X172766714Y-72170056D01*
X172899689Y-72159824D01*
X172899691Y-72159824D01*
X172903300Y-72159546D01*
X173101725Y-72104145D01*
X173133776Y-72087955D01*
X173282376Y-72012892D01*
X173282379Y-72012890D01*
X173285610Y-72011258D01*
X173447951Y-71884424D01*
X173472817Y-71855616D01*
X173580201Y-71731210D01*
X173580203Y-71731208D01*
X173582564Y-71728472D01*
X173584347Y-71725333D01*
X173584350Y-71725329D01*
X173633444Y-71638908D01*
X173684323Y-71549344D01*
X173696812Y-71511803D01*
X173748208Y-71357299D01*
X173749351Y-71353863D01*
X173749820Y-71350155D01*
X173774913Y-71151519D01*
X173774913Y-71151513D01*
X173775171Y-71149474D01*
X173775583Y-71120000D01*
X173774138Y-71105262D01*
X174204520Y-71105262D01*
X174204823Y-71108871D01*
X174204823Y-71108873D01*
X174208404Y-71151519D01*
X174221759Y-71310553D01*
X174278544Y-71508586D01*
X174280196Y-71511800D01*
X174280197Y-71511803D01*
X174301001Y-71552283D01*
X174372712Y-71691818D01*
X174500677Y-71853270D01*
X174503430Y-71855613D01*
X174503433Y-71855616D01*
X174534062Y-71881683D01*
X174657564Y-71986791D01*
X174703508Y-72012468D01*
X174834239Y-72085532D01*
X174834243Y-72085534D01*
X174837398Y-72087297D01*
X174840834Y-72088414D01*
X174840840Y-72088416D01*
X174965256Y-72128841D01*
X175033329Y-72150959D01*
X175093033Y-72158078D01*
X175234294Y-72174922D01*
X175234297Y-72174922D01*
X175237894Y-72175351D01*
X175306714Y-72170056D01*
X175439689Y-72159824D01*
X175439691Y-72159824D01*
X175443300Y-72159546D01*
X175641725Y-72104145D01*
X175673776Y-72087955D01*
X175822376Y-72012892D01*
X175822379Y-72012890D01*
X175825610Y-72011258D01*
X175987951Y-71884424D01*
X176012817Y-71855616D01*
X176120201Y-71731210D01*
X176120203Y-71731208D01*
X176122564Y-71728472D01*
X176124347Y-71725333D01*
X176124350Y-71725329D01*
X176173444Y-71638908D01*
X176224323Y-71549344D01*
X176236812Y-71511803D01*
X176288208Y-71357299D01*
X176289351Y-71353863D01*
X176289820Y-71350155D01*
X176314913Y-71151519D01*
X176314913Y-71151513D01*
X176315171Y-71149474D01*
X176315583Y-71120000D01*
X176314138Y-71105262D01*
X176744520Y-71105262D01*
X176744823Y-71108871D01*
X176744823Y-71108873D01*
X176748404Y-71151519D01*
X176761759Y-71310553D01*
X176818544Y-71508586D01*
X176820196Y-71511800D01*
X176820197Y-71511803D01*
X176841001Y-71552283D01*
X176912712Y-71691818D01*
X177040677Y-71853270D01*
X177043430Y-71855613D01*
X177043433Y-71855616D01*
X177074062Y-71881683D01*
X177197564Y-71986791D01*
X177243508Y-72012468D01*
X177374239Y-72085532D01*
X177374243Y-72085534D01*
X177377398Y-72087297D01*
X177380834Y-72088414D01*
X177380840Y-72088416D01*
X177505256Y-72128841D01*
X177573329Y-72150959D01*
X177633033Y-72158078D01*
X177774294Y-72174922D01*
X177774297Y-72174922D01*
X177777894Y-72175351D01*
X177846714Y-72170056D01*
X177979689Y-72159824D01*
X177979691Y-72159824D01*
X177983300Y-72159546D01*
X178181725Y-72104145D01*
X178213776Y-72087955D01*
X178362376Y-72012892D01*
X178362379Y-72012890D01*
X178365610Y-72011258D01*
X178527951Y-71884424D01*
X178552817Y-71855616D01*
X178660201Y-71731210D01*
X178660203Y-71731208D01*
X178662564Y-71728472D01*
X178664347Y-71725333D01*
X178664350Y-71725329D01*
X178713444Y-71638908D01*
X178764323Y-71549344D01*
X178776812Y-71511803D01*
X178828208Y-71357299D01*
X178829351Y-71353863D01*
X178829820Y-71350155D01*
X178845278Y-71227792D01*
X179295310Y-71227792D01*
X179301949Y-71306855D01*
X179303250Y-71313942D01*
X179358013Y-71504922D01*
X179360663Y-71511617D01*
X179451479Y-71688326D01*
X179455384Y-71694384D01*
X179578789Y-71850083D01*
X179583794Y-71855267D01*
X179735094Y-71984032D01*
X179741013Y-71988146D01*
X179914440Y-72085072D01*
X179921041Y-72087955D01*
X180109991Y-72149348D01*
X180117036Y-72150897D01*
X180227043Y-72164015D01*
X180237400Y-72161586D01*
X180240000Y-72158111D01*
X180240000Y-72152407D01*
X180440000Y-72152407D01*
X180443638Y-72162403D01*
X180447875Y-72164849D01*
X180519602Y-72159330D01*
X180526701Y-72158078D01*
X180718062Y-72104649D01*
X180724770Y-72102047D01*
X180902107Y-72012468D01*
X180908195Y-72008604D01*
X181064751Y-71886289D01*
X181069970Y-71881319D01*
X181199791Y-71730920D01*
X181203939Y-71725040D01*
X181302078Y-71552283D01*
X181305006Y-71545708D01*
X181367719Y-71357189D01*
X181369316Y-71350155D01*
X181384124Y-71232946D01*
X181381767Y-71222573D01*
X181378377Y-71220000D01*
X180453048Y-71220000D01*
X180443052Y-71223638D01*
X180440000Y-71228925D01*
X180440000Y-72152407D01*
X180240000Y-72152407D01*
X180240000Y-71233048D01*
X180236362Y-71223052D01*
X180231075Y-71220000D01*
X179307704Y-71220000D01*
X179297708Y-71223638D01*
X179295310Y-71227792D01*
X178845278Y-71227792D01*
X178854913Y-71151519D01*
X178854913Y-71151513D01*
X178855171Y-71149474D01*
X178855583Y-71120000D01*
X178854138Y-71105262D01*
X181824520Y-71105262D01*
X181824823Y-71108871D01*
X181824823Y-71108873D01*
X181828404Y-71151519D01*
X181841759Y-71310553D01*
X181898544Y-71508586D01*
X181900196Y-71511800D01*
X181900197Y-71511803D01*
X181921001Y-71552283D01*
X181992712Y-71691818D01*
X182120677Y-71853270D01*
X182123430Y-71855613D01*
X182123433Y-71855616D01*
X182154062Y-71881683D01*
X182277564Y-71986791D01*
X182323508Y-72012468D01*
X182454239Y-72085532D01*
X182454243Y-72085534D01*
X182457398Y-72087297D01*
X182460834Y-72088414D01*
X182460840Y-72088416D01*
X182585256Y-72128841D01*
X182653329Y-72150959D01*
X182713033Y-72158078D01*
X182854294Y-72174922D01*
X182854297Y-72174922D01*
X182857894Y-72175351D01*
X182926714Y-72170056D01*
X183059689Y-72159824D01*
X183059691Y-72159824D01*
X183063300Y-72159546D01*
X183261725Y-72104145D01*
X183293776Y-72087955D01*
X183442376Y-72012892D01*
X183442379Y-72012890D01*
X183445610Y-72011258D01*
X183607951Y-71884424D01*
X183632817Y-71855616D01*
X183740201Y-71731210D01*
X183740203Y-71731208D01*
X183742564Y-71728472D01*
X183744347Y-71725333D01*
X183744350Y-71725329D01*
X183793444Y-71638908D01*
X183844323Y-71549344D01*
X183856812Y-71511803D01*
X183908208Y-71357299D01*
X183909351Y-71353863D01*
X183909820Y-71350155D01*
X183934913Y-71151519D01*
X183934913Y-71151513D01*
X183935171Y-71149474D01*
X183935583Y-71120000D01*
X183934138Y-71105262D01*
X184364520Y-71105262D01*
X184364823Y-71108871D01*
X184364823Y-71108873D01*
X184368404Y-71151519D01*
X184381759Y-71310553D01*
X184438544Y-71508586D01*
X184440196Y-71511800D01*
X184440197Y-71511803D01*
X184461001Y-71552283D01*
X184532712Y-71691818D01*
X184660677Y-71853270D01*
X184663430Y-71855613D01*
X184663433Y-71855616D01*
X184694062Y-71881683D01*
X184817564Y-71986791D01*
X184863508Y-72012468D01*
X184994239Y-72085532D01*
X184994243Y-72085534D01*
X184997398Y-72087297D01*
X185000834Y-72088414D01*
X185000840Y-72088416D01*
X185125256Y-72128841D01*
X185193329Y-72150959D01*
X185253033Y-72158078D01*
X185394294Y-72174922D01*
X185394297Y-72174922D01*
X185397894Y-72175351D01*
X185466714Y-72170056D01*
X185599689Y-72159824D01*
X185599691Y-72159824D01*
X185603300Y-72159546D01*
X185801725Y-72104145D01*
X185833776Y-72087955D01*
X185982376Y-72012892D01*
X185982379Y-72012890D01*
X185985610Y-72011258D01*
X186147951Y-71884424D01*
X186172817Y-71855616D01*
X186280201Y-71731210D01*
X186280203Y-71731208D01*
X186282564Y-71728472D01*
X186284347Y-71725333D01*
X186284350Y-71725329D01*
X186333444Y-71638908D01*
X186384323Y-71549344D01*
X186396812Y-71511803D01*
X186448208Y-71357299D01*
X186449351Y-71353863D01*
X186449820Y-71350155D01*
X186474913Y-71151519D01*
X186474913Y-71151513D01*
X186475171Y-71149474D01*
X186475583Y-71120000D01*
X186465521Y-71017372D01*
X186455833Y-70918570D01*
X186455480Y-70914970D01*
X186395935Y-70717749D01*
X186299218Y-70535849D01*
X186169011Y-70376200D01*
X186010275Y-70244882D01*
X186000161Y-70239413D01*
X185832238Y-70148618D01*
X185829055Y-70146897D01*
X185825605Y-70145829D01*
X185825600Y-70145827D01*
X185700996Y-70107256D01*
X185632254Y-70085977D01*
X185427369Y-70064443D01*
X185423765Y-70064771D01*
X185423764Y-70064771D01*
X185423215Y-70064821D01*
X185222203Y-70083114D01*
X185207165Y-70087540D01*
X185028043Y-70140258D01*
X185028039Y-70140260D01*
X185024572Y-70141280D01*
X184928633Y-70191436D01*
X184845209Y-70235049D01*
X184845206Y-70235051D01*
X184842002Y-70236726D01*
X184839184Y-70238992D01*
X184839182Y-70238993D01*
X184684266Y-70363548D01*
X184684263Y-70363551D01*
X184681447Y-70365815D01*
X184679121Y-70368587D01*
X184679119Y-70368589D01*
X184551351Y-70520856D01*
X184551348Y-70520860D01*
X184549024Y-70523630D01*
X184449776Y-70704162D01*
X184387484Y-70900532D01*
X184387081Y-70904123D01*
X184387081Y-70904124D01*
X184383003Y-70940485D01*
X184364520Y-71105262D01*
X183934138Y-71105262D01*
X183925521Y-71017372D01*
X183915833Y-70918570D01*
X183915480Y-70914970D01*
X183855935Y-70717749D01*
X183759218Y-70535849D01*
X183629011Y-70376200D01*
X183470275Y-70244882D01*
X183460161Y-70239413D01*
X183292238Y-70148618D01*
X183289055Y-70146897D01*
X183285605Y-70145829D01*
X183285600Y-70145827D01*
X183160996Y-70107256D01*
X183092254Y-70085977D01*
X182887369Y-70064443D01*
X182883765Y-70064771D01*
X182883764Y-70064771D01*
X182883215Y-70064821D01*
X182682203Y-70083114D01*
X182667165Y-70087540D01*
X182488043Y-70140258D01*
X182488039Y-70140260D01*
X182484572Y-70141280D01*
X182388633Y-70191436D01*
X182305209Y-70235049D01*
X182305206Y-70235051D01*
X182302002Y-70236726D01*
X182299184Y-70238992D01*
X182299182Y-70238993D01*
X182144266Y-70363548D01*
X182144263Y-70363551D01*
X182141447Y-70365815D01*
X182139121Y-70368587D01*
X182139119Y-70368589D01*
X182011351Y-70520856D01*
X182011348Y-70520860D01*
X182009024Y-70523630D01*
X181909776Y-70704162D01*
X181847484Y-70900532D01*
X181847081Y-70904123D01*
X181847081Y-70904124D01*
X181843003Y-70940485D01*
X181824520Y-71105262D01*
X178854138Y-71105262D01*
X178845521Y-71017372D01*
X178844507Y-71007033D01*
X179296040Y-71007033D01*
X179298542Y-71017372D01*
X179302107Y-71020000D01*
X180226952Y-71020000D01*
X180236948Y-71016362D01*
X180240000Y-71011075D01*
X180240000Y-71006952D01*
X180440000Y-71006952D01*
X180443638Y-71016948D01*
X180448925Y-71020000D01*
X181372228Y-71020000D01*
X181382224Y-71016362D01*
X181384528Y-71012371D01*
X181375340Y-70918670D01*
X181373941Y-70911602D01*
X181316516Y-70721403D01*
X181313772Y-70714745D01*
X181220498Y-70539322D01*
X181216512Y-70533323D01*
X181090942Y-70379358D01*
X181085866Y-70374247D01*
X180932789Y-70247610D01*
X180926804Y-70243573D01*
X180752043Y-70149081D01*
X180745405Y-70146290D01*
X180555612Y-70087540D01*
X180548552Y-70086091D01*
X180452977Y-70076045D01*
X180442657Y-70078618D01*
X180440000Y-70082275D01*
X180440000Y-71006952D01*
X180240000Y-71006952D01*
X180240000Y-70087764D01*
X180236362Y-70077768D01*
X180232290Y-70075418D01*
X180145912Y-70083278D01*
X180138818Y-70084631D01*
X179948231Y-70140724D01*
X179941555Y-70143422D01*
X179765483Y-70235469D01*
X179759456Y-70239413D01*
X179604619Y-70363906D01*
X179599471Y-70368947D01*
X179471765Y-70521140D01*
X179467696Y-70527083D01*
X179371980Y-70701191D01*
X179369144Y-70707808D01*
X179309068Y-70897189D01*
X179307572Y-70904228D01*
X179296040Y-71007033D01*
X178844507Y-71007033D01*
X178835833Y-70918570D01*
X178835480Y-70914970D01*
X178775935Y-70717749D01*
X178679218Y-70535849D01*
X178549011Y-70376200D01*
X178390275Y-70244882D01*
X178380161Y-70239413D01*
X178212238Y-70148618D01*
X178209055Y-70146897D01*
X178205605Y-70145829D01*
X178205600Y-70145827D01*
X178080996Y-70107256D01*
X178012254Y-70085977D01*
X177807369Y-70064443D01*
X177803765Y-70064771D01*
X177803764Y-70064771D01*
X177803215Y-70064821D01*
X177602203Y-70083114D01*
X177587165Y-70087540D01*
X177408043Y-70140258D01*
X177408039Y-70140260D01*
X177404572Y-70141280D01*
X177308633Y-70191436D01*
X177225209Y-70235049D01*
X177225206Y-70235051D01*
X177222002Y-70236726D01*
X177219184Y-70238992D01*
X177219182Y-70238993D01*
X177064266Y-70363548D01*
X177064263Y-70363551D01*
X177061447Y-70365815D01*
X177059121Y-70368587D01*
X177059119Y-70368589D01*
X176931351Y-70520856D01*
X176931348Y-70520860D01*
X176929024Y-70523630D01*
X176829776Y-70704162D01*
X176767484Y-70900532D01*
X176767081Y-70904123D01*
X176767081Y-70904124D01*
X176763003Y-70940485D01*
X176744520Y-71105262D01*
X176314138Y-71105262D01*
X176305521Y-71017372D01*
X176295833Y-70918570D01*
X176295480Y-70914970D01*
X176235935Y-70717749D01*
X176139218Y-70535849D01*
X176009011Y-70376200D01*
X175850275Y-70244882D01*
X175840161Y-70239413D01*
X175672238Y-70148618D01*
X175669055Y-70146897D01*
X175665605Y-70145829D01*
X175665600Y-70145827D01*
X175540996Y-70107256D01*
X175472254Y-70085977D01*
X175267369Y-70064443D01*
X175263765Y-70064771D01*
X175263764Y-70064771D01*
X175263215Y-70064821D01*
X175062203Y-70083114D01*
X175047165Y-70087540D01*
X174868043Y-70140258D01*
X174868039Y-70140260D01*
X174864572Y-70141280D01*
X174768633Y-70191436D01*
X174685209Y-70235049D01*
X174685206Y-70235051D01*
X174682002Y-70236726D01*
X174679184Y-70238992D01*
X174679182Y-70238993D01*
X174524266Y-70363548D01*
X174524263Y-70363551D01*
X174521447Y-70365815D01*
X174519121Y-70368587D01*
X174519119Y-70368589D01*
X174391351Y-70520856D01*
X174391348Y-70520860D01*
X174389024Y-70523630D01*
X174289776Y-70704162D01*
X174227484Y-70900532D01*
X174227081Y-70904123D01*
X174227081Y-70904124D01*
X174223003Y-70940485D01*
X174204520Y-71105262D01*
X173774138Y-71105262D01*
X173765521Y-71017372D01*
X173755833Y-70918570D01*
X173755480Y-70914970D01*
X173695935Y-70717749D01*
X173599218Y-70535849D01*
X173469011Y-70376200D01*
X173310275Y-70244882D01*
X173300161Y-70239413D01*
X173132238Y-70148618D01*
X173129055Y-70146897D01*
X173125605Y-70145829D01*
X173125600Y-70145827D01*
X173000996Y-70107256D01*
X172932254Y-70085977D01*
X172727369Y-70064443D01*
X172723765Y-70064771D01*
X172723764Y-70064771D01*
X172723215Y-70064821D01*
X172522203Y-70083114D01*
X172507165Y-70087540D01*
X172328043Y-70140258D01*
X172328039Y-70140260D01*
X172324572Y-70141280D01*
X172228633Y-70191436D01*
X172145209Y-70235049D01*
X172145206Y-70235051D01*
X172142002Y-70236726D01*
X172139184Y-70238992D01*
X172139182Y-70238993D01*
X171984266Y-70363548D01*
X171984263Y-70363551D01*
X171981447Y-70365815D01*
X171979121Y-70368587D01*
X171979119Y-70368589D01*
X171851351Y-70520856D01*
X171851348Y-70520860D01*
X171849024Y-70523630D01*
X171749776Y-70704162D01*
X171687484Y-70900532D01*
X171687081Y-70904123D01*
X171687081Y-70904124D01*
X171683003Y-70940485D01*
X171664520Y-71105262D01*
X171234138Y-71105262D01*
X171225521Y-71017372D01*
X171215833Y-70918570D01*
X171215480Y-70914970D01*
X171155935Y-70717749D01*
X171059218Y-70535849D01*
X170929011Y-70376200D01*
X170770275Y-70244882D01*
X170760161Y-70239413D01*
X170592238Y-70148618D01*
X170589055Y-70146897D01*
X170585605Y-70145829D01*
X170585600Y-70145827D01*
X170460996Y-70107256D01*
X170392254Y-70085977D01*
X170187369Y-70064443D01*
X170183765Y-70064771D01*
X170183764Y-70064771D01*
X170183215Y-70064821D01*
X169982203Y-70083114D01*
X169967165Y-70087540D01*
X169788043Y-70140258D01*
X169788039Y-70140260D01*
X169784572Y-70141280D01*
X169688633Y-70191436D01*
X169605209Y-70235049D01*
X169605206Y-70235051D01*
X169602002Y-70236726D01*
X169599184Y-70238992D01*
X169599182Y-70238993D01*
X169444266Y-70363548D01*
X169444263Y-70363551D01*
X169441447Y-70365815D01*
X169439121Y-70368587D01*
X169439119Y-70368589D01*
X169311351Y-70520856D01*
X169311348Y-70520860D01*
X169309024Y-70523630D01*
X169209776Y-70704162D01*
X169147484Y-70900532D01*
X169147081Y-70904123D01*
X169147081Y-70904124D01*
X169143003Y-70940485D01*
X169124520Y-71105262D01*
X166154138Y-71105262D01*
X166145521Y-71017372D01*
X166144507Y-71007033D01*
X166596040Y-71007033D01*
X166598542Y-71017372D01*
X166602107Y-71020000D01*
X167526952Y-71020000D01*
X167536948Y-71016362D01*
X167540000Y-71011075D01*
X167540000Y-71006952D01*
X167740000Y-71006952D01*
X167743638Y-71016948D01*
X167748925Y-71020000D01*
X168672228Y-71020000D01*
X168682224Y-71016362D01*
X168684528Y-71012371D01*
X168675340Y-70918670D01*
X168673941Y-70911602D01*
X168616516Y-70721403D01*
X168613772Y-70714745D01*
X168520498Y-70539322D01*
X168516512Y-70533323D01*
X168390942Y-70379358D01*
X168385866Y-70374247D01*
X168232789Y-70247610D01*
X168226804Y-70243573D01*
X168052043Y-70149081D01*
X168045405Y-70146290D01*
X167855612Y-70087540D01*
X167848552Y-70086091D01*
X167752977Y-70076045D01*
X167742657Y-70078618D01*
X167740000Y-70082275D01*
X167740000Y-71006952D01*
X167540000Y-71006952D01*
X167540000Y-70087764D01*
X167536362Y-70077768D01*
X167532290Y-70075418D01*
X167445912Y-70083278D01*
X167438818Y-70084631D01*
X167248231Y-70140724D01*
X167241555Y-70143422D01*
X167065483Y-70235469D01*
X167059456Y-70239413D01*
X166904619Y-70363906D01*
X166899471Y-70368947D01*
X166771765Y-70521140D01*
X166767696Y-70527083D01*
X166671980Y-70701191D01*
X166669144Y-70707808D01*
X166609068Y-70897189D01*
X166607572Y-70904228D01*
X166596040Y-71007033D01*
X166144507Y-71007033D01*
X166135833Y-70918570D01*
X166135480Y-70914970D01*
X166075935Y-70717749D01*
X165979218Y-70535849D01*
X165849011Y-70376200D01*
X165690275Y-70244882D01*
X165680161Y-70239413D01*
X165512238Y-70148618D01*
X165509055Y-70146897D01*
X165505605Y-70145829D01*
X165505600Y-70145827D01*
X165380996Y-70107256D01*
X165312254Y-70085977D01*
X165107369Y-70064443D01*
X165103765Y-70064771D01*
X165103764Y-70064771D01*
X165103215Y-70064821D01*
X164902203Y-70083114D01*
X164887165Y-70087540D01*
X164708043Y-70140258D01*
X164708039Y-70140260D01*
X164704572Y-70141280D01*
X164608633Y-70191436D01*
X164525209Y-70235049D01*
X164525206Y-70235051D01*
X164522002Y-70236726D01*
X164519184Y-70238992D01*
X164519182Y-70238993D01*
X164364266Y-70363548D01*
X164364263Y-70363551D01*
X164361447Y-70365815D01*
X164359121Y-70368587D01*
X164359119Y-70368589D01*
X164231351Y-70520856D01*
X164231348Y-70520860D01*
X164229024Y-70523630D01*
X164129776Y-70704162D01*
X164067484Y-70900532D01*
X164067081Y-70904123D01*
X164067081Y-70904124D01*
X164063003Y-70940485D01*
X164044520Y-71105262D01*
X163614138Y-71105262D01*
X163605521Y-71017372D01*
X163595833Y-70918570D01*
X163595480Y-70914970D01*
X163535935Y-70717749D01*
X163439218Y-70535849D01*
X163309011Y-70376200D01*
X163150275Y-70244882D01*
X163140161Y-70239413D01*
X162972238Y-70148618D01*
X162969055Y-70146897D01*
X162965605Y-70145829D01*
X162965600Y-70145827D01*
X162840996Y-70107256D01*
X162772254Y-70085977D01*
X162567369Y-70064443D01*
X162563765Y-70064771D01*
X162563764Y-70064771D01*
X162563215Y-70064821D01*
X162362203Y-70083114D01*
X162347165Y-70087540D01*
X162168043Y-70140258D01*
X162168039Y-70140260D01*
X162164572Y-70141280D01*
X162068633Y-70191436D01*
X161985209Y-70235049D01*
X161985206Y-70235051D01*
X161982002Y-70236726D01*
X161979184Y-70238992D01*
X161979182Y-70238993D01*
X161824266Y-70363548D01*
X161824263Y-70363551D01*
X161821447Y-70365815D01*
X161819121Y-70368587D01*
X161819119Y-70368589D01*
X161691351Y-70520856D01*
X161691348Y-70520860D01*
X161689024Y-70523630D01*
X161589776Y-70704162D01*
X161527484Y-70900532D01*
X161527081Y-70904123D01*
X161527081Y-70904124D01*
X161523003Y-70940485D01*
X161504520Y-71105262D01*
X161074138Y-71105262D01*
X161065521Y-71017372D01*
X161055833Y-70918570D01*
X161055480Y-70914970D01*
X160995935Y-70717749D01*
X160899218Y-70535849D01*
X160769011Y-70376200D01*
X160610275Y-70244882D01*
X160600161Y-70239413D01*
X160432238Y-70148618D01*
X160429055Y-70146897D01*
X160425605Y-70145829D01*
X160425600Y-70145827D01*
X160300996Y-70107256D01*
X160232254Y-70085977D01*
X160027369Y-70064443D01*
X160023765Y-70064771D01*
X160023764Y-70064771D01*
X160023215Y-70064821D01*
X159822203Y-70083114D01*
X159807165Y-70087540D01*
X159628043Y-70140258D01*
X159628039Y-70140260D01*
X159624572Y-70141280D01*
X159528633Y-70191436D01*
X159445209Y-70235049D01*
X159445206Y-70235051D01*
X159442002Y-70236726D01*
X159439184Y-70238992D01*
X159439182Y-70238993D01*
X159284266Y-70363548D01*
X159284263Y-70363551D01*
X159281447Y-70365815D01*
X159279121Y-70368587D01*
X159279119Y-70368589D01*
X159151351Y-70520856D01*
X159151348Y-70520860D01*
X159149024Y-70523630D01*
X159049776Y-70704162D01*
X158987484Y-70900532D01*
X158987081Y-70904123D01*
X158987081Y-70904124D01*
X158983003Y-70940485D01*
X158964520Y-71105262D01*
X158534138Y-71105262D01*
X158525521Y-71017372D01*
X158515833Y-70918570D01*
X158515480Y-70914970D01*
X158455935Y-70717749D01*
X158359218Y-70535849D01*
X158229011Y-70376200D01*
X158070275Y-70244882D01*
X158060161Y-70239413D01*
X157892238Y-70148618D01*
X157889055Y-70146897D01*
X157885605Y-70145829D01*
X157885600Y-70145827D01*
X157760996Y-70107256D01*
X157692254Y-70085977D01*
X157487369Y-70064443D01*
X157483765Y-70064771D01*
X157483764Y-70064771D01*
X157483215Y-70064821D01*
X157282203Y-70083114D01*
X157267165Y-70087540D01*
X157088043Y-70140258D01*
X157088039Y-70140260D01*
X157084572Y-70141280D01*
X156988633Y-70191436D01*
X156905209Y-70235049D01*
X156905206Y-70235051D01*
X156902002Y-70236726D01*
X156899184Y-70238992D01*
X156899182Y-70238993D01*
X156744266Y-70363548D01*
X156744263Y-70363551D01*
X156741447Y-70365815D01*
X156739121Y-70368587D01*
X156739119Y-70368589D01*
X156611351Y-70520856D01*
X156611348Y-70520860D01*
X156609024Y-70523630D01*
X156509776Y-70704162D01*
X156447484Y-70900532D01*
X156447081Y-70904123D01*
X156447081Y-70904124D01*
X156443003Y-70940485D01*
X156424520Y-71105262D01*
X155775500Y-71105262D01*
X155775500Y-68271878D01*
X156332428Y-68271878D01*
X156364851Y-68460569D01*
X156366602Y-68467104D01*
X156437407Y-68659028D01*
X156440313Y-68665122D01*
X156544912Y-68840937D01*
X156548878Y-68846396D01*
X156683764Y-69000203D01*
X156688668Y-69004856D01*
X156849313Y-69131499D01*
X156854989Y-69135185D01*
X157036017Y-69230429D01*
X157042280Y-69233022D01*
X157237637Y-69293683D01*
X157244243Y-69295087D01*
X157410313Y-69314743D01*
X157414672Y-69315000D01*
X157867952Y-69315000D01*
X157877948Y-69311362D01*
X157881000Y-69306075D01*
X157881000Y-69301952D01*
X158081000Y-69301952D01*
X158084638Y-69311948D01*
X158089925Y-69315000D01*
X158532919Y-69315000D01*
X158536311Y-69314845D01*
X158688092Y-69300898D01*
X158694733Y-69299668D01*
X158891624Y-69244138D01*
X158897932Y-69241716D01*
X159081409Y-69151235D01*
X159087163Y-69147710D01*
X159251076Y-69025310D01*
X159256103Y-69020784D01*
X159394958Y-68870571D01*
X159399079Y-68865200D01*
X159508237Y-68692195D01*
X159511304Y-68686175D01*
X159587109Y-68496171D01*
X159589029Y-68489686D01*
X159628939Y-68289046D01*
X159629644Y-68282338D01*
X159629700Y-68278047D01*
X159627546Y-68271878D01*
X165857428Y-68271878D01*
X165889851Y-68460569D01*
X165891602Y-68467104D01*
X165962407Y-68659028D01*
X165965313Y-68665122D01*
X166069912Y-68840937D01*
X166073878Y-68846396D01*
X166208764Y-69000203D01*
X166213668Y-69004856D01*
X166374313Y-69131499D01*
X166379989Y-69135185D01*
X166561017Y-69230429D01*
X166567280Y-69233022D01*
X166762637Y-69293683D01*
X166769243Y-69295087D01*
X166935313Y-69314743D01*
X166939672Y-69315000D01*
X167392952Y-69315000D01*
X167402948Y-69311362D01*
X167406000Y-69306075D01*
X167406000Y-69301952D01*
X167606000Y-69301952D01*
X167609638Y-69311948D01*
X167614925Y-69315000D01*
X168057919Y-69315000D01*
X168061311Y-69314845D01*
X168213092Y-69300898D01*
X168219733Y-69299668D01*
X168416624Y-69244138D01*
X168422932Y-69241716D01*
X168606409Y-69151235D01*
X168612163Y-69147710D01*
X168776076Y-69025310D01*
X168781103Y-69020784D01*
X168919958Y-68870571D01*
X168924079Y-68865200D01*
X169033237Y-68692195D01*
X169036304Y-68686175D01*
X169112109Y-68496171D01*
X169114029Y-68489686D01*
X169153939Y-68289046D01*
X169154644Y-68282338D01*
X169154700Y-68278047D01*
X169152546Y-68271878D01*
X175382428Y-68271878D01*
X175414851Y-68460569D01*
X175416602Y-68467104D01*
X175487407Y-68659028D01*
X175490313Y-68665122D01*
X175594912Y-68840937D01*
X175598878Y-68846396D01*
X175733764Y-69000203D01*
X175738668Y-69004856D01*
X175899313Y-69131499D01*
X175904989Y-69135185D01*
X176086017Y-69230429D01*
X176092280Y-69233022D01*
X176287637Y-69293683D01*
X176294243Y-69295087D01*
X176460313Y-69314743D01*
X176464672Y-69315000D01*
X176917952Y-69315000D01*
X176927948Y-69311362D01*
X176931000Y-69306075D01*
X176931000Y-69301952D01*
X177131000Y-69301952D01*
X177134638Y-69311948D01*
X177139925Y-69315000D01*
X177582919Y-69315000D01*
X177586311Y-69314845D01*
X177738092Y-69300898D01*
X177744733Y-69299668D01*
X177941624Y-69244138D01*
X177947932Y-69241716D01*
X178131409Y-69151235D01*
X178137163Y-69147710D01*
X178301076Y-69025310D01*
X178306103Y-69020784D01*
X178444958Y-68870571D01*
X178449079Y-68865200D01*
X178558237Y-68692195D01*
X178561304Y-68686175D01*
X178637109Y-68496171D01*
X178639029Y-68489686D01*
X178678939Y-68289046D01*
X178679644Y-68282338D01*
X178679700Y-68278047D01*
X178676193Y-68268005D01*
X178671143Y-68265000D01*
X177144048Y-68265000D01*
X177134052Y-68268638D01*
X177131000Y-68273925D01*
X177131000Y-69301952D01*
X176931000Y-69301952D01*
X176931000Y-68278048D01*
X176927362Y-68268052D01*
X176922075Y-68265000D01*
X175394294Y-68265000D01*
X175384298Y-68268638D01*
X175382428Y-68271878D01*
X169152546Y-68271878D01*
X169151193Y-68268005D01*
X169146143Y-68265000D01*
X167619048Y-68265000D01*
X167609052Y-68268638D01*
X167606000Y-68273925D01*
X167606000Y-69301952D01*
X167406000Y-69301952D01*
X167406000Y-68278048D01*
X167402362Y-68268052D01*
X167397075Y-68265000D01*
X165869294Y-68265000D01*
X165859298Y-68268638D01*
X165857428Y-68271878D01*
X159627546Y-68271878D01*
X159626193Y-68268005D01*
X159621143Y-68265000D01*
X158094048Y-68265000D01*
X158084052Y-68268638D01*
X158081000Y-68273925D01*
X158081000Y-69301952D01*
X157881000Y-69301952D01*
X157881000Y-68278048D01*
X157877362Y-68268052D01*
X157872075Y-68265000D01*
X156344294Y-68265000D01*
X156334298Y-68268638D01*
X156332428Y-68271878D01*
X155775500Y-68271878D01*
X155775500Y-68051953D01*
X156332300Y-68051953D01*
X156335807Y-68061995D01*
X156340857Y-68065000D01*
X157867952Y-68065000D01*
X157877948Y-68061362D01*
X157881000Y-68056075D01*
X157881000Y-68051952D01*
X158081000Y-68051952D01*
X158084638Y-68061948D01*
X158089925Y-68065000D01*
X159617706Y-68065000D01*
X159627702Y-68061362D01*
X159629572Y-68058122D01*
X159628512Y-68051953D01*
X165857300Y-68051953D01*
X165860807Y-68061995D01*
X165865857Y-68065000D01*
X167392952Y-68065000D01*
X167402948Y-68061362D01*
X167406000Y-68056075D01*
X167406000Y-68051952D01*
X167606000Y-68051952D01*
X167609638Y-68061948D01*
X167614925Y-68065000D01*
X169142706Y-68065000D01*
X169152702Y-68061362D01*
X169154572Y-68058122D01*
X169153512Y-68051953D01*
X175382300Y-68051953D01*
X175385807Y-68061995D01*
X175390857Y-68065000D01*
X176917952Y-68065000D01*
X176927948Y-68061362D01*
X176931000Y-68056075D01*
X176931000Y-68051952D01*
X177131000Y-68051952D01*
X177134638Y-68061948D01*
X177139925Y-68065000D01*
X178667706Y-68065000D01*
X178677702Y-68061362D01*
X178679572Y-68058122D01*
X178647149Y-67869431D01*
X178645398Y-67862896D01*
X178574593Y-67670972D01*
X178571687Y-67664878D01*
X178467088Y-67489063D01*
X178463122Y-67483604D01*
X178328236Y-67329797D01*
X178323332Y-67325144D01*
X178162687Y-67198501D01*
X178157011Y-67194815D01*
X177975983Y-67099571D01*
X177969720Y-67096978D01*
X177774363Y-67036317D01*
X177767757Y-67034913D01*
X177601687Y-67015257D01*
X177597328Y-67015000D01*
X177144048Y-67015000D01*
X177134052Y-67018638D01*
X177131000Y-67023925D01*
X177131000Y-68051952D01*
X176931000Y-68051952D01*
X176931000Y-67028048D01*
X176927362Y-67018052D01*
X176922075Y-67015000D01*
X176479081Y-67015000D01*
X176475689Y-67015155D01*
X176323908Y-67029102D01*
X176317267Y-67030332D01*
X176120376Y-67085862D01*
X176114068Y-67088284D01*
X175930591Y-67178765D01*
X175924837Y-67182290D01*
X175760924Y-67304690D01*
X175755897Y-67309216D01*
X175617042Y-67459429D01*
X175612921Y-67464800D01*
X175503763Y-67637805D01*
X175500696Y-67643825D01*
X175424891Y-67833829D01*
X175422971Y-67840314D01*
X175383061Y-68040954D01*
X175382356Y-68047662D01*
X175382300Y-68051953D01*
X169153512Y-68051953D01*
X169122149Y-67869431D01*
X169120398Y-67862896D01*
X169049593Y-67670972D01*
X169046687Y-67664878D01*
X168942088Y-67489063D01*
X168938122Y-67483604D01*
X168803236Y-67329797D01*
X168798332Y-67325144D01*
X168637687Y-67198501D01*
X168632011Y-67194815D01*
X168450983Y-67099571D01*
X168444720Y-67096978D01*
X168249363Y-67036317D01*
X168242757Y-67034913D01*
X168076687Y-67015257D01*
X168072328Y-67015000D01*
X167619048Y-67015000D01*
X167609052Y-67018638D01*
X167606000Y-67023925D01*
X167606000Y-68051952D01*
X167406000Y-68051952D01*
X167406000Y-67028048D01*
X167402362Y-67018052D01*
X167397075Y-67015000D01*
X166954081Y-67015000D01*
X166950689Y-67015155D01*
X166798908Y-67029102D01*
X166792267Y-67030332D01*
X166595376Y-67085862D01*
X166589068Y-67088284D01*
X166405591Y-67178765D01*
X166399837Y-67182290D01*
X166235924Y-67304690D01*
X166230897Y-67309216D01*
X166092042Y-67459429D01*
X166087921Y-67464800D01*
X165978763Y-67637805D01*
X165975696Y-67643825D01*
X165899891Y-67833829D01*
X165897971Y-67840314D01*
X165858061Y-68040954D01*
X165857356Y-68047662D01*
X165857300Y-68051953D01*
X159628512Y-68051953D01*
X159597149Y-67869431D01*
X159595398Y-67862896D01*
X159524593Y-67670972D01*
X159521687Y-67664878D01*
X159417088Y-67489063D01*
X159413122Y-67483604D01*
X159278236Y-67329797D01*
X159273332Y-67325144D01*
X159112687Y-67198501D01*
X159107011Y-67194815D01*
X158925983Y-67099571D01*
X158919720Y-67096978D01*
X158724363Y-67036317D01*
X158717757Y-67034913D01*
X158551687Y-67015257D01*
X158547328Y-67015000D01*
X158094048Y-67015000D01*
X158084052Y-67018638D01*
X158081000Y-67023925D01*
X158081000Y-68051952D01*
X157881000Y-68051952D01*
X157881000Y-67028048D01*
X157877362Y-67018052D01*
X157872075Y-67015000D01*
X157429081Y-67015000D01*
X157425689Y-67015155D01*
X157273908Y-67029102D01*
X157267267Y-67030332D01*
X157070376Y-67085862D01*
X157064068Y-67088284D01*
X156880591Y-67178765D01*
X156874837Y-67182290D01*
X156710924Y-67304690D01*
X156705897Y-67309216D01*
X156567042Y-67459429D01*
X156562921Y-67464800D01*
X156453763Y-67637805D01*
X156450696Y-67643825D01*
X156374891Y-67833829D01*
X156372971Y-67840314D01*
X156333061Y-68040954D01*
X156332356Y-68047662D01*
X156332300Y-68051953D01*
X155775500Y-68051953D01*
X155775500Y-66947834D01*
X183117000Y-66947834D01*
X183119981Y-66979369D01*
X183164866Y-67107184D01*
X183245350Y-67216150D01*
X183354316Y-67296634D01*
X183482131Y-67341519D01*
X183486614Y-67341943D01*
X183486615Y-67341943D01*
X183511938Y-67344337D01*
X183511945Y-67344337D01*
X183513666Y-67344500D01*
X184821334Y-67344500D01*
X184823055Y-67344337D01*
X184823062Y-67344337D01*
X184848385Y-67341943D01*
X184848386Y-67341943D01*
X184852869Y-67341519D01*
X184980684Y-67296634D01*
X185089650Y-67216150D01*
X185170134Y-67107184D01*
X185215019Y-66979369D01*
X185218000Y-66947834D01*
X185218000Y-66279262D01*
X185652020Y-66279262D01*
X185652323Y-66282871D01*
X185652323Y-66282873D01*
X185655904Y-66325519D01*
X185669259Y-66484553D01*
X185726044Y-66682586D01*
X185727696Y-66685800D01*
X185727697Y-66685803D01*
X185748606Y-66726487D01*
X185820212Y-66865818D01*
X185948177Y-67027270D01*
X185950930Y-67029613D01*
X185950933Y-67029616D01*
X185958807Y-67036317D01*
X186105064Y-67160791D01*
X186151766Y-67186892D01*
X186281739Y-67259532D01*
X186281743Y-67259534D01*
X186284898Y-67261297D01*
X186288334Y-67262414D01*
X186288340Y-67262416D01*
X186393654Y-67296634D01*
X186480829Y-67324959D01*
X186544676Y-67332572D01*
X186681794Y-67348922D01*
X186681797Y-67348922D01*
X186685394Y-67349351D01*
X186754214Y-67344056D01*
X186887189Y-67333824D01*
X186887191Y-67333824D01*
X186890800Y-67333546D01*
X187089225Y-67278145D01*
X187120363Y-67262416D01*
X187269876Y-67186892D01*
X187269879Y-67186890D01*
X187273110Y-67185258D01*
X187435451Y-67058424D01*
X187464792Y-67024432D01*
X187567701Y-66905210D01*
X187567703Y-66905208D01*
X187570064Y-66902472D01*
X187571847Y-66899333D01*
X187571850Y-66899329D01*
X187620944Y-66812908D01*
X187671823Y-66723344D01*
X187684312Y-66685803D01*
X187735708Y-66531299D01*
X187736851Y-66527863D01*
X187742323Y-66484553D01*
X187762413Y-66325519D01*
X187762413Y-66325513D01*
X187762671Y-66323474D01*
X187763083Y-66294000D01*
X187742980Y-66088970D01*
X187683435Y-65891749D01*
X187586718Y-65709849D01*
X187456511Y-65550200D01*
X187367264Y-65476368D01*
X187300570Y-65421194D01*
X187300569Y-65421193D01*
X187297775Y-65418882D01*
X187286884Y-65412993D01*
X187119738Y-65322618D01*
X187116555Y-65320897D01*
X187113105Y-65319829D01*
X187113100Y-65319827D01*
X186988496Y-65281256D01*
X186919754Y-65259977D01*
X186714869Y-65238443D01*
X186711265Y-65238771D01*
X186711264Y-65238771D01*
X186612286Y-65247778D01*
X186509703Y-65257114D01*
X186469838Y-65268847D01*
X186315543Y-65314258D01*
X186315539Y-65314260D01*
X186312072Y-65315280D01*
X186216133Y-65365436D01*
X186132709Y-65409049D01*
X186132706Y-65409051D01*
X186129502Y-65410726D01*
X186126684Y-65412992D01*
X186126682Y-65412993D01*
X185971766Y-65537548D01*
X185971763Y-65537551D01*
X185968947Y-65539815D01*
X185966621Y-65542587D01*
X185966619Y-65542589D01*
X185838851Y-65694856D01*
X185838848Y-65694860D01*
X185836524Y-65697630D01*
X185737276Y-65878162D01*
X185674984Y-66074532D01*
X185674581Y-66078123D01*
X185674581Y-66078124D01*
X185672961Y-66092570D01*
X185652020Y-66279262D01*
X185218000Y-66279262D01*
X185218000Y-65640166D01*
X185215019Y-65608631D01*
X185170134Y-65480816D01*
X185144410Y-65445988D01*
X185092936Y-65376299D01*
X185089650Y-65371850D01*
X184980684Y-65291366D01*
X184852869Y-65246481D01*
X184848386Y-65246057D01*
X184848385Y-65246057D01*
X184823062Y-65243663D01*
X184823055Y-65243663D01*
X184821334Y-65243500D01*
X183513666Y-65243500D01*
X183511945Y-65243663D01*
X183511938Y-65243663D01*
X183486615Y-65246057D01*
X183486614Y-65246057D01*
X183482131Y-65246481D01*
X183354316Y-65291366D01*
X183245350Y-65371850D01*
X183242064Y-65376299D01*
X183190591Y-65445988D01*
X183164866Y-65480816D01*
X183119981Y-65608631D01*
X183117000Y-65640166D01*
X183117000Y-66947834D01*
X155775500Y-66947834D01*
X155775500Y-65763457D01*
X156859109Y-65763457D01*
X156860116Y-65767213D01*
X156950522Y-65832897D01*
X156957201Y-65836753D01*
X157113344Y-65906273D01*
X157120684Y-65908658D01*
X157287864Y-65944193D01*
X157295543Y-65945000D01*
X157466457Y-65945000D01*
X157474136Y-65944193D01*
X157641316Y-65908658D01*
X157648656Y-65906273D01*
X157804799Y-65836753D01*
X157811478Y-65832897D01*
X157897064Y-65770715D01*
X157901960Y-65763457D01*
X166384109Y-65763457D01*
X166385116Y-65767213D01*
X166475522Y-65832897D01*
X166482201Y-65836753D01*
X166638344Y-65906273D01*
X166645684Y-65908658D01*
X166812864Y-65944193D01*
X166820543Y-65945000D01*
X166991457Y-65945000D01*
X166999136Y-65944193D01*
X167166316Y-65908658D01*
X167173656Y-65906273D01*
X167329799Y-65836753D01*
X167336478Y-65832897D01*
X167422064Y-65770715D01*
X167426960Y-65763457D01*
X175909109Y-65763457D01*
X175910116Y-65767213D01*
X176000522Y-65832897D01*
X176007201Y-65836753D01*
X176163344Y-65906273D01*
X176170684Y-65908658D01*
X176337864Y-65944193D01*
X176345543Y-65945000D01*
X176516457Y-65945000D01*
X176524136Y-65944193D01*
X176691316Y-65908658D01*
X176698656Y-65906273D01*
X176854799Y-65836753D01*
X176861478Y-65832897D01*
X176947064Y-65770715D01*
X176953014Y-65761894D01*
X176952607Y-65758029D01*
X176440226Y-65245647D01*
X176430587Y-65241152D01*
X176424688Y-65242733D01*
X175913604Y-65753818D01*
X175909109Y-65763457D01*
X167426960Y-65763457D01*
X167428014Y-65761894D01*
X167427607Y-65758029D01*
X166915226Y-65245647D01*
X166905587Y-65241152D01*
X166899688Y-65242733D01*
X166388604Y-65753818D01*
X166384109Y-65763457D01*
X157901960Y-65763457D01*
X157903014Y-65761894D01*
X157902607Y-65758029D01*
X157390226Y-65245647D01*
X157380587Y-65241152D01*
X157374688Y-65242733D01*
X156863604Y-65753818D01*
X156859109Y-65763457D01*
X155775500Y-65763457D01*
X155775500Y-65098853D01*
X156526723Y-65098853D01*
X156544590Y-65268847D01*
X156546193Y-65276384D01*
X156599010Y-65438940D01*
X156602148Y-65445988D01*
X156687611Y-65594013D01*
X156692141Y-65600249D01*
X156703397Y-65612751D01*
X156712791Y-65617746D01*
X156717922Y-65616656D01*
X157230353Y-65104226D01*
X157234463Y-65095413D01*
X157527152Y-65095413D01*
X157528733Y-65101312D01*
X158040645Y-65613223D01*
X158050284Y-65617718D01*
X158055354Y-65616359D01*
X158069859Y-65600249D01*
X158074389Y-65594013D01*
X158159852Y-65445988D01*
X158162990Y-65438940D01*
X158215807Y-65276384D01*
X158217410Y-65268847D01*
X158235277Y-65098853D01*
X166051723Y-65098853D01*
X166069590Y-65268847D01*
X166071193Y-65276384D01*
X166124010Y-65438940D01*
X166127148Y-65445988D01*
X166212611Y-65594013D01*
X166217141Y-65600249D01*
X166228397Y-65612751D01*
X166237791Y-65617746D01*
X166242922Y-65616656D01*
X166755353Y-65104226D01*
X166759463Y-65095413D01*
X167052152Y-65095413D01*
X167053733Y-65101312D01*
X167565645Y-65613223D01*
X167575284Y-65617718D01*
X167580354Y-65616359D01*
X167594859Y-65600249D01*
X167599389Y-65594013D01*
X167684852Y-65445988D01*
X167687990Y-65438940D01*
X167740807Y-65276384D01*
X167742410Y-65268847D01*
X167760277Y-65098853D01*
X175576723Y-65098853D01*
X175594590Y-65268847D01*
X175596193Y-65276384D01*
X175649010Y-65438940D01*
X175652148Y-65445988D01*
X175737611Y-65594013D01*
X175742141Y-65600249D01*
X175753397Y-65612751D01*
X175762791Y-65617746D01*
X175767922Y-65616656D01*
X176280353Y-65104226D01*
X176284463Y-65095413D01*
X176577152Y-65095413D01*
X176578733Y-65101312D01*
X177090645Y-65613223D01*
X177100284Y-65617718D01*
X177105354Y-65616359D01*
X177119859Y-65600249D01*
X177124389Y-65594013D01*
X177209852Y-65445988D01*
X177212990Y-65438940D01*
X177265807Y-65276384D01*
X177267410Y-65268847D01*
X177285277Y-65098853D01*
X177285277Y-65091147D01*
X177267410Y-64921153D01*
X177265807Y-64913616D01*
X177212990Y-64751060D01*
X177209852Y-64744012D01*
X177124389Y-64595987D01*
X177119859Y-64589751D01*
X177108603Y-64577249D01*
X177099209Y-64572254D01*
X177094078Y-64573344D01*
X176581647Y-65085774D01*
X176577152Y-65095413D01*
X176284463Y-65095413D01*
X176284848Y-65094587D01*
X176283267Y-65088688D01*
X175771355Y-64576777D01*
X175761716Y-64572282D01*
X175756646Y-64573641D01*
X175742141Y-64589751D01*
X175737611Y-64595987D01*
X175652148Y-64744012D01*
X175649010Y-64751060D01*
X175596193Y-64913616D01*
X175594590Y-64921153D01*
X175576723Y-65091147D01*
X175576723Y-65098853D01*
X167760277Y-65098853D01*
X167760277Y-65091147D01*
X167742410Y-64921153D01*
X167740807Y-64913616D01*
X167687990Y-64751060D01*
X167684852Y-64744012D01*
X167599389Y-64595987D01*
X167594859Y-64589751D01*
X167583603Y-64577249D01*
X167574209Y-64572254D01*
X167569078Y-64573344D01*
X167056647Y-65085774D01*
X167052152Y-65095413D01*
X166759463Y-65095413D01*
X166759848Y-65094587D01*
X166758267Y-65088688D01*
X166246355Y-64576777D01*
X166236716Y-64572282D01*
X166231646Y-64573641D01*
X166217141Y-64589751D01*
X166212611Y-64595987D01*
X166127148Y-64744012D01*
X166124010Y-64751060D01*
X166071193Y-64913616D01*
X166069590Y-64921153D01*
X166051723Y-65091147D01*
X166051723Y-65098853D01*
X158235277Y-65098853D01*
X158235277Y-65091147D01*
X158217410Y-64921153D01*
X158215807Y-64913616D01*
X158162990Y-64751060D01*
X158159852Y-64744012D01*
X158074389Y-64595987D01*
X158069859Y-64589751D01*
X158058603Y-64577249D01*
X158049209Y-64572254D01*
X158044078Y-64573344D01*
X157531647Y-65085774D01*
X157527152Y-65095413D01*
X157234463Y-65095413D01*
X157234848Y-65094587D01*
X157233267Y-65088688D01*
X156721355Y-64576777D01*
X156711716Y-64572282D01*
X156706646Y-64573641D01*
X156692141Y-64589751D01*
X156687611Y-64595987D01*
X156602148Y-64744012D01*
X156599010Y-64751060D01*
X156546193Y-64913616D01*
X156544590Y-64921153D01*
X156526723Y-65091147D01*
X156526723Y-65098853D01*
X155775500Y-65098853D01*
X155775500Y-64428106D01*
X156858986Y-64428106D01*
X156859393Y-64431971D01*
X157371774Y-64944353D01*
X157381413Y-64948848D01*
X157387312Y-64947267D01*
X157898396Y-64436182D01*
X157902162Y-64428106D01*
X166383986Y-64428106D01*
X166384393Y-64431971D01*
X166896774Y-64944353D01*
X166906413Y-64948848D01*
X166912312Y-64947267D01*
X167423396Y-64436182D01*
X167427162Y-64428106D01*
X175908986Y-64428106D01*
X175909393Y-64431971D01*
X176421774Y-64944353D01*
X176431413Y-64948848D01*
X176437312Y-64947267D01*
X176948396Y-64436182D01*
X176952891Y-64426543D01*
X176951884Y-64422787D01*
X176861478Y-64357103D01*
X176854799Y-64353247D01*
X176698656Y-64283727D01*
X176691316Y-64281342D01*
X176524136Y-64245807D01*
X176516457Y-64245000D01*
X176345543Y-64245000D01*
X176337864Y-64245807D01*
X176170684Y-64281342D01*
X176163344Y-64283727D01*
X176007201Y-64353247D01*
X176000522Y-64357103D01*
X175914936Y-64419285D01*
X175908986Y-64428106D01*
X167427162Y-64428106D01*
X167427891Y-64426543D01*
X167426884Y-64422787D01*
X167336478Y-64357103D01*
X167329799Y-64353247D01*
X167173656Y-64283727D01*
X167166316Y-64281342D01*
X166999136Y-64245807D01*
X166991457Y-64245000D01*
X166820543Y-64245000D01*
X166812864Y-64245807D01*
X166645684Y-64281342D01*
X166638344Y-64283727D01*
X166482201Y-64353247D01*
X166475522Y-64357103D01*
X166389936Y-64419285D01*
X166383986Y-64428106D01*
X157902162Y-64428106D01*
X157902891Y-64426543D01*
X157901884Y-64422787D01*
X157811478Y-64357103D01*
X157804799Y-64353247D01*
X157648656Y-64283727D01*
X157641316Y-64281342D01*
X157474136Y-64245807D01*
X157466457Y-64245000D01*
X157295543Y-64245000D01*
X157287864Y-64245807D01*
X157120684Y-64281342D01*
X157113344Y-64283727D01*
X156957201Y-64353247D01*
X156950522Y-64357103D01*
X156864936Y-64419285D01*
X156858986Y-64428106D01*
X155775500Y-64428106D01*
X155775500Y-63739262D01*
X183112020Y-63739262D01*
X183112323Y-63742871D01*
X183112323Y-63742873D01*
X183115904Y-63785519D01*
X183129259Y-63944553D01*
X183186044Y-64142586D01*
X183187696Y-64145800D01*
X183187697Y-64145803D01*
X183258580Y-64283727D01*
X183280212Y-64325818D01*
X183408177Y-64487270D01*
X183410930Y-64489613D01*
X183410933Y-64489616D01*
X183441562Y-64515683D01*
X183565064Y-64620791D01*
X183611766Y-64646892D01*
X183741739Y-64719532D01*
X183741743Y-64719534D01*
X183744898Y-64721297D01*
X183748334Y-64722414D01*
X183748340Y-64722416D01*
X183872756Y-64762841D01*
X183940829Y-64784959D01*
X184004676Y-64792572D01*
X184141794Y-64808922D01*
X184141797Y-64808922D01*
X184145394Y-64809351D01*
X184214214Y-64804056D01*
X184347189Y-64793824D01*
X184347191Y-64793824D01*
X184350800Y-64793546D01*
X184469050Y-64760530D01*
X184545744Y-64739117D01*
X184545745Y-64739117D01*
X184549225Y-64738145D01*
X184580363Y-64722416D01*
X184729876Y-64646892D01*
X184729879Y-64646890D01*
X184733110Y-64645258D01*
X184895451Y-64518424D01*
X185030064Y-64362472D01*
X185031847Y-64359333D01*
X185031850Y-64359329D01*
X185096797Y-64245000D01*
X185131823Y-64183344D01*
X185144312Y-64145803D01*
X185195708Y-63991299D01*
X185196851Y-63987863D01*
X185202323Y-63944553D01*
X185222413Y-63785519D01*
X185222413Y-63785513D01*
X185222671Y-63783474D01*
X185223083Y-63754000D01*
X185221638Y-63739262D01*
X185652020Y-63739262D01*
X185652323Y-63742871D01*
X185652323Y-63742873D01*
X185655904Y-63785519D01*
X185669259Y-63944553D01*
X185726044Y-64142586D01*
X185727696Y-64145800D01*
X185727697Y-64145803D01*
X185798580Y-64283727D01*
X185820212Y-64325818D01*
X185948177Y-64487270D01*
X185950930Y-64489613D01*
X185950933Y-64489616D01*
X185981562Y-64515683D01*
X186105064Y-64620791D01*
X186151766Y-64646892D01*
X186281739Y-64719532D01*
X186281743Y-64719534D01*
X186284898Y-64721297D01*
X186288334Y-64722414D01*
X186288340Y-64722416D01*
X186412756Y-64762841D01*
X186480829Y-64784959D01*
X186544676Y-64792572D01*
X186681794Y-64808922D01*
X186681797Y-64808922D01*
X186685394Y-64809351D01*
X186754214Y-64804056D01*
X186887189Y-64793824D01*
X186887191Y-64793824D01*
X186890800Y-64793546D01*
X187009050Y-64760530D01*
X187085744Y-64739117D01*
X187085745Y-64739117D01*
X187089225Y-64738145D01*
X187120363Y-64722416D01*
X187269876Y-64646892D01*
X187269879Y-64646890D01*
X187273110Y-64645258D01*
X187435451Y-64518424D01*
X187570064Y-64362472D01*
X187571847Y-64359333D01*
X187571850Y-64359329D01*
X187636797Y-64245000D01*
X187671823Y-64183344D01*
X187684312Y-64145803D01*
X187735708Y-63991299D01*
X187736851Y-63987863D01*
X187742323Y-63944553D01*
X187762413Y-63785519D01*
X187762413Y-63785513D01*
X187762671Y-63783474D01*
X187763083Y-63754000D01*
X187742980Y-63548970D01*
X187683435Y-63351749D01*
X187586718Y-63169849D01*
X187456511Y-63010200D01*
X187313917Y-62892236D01*
X187300570Y-62881194D01*
X187300569Y-62881193D01*
X187297775Y-62878882D01*
X187286884Y-62872993D01*
X187119738Y-62782618D01*
X187116555Y-62780897D01*
X187113105Y-62779829D01*
X187113100Y-62779827D01*
X186988496Y-62741256D01*
X186919754Y-62719977D01*
X186714869Y-62698443D01*
X186711265Y-62698771D01*
X186711264Y-62698771D01*
X186710715Y-62698821D01*
X186509703Y-62717114D01*
X186477177Y-62726687D01*
X186315543Y-62774258D01*
X186315539Y-62774260D01*
X186312072Y-62775280D01*
X186216133Y-62825436D01*
X186132709Y-62869049D01*
X186132706Y-62869051D01*
X186129502Y-62870726D01*
X186126684Y-62872992D01*
X186126682Y-62872993D01*
X185971766Y-62997548D01*
X185971763Y-62997551D01*
X185968947Y-62999815D01*
X185966621Y-63002587D01*
X185966619Y-63002589D01*
X185838851Y-63154856D01*
X185838848Y-63154860D01*
X185836524Y-63157630D01*
X185737276Y-63338162D01*
X185736182Y-63341611D01*
X185703227Y-63445500D01*
X185674984Y-63534532D01*
X185674581Y-63538123D01*
X185674581Y-63538124D01*
X185672961Y-63552570D01*
X185652020Y-63739262D01*
X185221638Y-63739262D01*
X185202980Y-63548970D01*
X185143435Y-63351749D01*
X185046718Y-63169849D01*
X184916511Y-63010200D01*
X184773917Y-62892236D01*
X184760570Y-62881194D01*
X184760569Y-62881193D01*
X184757775Y-62878882D01*
X184746884Y-62872993D01*
X184579738Y-62782618D01*
X184576555Y-62780897D01*
X184573105Y-62779829D01*
X184573100Y-62779827D01*
X184448496Y-62741256D01*
X184379754Y-62719977D01*
X184174869Y-62698443D01*
X184171265Y-62698771D01*
X184171264Y-62698771D01*
X184170715Y-62698821D01*
X183969703Y-62717114D01*
X183937177Y-62726687D01*
X183775543Y-62774258D01*
X183775539Y-62774260D01*
X183772072Y-62775280D01*
X183676133Y-62825436D01*
X183592709Y-62869049D01*
X183592706Y-62869051D01*
X183589502Y-62870726D01*
X183586684Y-62872992D01*
X183586682Y-62872993D01*
X183431766Y-62997548D01*
X183431763Y-62997551D01*
X183428947Y-62999815D01*
X183426621Y-63002587D01*
X183426619Y-63002589D01*
X183298851Y-63154856D01*
X183298848Y-63154860D01*
X183296524Y-63157630D01*
X183197276Y-63338162D01*
X183196182Y-63341611D01*
X183163227Y-63445500D01*
X183134984Y-63534532D01*
X183134581Y-63538123D01*
X183134581Y-63538124D01*
X183132961Y-63552570D01*
X183112020Y-63739262D01*
X155775500Y-63739262D01*
X155775500Y-62595000D01*
X156525815Y-62595000D01*
X156544503Y-62772803D01*
X156599750Y-62942835D01*
X156689141Y-63097665D01*
X156808770Y-63230526D01*
X156953407Y-63335612D01*
X156956958Y-63337193D01*
X157113183Y-63406749D01*
X157113188Y-63406750D01*
X157116733Y-63408329D01*
X157291609Y-63445500D01*
X157470391Y-63445500D01*
X157645267Y-63408329D01*
X157648812Y-63406750D01*
X157648817Y-63406749D01*
X157805042Y-63337193D01*
X157808593Y-63335612D01*
X157953230Y-63230526D01*
X158072859Y-63097665D01*
X158162250Y-62942835D01*
X158217497Y-62772803D01*
X158236185Y-62595000D01*
X158217497Y-62417197D01*
X158162250Y-62247165D01*
X158104373Y-62146919D01*
X161011000Y-62146919D01*
X161011155Y-62150311D01*
X161025102Y-62302092D01*
X161026332Y-62308733D01*
X161081862Y-62505624D01*
X161084284Y-62511932D01*
X161174765Y-62695409D01*
X161178290Y-62701163D01*
X161300690Y-62865076D01*
X161305216Y-62870103D01*
X161455429Y-63008958D01*
X161460800Y-63013079D01*
X161633805Y-63122237D01*
X161639825Y-63125304D01*
X161829829Y-63201109D01*
X161836314Y-63203029D01*
X162036954Y-63242939D01*
X162043662Y-63243644D01*
X162047953Y-63243700D01*
X162057995Y-63240193D01*
X162061000Y-63235143D01*
X162061000Y-63231706D01*
X162261000Y-63231706D01*
X162264638Y-63241702D01*
X162267878Y-63243572D01*
X162456569Y-63211149D01*
X162463104Y-63209398D01*
X162655028Y-63138593D01*
X162661122Y-63135687D01*
X162836937Y-63031088D01*
X162842396Y-63027122D01*
X162996203Y-62892236D01*
X163000856Y-62887332D01*
X163127499Y-62726687D01*
X163131185Y-62721011D01*
X163197483Y-62595000D01*
X166050815Y-62595000D01*
X166069503Y-62772803D01*
X166124750Y-62942835D01*
X166214141Y-63097665D01*
X166333770Y-63230526D01*
X166478407Y-63335612D01*
X166481958Y-63337193D01*
X166638183Y-63406749D01*
X166638188Y-63406750D01*
X166641733Y-63408329D01*
X166816609Y-63445500D01*
X166995391Y-63445500D01*
X167170267Y-63408329D01*
X167173812Y-63406750D01*
X167173817Y-63406749D01*
X167330042Y-63337193D01*
X167333593Y-63335612D01*
X167478230Y-63230526D01*
X167597859Y-63097665D01*
X167687250Y-62942835D01*
X167742497Y-62772803D01*
X167761185Y-62595000D01*
X167742497Y-62417197D01*
X167687250Y-62247165D01*
X167629373Y-62146919D01*
X170536000Y-62146919D01*
X170536155Y-62150311D01*
X170550102Y-62302092D01*
X170551332Y-62308733D01*
X170606862Y-62505624D01*
X170609284Y-62511932D01*
X170699765Y-62695409D01*
X170703290Y-62701163D01*
X170825690Y-62865076D01*
X170830216Y-62870103D01*
X170980429Y-63008958D01*
X170985800Y-63013079D01*
X171158805Y-63122237D01*
X171164825Y-63125304D01*
X171354829Y-63201109D01*
X171361314Y-63203029D01*
X171561954Y-63242939D01*
X171568662Y-63243644D01*
X171572953Y-63243700D01*
X171582995Y-63240193D01*
X171586000Y-63235143D01*
X171586000Y-63231706D01*
X171786000Y-63231706D01*
X171789638Y-63241702D01*
X171792878Y-63243572D01*
X171981569Y-63211149D01*
X171988104Y-63209398D01*
X172180028Y-63138593D01*
X172186122Y-63135687D01*
X172361937Y-63031088D01*
X172367396Y-63027122D01*
X172521203Y-62892236D01*
X172525856Y-62887332D01*
X172652499Y-62726687D01*
X172656185Y-62721011D01*
X172722483Y-62595000D01*
X175575815Y-62595000D01*
X175594503Y-62772803D01*
X175649750Y-62942835D01*
X175739141Y-63097665D01*
X175858770Y-63230526D01*
X176003407Y-63335612D01*
X176006958Y-63337193D01*
X176163183Y-63406749D01*
X176163188Y-63406750D01*
X176166733Y-63408329D01*
X176341609Y-63445500D01*
X176520391Y-63445500D01*
X176695267Y-63408329D01*
X176698812Y-63406750D01*
X176698817Y-63406749D01*
X176855042Y-63337193D01*
X176858593Y-63335612D01*
X177003230Y-63230526D01*
X177122859Y-63097665D01*
X177212250Y-62942835D01*
X177267497Y-62772803D01*
X177286185Y-62595000D01*
X177267497Y-62417197D01*
X177212250Y-62247165D01*
X177154373Y-62146919D01*
X180061000Y-62146919D01*
X180061155Y-62150311D01*
X180075102Y-62302092D01*
X180076332Y-62308733D01*
X180131862Y-62505624D01*
X180134284Y-62511932D01*
X180224765Y-62695409D01*
X180228290Y-62701163D01*
X180350690Y-62865076D01*
X180355216Y-62870103D01*
X180505429Y-63008958D01*
X180510800Y-63013079D01*
X180683805Y-63122237D01*
X180689825Y-63125304D01*
X180879829Y-63201109D01*
X180886314Y-63203029D01*
X181086954Y-63242939D01*
X181093662Y-63243644D01*
X181097953Y-63243700D01*
X181107995Y-63240193D01*
X181111000Y-63235143D01*
X181111000Y-63231706D01*
X181311000Y-63231706D01*
X181314638Y-63241702D01*
X181317878Y-63243572D01*
X181506569Y-63211149D01*
X181513104Y-63209398D01*
X181705028Y-63138593D01*
X181711122Y-63135687D01*
X181886937Y-63031088D01*
X181892396Y-63027122D01*
X182046203Y-62892236D01*
X182050856Y-62887332D01*
X182177499Y-62726687D01*
X182181185Y-62721011D01*
X182276429Y-62539983D01*
X182279022Y-62533720D01*
X182339683Y-62338363D01*
X182341087Y-62331757D01*
X182360743Y-62165687D01*
X182361000Y-62161328D01*
X182361000Y-62024328D01*
X183503737Y-62024328D01*
X183504992Y-62029009D01*
X183562594Y-62078032D01*
X183568513Y-62082146D01*
X183741940Y-62179072D01*
X183748541Y-62181955D01*
X183937491Y-62243348D01*
X183944536Y-62244897D01*
X184141804Y-62268421D01*
X184149016Y-62268572D01*
X184347102Y-62253330D01*
X184354201Y-62252078D01*
X184545562Y-62198649D01*
X184552270Y-62196047D01*
X184729607Y-62106468D01*
X184735695Y-62102604D01*
X184825898Y-62032131D01*
X184831533Y-62023113D01*
X184830934Y-62018855D01*
X184176726Y-61364647D01*
X184167087Y-61360152D01*
X184161188Y-61361733D01*
X183508232Y-62014689D01*
X183503737Y-62024328D01*
X182361000Y-62024328D01*
X182361000Y-61708048D01*
X182357362Y-61698052D01*
X182352075Y-61695000D01*
X181324048Y-61695000D01*
X181314052Y-61698638D01*
X181311000Y-61703925D01*
X181311000Y-63231706D01*
X181111000Y-63231706D01*
X181111000Y-61708048D01*
X181107362Y-61698052D01*
X181102075Y-61695000D01*
X180074048Y-61695000D01*
X180064052Y-61698638D01*
X180061000Y-61703925D01*
X180061000Y-62146919D01*
X177154373Y-62146919D01*
X177122859Y-62092335D01*
X177110352Y-62078444D01*
X177005823Y-61962354D01*
X177003230Y-61959474D01*
X176890898Y-61877859D01*
X176861737Y-61856672D01*
X176861735Y-61856671D01*
X176858593Y-61854388D01*
X176793058Y-61825210D01*
X176698817Y-61783251D01*
X176698811Y-61783249D01*
X176695267Y-61781671D01*
X176520391Y-61744500D01*
X176341609Y-61744500D01*
X176337813Y-61745307D01*
X176337812Y-61745307D01*
X176170528Y-61780864D01*
X176170525Y-61780865D01*
X176166733Y-61781671D01*
X176163191Y-61783248D01*
X176163188Y-61783249D01*
X176075092Y-61822472D01*
X176003408Y-61854388D01*
X176000272Y-61856666D01*
X176000271Y-61856667D01*
X175977290Y-61873364D01*
X175858770Y-61959474D01*
X175856177Y-61962354D01*
X175751649Y-62078444D01*
X175739141Y-62092335D01*
X175649750Y-62247165D01*
X175594503Y-62417197D01*
X175575815Y-62595000D01*
X172722483Y-62595000D01*
X172751429Y-62539983D01*
X172754022Y-62533720D01*
X172814683Y-62338363D01*
X172816087Y-62331757D01*
X172835743Y-62165687D01*
X172836000Y-62161328D01*
X172836000Y-61708048D01*
X172832362Y-61698052D01*
X172827075Y-61695000D01*
X171799048Y-61695000D01*
X171789052Y-61698638D01*
X171786000Y-61703925D01*
X171786000Y-63231706D01*
X171586000Y-63231706D01*
X171586000Y-61708048D01*
X171582362Y-61698052D01*
X171577075Y-61695000D01*
X170549048Y-61695000D01*
X170539052Y-61698638D01*
X170536000Y-61703925D01*
X170536000Y-62146919D01*
X167629373Y-62146919D01*
X167597859Y-62092335D01*
X167585352Y-62078444D01*
X167480823Y-61962354D01*
X167478230Y-61959474D01*
X167365898Y-61877859D01*
X167336737Y-61856672D01*
X167336735Y-61856671D01*
X167333593Y-61854388D01*
X167268058Y-61825210D01*
X167173817Y-61783251D01*
X167173811Y-61783249D01*
X167170267Y-61781671D01*
X166995391Y-61744500D01*
X166816609Y-61744500D01*
X166812813Y-61745307D01*
X166812812Y-61745307D01*
X166645528Y-61780864D01*
X166645525Y-61780865D01*
X166641733Y-61781671D01*
X166638191Y-61783248D01*
X166638188Y-61783249D01*
X166550092Y-61822472D01*
X166478408Y-61854388D01*
X166475272Y-61856666D01*
X166475271Y-61856667D01*
X166452290Y-61873364D01*
X166333770Y-61959474D01*
X166331177Y-61962354D01*
X166226649Y-62078444D01*
X166214141Y-62092335D01*
X166124750Y-62247165D01*
X166069503Y-62417197D01*
X166050815Y-62595000D01*
X163197483Y-62595000D01*
X163226429Y-62539983D01*
X163229022Y-62533720D01*
X163289683Y-62338363D01*
X163291087Y-62331757D01*
X163310743Y-62165687D01*
X163311000Y-62161328D01*
X163311000Y-61708048D01*
X163307362Y-61698052D01*
X163302075Y-61695000D01*
X162274048Y-61695000D01*
X162264052Y-61698638D01*
X162261000Y-61703925D01*
X162261000Y-63231706D01*
X162061000Y-63231706D01*
X162061000Y-61708048D01*
X162057362Y-61698052D01*
X162052075Y-61695000D01*
X161024048Y-61695000D01*
X161014052Y-61698638D01*
X161011000Y-61703925D01*
X161011000Y-62146919D01*
X158104373Y-62146919D01*
X158072859Y-62092335D01*
X158060352Y-62078444D01*
X157955823Y-61962354D01*
X157953230Y-61959474D01*
X157840898Y-61877859D01*
X157811737Y-61856672D01*
X157811735Y-61856671D01*
X157808593Y-61854388D01*
X157743058Y-61825210D01*
X157648817Y-61783251D01*
X157648811Y-61783249D01*
X157645267Y-61781671D01*
X157470391Y-61744500D01*
X157291609Y-61744500D01*
X157287813Y-61745307D01*
X157287812Y-61745307D01*
X157120528Y-61780864D01*
X157120525Y-61780865D01*
X157116733Y-61781671D01*
X157113191Y-61783248D01*
X157113188Y-61783249D01*
X157025092Y-61822472D01*
X156953408Y-61854388D01*
X156950272Y-61856666D01*
X156950271Y-61856667D01*
X156927290Y-61873364D01*
X156808770Y-61959474D01*
X156806177Y-61962354D01*
X156701649Y-62078444D01*
X156689141Y-62092335D01*
X156599750Y-62247165D01*
X156544503Y-62417197D01*
X156525815Y-62595000D01*
X155775500Y-62595000D01*
X155775500Y-61481952D01*
X161011000Y-61481952D01*
X161014638Y-61491948D01*
X161019925Y-61495000D01*
X162047952Y-61495000D01*
X162057948Y-61491362D01*
X162061000Y-61486075D01*
X162061000Y-61481952D01*
X162261000Y-61481952D01*
X162264638Y-61491948D01*
X162269925Y-61495000D01*
X163297952Y-61495000D01*
X163307948Y-61491362D01*
X163311000Y-61486075D01*
X163311000Y-61481952D01*
X170536000Y-61481952D01*
X170539638Y-61491948D01*
X170544925Y-61495000D01*
X171572952Y-61495000D01*
X171582948Y-61491362D01*
X171586000Y-61486075D01*
X171586000Y-61481952D01*
X171786000Y-61481952D01*
X171789638Y-61491948D01*
X171794925Y-61495000D01*
X172822952Y-61495000D01*
X172832948Y-61491362D01*
X172836000Y-61486075D01*
X172836000Y-61481952D01*
X180061000Y-61481952D01*
X180064638Y-61491948D01*
X180069925Y-61495000D01*
X181097952Y-61495000D01*
X181107948Y-61491362D01*
X181111000Y-61486075D01*
X181111000Y-61481952D01*
X181311000Y-61481952D01*
X181314638Y-61491948D01*
X181319925Y-61495000D01*
X182347952Y-61495000D01*
X182357948Y-61491362D01*
X182361000Y-61486075D01*
X182361000Y-61202880D01*
X183112825Y-61202880D01*
X183129449Y-61400854D01*
X183130750Y-61407942D01*
X183185513Y-61598922D01*
X183188163Y-61605617D01*
X183278979Y-61782326D01*
X183282884Y-61788384D01*
X183349418Y-61872331D01*
X183358478Y-61877904D01*
X183362816Y-61877263D01*
X184016853Y-61223226D01*
X184020963Y-61214413D01*
X184313652Y-61214413D01*
X184315233Y-61220312D01*
X184968285Y-61873364D01*
X184977924Y-61877859D01*
X184982700Y-61876579D01*
X185027292Y-61824920D01*
X185031439Y-61819042D01*
X185129578Y-61646283D01*
X185132506Y-61639708D01*
X185195219Y-61451189D01*
X185196816Y-61444155D01*
X185221911Y-61245509D01*
X185222199Y-61241400D01*
X185222552Y-61216062D01*
X185222380Y-61211947D01*
X185221136Y-61199262D01*
X185652020Y-61199262D01*
X185652323Y-61202871D01*
X185652323Y-61202873D01*
X185665530Y-61360152D01*
X185669259Y-61404553D01*
X185726044Y-61602586D01*
X185727696Y-61605800D01*
X185727697Y-61605803D01*
X185799392Y-61745307D01*
X185820212Y-61785818D01*
X185948177Y-61947270D01*
X185950930Y-61949613D01*
X185950933Y-61949616D01*
X185981562Y-61975683D01*
X186105064Y-62080791D01*
X186151008Y-62106468D01*
X186281739Y-62179532D01*
X186281743Y-62179534D01*
X186284898Y-62181297D01*
X186288334Y-62182414D01*
X186288340Y-62182416D01*
X186412756Y-62222841D01*
X186480829Y-62244959D01*
X186540533Y-62252078D01*
X186681794Y-62268922D01*
X186681797Y-62268922D01*
X186685394Y-62269351D01*
X186754214Y-62264056D01*
X186887189Y-62253824D01*
X186887191Y-62253824D01*
X186890800Y-62253546D01*
X187089225Y-62198145D01*
X187121276Y-62181955D01*
X187269876Y-62106892D01*
X187269879Y-62106890D01*
X187273110Y-62105258D01*
X187435451Y-61978424D01*
X187522770Y-61877263D01*
X187567701Y-61825210D01*
X187567703Y-61825208D01*
X187570064Y-61822472D01*
X187571847Y-61819333D01*
X187571850Y-61819329D01*
X187637408Y-61703925D01*
X187671823Y-61643344D01*
X187684312Y-61605803D01*
X187735708Y-61451299D01*
X187736851Y-61447863D01*
X187737320Y-61444155D01*
X187762413Y-61245519D01*
X187762414Y-61245509D01*
X187762671Y-61243474D01*
X187763083Y-61214000D01*
X187762179Y-61204774D01*
X187743333Y-61012570D01*
X187742980Y-61008970D01*
X187683435Y-60811749D01*
X187612356Y-60678068D01*
X187588417Y-60633044D01*
X187588416Y-60633042D01*
X187586718Y-60629849D01*
X187456511Y-60470200D01*
X187297775Y-60338882D01*
X187287661Y-60333413D01*
X187119738Y-60242618D01*
X187116555Y-60240897D01*
X187113105Y-60239829D01*
X187113100Y-60239827D01*
X186988496Y-60201256D01*
X186919754Y-60179977D01*
X186714869Y-60158443D01*
X186711265Y-60158771D01*
X186711264Y-60158771D01*
X186666135Y-60162878D01*
X186509703Y-60177114D01*
X186494665Y-60181540D01*
X186315543Y-60234258D01*
X186315539Y-60234260D01*
X186312072Y-60235280D01*
X186216133Y-60285436D01*
X186132709Y-60329049D01*
X186132706Y-60329051D01*
X186129502Y-60330726D01*
X186126684Y-60332992D01*
X186126682Y-60332993D01*
X185971766Y-60457548D01*
X185971763Y-60457551D01*
X185968947Y-60459815D01*
X185966621Y-60462587D01*
X185966619Y-60462589D01*
X185838851Y-60614856D01*
X185838848Y-60614860D01*
X185836524Y-60617630D01*
X185737276Y-60798162D01*
X185733979Y-60808556D01*
X185692554Y-60939145D01*
X185674984Y-60994532D01*
X185674581Y-60998123D01*
X185674581Y-60998124D01*
X185671644Y-61024313D01*
X185652020Y-61199262D01*
X185221136Y-61199262D01*
X185202840Y-61012670D01*
X185201441Y-61005602D01*
X185144016Y-60815403D01*
X185141272Y-60808745D01*
X185047998Y-60633322D01*
X185044012Y-60627323D01*
X184985590Y-60555690D01*
X184976453Y-60550243D01*
X184971948Y-60550973D01*
X184318147Y-61204774D01*
X184313652Y-61214413D01*
X184020963Y-61214413D01*
X184021348Y-61213587D01*
X184019767Y-61207688D01*
X183366871Y-60554792D01*
X183357232Y-60550297D01*
X183352643Y-60551527D01*
X183299266Y-60615140D01*
X183295196Y-60621083D01*
X183199480Y-60795191D01*
X183196644Y-60801808D01*
X183136568Y-60991189D01*
X183135072Y-60998227D01*
X183112926Y-61195671D01*
X183112825Y-61202880D01*
X182361000Y-61202880D01*
X182361000Y-61043081D01*
X182360845Y-61039689D01*
X182346898Y-60887908D01*
X182345668Y-60881267D01*
X182290138Y-60684376D01*
X182287716Y-60678068D01*
X182197235Y-60494591D01*
X182193710Y-60488837D01*
X182131128Y-60405030D01*
X183503687Y-60405030D01*
X183504372Y-60409451D01*
X184158274Y-61063353D01*
X184167913Y-61067848D01*
X184173812Y-61066267D01*
X184826684Y-60413395D01*
X184831179Y-60403756D01*
X184829973Y-60399258D01*
X184760289Y-60341610D01*
X184754304Y-60337573D01*
X184579543Y-60243081D01*
X184572905Y-60240290D01*
X184383112Y-60181540D01*
X184376052Y-60180091D01*
X184178461Y-60159323D01*
X184171261Y-60159273D01*
X183973403Y-60177279D01*
X183966326Y-60178629D01*
X183775731Y-60234724D01*
X183769055Y-60237422D01*
X183592983Y-60329469D01*
X183586956Y-60333413D01*
X183509197Y-60395933D01*
X183503687Y-60405030D01*
X182131128Y-60405030D01*
X182071310Y-60324924D01*
X182066784Y-60319897D01*
X181916571Y-60181042D01*
X181911200Y-60176921D01*
X181738195Y-60067763D01*
X181732175Y-60064696D01*
X181542171Y-59988891D01*
X181535686Y-59986971D01*
X181335046Y-59947061D01*
X181328338Y-59946356D01*
X181324047Y-59946300D01*
X181314005Y-59949807D01*
X181311000Y-59954857D01*
X181311000Y-61481952D01*
X181111000Y-61481952D01*
X181111000Y-59958294D01*
X181107362Y-59948298D01*
X181104122Y-59946428D01*
X180915431Y-59978851D01*
X180908896Y-59980602D01*
X180716972Y-60051407D01*
X180710878Y-60054313D01*
X180535063Y-60158912D01*
X180529604Y-60162878D01*
X180375797Y-60297764D01*
X180371144Y-60302668D01*
X180244501Y-60463313D01*
X180240815Y-60468989D01*
X180145571Y-60650017D01*
X180142978Y-60656280D01*
X180082317Y-60851637D01*
X180080913Y-60858243D01*
X180061257Y-61024313D01*
X180061000Y-61028672D01*
X180061000Y-61481952D01*
X172836000Y-61481952D01*
X172836000Y-61043081D01*
X172835845Y-61039689D01*
X172821898Y-60887908D01*
X172820668Y-60881267D01*
X172765138Y-60684376D01*
X172762716Y-60678068D01*
X172721751Y-60595000D01*
X175575815Y-60595000D01*
X175594503Y-60772803D01*
X175649750Y-60942835D01*
X175739141Y-61097665D01*
X175858770Y-61230526D01*
X175861908Y-61232806D01*
X175873737Y-61241400D01*
X176003407Y-61335612D01*
X176006958Y-61337193D01*
X176163183Y-61406749D01*
X176163188Y-61406750D01*
X176166733Y-61408329D01*
X176315704Y-61439994D01*
X176335832Y-61444272D01*
X176341609Y-61445500D01*
X176520391Y-61445500D01*
X176526169Y-61444272D01*
X176546296Y-61439994D01*
X176695267Y-61408329D01*
X176698812Y-61406750D01*
X176698817Y-61406749D01*
X176855042Y-61337193D01*
X176858593Y-61335612D01*
X176988264Y-61241400D01*
X177000092Y-61232806D01*
X177003230Y-61230526D01*
X177122859Y-61097665D01*
X177212250Y-60942835D01*
X177267497Y-60772803D01*
X177286185Y-60595000D01*
X177281558Y-60550973D01*
X177267902Y-60421048D01*
X177267902Y-60421046D01*
X177267497Y-60417197D01*
X177212250Y-60247165D01*
X177122859Y-60092335D01*
X177003230Y-59959474D01*
X176858593Y-59854388D01*
X176855042Y-59852807D01*
X176698817Y-59783251D01*
X176698811Y-59783249D01*
X176695267Y-59781671D01*
X176520391Y-59744500D01*
X176341609Y-59744500D01*
X176337813Y-59745307D01*
X176337812Y-59745307D01*
X176170528Y-59780864D01*
X176170525Y-59780865D01*
X176166733Y-59781671D01*
X176163191Y-59783248D01*
X176163188Y-59783249D01*
X176163184Y-59783251D01*
X176003408Y-59854388D01*
X175858770Y-59959474D01*
X175739141Y-60092335D01*
X175649750Y-60247165D01*
X175594503Y-60417197D01*
X175594098Y-60421046D01*
X175594098Y-60421048D01*
X175580442Y-60550973D01*
X175575815Y-60595000D01*
X172721751Y-60595000D01*
X172672235Y-60494591D01*
X172668710Y-60488837D01*
X172546310Y-60324924D01*
X172541784Y-60319897D01*
X172391571Y-60181042D01*
X172386200Y-60176921D01*
X172213195Y-60067763D01*
X172207175Y-60064696D01*
X172017171Y-59988891D01*
X172010686Y-59986971D01*
X171810046Y-59947061D01*
X171803338Y-59946356D01*
X171799047Y-59946300D01*
X171789005Y-59949807D01*
X171786000Y-59954857D01*
X171786000Y-61481952D01*
X171586000Y-61481952D01*
X171586000Y-59958294D01*
X171582362Y-59948298D01*
X171579122Y-59946428D01*
X171390431Y-59978851D01*
X171383896Y-59980602D01*
X171191972Y-60051407D01*
X171185878Y-60054313D01*
X171010063Y-60158912D01*
X171004604Y-60162878D01*
X170850797Y-60297764D01*
X170846144Y-60302668D01*
X170719501Y-60463313D01*
X170715815Y-60468989D01*
X170620571Y-60650017D01*
X170617978Y-60656280D01*
X170557317Y-60851637D01*
X170555913Y-60858243D01*
X170536257Y-61024313D01*
X170536000Y-61028672D01*
X170536000Y-61481952D01*
X163311000Y-61481952D01*
X163311000Y-61043081D01*
X163310845Y-61039689D01*
X163296898Y-60887908D01*
X163295668Y-60881267D01*
X163240138Y-60684376D01*
X163237716Y-60678068D01*
X163196751Y-60595000D01*
X166050815Y-60595000D01*
X166069503Y-60772803D01*
X166124750Y-60942835D01*
X166214141Y-61097665D01*
X166333770Y-61230526D01*
X166336908Y-61232806D01*
X166348737Y-61241400D01*
X166478407Y-61335612D01*
X166481958Y-61337193D01*
X166638183Y-61406749D01*
X166638188Y-61406750D01*
X166641733Y-61408329D01*
X166790704Y-61439994D01*
X166810832Y-61444272D01*
X166816609Y-61445500D01*
X166995391Y-61445500D01*
X167001169Y-61444272D01*
X167021296Y-61439994D01*
X167170267Y-61408329D01*
X167173812Y-61406750D01*
X167173817Y-61406749D01*
X167330042Y-61337193D01*
X167333593Y-61335612D01*
X167463264Y-61241400D01*
X167475092Y-61232806D01*
X167478230Y-61230526D01*
X167597859Y-61097665D01*
X167687250Y-60942835D01*
X167742497Y-60772803D01*
X167761185Y-60595000D01*
X167756558Y-60550973D01*
X167742902Y-60421048D01*
X167742902Y-60421046D01*
X167742497Y-60417197D01*
X167687250Y-60247165D01*
X167597859Y-60092335D01*
X167478230Y-59959474D01*
X167333593Y-59854388D01*
X167330042Y-59852807D01*
X167173817Y-59783251D01*
X167173811Y-59783249D01*
X167170267Y-59781671D01*
X166995391Y-59744500D01*
X166816609Y-59744500D01*
X166812813Y-59745307D01*
X166812812Y-59745307D01*
X166645528Y-59780864D01*
X166645525Y-59780865D01*
X166641733Y-59781671D01*
X166638191Y-59783248D01*
X166638188Y-59783249D01*
X166638184Y-59783251D01*
X166478408Y-59854388D01*
X166333770Y-59959474D01*
X166214141Y-60092335D01*
X166124750Y-60247165D01*
X166069503Y-60417197D01*
X166069098Y-60421046D01*
X166069098Y-60421048D01*
X166055442Y-60550973D01*
X166050815Y-60595000D01*
X163196751Y-60595000D01*
X163147235Y-60494591D01*
X163143710Y-60488837D01*
X163021310Y-60324924D01*
X163016784Y-60319897D01*
X162866571Y-60181042D01*
X162861200Y-60176921D01*
X162688195Y-60067763D01*
X162682175Y-60064696D01*
X162492171Y-59988891D01*
X162485686Y-59986971D01*
X162285046Y-59947061D01*
X162278338Y-59946356D01*
X162274047Y-59946300D01*
X162264005Y-59949807D01*
X162261000Y-59954857D01*
X162261000Y-61481952D01*
X162061000Y-61481952D01*
X162061000Y-59958294D01*
X162057362Y-59948298D01*
X162054122Y-59946428D01*
X161865431Y-59978851D01*
X161858896Y-59980602D01*
X161666972Y-60051407D01*
X161660878Y-60054313D01*
X161485063Y-60158912D01*
X161479604Y-60162878D01*
X161325797Y-60297764D01*
X161321144Y-60302668D01*
X161194501Y-60463313D01*
X161190815Y-60468989D01*
X161095571Y-60650017D01*
X161092978Y-60656280D01*
X161032317Y-60851637D01*
X161030913Y-60858243D01*
X161011257Y-61024313D01*
X161011000Y-61028672D01*
X161011000Y-61481952D01*
X155775500Y-61481952D01*
X155775500Y-60595000D01*
X156525815Y-60595000D01*
X156544503Y-60772803D01*
X156599750Y-60942835D01*
X156689141Y-61097665D01*
X156808770Y-61230526D01*
X156811908Y-61232806D01*
X156823737Y-61241400D01*
X156953407Y-61335612D01*
X156956958Y-61337193D01*
X157113183Y-61406749D01*
X157113188Y-61406750D01*
X157116733Y-61408329D01*
X157265704Y-61439994D01*
X157285832Y-61444272D01*
X157291609Y-61445500D01*
X157470391Y-61445500D01*
X157476169Y-61444272D01*
X157496296Y-61439994D01*
X157645267Y-61408329D01*
X157648812Y-61406750D01*
X157648817Y-61406749D01*
X157805042Y-61337193D01*
X157808593Y-61335612D01*
X157938264Y-61241400D01*
X157950092Y-61232806D01*
X157953230Y-61230526D01*
X158072859Y-61097665D01*
X158162250Y-60942835D01*
X158217497Y-60772803D01*
X158236185Y-60595000D01*
X158231558Y-60550973D01*
X158217902Y-60421048D01*
X158217902Y-60421046D01*
X158217497Y-60417197D01*
X158162250Y-60247165D01*
X158072859Y-60092335D01*
X157953230Y-59959474D01*
X157808593Y-59854388D01*
X157805042Y-59852807D01*
X157648817Y-59783251D01*
X157648811Y-59783249D01*
X157645267Y-59781671D01*
X157470391Y-59744500D01*
X157291609Y-59744500D01*
X157287813Y-59745307D01*
X157287812Y-59745307D01*
X157120528Y-59780864D01*
X157120525Y-59780865D01*
X157116733Y-59781671D01*
X157113191Y-59783248D01*
X157113188Y-59783249D01*
X157113184Y-59783251D01*
X156953408Y-59854388D01*
X156808770Y-59959474D01*
X156689141Y-60092335D01*
X156599750Y-60247165D01*
X156544503Y-60417197D01*
X156544098Y-60421046D01*
X156544098Y-60421048D01*
X156530442Y-60550973D01*
X156525815Y-60595000D01*
X155775500Y-60595000D01*
X155775500Y-58764748D01*
X156530500Y-58764748D01*
X156542133Y-58823231D01*
X156586448Y-58889552D01*
X156592509Y-58893602D01*
X156608478Y-58904272D01*
X156652769Y-58933867D01*
X156697295Y-58942724D01*
X156707682Y-58944790D01*
X156707683Y-58944790D01*
X156711252Y-58945500D01*
X158050748Y-58945500D01*
X158054317Y-58944790D01*
X158054318Y-58944790D01*
X158064705Y-58942724D01*
X158109231Y-58933867D01*
X158153523Y-58904272D01*
X158169491Y-58893602D01*
X158175552Y-58889552D01*
X158219867Y-58823231D01*
X158231500Y-58764748D01*
X166055500Y-58764748D01*
X166067133Y-58823231D01*
X166111448Y-58889552D01*
X166117509Y-58893602D01*
X166133478Y-58904272D01*
X166177769Y-58933867D01*
X166222295Y-58942724D01*
X166232682Y-58944790D01*
X166232683Y-58944790D01*
X166236252Y-58945500D01*
X167575748Y-58945500D01*
X167579317Y-58944790D01*
X167579318Y-58944790D01*
X167589705Y-58942724D01*
X167634231Y-58933867D01*
X167678523Y-58904272D01*
X167694491Y-58893602D01*
X167700552Y-58889552D01*
X167744867Y-58823231D01*
X167756500Y-58764748D01*
X175580500Y-58764748D01*
X175592133Y-58823231D01*
X175636448Y-58889552D01*
X175642509Y-58893602D01*
X175658478Y-58904272D01*
X175702769Y-58933867D01*
X175747295Y-58942724D01*
X175757682Y-58944790D01*
X175757683Y-58944790D01*
X175761252Y-58945500D01*
X177100748Y-58945500D01*
X177104317Y-58944790D01*
X177104318Y-58944790D01*
X177114705Y-58942724D01*
X177159231Y-58933867D01*
X177203523Y-58904272D01*
X177219491Y-58893602D01*
X177225552Y-58889552D01*
X177269867Y-58823231D01*
X177281500Y-58764748D01*
X177281500Y-58659262D01*
X183112020Y-58659262D01*
X183112323Y-58662871D01*
X183112323Y-58662873D01*
X183125789Y-58823231D01*
X183129259Y-58864553D01*
X183186044Y-59062586D01*
X183187696Y-59065800D01*
X183187697Y-59065803D01*
X183208606Y-59106487D01*
X183280212Y-59245818D01*
X183408177Y-59407270D01*
X183410930Y-59409613D01*
X183410933Y-59409616D01*
X183441562Y-59435683D01*
X183565064Y-59540791D01*
X183611766Y-59566892D01*
X183741739Y-59639532D01*
X183741743Y-59639534D01*
X183744898Y-59641297D01*
X183748334Y-59642414D01*
X183748340Y-59642416D01*
X183872756Y-59682841D01*
X183940829Y-59704959D01*
X184004676Y-59712572D01*
X184141794Y-59728922D01*
X184141797Y-59728922D01*
X184145394Y-59729351D01*
X184214214Y-59724056D01*
X184347189Y-59713824D01*
X184347191Y-59713824D01*
X184350800Y-59713546D01*
X184549225Y-59658145D01*
X184580363Y-59642416D01*
X184729876Y-59566892D01*
X184729879Y-59566890D01*
X184733110Y-59565258D01*
X184895451Y-59438424D01*
X185030064Y-59282472D01*
X185031847Y-59279333D01*
X185031850Y-59279329D01*
X185080943Y-59192908D01*
X185131823Y-59103344D01*
X185144312Y-59065803D01*
X185195708Y-58911299D01*
X185196851Y-58907863D01*
X185199165Y-58889552D01*
X185222413Y-58705519D01*
X185222413Y-58705513D01*
X185222671Y-58703474D01*
X185223083Y-58674000D01*
X185221638Y-58659262D01*
X185652020Y-58659262D01*
X185652323Y-58662871D01*
X185652323Y-58662873D01*
X185665789Y-58823231D01*
X185669259Y-58864553D01*
X185726044Y-59062586D01*
X185727696Y-59065800D01*
X185727697Y-59065803D01*
X185748606Y-59106487D01*
X185820212Y-59245818D01*
X185948177Y-59407270D01*
X185950930Y-59409613D01*
X185950933Y-59409616D01*
X185981562Y-59435683D01*
X186105064Y-59540791D01*
X186151766Y-59566892D01*
X186281739Y-59639532D01*
X186281743Y-59639534D01*
X186284898Y-59641297D01*
X186288334Y-59642414D01*
X186288340Y-59642416D01*
X186412756Y-59682841D01*
X186480829Y-59704959D01*
X186544676Y-59712572D01*
X186681794Y-59728922D01*
X186681797Y-59728922D01*
X186685394Y-59729351D01*
X186754214Y-59724056D01*
X186887189Y-59713824D01*
X186887191Y-59713824D01*
X186890800Y-59713546D01*
X187089225Y-59658145D01*
X187120363Y-59642416D01*
X187269876Y-59566892D01*
X187269879Y-59566890D01*
X187273110Y-59565258D01*
X187435451Y-59438424D01*
X187570064Y-59282472D01*
X187571847Y-59279333D01*
X187571850Y-59279329D01*
X187620943Y-59192908D01*
X187671823Y-59103344D01*
X187684312Y-59065803D01*
X187735708Y-58911299D01*
X187736851Y-58907863D01*
X187739165Y-58889552D01*
X187762413Y-58705519D01*
X187762413Y-58705513D01*
X187762671Y-58703474D01*
X187763083Y-58674000D01*
X187742980Y-58468970D01*
X187683435Y-58271749D01*
X187586718Y-58089849D01*
X187456511Y-57930200D01*
X187297775Y-57798882D01*
X187286884Y-57792993D01*
X187119738Y-57702618D01*
X187116555Y-57700897D01*
X187113105Y-57699829D01*
X187113100Y-57699827D01*
X186988496Y-57661256D01*
X186919754Y-57639977D01*
X186714869Y-57618443D01*
X186711265Y-57618771D01*
X186711264Y-57618771D01*
X186710715Y-57618821D01*
X186509703Y-57637114D01*
X186460747Y-57651522D01*
X186315543Y-57694258D01*
X186315539Y-57694260D01*
X186312072Y-57695280D01*
X186216133Y-57745436D01*
X186132709Y-57789049D01*
X186132706Y-57789051D01*
X186129502Y-57790726D01*
X186126684Y-57792992D01*
X186126682Y-57792993D01*
X185971766Y-57917548D01*
X185971763Y-57917551D01*
X185968947Y-57919815D01*
X185966621Y-57922587D01*
X185966619Y-57922589D01*
X185838851Y-58074856D01*
X185838848Y-58074860D01*
X185836524Y-58077630D01*
X185737276Y-58258162D01*
X185674984Y-58454532D01*
X185674581Y-58458123D01*
X185674581Y-58458124D01*
X185672961Y-58472570D01*
X185652020Y-58659262D01*
X185221638Y-58659262D01*
X185202980Y-58468970D01*
X185143435Y-58271749D01*
X185046718Y-58089849D01*
X184916511Y-57930200D01*
X184757775Y-57798882D01*
X184746884Y-57792993D01*
X184579738Y-57702618D01*
X184576555Y-57700897D01*
X184573105Y-57699829D01*
X184573100Y-57699827D01*
X184448496Y-57661256D01*
X184379754Y-57639977D01*
X184174869Y-57618443D01*
X184171265Y-57618771D01*
X184171264Y-57618771D01*
X184170715Y-57618821D01*
X183969703Y-57637114D01*
X183920747Y-57651522D01*
X183775543Y-57694258D01*
X183775539Y-57694260D01*
X183772072Y-57695280D01*
X183676133Y-57745436D01*
X183592709Y-57789049D01*
X183592706Y-57789051D01*
X183589502Y-57790726D01*
X183586684Y-57792992D01*
X183586682Y-57792993D01*
X183431766Y-57917548D01*
X183431763Y-57917551D01*
X183428947Y-57919815D01*
X183426621Y-57922587D01*
X183426619Y-57922589D01*
X183298851Y-58074856D01*
X183298848Y-58074860D01*
X183296524Y-58077630D01*
X183197276Y-58258162D01*
X183134984Y-58454532D01*
X183134581Y-58458123D01*
X183134581Y-58458124D01*
X183132961Y-58472570D01*
X183112020Y-58659262D01*
X177281500Y-58659262D01*
X177281500Y-57425252D01*
X177269867Y-57366769D01*
X177225552Y-57300448D01*
X177159231Y-57256133D01*
X177114705Y-57247276D01*
X177104318Y-57245210D01*
X177104317Y-57245210D01*
X177100748Y-57244500D01*
X175761252Y-57244500D01*
X175757683Y-57245210D01*
X175757682Y-57245210D01*
X175747295Y-57247276D01*
X175702769Y-57256133D01*
X175636448Y-57300448D01*
X175592133Y-57366769D01*
X175580500Y-57425252D01*
X175580500Y-58764748D01*
X167756500Y-58764748D01*
X167756500Y-57425252D01*
X167744867Y-57366769D01*
X167700552Y-57300448D01*
X167634231Y-57256133D01*
X167589705Y-57247276D01*
X167579318Y-57245210D01*
X167579317Y-57245210D01*
X167575748Y-57244500D01*
X166236252Y-57244500D01*
X166232683Y-57245210D01*
X166232682Y-57245210D01*
X166222295Y-57247276D01*
X166177769Y-57256133D01*
X166111448Y-57300448D01*
X166067133Y-57366769D01*
X166055500Y-57425252D01*
X166055500Y-58764748D01*
X158231500Y-58764748D01*
X158231500Y-57425252D01*
X158219867Y-57366769D01*
X158175552Y-57300448D01*
X158109231Y-57256133D01*
X158064705Y-57247276D01*
X158054318Y-57245210D01*
X158054317Y-57245210D01*
X158050748Y-57244500D01*
X156711252Y-57244500D01*
X156707683Y-57245210D01*
X156707682Y-57245210D01*
X156697295Y-57247276D01*
X156652769Y-57256133D01*
X156586448Y-57300448D01*
X156542133Y-57366769D01*
X156530500Y-57425252D01*
X156530500Y-58764748D01*
X155775500Y-58764748D01*
X155775500Y-55131878D01*
X156332428Y-55131878D01*
X156364851Y-55320569D01*
X156366602Y-55327104D01*
X156437407Y-55519028D01*
X156440313Y-55525122D01*
X156544912Y-55700937D01*
X156548878Y-55706396D01*
X156683764Y-55860203D01*
X156688668Y-55864856D01*
X156849313Y-55991499D01*
X156854989Y-55995185D01*
X157036017Y-56090429D01*
X157042280Y-56093022D01*
X157237637Y-56153683D01*
X157244243Y-56155087D01*
X157410313Y-56174743D01*
X157414672Y-56175000D01*
X157867952Y-56175000D01*
X157877948Y-56171362D01*
X157881000Y-56166075D01*
X157881000Y-56161952D01*
X158081000Y-56161952D01*
X158084638Y-56171948D01*
X158089925Y-56175000D01*
X158532919Y-56175000D01*
X158536311Y-56174845D01*
X158688092Y-56160898D01*
X158694733Y-56159668D01*
X158891624Y-56104138D01*
X158897932Y-56101716D01*
X159081409Y-56011235D01*
X159087163Y-56007710D01*
X159251076Y-55885310D01*
X159256103Y-55880784D01*
X159394958Y-55730571D01*
X159399079Y-55725200D01*
X159508237Y-55552195D01*
X159511304Y-55546175D01*
X159587109Y-55356171D01*
X159589029Y-55349686D01*
X159618804Y-55200000D01*
X161794508Y-55200000D01*
X161795419Y-55205752D01*
X161813442Y-55319549D01*
X161813443Y-55319552D01*
X161814354Y-55325304D01*
X161816999Y-55330495D01*
X161817000Y-55330498D01*
X161869304Y-55433150D01*
X161869306Y-55433152D01*
X161871950Y-55438342D01*
X161961658Y-55528050D01*
X161966848Y-55530694D01*
X161966850Y-55530696D01*
X162069502Y-55583000D01*
X162069505Y-55583001D01*
X162074696Y-55585646D01*
X162080448Y-55586557D01*
X162080451Y-55586558D01*
X162194248Y-55604581D01*
X162200000Y-55605492D01*
X162205752Y-55604581D01*
X162319549Y-55586558D01*
X162319552Y-55586557D01*
X162325304Y-55585646D01*
X162330495Y-55583001D01*
X162330498Y-55583000D01*
X162433150Y-55530696D01*
X162433152Y-55530694D01*
X162438342Y-55528050D01*
X162528050Y-55438342D01*
X162530694Y-55433152D01*
X162530696Y-55433150D01*
X162583000Y-55330498D01*
X162583001Y-55330495D01*
X162585646Y-55325304D01*
X162586557Y-55319552D01*
X162586558Y-55319549D01*
X162604581Y-55205752D01*
X162605492Y-55200000D01*
X162794508Y-55200000D01*
X162795419Y-55205752D01*
X162813442Y-55319549D01*
X162813443Y-55319552D01*
X162814354Y-55325304D01*
X162816999Y-55330495D01*
X162817000Y-55330498D01*
X162869304Y-55433150D01*
X162869306Y-55433152D01*
X162871950Y-55438342D01*
X162961658Y-55528050D01*
X162966848Y-55530694D01*
X162966850Y-55530696D01*
X163069502Y-55583000D01*
X163069505Y-55583001D01*
X163074696Y-55585646D01*
X163080448Y-55586557D01*
X163080451Y-55586558D01*
X163194248Y-55604581D01*
X163200000Y-55605492D01*
X163205752Y-55604581D01*
X163319549Y-55586558D01*
X163319552Y-55586557D01*
X163325304Y-55585646D01*
X163330495Y-55583001D01*
X163330498Y-55583000D01*
X163433150Y-55530696D01*
X163433152Y-55530694D01*
X163438342Y-55528050D01*
X163528050Y-55438342D01*
X163530694Y-55433152D01*
X163530696Y-55433150D01*
X163583000Y-55330498D01*
X163583001Y-55330495D01*
X163585646Y-55325304D01*
X163586557Y-55319552D01*
X163586558Y-55319549D01*
X163604581Y-55205752D01*
X163605492Y-55200000D01*
X163794508Y-55200000D01*
X163795419Y-55205752D01*
X163813442Y-55319549D01*
X163813443Y-55319552D01*
X163814354Y-55325304D01*
X163816999Y-55330495D01*
X163817000Y-55330498D01*
X163869304Y-55433150D01*
X163869306Y-55433152D01*
X163871950Y-55438342D01*
X163961658Y-55528050D01*
X163966848Y-55530694D01*
X163966850Y-55530696D01*
X164069502Y-55583000D01*
X164069505Y-55583001D01*
X164074696Y-55585646D01*
X164080448Y-55586557D01*
X164080451Y-55586558D01*
X164194248Y-55604581D01*
X164200000Y-55605492D01*
X164205752Y-55604581D01*
X164319549Y-55586558D01*
X164319552Y-55586557D01*
X164325304Y-55585646D01*
X164330495Y-55583001D01*
X164330498Y-55583000D01*
X164433150Y-55530696D01*
X164433152Y-55530694D01*
X164438342Y-55528050D01*
X164528050Y-55438342D01*
X164530694Y-55433152D01*
X164530696Y-55433150D01*
X164583000Y-55330498D01*
X164583001Y-55330495D01*
X164585646Y-55325304D01*
X164586557Y-55319552D01*
X164586558Y-55319549D01*
X164604581Y-55205752D01*
X164605492Y-55200000D01*
X164597422Y-55149046D01*
X164594703Y-55131878D01*
X165857428Y-55131878D01*
X165889851Y-55320569D01*
X165891602Y-55327104D01*
X165962407Y-55519028D01*
X165965313Y-55525122D01*
X166069912Y-55700937D01*
X166073878Y-55706396D01*
X166208764Y-55860203D01*
X166213668Y-55864856D01*
X166374313Y-55991499D01*
X166379989Y-55995185D01*
X166561017Y-56090429D01*
X166567280Y-56093022D01*
X166762637Y-56153683D01*
X166769243Y-56155087D01*
X166935313Y-56174743D01*
X166939672Y-56175000D01*
X167392952Y-56175000D01*
X167402948Y-56171362D01*
X167406000Y-56166075D01*
X167406000Y-56161952D01*
X167606000Y-56161952D01*
X167609638Y-56171948D01*
X167614925Y-56175000D01*
X168057919Y-56175000D01*
X168061311Y-56174845D01*
X168213092Y-56160898D01*
X168219733Y-56159668D01*
X168416624Y-56104138D01*
X168422932Y-56101716D01*
X168606409Y-56011235D01*
X168612163Y-56007710D01*
X168776076Y-55885310D01*
X168781103Y-55880784D01*
X168919958Y-55730571D01*
X168924079Y-55725200D01*
X169033237Y-55552195D01*
X169036304Y-55546175D01*
X169112109Y-55356171D01*
X169114029Y-55349686D01*
X169153939Y-55149046D01*
X169154644Y-55142338D01*
X169154700Y-55138047D01*
X169152546Y-55131878D01*
X175382428Y-55131878D01*
X175414851Y-55320569D01*
X175416602Y-55327104D01*
X175487407Y-55519028D01*
X175490313Y-55525122D01*
X175594912Y-55700937D01*
X175598878Y-55706396D01*
X175733764Y-55860203D01*
X175738668Y-55864856D01*
X175899313Y-55991499D01*
X175904989Y-55995185D01*
X176086017Y-56090429D01*
X176092280Y-56093022D01*
X176287637Y-56153683D01*
X176294243Y-56155087D01*
X176460313Y-56174743D01*
X176464672Y-56175000D01*
X176917952Y-56175000D01*
X176927948Y-56171362D01*
X176931000Y-56166075D01*
X176931000Y-56161952D01*
X177131000Y-56161952D01*
X177134638Y-56171948D01*
X177139925Y-56175000D01*
X177582919Y-56175000D01*
X177586311Y-56174845D01*
X177738092Y-56160898D01*
X177744733Y-56159668D01*
X177887999Y-56119262D01*
X183112020Y-56119262D01*
X183112323Y-56122871D01*
X183112323Y-56122873D01*
X183128956Y-56320945D01*
X183129259Y-56324553D01*
X183186044Y-56522586D01*
X183187696Y-56525800D01*
X183187697Y-56525803D01*
X183208606Y-56566487D01*
X183280212Y-56705818D01*
X183408177Y-56867270D01*
X183410930Y-56869613D01*
X183410933Y-56869616D01*
X183441562Y-56895683D01*
X183565064Y-57000791D01*
X183611766Y-57026892D01*
X183741739Y-57099532D01*
X183741743Y-57099534D01*
X183744898Y-57101297D01*
X183748334Y-57102414D01*
X183748340Y-57102416D01*
X183872756Y-57142841D01*
X183940829Y-57164959D01*
X184004676Y-57172572D01*
X184141794Y-57188922D01*
X184141797Y-57188922D01*
X184145394Y-57189351D01*
X184214214Y-57184056D01*
X184347189Y-57173824D01*
X184347191Y-57173824D01*
X184350800Y-57173546D01*
X184549225Y-57118145D01*
X184580363Y-57102416D01*
X184729876Y-57026892D01*
X184729879Y-57026890D01*
X184733110Y-57025258D01*
X184895451Y-56898424D01*
X185030064Y-56742472D01*
X185031847Y-56739333D01*
X185031850Y-56739329D01*
X185080943Y-56652908D01*
X185131823Y-56563344D01*
X185144312Y-56525803D01*
X185195708Y-56371299D01*
X185196851Y-56367863D01*
X185202323Y-56324553D01*
X185222413Y-56165519D01*
X185222413Y-56165513D01*
X185222671Y-56163474D01*
X185223083Y-56134000D01*
X185221638Y-56119262D01*
X185652020Y-56119262D01*
X185652323Y-56122871D01*
X185652323Y-56122873D01*
X185668956Y-56320945D01*
X185669259Y-56324553D01*
X185726044Y-56522586D01*
X185727696Y-56525800D01*
X185727697Y-56525803D01*
X185748606Y-56566487D01*
X185820212Y-56705818D01*
X185948177Y-56867270D01*
X185950930Y-56869613D01*
X185950933Y-56869616D01*
X185981562Y-56895683D01*
X186105064Y-57000791D01*
X186151766Y-57026892D01*
X186281739Y-57099532D01*
X186281743Y-57099534D01*
X186284898Y-57101297D01*
X186288334Y-57102414D01*
X186288340Y-57102416D01*
X186412756Y-57142841D01*
X186480829Y-57164959D01*
X186544676Y-57172572D01*
X186681794Y-57188922D01*
X186681797Y-57188922D01*
X186685394Y-57189351D01*
X186754214Y-57184056D01*
X186887189Y-57173824D01*
X186887191Y-57173824D01*
X186890800Y-57173546D01*
X187089225Y-57118145D01*
X187120363Y-57102416D01*
X187269876Y-57026892D01*
X187269879Y-57026890D01*
X187273110Y-57025258D01*
X187435451Y-56898424D01*
X187570064Y-56742472D01*
X187571847Y-56739333D01*
X187571850Y-56739329D01*
X187620943Y-56652908D01*
X187671823Y-56563344D01*
X187684312Y-56525803D01*
X187735708Y-56371299D01*
X187736851Y-56367863D01*
X187742323Y-56324553D01*
X187762413Y-56165519D01*
X187762413Y-56165513D01*
X187762671Y-56163474D01*
X187763083Y-56134000D01*
X187750701Y-56007710D01*
X187743333Y-55932570D01*
X187742980Y-55928970D01*
X187683435Y-55731749D01*
X187606236Y-55586558D01*
X187588417Y-55553044D01*
X187588416Y-55553042D01*
X187586718Y-55549849D01*
X187456511Y-55390200D01*
X187297775Y-55258882D01*
X187286884Y-55252993D01*
X187119738Y-55162618D01*
X187116555Y-55160897D01*
X187113105Y-55159829D01*
X187113100Y-55159827D01*
X186988496Y-55121256D01*
X186919754Y-55099977D01*
X186714869Y-55078443D01*
X186711265Y-55078771D01*
X186711264Y-55078771D01*
X186612286Y-55087778D01*
X186509703Y-55097114D01*
X186460747Y-55111522D01*
X186315543Y-55154258D01*
X186315539Y-55154260D01*
X186312072Y-55155280D01*
X186237534Y-55194248D01*
X186132709Y-55249049D01*
X186132706Y-55249051D01*
X186129502Y-55250726D01*
X186126684Y-55252992D01*
X186126682Y-55252993D01*
X185971766Y-55377548D01*
X185971763Y-55377551D01*
X185968947Y-55379815D01*
X185966621Y-55382587D01*
X185966619Y-55382589D01*
X185838851Y-55534856D01*
X185838848Y-55534860D01*
X185836524Y-55537630D01*
X185737276Y-55718162D01*
X185736182Y-55721611D01*
X185684254Y-55885310D01*
X185674984Y-55914532D01*
X185674581Y-55918123D01*
X185674581Y-55918124D01*
X185672961Y-55932570D01*
X185652020Y-56119262D01*
X185221638Y-56119262D01*
X185210701Y-56007710D01*
X185203333Y-55932570D01*
X185202980Y-55928970D01*
X185143435Y-55731749D01*
X185066236Y-55586558D01*
X185048417Y-55553044D01*
X185048416Y-55553042D01*
X185046718Y-55549849D01*
X184916511Y-55390200D01*
X184757775Y-55258882D01*
X184746884Y-55252993D01*
X184579738Y-55162618D01*
X184576555Y-55160897D01*
X184573105Y-55159829D01*
X184573100Y-55159827D01*
X184448496Y-55121256D01*
X184379754Y-55099977D01*
X184174869Y-55078443D01*
X184171265Y-55078771D01*
X184171264Y-55078771D01*
X184072286Y-55087778D01*
X183969703Y-55097114D01*
X183920747Y-55111522D01*
X183775543Y-55154258D01*
X183775539Y-55154260D01*
X183772072Y-55155280D01*
X183697534Y-55194248D01*
X183592709Y-55249049D01*
X183592706Y-55249051D01*
X183589502Y-55250726D01*
X183586684Y-55252992D01*
X183586682Y-55252993D01*
X183431766Y-55377548D01*
X183431763Y-55377551D01*
X183428947Y-55379815D01*
X183426621Y-55382587D01*
X183426619Y-55382589D01*
X183298851Y-55534856D01*
X183298848Y-55534860D01*
X183296524Y-55537630D01*
X183197276Y-55718162D01*
X183196182Y-55721611D01*
X183144254Y-55885310D01*
X183134984Y-55914532D01*
X183134581Y-55918123D01*
X183134581Y-55918124D01*
X183132961Y-55932570D01*
X183112020Y-56119262D01*
X177887999Y-56119262D01*
X177941624Y-56104138D01*
X177947932Y-56101716D01*
X178131409Y-56011235D01*
X178137163Y-56007710D01*
X178301076Y-55885310D01*
X178306103Y-55880784D01*
X178444958Y-55730571D01*
X178449079Y-55725200D01*
X178558237Y-55552195D01*
X178561304Y-55546175D01*
X178637109Y-55356171D01*
X178639029Y-55349686D01*
X178678939Y-55149046D01*
X178679644Y-55142338D01*
X178679700Y-55138047D01*
X178676193Y-55128005D01*
X178671143Y-55125000D01*
X177144048Y-55125000D01*
X177134052Y-55128638D01*
X177131000Y-55133925D01*
X177131000Y-56161952D01*
X176931000Y-56161952D01*
X176931000Y-55138048D01*
X176927362Y-55128052D01*
X176922075Y-55125000D01*
X175394294Y-55125000D01*
X175384298Y-55128638D01*
X175382428Y-55131878D01*
X169152546Y-55131878D01*
X169151193Y-55128005D01*
X169146143Y-55125000D01*
X167619048Y-55125000D01*
X167609052Y-55128638D01*
X167606000Y-55133925D01*
X167606000Y-56161952D01*
X167406000Y-56161952D01*
X167406000Y-55138048D01*
X167402362Y-55128052D01*
X167397075Y-55125000D01*
X165869294Y-55125000D01*
X165859298Y-55128638D01*
X165857428Y-55131878D01*
X164594703Y-55131878D01*
X164586558Y-55080451D01*
X164586557Y-55080448D01*
X164585646Y-55074696D01*
X164583000Y-55069502D01*
X164530696Y-54966850D01*
X164530694Y-54966848D01*
X164528050Y-54961658D01*
X164478345Y-54911953D01*
X165857300Y-54911953D01*
X165860807Y-54921995D01*
X165865857Y-54925000D01*
X167392952Y-54925000D01*
X167402948Y-54921362D01*
X167406000Y-54916075D01*
X167406000Y-54911952D01*
X167606000Y-54911952D01*
X167609638Y-54921948D01*
X167614925Y-54925000D01*
X169142706Y-54925000D01*
X169152702Y-54921362D01*
X169154572Y-54918122D01*
X169153512Y-54911953D01*
X175382300Y-54911953D01*
X175385807Y-54921995D01*
X175390857Y-54925000D01*
X176917952Y-54925000D01*
X176927948Y-54921362D01*
X176931000Y-54916075D01*
X176931000Y-54911952D01*
X177131000Y-54911952D01*
X177134638Y-54921948D01*
X177139925Y-54925000D01*
X178667706Y-54925000D01*
X178677702Y-54921362D01*
X178679572Y-54918122D01*
X178647149Y-54729431D01*
X178645398Y-54722896D01*
X178574593Y-54530972D01*
X178571687Y-54524878D01*
X178467088Y-54349063D01*
X178463122Y-54343604D01*
X178328236Y-54189797D01*
X178323332Y-54185144D01*
X178162687Y-54058501D01*
X178157011Y-54054815D01*
X177975983Y-53959571D01*
X177969720Y-53956978D01*
X177774363Y-53896317D01*
X177767757Y-53894913D01*
X177601687Y-53875257D01*
X177597328Y-53875000D01*
X177144048Y-53875000D01*
X177134052Y-53878638D01*
X177131000Y-53883925D01*
X177131000Y-54911952D01*
X176931000Y-54911952D01*
X176931000Y-53888048D01*
X176927362Y-53878052D01*
X176922075Y-53875000D01*
X176479081Y-53875000D01*
X176475689Y-53875155D01*
X176323908Y-53889102D01*
X176317267Y-53890332D01*
X176120376Y-53945862D01*
X176114068Y-53948284D01*
X175930591Y-54038765D01*
X175924837Y-54042290D01*
X175760924Y-54164690D01*
X175755897Y-54169216D01*
X175617042Y-54319429D01*
X175612921Y-54324800D01*
X175503763Y-54497805D01*
X175500696Y-54503825D01*
X175424891Y-54693829D01*
X175422971Y-54700314D01*
X175383061Y-54900954D01*
X175382356Y-54907662D01*
X175382300Y-54911953D01*
X169153512Y-54911953D01*
X169122149Y-54729431D01*
X169120398Y-54722896D01*
X169049593Y-54530972D01*
X169046687Y-54524878D01*
X168942088Y-54349063D01*
X168938122Y-54343604D01*
X168803236Y-54189797D01*
X168798332Y-54185144D01*
X168637687Y-54058501D01*
X168632011Y-54054815D01*
X168542153Y-54007538D01*
X169405027Y-54007538D01*
X169406407Y-54012685D01*
X169557265Y-54149956D01*
X169560571Y-54152634D01*
X169838059Y-54352029D01*
X169841662Y-54354315D01*
X170140224Y-54520493D01*
X170144073Y-54522354D01*
X170459754Y-54653112D01*
X170463780Y-54654514D01*
X170792406Y-54748127D01*
X170796573Y-54749058D01*
X171133780Y-54804278D01*
X171138008Y-54804722D01*
X171479343Y-54820819D01*
X171483591Y-54820774D01*
X171824518Y-54797532D01*
X171828727Y-54797001D01*
X172164711Y-54734730D01*
X172168854Y-54733712D01*
X172495452Y-54633237D01*
X172499441Y-54631753D01*
X172812321Y-54494409D01*
X172816129Y-54492469D01*
X173111147Y-54320074D01*
X173114689Y-54317720D01*
X173387952Y-54112550D01*
X173391200Y-54109804D01*
X173490093Y-54015959D01*
X173494838Y-54006441D01*
X173493517Y-54000938D01*
X171459226Y-51966647D01*
X171449587Y-51962152D01*
X171443688Y-51963733D01*
X169409522Y-53997899D01*
X169405027Y-54007538D01*
X168542153Y-54007538D01*
X168450983Y-53959571D01*
X168444720Y-53956978D01*
X168249363Y-53896317D01*
X168242757Y-53894913D01*
X168076687Y-53875257D01*
X168072328Y-53875000D01*
X167619048Y-53875000D01*
X167609052Y-53878638D01*
X167606000Y-53883925D01*
X167606000Y-54911952D01*
X167406000Y-54911952D01*
X167406000Y-53888048D01*
X167402362Y-53878052D01*
X167397075Y-53875000D01*
X166954081Y-53875000D01*
X166950689Y-53875155D01*
X166798908Y-53889102D01*
X166792267Y-53890332D01*
X166595376Y-53945862D01*
X166589068Y-53948284D01*
X166405591Y-54038765D01*
X166399837Y-54042290D01*
X166235924Y-54164690D01*
X166230897Y-54169216D01*
X166092042Y-54319429D01*
X166087921Y-54324800D01*
X165978763Y-54497805D01*
X165975696Y-54503825D01*
X165899891Y-54693829D01*
X165897971Y-54700314D01*
X165858061Y-54900954D01*
X165857356Y-54907662D01*
X165857300Y-54911953D01*
X164478345Y-54911953D01*
X164438342Y-54871950D01*
X164433152Y-54869306D01*
X164433150Y-54869304D01*
X164330498Y-54817000D01*
X164330495Y-54816999D01*
X164325304Y-54814354D01*
X164319552Y-54813443D01*
X164319549Y-54813442D01*
X164205752Y-54795419D01*
X164200000Y-54794508D01*
X164194248Y-54795419D01*
X164080451Y-54813442D01*
X164080448Y-54813443D01*
X164074696Y-54814354D01*
X164069505Y-54816999D01*
X164069502Y-54817000D01*
X163966850Y-54869304D01*
X163966848Y-54869306D01*
X163961658Y-54871950D01*
X163871950Y-54961658D01*
X163869306Y-54966848D01*
X163869304Y-54966850D01*
X163817000Y-55069502D01*
X163814354Y-55074696D01*
X163813443Y-55080448D01*
X163813442Y-55080451D01*
X163802578Y-55149046D01*
X163794508Y-55200000D01*
X163605492Y-55200000D01*
X163597422Y-55149046D01*
X163586558Y-55080451D01*
X163586557Y-55080448D01*
X163585646Y-55074696D01*
X163583000Y-55069502D01*
X163530696Y-54966850D01*
X163530694Y-54966848D01*
X163528050Y-54961658D01*
X163438342Y-54871950D01*
X163433152Y-54869306D01*
X163433150Y-54869304D01*
X163330498Y-54817000D01*
X163330495Y-54816999D01*
X163325304Y-54814354D01*
X163319552Y-54813443D01*
X163319549Y-54813442D01*
X163205752Y-54795419D01*
X163200000Y-54794508D01*
X163194248Y-54795419D01*
X163080451Y-54813442D01*
X163080448Y-54813443D01*
X163074696Y-54814354D01*
X163069505Y-54816999D01*
X163069502Y-54817000D01*
X162966850Y-54869304D01*
X162966848Y-54869306D01*
X162961658Y-54871950D01*
X162871950Y-54961658D01*
X162869306Y-54966848D01*
X162869304Y-54966850D01*
X162817000Y-55069502D01*
X162814354Y-55074696D01*
X162813443Y-55080448D01*
X162813442Y-55080451D01*
X162802578Y-55149046D01*
X162794508Y-55200000D01*
X162605492Y-55200000D01*
X162597422Y-55149046D01*
X162586558Y-55080451D01*
X162586557Y-55080448D01*
X162585646Y-55074696D01*
X162583000Y-55069502D01*
X162530696Y-54966850D01*
X162530694Y-54966848D01*
X162528050Y-54961658D01*
X162438342Y-54871950D01*
X162433152Y-54869306D01*
X162433150Y-54869304D01*
X162330498Y-54817000D01*
X162330495Y-54816999D01*
X162325304Y-54814354D01*
X162319552Y-54813443D01*
X162319549Y-54813442D01*
X162205752Y-54795419D01*
X162200000Y-54794508D01*
X162194248Y-54795419D01*
X162080451Y-54813442D01*
X162080448Y-54813443D01*
X162074696Y-54814354D01*
X162069505Y-54816999D01*
X162069502Y-54817000D01*
X161966850Y-54869304D01*
X161966848Y-54869306D01*
X161961658Y-54871950D01*
X161871950Y-54961658D01*
X161869306Y-54966848D01*
X161869304Y-54966850D01*
X161817000Y-55069502D01*
X161814354Y-55074696D01*
X161813443Y-55080448D01*
X161813442Y-55080451D01*
X161802578Y-55149046D01*
X161794508Y-55200000D01*
X159618804Y-55200000D01*
X159628939Y-55149046D01*
X159629644Y-55142338D01*
X159629700Y-55138047D01*
X159626193Y-55128005D01*
X159621143Y-55125000D01*
X158094048Y-55125000D01*
X158084052Y-55128638D01*
X158081000Y-55133925D01*
X158081000Y-56161952D01*
X157881000Y-56161952D01*
X157881000Y-55138048D01*
X157877362Y-55128052D01*
X157872075Y-55125000D01*
X156344294Y-55125000D01*
X156334298Y-55128638D01*
X156332428Y-55131878D01*
X155775500Y-55131878D01*
X155775500Y-54911953D01*
X156332300Y-54911953D01*
X156335807Y-54921995D01*
X156340857Y-54925000D01*
X157867952Y-54925000D01*
X157877948Y-54921362D01*
X157881000Y-54916075D01*
X157881000Y-54911952D01*
X158081000Y-54911952D01*
X158084638Y-54921948D01*
X158089925Y-54925000D01*
X159617706Y-54925000D01*
X159627702Y-54921362D01*
X159629572Y-54918122D01*
X159597149Y-54729431D01*
X159595398Y-54722896D01*
X159524593Y-54530972D01*
X159521687Y-54524878D01*
X159417088Y-54349063D01*
X159413122Y-54343604D01*
X159278236Y-54189797D01*
X159273332Y-54185144D01*
X159112687Y-54058501D01*
X159107011Y-54054815D01*
X158925983Y-53959571D01*
X158919720Y-53956978D01*
X158724363Y-53896317D01*
X158717757Y-53894913D01*
X158551687Y-53875257D01*
X158547328Y-53875000D01*
X158094048Y-53875000D01*
X158084052Y-53878638D01*
X158081000Y-53883925D01*
X158081000Y-54911952D01*
X157881000Y-54911952D01*
X157881000Y-53888048D01*
X157877362Y-53878052D01*
X157872075Y-53875000D01*
X157429081Y-53875000D01*
X157425689Y-53875155D01*
X157273908Y-53889102D01*
X157267267Y-53890332D01*
X157070376Y-53945862D01*
X157064068Y-53948284D01*
X156880591Y-54038765D01*
X156874837Y-54042290D01*
X156710924Y-54164690D01*
X156705897Y-54169216D01*
X156567042Y-54319429D01*
X156562921Y-54324800D01*
X156453763Y-54497805D01*
X156450696Y-54503825D01*
X156374891Y-54693829D01*
X156372971Y-54700314D01*
X156333061Y-54900954D01*
X156332356Y-54907662D01*
X156332300Y-54911953D01*
X155775500Y-54911953D01*
X155775500Y-51723728D01*
X168446455Y-51723728D01*
X168455400Y-52065341D01*
X168455754Y-52069557D01*
X168503903Y-52407868D01*
X168504744Y-52412039D01*
X168591453Y-52742556D01*
X168592771Y-52746614D01*
X168716894Y-53064971D01*
X168718666Y-53068842D01*
X168878563Y-53370833D01*
X168880768Y-53374475D01*
X169074313Y-53656083D01*
X169076913Y-53659436D01*
X169249217Y-53856951D01*
X169258530Y-53862092D01*
X169263453Y-53861126D01*
X171299353Y-51825226D01*
X171303463Y-51816413D01*
X171596152Y-51816413D01*
X171597733Y-51822312D01*
X173634998Y-53859577D01*
X173644637Y-53864072D01*
X173649203Y-53862848D01*
X173861160Y-53609349D01*
X173863706Y-53605922D01*
X174051312Y-53320318D01*
X174053436Y-53316639D01*
X174117736Y-53188792D01*
X180819310Y-53188792D01*
X180825949Y-53267855D01*
X180827250Y-53274942D01*
X180882013Y-53465922D01*
X180884663Y-53472617D01*
X180975479Y-53649326D01*
X180979384Y-53655384D01*
X181102789Y-53811083D01*
X181107794Y-53816267D01*
X181259094Y-53945032D01*
X181265013Y-53949146D01*
X181438440Y-54046072D01*
X181445041Y-54048955D01*
X181633991Y-54110348D01*
X181641036Y-54111897D01*
X181751043Y-54125015D01*
X181761400Y-54122586D01*
X181764000Y-54119111D01*
X181764000Y-54113407D01*
X181964000Y-54113407D01*
X181967638Y-54123403D01*
X181971875Y-54125849D01*
X182043602Y-54120330D01*
X182050701Y-54119078D01*
X182242062Y-54065649D01*
X182248770Y-54063047D01*
X182426107Y-53973468D01*
X182432195Y-53969604D01*
X182588751Y-53847289D01*
X182593970Y-53842319D01*
X182723791Y-53691920D01*
X182727939Y-53686040D01*
X182826078Y-53513283D01*
X182829006Y-53506708D01*
X182891719Y-53318189D01*
X182893316Y-53311155D01*
X182908124Y-53193946D01*
X182906953Y-53188792D01*
X183359310Y-53188792D01*
X183365949Y-53267855D01*
X183367250Y-53274942D01*
X183422013Y-53465922D01*
X183424663Y-53472617D01*
X183515479Y-53649326D01*
X183519384Y-53655384D01*
X183642789Y-53811083D01*
X183647794Y-53816267D01*
X183799094Y-53945032D01*
X183805013Y-53949146D01*
X183978440Y-54046072D01*
X183985041Y-54048955D01*
X184173991Y-54110348D01*
X184181036Y-54111897D01*
X184291043Y-54125015D01*
X184301400Y-54122586D01*
X184304000Y-54119111D01*
X184304000Y-54113407D01*
X184504000Y-54113407D01*
X184507638Y-54123403D01*
X184511875Y-54125849D01*
X184583602Y-54120330D01*
X184590701Y-54119078D01*
X184782062Y-54065649D01*
X184788770Y-54063047D01*
X184966107Y-53973468D01*
X184972195Y-53969604D01*
X185128751Y-53847289D01*
X185133970Y-53842319D01*
X185263791Y-53691920D01*
X185267939Y-53686040D01*
X185366078Y-53513283D01*
X185369006Y-53506708D01*
X185431719Y-53318189D01*
X185433316Y-53311155D01*
X185448124Y-53193946D01*
X185445767Y-53183573D01*
X185442377Y-53181000D01*
X184517048Y-53181000D01*
X184507052Y-53184638D01*
X184504000Y-53189925D01*
X184504000Y-54113407D01*
X184304000Y-54113407D01*
X184304000Y-53194048D01*
X184300362Y-53184052D01*
X184295075Y-53181000D01*
X183371704Y-53181000D01*
X183361708Y-53184638D01*
X183359310Y-53188792D01*
X182906953Y-53188792D01*
X182905767Y-53183573D01*
X182902377Y-53181000D01*
X181977048Y-53181000D01*
X181967052Y-53184638D01*
X181964000Y-53189925D01*
X181964000Y-54113407D01*
X181764000Y-54113407D01*
X181764000Y-53194048D01*
X181760362Y-53184052D01*
X181755075Y-53181000D01*
X180831704Y-53181000D01*
X180821708Y-53184638D01*
X180819310Y-53188792D01*
X174117736Y-53188792D01*
X174206967Y-53011377D01*
X174208665Y-53007454D01*
X174223091Y-52968033D01*
X180820040Y-52968033D01*
X180822542Y-52978372D01*
X180826107Y-52981000D01*
X181750952Y-52981000D01*
X181760948Y-52977362D01*
X181764000Y-52972075D01*
X181764000Y-52967952D01*
X181964000Y-52967952D01*
X181967638Y-52977948D01*
X181972925Y-52981000D01*
X182896228Y-52981000D01*
X182906224Y-52977362D01*
X182908528Y-52973371D01*
X182908005Y-52968033D01*
X183360040Y-52968033D01*
X183362542Y-52978372D01*
X183366107Y-52981000D01*
X184290952Y-52981000D01*
X184300948Y-52977362D01*
X184304000Y-52972075D01*
X184304000Y-52967952D01*
X184504000Y-52967952D01*
X184507638Y-52977948D01*
X184512925Y-52981000D01*
X185436228Y-52981000D01*
X185446224Y-52977362D01*
X185448528Y-52973371D01*
X185439340Y-52879670D01*
X185437941Y-52872602D01*
X185380516Y-52682403D01*
X185377772Y-52675745D01*
X185284498Y-52500322D01*
X185280512Y-52494323D01*
X185154942Y-52340358D01*
X185149866Y-52335247D01*
X184996789Y-52208610D01*
X184990804Y-52204573D01*
X184816043Y-52110081D01*
X184809405Y-52107290D01*
X184619612Y-52048540D01*
X184612552Y-52047091D01*
X184516977Y-52037045D01*
X184506657Y-52039618D01*
X184504000Y-52043275D01*
X184504000Y-52967952D01*
X184304000Y-52967952D01*
X184304000Y-52048764D01*
X184300362Y-52038768D01*
X184296290Y-52036418D01*
X184209912Y-52044278D01*
X184202818Y-52045631D01*
X184012231Y-52101724D01*
X184005555Y-52104422D01*
X183829483Y-52196469D01*
X183823456Y-52200413D01*
X183668619Y-52324906D01*
X183663471Y-52329947D01*
X183535765Y-52482140D01*
X183531696Y-52488083D01*
X183435980Y-52662191D01*
X183433144Y-52668808D01*
X183373068Y-52858189D01*
X183371572Y-52865228D01*
X183360040Y-52968033D01*
X182908005Y-52968033D01*
X182899340Y-52879670D01*
X182897941Y-52872602D01*
X182840516Y-52682403D01*
X182837772Y-52675745D01*
X182744498Y-52500322D01*
X182740512Y-52494323D01*
X182614942Y-52340358D01*
X182609866Y-52335247D01*
X182456789Y-52208610D01*
X182450804Y-52204573D01*
X182276043Y-52110081D01*
X182269405Y-52107290D01*
X182079612Y-52048540D01*
X182072552Y-52047091D01*
X181976977Y-52037045D01*
X181966657Y-52039618D01*
X181964000Y-52043275D01*
X181964000Y-52967952D01*
X181764000Y-52967952D01*
X181764000Y-52048764D01*
X181760362Y-52038768D01*
X181756290Y-52036418D01*
X181669912Y-52044278D01*
X181662818Y-52045631D01*
X181472231Y-52101724D01*
X181465555Y-52104422D01*
X181289483Y-52196469D01*
X181283456Y-52200413D01*
X181128619Y-52324906D01*
X181123471Y-52329947D01*
X180995765Y-52482140D01*
X180991696Y-52488083D01*
X180895980Y-52662191D01*
X180893144Y-52668808D01*
X180833068Y-52858189D01*
X180831572Y-52865228D01*
X180820040Y-52968033D01*
X174223091Y-52968033D01*
X174326091Y-52686573D01*
X174327326Y-52682483D01*
X174407091Y-52350233D01*
X174407846Y-52346036D01*
X174448956Y-52006325D01*
X174449206Y-52003040D01*
X174455032Y-51817663D01*
X174454988Y-51814341D01*
X174435292Y-51472740D01*
X174434801Y-51468498D01*
X174424722Y-51410748D01*
X180813500Y-51410748D01*
X180825133Y-51469231D01*
X180869448Y-51535552D01*
X180935769Y-51579867D01*
X180980295Y-51588724D01*
X180990682Y-51590790D01*
X180990683Y-51590790D01*
X180994252Y-51591500D01*
X182733748Y-51591500D01*
X182737317Y-51590790D01*
X182737318Y-51590790D01*
X182747705Y-51588724D01*
X182792231Y-51579867D01*
X182858552Y-51535552D01*
X182902867Y-51469231D01*
X182914500Y-51410748D01*
X182914500Y-50526262D01*
X183348520Y-50526262D01*
X183348823Y-50529871D01*
X183348823Y-50529873D01*
X183352404Y-50572519D01*
X183365759Y-50731553D01*
X183422544Y-50929586D01*
X183424196Y-50932800D01*
X183424197Y-50932803D01*
X183445106Y-50973487D01*
X183516712Y-51112818D01*
X183644677Y-51274270D01*
X183647430Y-51276613D01*
X183647433Y-51276616D01*
X183678062Y-51302683D01*
X183801564Y-51407791D01*
X183848266Y-51433892D01*
X183978239Y-51506532D01*
X183978243Y-51506534D01*
X183981398Y-51508297D01*
X183984834Y-51509414D01*
X183984840Y-51509416D01*
X184109256Y-51549841D01*
X184177329Y-51571959D01*
X184241176Y-51579572D01*
X184378294Y-51595922D01*
X184378297Y-51595922D01*
X184381894Y-51596351D01*
X184454166Y-51590790D01*
X184583689Y-51580824D01*
X184583691Y-51580824D01*
X184587300Y-51580546D01*
X184748451Y-51535552D01*
X184782244Y-51526117D01*
X184782245Y-51526117D01*
X184785725Y-51525145D01*
X184816863Y-51509416D01*
X184966376Y-51433892D01*
X184966379Y-51433890D01*
X184969610Y-51432258D01*
X185131951Y-51305424D01*
X185266564Y-51149472D01*
X185268347Y-51146333D01*
X185268350Y-51146329D01*
X185328573Y-51040317D01*
X185368323Y-50970344D01*
X185380812Y-50932803D01*
X185432208Y-50778299D01*
X185433351Y-50774863D01*
X185438823Y-50731553D01*
X185458913Y-50572519D01*
X185458913Y-50572513D01*
X185459171Y-50570474D01*
X185459583Y-50541000D01*
X185458314Y-50528050D01*
X185439833Y-50339570D01*
X185439480Y-50335970D01*
X185379935Y-50138749D01*
X185283218Y-49956849D01*
X185153011Y-49797200D01*
X184994275Y-49665882D01*
X184983384Y-49659993D01*
X184816238Y-49569618D01*
X184813055Y-49567897D01*
X184809605Y-49566829D01*
X184809600Y-49566827D01*
X184684996Y-49528256D01*
X184616254Y-49506977D01*
X184411369Y-49485443D01*
X184407765Y-49485771D01*
X184407764Y-49485771D01*
X184407215Y-49485821D01*
X184206203Y-49504114D01*
X184157247Y-49518522D01*
X184012043Y-49561258D01*
X184012039Y-49561260D01*
X184008572Y-49562280D01*
X183966454Y-49584299D01*
X183829209Y-49656049D01*
X183829206Y-49656051D01*
X183826002Y-49657726D01*
X183823184Y-49659992D01*
X183823182Y-49659993D01*
X183668266Y-49784548D01*
X183668263Y-49784551D01*
X183665447Y-49786815D01*
X183663121Y-49789587D01*
X183663119Y-49789589D01*
X183535351Y-49941856D01*
X183535348Y-49941860D01*
X183533024Y-49944630D01*
X183433776Y-50125162D01*
X183371484Y-50321532D01*
X183371081Y-50325123D01*
X183371081Y-50325124D01*
X183369461Y-50339570D01*
X183348520Y-50526262D01*
X182914500Y-50526262D01*
X182914500Y-49671252D01*
X182902867Y-49612769D01*
X182858552Y-49546448D01*
X182852491Y-49542398D01*
X182798294Y-49506184D01*
X182798293Y-49506184D01*
X182792231Y-49502133D01*
X182747705Y-49493276D01*
X182737318Y-49491210D01*
X182737317Y-49491210D01*
X182733748Y-49490500D01*
X180994252Y-49490500D01*
X180990683Y-49491210D01*
X180990682Y-49491210D01*
X180980295Y-49493276D01*
X180935769Y-49502133D01*
X180929707Y-49506184D01*
X180929706Y-49506184D01*
X180875509Y-49542398D01*
X180869448Y-49546448D01*
X180825133Y-49612769D01*
X180813500Y-49671252D01*
X180813500Y-51410748D01*
X174424722Y-51410748D01*
X174376051Y-51131876D01*
X174375084Y-51127754D01*
X174278030Y-50800103D01*
X174276591Y-50796108D01*
X174142526Y-50481796D01*
X174140632Y-50477982D01*
X173982075Y-50200000D01*
X176094508Y-50200000D01*
X176095419Y-50205752D01*
X176113442Y-50319549D01*
X176113443Y-50319552D01*
X176114354Y-50325304D01*
X176116999Y-50330495D01*
X176117000Y-50330498D01*
X176169304Y-50433150D01*
X176169306Y-50433152D01*
X176171950Y-50438342D01*
X176261658Y-50528050D01*
X176266848Y-50530694D01*
X176266850Y-50530696D01*
X176369502Y-50583000D01*
X176369505Y-50583001D01*
X176374696Y-50585646D01*
X176380448Y-50586557D01*
X176380451Y-50586558D01*
X176494248Y-50604581D01*
X176500000Y-50605492D01*
X176505752Y-50604581D01*
X176619549Y-50586558D01*
X176619552Y-50586557D01*
X176625304Y-50585646D01*
X176630495Y-50583001D01*
X176630498Y-50583000D01*
X176733150Y-50530696D01*
X176733152Y-50530694D01*
X176738342Y-50528050D01*
X176828050Y-50438342D01*
X176830694Y-50433152D01*
X176830696Y-50433150D01*
X176883000Y-50330498D01*
X176883001Y-50330495D01*
X176885646Y-50325304D01*
X176886557Y-50319552D01*
X176886558Y-50319549D01*
X176904581Y-50205752D01*
X176905492Y-50200000D01*
X176895285Y-50135556D01*
X176886558Y-50080451D01*
X176886557Y-50080448D01*
X176885646Y-50074696D01*
X176883000Y-50069502D01*
X176830696Y-49966850D01*
X176830694Y-49966848D01*
X176828050Y-49961658D01*
X176738342Y-49871950D01*
X176733152Y-49869306D01*
X176733150Y-49869304D01*
X176630498Y-49817000D01*
X176630495Y-49816999D01*
X176625304Y-49814354D01*
X176619552Y-49813443D01*
X176619549Y-49813442D01*
X176505752Y-49795419D01*
X176500000Y-49794508D01*
X176494248Y-49795419D01*
X176380451Y-49813442D01*
X176380448Y-49813443D01*
X176374696Y-49814354D01*
X176369505Y-49816999D01*
X176369502Y-49817000D01*
X176266850Y-49869304D01*
X176266848Y-49869306D01*
X176261658Y-49871950D01*
X176171950Y-49961658D01*
X176169306Y-49966848D01*
X176169304Y-49966850D01*
X176117000Y-50069502D01*
X176114354Y-50074696D01*
X176113443Y-50080448D01*
X176113442Y-50080451D01*
X176104715Y-50135556D01*
X176094508Y-50200000D01*
X173982075Y-50200000D01*
X173971331Y-50181164D01*
X173969015Y-50177598D01*
X173766718Y-49902204D01*
X173764003Y-49898923D01*
X173649817Y-49776044D01*
X173640348Y-49771198D01*
X173634997Y-49772424D01*
X171600647Y-51806774D01*
X171596152Y-51816413D01*
X171303463Y-51816413D01*
X171303848Y-51815587D01*
X171302267Y-51809688D01*
X169267465Y-49774886D01*
X169257826Y-49770391D01*
X169252016Y-49771948D01*
X169197348Y-49827191D01*
X169194540Y-49830377D01*
X168983691Y-50099283D01*
X168981265Y-50102775D01*
X168802726Y-50394121D01*
X168800709Y-50397883D01*
X168656842Y-50707820D01*
X168655273Y-50711785D01*
X168547982Y-51036200D01*
X168546879Y-51040317D01*
X168477589Y-51374907D01*
X168476964Y-51379141D01*
X168446588Y-51719492D01*
X168446455Y-51723728D01*
X155775500Y-51723728D01*
X155775500Y-49042500D01*
X155792813Y-48994934D01*
X155836650Y-48969624D01*
X155849500Y-48968500D01*
X170124180Y-48968500D01*
X170171746Y-48985813D01*
G37*
%TD.AperFunction*%
%TD*%
M02*
