%TF.GenerationSoftware,KiCad,Pcbnew,(6.0.9)*%
%TF.CreationDate,2022-12-12T20:16:16+01:00*%
%TF.ProjectId,h3_extra_ports,68335f65-7874-4726-915f-706f7274732e,rev?*%
%TF.SameCoordinates,Original*%
%TF.FileFunction,Copper,L2,Inr*%
%TF.FilePolarity,Positive*%
%FSLAX46Y46*%
G04 Gerber Fmt 4.6, Leading zero omitted, Abs format (unit mm)*
G04 Created by KiCad (PCBNEW (6.0.9)) date 2022-12-12 20:16:16*
%MOMM*%
%LPD*%
G01*
G04 APERTURE LIST*
%TA.AperFunction,ComponentPad*%
%ADD10C,5.600000*%
%TD*%
%TA.AperFunction,ComponentPad*%
%ADD11R,1.300000X1.300000*%
%TD*%
%TA.AperFunction,ComponentPad*%
%ADD12C,1.300000*%
%TD*%
%TA.AperFunction,ComponentPad*%
%ADD13O,2.900000X1.900000*%
%TD*%
%TA.AperFunction,ComponentPad*%
%ADD14O,1.900000X2.900000*%
%TD*%
%TA.AperFunction,ComponentPad*%
%ADD15R,1.700000X1.700000*%
%TD*%
%TA.AperFunction,ComponentPad*%
%ADD16O,1.700000X1.700000*%
%TD*%
%TA.AperFunction,ComponentPad*%
%ADD17C,1.700000*%
%TD*%
%TA.AperFunction,ViaPad*%
%ADD18C,0.800000*%
%TD*%
%TA.AperFunction,ViaPad*%
%ADD19C,0.500000*%
%TD*%
%TA.AperFunction,Conductor*%
%ADD20C,0.177800*%
%TD*%
%TA.AperFunction,Conductor*%
%ADD21C,0.250000*%
%TD*%
G04 APERTURE END LIST*
D10*
%TO.N,GND*%
%TO.C,H2*%
X171450000Y-79375000D03*
%TD*%
D11*
%TO.N,Net-(C11-Pad2)*%
%TO.C,J2*%
X157381000Y-58095000D03*
D12*
%TO.N,/USB2_P6_DN*%
X157381000Y-60595000D03*
%TO.N,/USB2_P6_DP*%
X157381000Y-62595000D03*
%TO.N,GND*%
X157381000Y-65095000D03*
D13*
X157981000Y-55025000D03*
X157981000Y-68165000D03*
D14*
X162161000Y-61595000D03*
%TD*%
D11*
%TO.N,Net-(C7-Pad2)*%
%TO.C,J1*%
X166906000Y-58095000D03*
D12*
%TO.N,/USB2_P5_DN*%
X166906000Y-60595000D03*
%TO.N,/USB2_P5_DP*%
X166906000Y-62595000D03*
%TO.N,GND*%
X166906000Y-65095000D03*
D13*
X167506000Y-68165000D03*
X167506000Y-55025000D03*
D14*
X171686000Y-61595000D03*
%TD*%
D10*
%TO.N,GND*%
%TO.C,H1*%
X171450000Y-51816000D03*
%TD*%
D15*
%TO.N,Net-(J4-Pad1)*%
%TO.C,J4*%
X181864000Y-50541000D03*
D16*
%TO.N,/PWR_BTN#*%
X184404000Y-50541000D03*
%TO.N,GND*%
X181864000Y-53081000D03*
X184404000Y-53081000D03*
%TD*%
D11*
%TO.N,Net-(C15-Pad2)*%
%TO.C,J3*%
X176431000Y-58095000D03*
D12*
%TO.N,/USB2_P7_DN*%
X176431000Y-60595000D03*
%TO.N,/USB2_P7_DP*%
X176431000Y-62595000D03*
%TO.N,GND*%
X176431000Y-65095000D03*
D14*
X181211000Y-61595000D03*
D13*
X177031000Y-55025000D03*
X177031000Y-68165000D03*
%TD*%
D17*
%TO.N,/+V5P0A*%
%TO.C,J6*%
X157480000Y-71120000D03*
D16*
%TO.N,/USB2_P6_DN*%
X157480000Y-73660000D03*
%TO.N,/HDMI_CEC*%
X160020000Y-71120000D03*
%TO.N,/USB2_P6_DP*%
X160020000Y-73660000D03*
%TO.N,/I2C_0_SDA*%
X162560000Y-71120000D03*
%TO.N,GND*%
X162560000Y-73660000D03*
%TO.N,/I2C_0_SCL*%
X165100000Y-71120000D03*
%TO.N,/PWR_BTN#*%
X165100000Y-73660000D03*
%TO.N,GND*%
X167640000Y-71120000D03*
%TO.N,/I2C_1_SDA*%
X167640000Y-73660000D03*
%TO.N,/UART0_RTS#*%
X170180000Y-71120000D03*
%TO.N,/I2C_1_SCL*%
X170180000Y-73660000D03*
%TO.N,/UART0_CTS#*%
X172720000Y-71120000D03*
%TO.N,GND*%
X172720000Y-73660000D03*
%TO.N,/UART0_TXD*%
X175260000Y-71120000D03*
%TO.N,/USB2_P5_DN*%
X175260000Y-73660000D03*
%TO.N,/UART0_RXD*%
X177800000Y-71120000D03*
%TO.N,/USB2_P5_DP*%
X177800000Y-73660000D03*
%TO.N,GND*%
X180340000Y-71120000D03*
%TO.N,/USB2_P7_DN*%
X180340000Y-73660000D03*
%TO.N,/+3.3V_RUN_H*%
X182880000Y-71120000D03*
%TO.N,/USB2_P7_DP*%
X182880000Y-73660000D03*
%TO.N,/+5V_RUN_H*%
X185420000Y-71120000D03*
%TO.N,GND*%
X185420000Y-73660000D03*
%TD*%
D15*
%TO.N,GND*%
%TO.C,J9*%
X185420000Y-73660000D03*
D16*
%TO.N,/+5V_RUN_H*%
X185420000Y-71120000D03*
%TO.N,/USB2_P7_DP*%
X182880000Y-73660000D03*
%TO.N,/+3.3V_RUN_H*%
X182880000Y-71120000D03*
%TO.N,/USB2_P7_DN*%
X180340000Y-73660000D03*
%TO.N,GND*%
X180340000Y-71120000D03*
%TO.N,/USB2_P5_DP*%
X177800000Y-73660000D03*
%TO.N,/UART0_RXD*%
X177800000Y-71120000D03*
%TO.N,/USB2_P5_DN*%
X175260000Y-73660000D03*
%TO.N,/UART0_TXD*%
X175260000Y-71120000D03*
%TO.N,GND*%
X172720000Y-73660000D03*
%TO.N,/UART0_CTS#*%
X172720000Y-71120000D03*
%TO.N,/I2C_1_SCL*%
X170180000Y-73660000D03*
%TO.N,/UART0_RTS#*%
X170180000Y-71120000D03*
%TO.N,/I2C_1_SDA*%
X167640000Y-73660000D03*
%TO.N,GND*%
X167640000Y-71120000D03*
%TO.N,/PWR_BTN#*%
X165100000Y-73660000D03*
%TO.N,/I2C_0_SCL*%
X165100000Y-71120000D03*
%TO.N,GND*%
X162560000Y-73660000D03*
%TO.N,/I2C_0_SDA*%
X162560000Y-71120000D03*
%TO.N,/USB2_P6_DP*%
X160020000Y-73660000D03*
%TO.N,/HDMI_CEC*%
X160020000Y-71120000D03*
%TO.N,/USB2_P6_DN*%
X157480000Y-73660000D03*
%TO.N,/+V5P0A*%
X157480000Y-71120000D03*
%TD*%
D15*
%TO.N,unconnected-(J5-Pad1)*%
%TO.C,J5*%
X184750000Y-66275000D03*
D16*
%TO.N,/RS232_RX*%
X187290000Y-66275000D03*
%TO.N,/RS232_TX*%
X184750000Y-63735000D03*
%TO.N,unconnected-(J5-Pad4)*%
X187290000Y-63735000D03*
%TO.N,GND*%
X184750000Y-61195000D03*
%TO.N,unconnected-(J5-Pad6)*%
X187290000Y-61195000D03*
%TO.N,/RS232_RTS*%
X184750000Y-58655000D03*
%TO.N,/RS232_CTS*%
X187290000Y-58655000D03*
%TO.N,unconnected-(J5-Pad9)*%
X184750000Y-56115000D03*
%TO.N,unconnected-(J5-Pad10)*%
X187290000Y-56115000D03*
%TD*%
D18*
%TO.N,GND*%
X187250000Y-82250000D03*
D19*
%TO.N,/+3.3V_RUN_H*%
X176500000Y-50200000D03*
X162200000Y-55200000D03*
X165500000Y-80100000D03*
X185800000Y-75300000D03*
%TO.N,/RS232_RTS*%
X176657000Y-79694000D03*
%TO.N,/RS232_CTS*%
X175400000Y-79700000D03*
%TO.N,/I2C_0_SCL*%
X164200000Y-55200000D03*
%TO.N,/I2C_0_SDA*%
X163200000Y-55200000D03*
%TD*%
D20*
%TO.N,/USB2_P5_DN*%
X165989300Y-62974710D02*
X166526290Y-63511700D01*
X172588652Y-69427800D02*
X173676352Y-69427800D01*
X165989300Y-62215290D02*
X165989300Y-62974710D01*
X174000000Y-72400000D02*
X175260000Y-73660000D01*
X174000000Y-69751448D02*
X174000000Y-72400000D01*
X166550400Y-60950600D02*
X166550400Y-61654190D01*
X166906000Y-60595000D02*
X166550400Y-60950600D01*
X166672552Y-63511700D02*
X172588652Y-69427800D01*
X166526290Y-63511700D02*
X166672552Y-63511700D01*
X166550400Y-61654190D02*
X165989300Y-62215290D01*
X173676352Y-69427800D02*
X174000000Y-69751448D01*
%TO.N,/USB2_P5_DP*%
X169680402Y-66016654D02*
X172735948Y-69072200D01*
X174501448Y-69750000D02*
X175750000Y-69750000D01*
X169256139Y-65168125D02*
X169256138Y-65168126D01*
X169799116Y-65473677D02*
X169799117Y-65473676D01*
X166906000Y-62595000D02*
X166906000Y-63242252D01*
X169799117Y-65473676D02*
X169680401Y-65592389D01*
X173823648Y-69072200D02*
X174501448Y-69750000D01*
X172735948Y-69072200D02*
X173823648Y-69072200D01*
X175750000Y-69750000D02*
X176500000Y-70500000D01*
X176500000Y-70500000D02*
X176500000Y-72360000D01*
X169680401Y-66016653D02*
X169680402Y-66016654D01*
X169256138Y-65168126D02*
X169374853Y-65049412D01*
X176500000Y-72360000D02*
X177800000Y-73660000D01*
X166906000Y-63242252D02*
X168831874Y-65168126D01*
X169256133Y-65168119D02*
G75*
G02*
X168831874Y-65168126I-212133J212119D01*
G01*
X169680423Y-66016631D02*
G75*
G02*
X169680402Y-65592390I212077J212131D01*
G01*
X169799072Y-65473633D02*
G75*
G03*
X169799117Y-65049412I-212072J212133D01*
G01*
X169799116Y-65049413D02*
G75*
G03*
X169374854Y-65049413I-212131J-212131D01*
G01*
%TO.N,/USB2_P6_DN*%
X158750000Y-70500000D02*
X158750000Y-72390000D01*
X158750000Y-72390000D02*
X157480000Y-73660000D01*
X159822200Y-66186348D02*
X159822200Y-69427800D01*
X157381000Y-60595000D02*
X157025400Y-60950600D01*
X156464300Y-62974710D02*
X157001290Y-63511700D01*
X157025400Y-61654190D02*
X156464300Y-62215290D01*
X157025400Y-60950600D02*
X157025400Y-61654190D01*
X157147552Y-63511700D02*
X159822200Y-66186348D01*
X156464300Y-62215290D02*
X156464300Y-62974710D01*
X159822200Y-69427800D02*
X158750000Y-70500000D01*
X157001290Y-63511700D02*
X157147552Y-63511700D01*
%TO.N,/USB2_P6_DP*%
X157381000Y-62595000D02*
X157381000Y-63242252D01*
X161250000Y-70500000D02*
X161250000Y-72430000D01*
X160177800Y-66039052D02*
X160177800Y-69427800D01*
X160246903Y-65222945D02*
X160016431Y-65453418D01*
X159167902Y-65029155D02*
X159167902Y-65029154D01*
X160246904Y-64798681D02*
X160246903Y-64798681D01*
X158743638Y-64180626D02*
X158974111Y-63950154D01*
X157381000Y-63242252D02*
X158319374Y-64180626D01*
X159592167Y-65029153D02*
X159592166Y-65029154D01*
X159398376Y-63950153D02*
X159398375Y-63950153D01*
X159398374Y-64374418D02*
X159398375Y-64374417D01*
X161250000Y-72430000D02*
X160020000Y-73660000D01*
X160016430Y-65877683D02*
X160016430Y-65877682D01*
X159592166Y-65029154D02*
X159822639Y-64798682D01*
X160016430Y-65877682D02*
X160177800Y-66039052D01*
X158743639Y-64180625D02*
X158743638Y-64180626D01*
X159398375Y-64374417D02*
X159167903Y-64604890D01*
X160246902Y-65222946D02*
X160246903Y-65222945D01*
X160177800Y-69427800D02*
X161250000Y-70500000D01*
X159398332Y-63950197D02*
G75*
G03*
X158974111Y-63950154I-212132J-212103D01*
G01*
X159398388Y-64374432D02*
G75*
G03*
X159398374Y-63950154I-212188J212132D01*
G01*
X158743633Y-64180619D02*
G75*
G02*
X158319374Y-64180626I-212133J212119D01*
G01*
X160246889Y-65222933D02*
G75*
G03*
X160246903Y-64798681I-212089J212133D01*
G01*
X159167925Y-65029132D02*
G75*
G02*
X159167903Y-64604890I212075J212132D01*
G01*
X160016381Y-65877732D02*
G75*
G02*
X160016431Y-65453418I212219J212132D01*
G01*
X160246932Y-64798653D02*
G75*
G03*
X159822639Y-64798682I-212132J-212147D01*
G01*
X159592133Y-65029119D02*
G75*
G02*
X159167902Y-65029154I-212133J212119D01*
G01*
%TO.N,/USB2_P7_DN*%
X179000000Y-72320000D02*
X180340000Y-73660000D01*
X176051290Y-63511700D02*
X176197552Y-63511700D01*
X179000000Y-66314148D02*
X179000000Y-72320000D01*
X176075400Y-61654190D02*
X175514300Y-62215290D01*
X176431000Y-60595000D02*
X176075400Y-60950600D01*
X175514300Y-62215290D02*
X175514300Y-62974710D01*
X176197552Y-63511700D02*
X179000000Y-66314148D01*
X176075400Y-60950600D02*
X176075400Y-61654190D01*
X175514300Y-62974710D02*
X176051290Y-63511700D01*
%TO.N,/USB2_P7_DP*%
X178317901Y-65129153D02*
X178317902Y-65129154D01*
X176431000Y-63242252D02*
X177469374Y-64280626D01*
X178385498Y-64637295D02*
X178317901Y-64704889D01*
X179166429Y-65977681D02*
X179166430Y-65977682D01*
X178742167Y-65129153D02*
X178742166Y-65129154D01*
X179234026Y-65485823D02*
X179166429Y-65553417D01*
X177893638Y-64280626D02*
X177961234Y-64213031D01*
X177893639Y-64280625D02*
X177893638Y-64280626D01*
X178385497Y-64637296D02*
X178385498Y-64637295D01*
X179166430Y-65977682D02*
X181500000Y-68311252D01*
X178742166Y-65129154D02*
X178809762Y-65061559D01*
X179234025Y-65485824D02*
X179234026Y-65485823D01*
X181500000Y-72280000D02*
X182880000Y-73660000D01*
X176431000Y-62595000D02*
X176431000Y-63242252D01*
X181500000Y-68311252D02*
X181500000Y-72280000D01*
X178385497Y-64213032D02*
G75*
G03*
X177961235Y-64213032I-212131J-212131D01*
G01*
X177893633Y-64280619D02*
G75*
G02*
X177469374Y-64280626I-212133J212119D01*
G01*
X178742133Y-65129119D02*
G75*
G02*
X178317902Y-65129154I-212133J212119D01*
G01*
X178385534Y-64637333D02*
G75*
G03*
X178385498Y-64213031I-212134J212133D01*
G01*
X179234025Y-65061560D02*
G75*
G03*
X178809763Y-65061560I-212131J-212131D01*
G01*
X179166479Y-65977631D02*
G75*
G02*
X179166430Y-65553418I212121J212131D01*
G01*
X179234034Y-65485833D02*
G75*
G03*
X179234026Y-65061559I-212134J212133D01*
G01*
X178317923Y-65129131D02*
G75*
G02*
X178317902Y-64704890I212077J212131D01*
G01*
D21*
%TO.N,/PWR_BTN#*%
X164950000Y-69150000D02*
X166275000Y-70475000D01*
X166275000Y-70475000D02*
X166275000Y-72485000D01*
X166275000Y-72485000D02*
X165100000Y-73660000D01*
X172300000Y-56600000D02*
X165800000Y-56600000D01*
X165800000Y-56600000D02*
X164950000Y-57450000D01*
X184404000Y-50541000D02*
X183145000Y-51800000D01*
X164950000Y-57450000D02*
X164950000Y-69150000D01*
X183145000Y-51800000D02*
X177100000Y-51800000D01*
X177100000Y-51800000D02*
X172300000Y-56600000D01*
%TO.N,/RS232_RTS*%
X184750000Y-58655000D02*
X183500000Y-59905000D01*
X183006000Y-79694000D02*
X176657000Y-79694000D01*
X184200000Y-78500000D02*
X183006000Y-79694000D01*
X183500000Y-68400000D02*
X184200000Y-69100000D01*
X184200000Y-69100000D02*
X184200000Y-78500000D01*
X183500000Y-59905000D02*
X183500000Y-68400000D01*
%TO.N,/RS232_CTS*%
X186700000Y-69000000D02*
X186150000Y-68450000D01*
X175400000Y-79700000D02*
X176000000Y-80300000D01*
X187290000Y-58655000D02*
X185925000Y-60020000D01*
X185925000Y-60020000D02*
X185925000Y-68225000D01*
X183400000Y-80300000D02*
X186700000Y-77000000D01*
X186700000Y-77000000D02*
X186700000Y-69000000D01*
X185925000Y-68225000D02*
X186150000Y-68450000D01*
X176000000Y-80300000D02*
X183400000Y-80300000D01*
%TO.N,/I2C_0_SCL*%
X165100000Y-71120000D02*
X164200000Y-70220000D01*
X164200000Y-70220000D02*
X164200000Y-55200000D01*
%TO.N,/I2C_0_SDA*%
X162560000Y-71120000D02*
X163436000Y-70244000D01*
X163436000Y-70244000D02*
X163436000Y-55436000D01*
X163436000Y-55436000D02*
X163200000Y-55200000D01*
%TD*%
%TA.AperFunction,Conductor*%
%TO.N,GND*%
G36*
X170171746Y-48985813D02*
G01*
X170197056Y-49029650D01*
X170188266Y-49079500D01*
X170156038Y-49109291D01*
X170004209Y-49181710D01*
X170000488Y-49183755D01*
X169711026Y-49365334D01*
X169707542Y-49367810D01*
X169440863Y-49581460D01*
X169437710Y-49584299D01*
X169408097Y-49614223D01*
X169403652Y-49623887D01*
X169405288Y-49629867D01*
X171440774Y-51665353D01*
X171450413Y-51669848D01*
X171456312Y-51668267D01*
X173492450Y-49632129D01*
X173496945Y-49622490D01*
X173495684Y-49617785D01*
X173268496Y-49423749D01*
X173265098Y-49421169D01*
X172981483Y-49230588D01*
X172977818Y-49228420D01*
X172745008Y-49108258D01*
X172710680Y-49071057D01*
X172708296Y-49020494D01*
X172738970Y-48980228D01*
X172778948Y-48968500D01*
X188320500Y-48968500D01*
X188368066Y-48985813D01*
X188393376Y-49029650D01*
X188394500Y-49042500D01*
X188394500Y-55657747D01*
X188377187Y-55705313D01*
X188333350Y-55730623D01*
X188283500Y-55721833D01*
X188255162Y-55692488D01*
X188170917Y-55534044D01*
X188170916Y-55534042D01*
X188169218Y-55530849D01*
X188039011Y-55371200D01*
X187880275Y-55239882D01*
X187869384Y-55233993D01*
X187702238Y-55143618D01*
X187699055Y-55141897D01*
X187695605Y-55140829D01*
X187695600Y-55140827D01*
X187559485Y-55098693D01*
X187502254Y-55080977D01*
X187297369Y-55059443D01*
X187293765Y-55059771D01*
X187293764Y-55059771D01*
X187215076Y-55066932D01*
X187092203Y-55078114D01*
X187043247Y-55092522D01*
X186898043Y-55135258D01*
X186898039Y-55135260D01*
X186894572Y-55136280D01*
X186798633Y-55186436D01*
X186715209Y-55230049D01*
X186715206Y-55230051D01*
X186712002Y-55231726D01*
X186709184Y-55233992D01*
X186709182Y-55233993D01*
X186554266Y-55358548D01*
X186554263Y-55358551D01*
X186551447Y-55360815D01*
X186549121Y-55363587D01*
X186549119Y-55363589D01*
X186421351Y-55515856D01*
X186421348Y-55515860D01*
X186419024Y-55518630D01*
X186319776Y-55699162D01*
X186318682Y-55702611D01*
X186260727Y-55885310D01*
X186257484Y-55895532D01*
X186257081Y-55899123D01*
X186257081Y-55899124D01*
X186255461Y-55913570D01*
X186234520Y-56100262D01*
X186234823Y-56103871D01*
X186234823Y-56103873D01*
X186248835Y-56270736D01*
X186251759Y-56305553D01*
X186308544Y-56503586D01*
X186310196Y-56506800D01*
X186310197Y-56506803D01*
X186331106Y-56547487D01*
X186402712Y-56686818D01*
X186530677Y-56848270D01*
X186533430Y-56850613D01*
X186533433Y-56850616D01*
X186559933Y-56873169D01*
X186687564Y-56981791D01*
X186734266Y-57007892D01*
X186864239Y-57080532D01*
X186864243Y-57080534D01*
X186867398Y-57082297D01*
X186870834Y-57083414D01*
X186870840Y-57083416D01*
X186995256Y-57123841D01*
X187063329Y-57145959D01*
X187127176Y-57153572D01*
X187264294Y-57169922D01*
X187264297Y-57169922D01*
X187267894Y-57170351D01*
X187336714Y-57165056D01*
X187469689Y-57154824D01*
X187469691Y-57154824D01*
X187473300Y-57154546D01*
X187671725Y-57099145D01*
X187702863Y-57083416D01*
X187852376Y-57007892D01*
X187852379Y-57007890D01*
X187855610Y-57006258D01*
X188017951Y-56879424D01*
X188069149Y-56820110D01*
X188150201Y-56726210D01*
X188150203Y-56726208D01*
X188152564Y-56723472D01*
X188154347Y-56720333D01*
X188154350Y-56720329D01*
X188252537Y-56547488D01*
X188254323Y-56544344D01*
X188254858Y-56544648D01*
X188288062Y-56510266D01*
X188338404Y-56504975D01*
X188380368Y-56533282D01*
X188394500Y-56576777D01*
X188394500Y-58197747D01*
X188377187Y-58245313D01*
X188333350Y-58270623D01*
X188283500Y-58261833D01*
X188255162Y-58232488D01*
X188170917Y-58074044D01*
X188170916Y-58074042D01*
X188169218Y-58070849D01*
X188039011Y-57911200D01*
X187880275Y-57779882D01*
X187869384Y-57773993D01*
X187702238Y-57683618D01*
X187699055Y-57681897D01*
X187695605Y-57680829D01*
X187695600Y-57680827D01*
X187570996Y-57642256D01*
X187502254Y-57620977D01*
X187297369Y-57599443D01*
X187293765Y-57599771D01*
X187293764Y-57599771D01*
X187293215Y-57599821D01*
X187092203Y-57618114D01*
X187043247Y-57632522D01*
X186898043Y-57675258D01*
X186898039Y-57675260D01*
X186894572Y-57676280D01*
X186798633Y-57726436D01*
X186715209Y-57770049D01*
X186715206Y-57770051D01*
X186712002Y-57771726D01*
X186709184Y-57773992D01*
X186709182Y-57773993D01*
X186554266Y-57898548D01*
X186554263Y-57898551D01*
X186551447Y-57900815D01*
X186549121Y-57903587D01*
X186549119Y-57903589D01*
X186421351Y-58055856D01*
X186421348Y-58055860D01*
X186419024Y-58058630D01*
X186319776Y-58239162D01*
X186257484Y-58435532D01*
X186257081Y-58439123D01*
X186257081Y-58439124D01*
X186255461Y-58453570D01*
X186234520Y-58640262D01*
X186234823Y-58643871D01*
X186234823Y-58643873D01*
X186245273Y-58768318D01*
X186251759Y-58845553D01*
X186308544Y-59043586D01*
X186323805Y-59073282D01*
X186328873Y-59083143D01*
X186335216Y-59133363D01*
X186315381Y-59169293D01*
X185707168Y-59777506D01*
X185702409Y-59781867D01*
X185671806Y-59807545D01*
X185656259Y-59834475D01*
X185651831Y-59842144D01*
X185648362Y-59847589D01*
X185629159Y-59875013D01*
X185625446Y-59880316D01*
X185623771Y-59886568D01*
X185621649Y-59891118D01*
X185619361Y-59896642D01*
X185617647Y-59901353D01*
X185614412Y-59906955D01*
X185613289Y-59913326D01*
X185613288Y-59913328D01*
X185607476Y-59946294D01*
X185606079Y-59952596D01*
X185595736Y-59991193D01*
X185596300Y-59997641D01*
X185596300Y-59997642D01*
X185599218Y-60030991D01*
X185599500Y-60037441D01*
X185599500Y-60377722D01*
X185582187Y-60425288D01*
X185538350Y-60450598D01*
X185488500Y-60441808D01*
X185478331Y-60434740D01*
X185342789Y-60322610D01*
X185336804Y-60318573D01*
X185162043Y-60224081D01*
X185155405Y-60221290D01*
X184965612Y-60162540D01*
X184958552Y-60161091D01*
X184862977Y-60151045D01*
X184852657Y-60153618D01*
X184850000Y-60157275D01*
X184850000Y-62227407D01*
X184853638Y-62237403D01*
X184857875Y-62239849D01*
X184929602Y-62234330D01*
X184936701Y-62233078D01*
X185128062Y-62179649D01*
X185134770Y-62177047D01*
X185312107Y-62087468D01*
X185318195Y-62083604D01*
X185477604Y-61959060D01*
X185478263Y-61959903D01*
X185520845Y-61941294D01*
X185569406Y-61955580D01*
X185597423Y-61997738D01*
X185599500Y-62015147D01*
X185599500Y-62917074D01*
X185582187Y-62964640D01*
X185538350Y-62989950D01*
X185488500Y-62981160D01*
X185478331Y-62974092D01*
X185343070Y-62862194D01*
X185343069Y-62862193D01*
X185340275Y-62859882D01*
X185329384Y-62853993D01*
X185162238Y-62763618D01*
X185159055Y-62761897D01*
X185155605Y-62760829D01*
X185155600Y-62760827D01*
X185026973Y-62721011D01*
X184962254Y-62700977D01*
X184757369Y-62679443D01*
X184753765Y-62679771D01*
X184753764Y-62679771D01*
X184753215Y-62679821D01*
X184552203Y-62698114D01*
X184503247Y-62712522D01*
X184358043Y-62755258D01*
X184358039Y-62755260D01*
X184354572Y-62756280D01*
X184258633Y-62806436D01*
X184175209Y-62850049D01*
X184175206Y-62850051D01*
X184172002Y-62851726D01*
X184169184Y-62853992D01*
X184169182Y-62853993D01*
X184014266Y-62978548D01*
X184014263Y-62978551D01*
X184011447Y-62980815D01*
X184009121Y-62983587D01*
X184009119Y-62983589D01*
X183956187Y-63046671D01*
X183912350Y-63071981D01*
X183862500Y-63063191D01*
X183829963Y-63024414D01*
X183825500Y-62999105D01*
X183825500Y-61931563D01*
X183842813Y-61883997D01*
X183886650Y-61858687D01*
X183936500Y-61867477D01*
X183957493Y-61885598D01*
X183988788Y-61925083D01*
X183993794Y-61930267D01*
X184145094Y-62059032D01*
X184151013Y-62063146D01*
X184324440Y-62160072D01*
X184331041Y-62162955D01*
X184519991Y-62224348D01*
X184527036Y-62225897D01*
X184637043Y-62239015D01*
X184647400Y-62236586D01*
X184650000Y-62233111D01*
X184650000Y-60162764D01*
X184646362Y-60152768D01*
X184642290Y-60150418D01*
X184555912Y-60158278D01*
X184548818Y-60159631D01*
X184358231Y-60215724D01*
X184351555Y-60218422D01*
X184175483Y-60310469D01*
X184169456Y-60314413D01*
X184014619Y-60438906D01*
X184009472Y-60443947D01*
X183956187Y-60507449D01*
X183912350Y-60532759D01*
X183862500Y-60523969D01*
X183829963Y-60485193D01*
X183825500Y-60459883D01*
X183825500Y-60070478D01*
X183842813Y-60022912D01*
X183847174Y-60018152D01*
X184233703Y-59631623D01*
X184279579Y-59610231D01*
X184320916Y-59619094D01*
X184320921Y-59619082D01*
X184320979Y-59619107D01*
X184322134Y-59619355D01*
X184327398Y-59622297D01*
X184330834Y-59623414D01*
X184330840Y-59623416D01*
X184451148Y-59662506D01*
X184523329Y-59685959D01*
X184578563Y-59692545D01*
X184724294Y-59709922D01*
X184724297Y-59709922D01*
X184727894Y-59710351D01*
X184796714Y-59705056D01*
X184929689Y-59694824D01*
X184929691Y-59694824D01*
X184933300Y-59694546D01*
X185131725Y-59639145D01*
X185162863Y-59623416D01*
X185312376Y-59547892D01*
X185312379Y-59547890D01*
X185315610Y-59546258D01*
X185477951Y-59419424D01*
X185612564Y-59263472D01*
X185614347Y-59260333D01*
X185614350Y-59260329D01*
X185695898Y-59116777D01*
X185714323Y-59084344D01*
X185725660Y-59050266D01*
X185778208Y-58892299D01*
X185779351Y-58888863D01*
X185784823Y-58845553D01*
X185804913Y-58686519D01*
X185804913Y-58686513D01*
X185805171Y-58684474D01*
X185805583Y-58655000D01*
X185785480Y-58449970D01*
X185725935Y-58252749D01*
X185629218Y-58070849D01*
X185499011Y-57911200D01*
X185340275Y-57779882D01*
X185329384Y-57773993D01*
X185162238Y-57683618D01*
X185159055Y-57681897D01*
X185155605Y-57680829D01*
X185155600Y-57680827D01*
X185030996Y-57642256D01*
X184962254Y-57620977D01*
X184757369Y-57599443D01*
X184753765Y-57599771D01*
X184753764Y-57599771D01*
X184753215Y-57599821D01*
X184552203Y-57618114D01*
X184503247Y-57632522D01*
X184358043Y-57675258D01*
X184358039Y-57675260D01*
X184354572Y-57676280D01*
X184258633Y-57726436D01*
X184175209Y-57770049D01*
X184175206Y-57770051D01*
X184172002Y-57771726D01*
X184169184Y-57773992D01*
X184169182Y-57773993D01*
X184014266Y-57898548D01*
X184014263Y-57898551D01*
X184011447Y-57900815D01*
X184009121Y-57903587D01*
X184009119Y-57903589D01*
X183881351Y-58055856D01*
X183881348Y-58055860D01*
X183879024Y-58058630D01*
X183779776Y-58239162D01*
X183717484Y-58435532D01*
X183717081Y-58439123D01*
X183717081Y-58439124D01*
X183715461Y-58453570D01*
X183694520Y-58640262D01*
X183694823Y-58643871D01*
X183694823Y-58643873D01*
X183705273Y-58768318D01*
X183711759Y-58845553D01*
X183768544Y-59043586D01*
X183783805Y-59073282D01*
X183788873Y-59083143D01*
X183795216Y-59133363D01*
X183775381Y-59169293D01*
X183282168Y-59662506D01*
X183277409Y-59666867D01*
X183246806Y-59692545D01*
X183236687Y-59710073D01*
X183226831Y-59727144D01*
X183223362Y-59732589D01*
X183200446Y-59765316D01*
X183198771Y-59771568D01*
X183196649Y-59776118D01*
X183194361Y-59781642D01*
X183192647Y-59786353D01*
X183189412Y-59791955D01*
X183188289Y-59798326D01*
X183188288Y-59798328D01*
X183182476Y-59831294D01*
X183181079Y-59837596D01*
X183170736Y-59876193D01*
X183171300Y-59882641D01*
X183171300Y-59882642D01*
X183174218Y-59915991D01*
X183174500Y-59922441D01*
X183174500Y-68382559D01*
X183174218Y-68389009D01*
X183173007Y-68402856D01*
X183170736Y-68428807D01*
X183180998Y-68467104D01*
X183181078Y-68467401D01*
X183182475Y-68473703D01*
X183189412Y-68513045D01*
X183192647Y-68518647D01*
X183194361Y-68523358D01*
X183196649Y-68528882D01*
X183198771Y-68533432D01*
X183200446Y-68539684D01*
X183204158Y-68544986D01*
X183204159Y-68544987D01*
X183223362Y-68572411D01*
X183226828Y-68577851D01*
X183246806Y-68612455D01*
X183251767Y-68616618D01*
X183251769Y-68616620D01*
X183277409Y-68638134D01*
X183282169Y-68642495D01*
X183852826Y-69213153D01*
X183874218Y-69259030D01*
X183874500Y-69265479D01*
X183874500Y-70469383D01*
X183857187Y-70516949D01*
X183813350Y-70542259D01*
X183763500Y-70533469D01*
X183743154Y-70516153D01*
X183739703Y-70511921D01*
X183658567Y-70412439D01*
X183631298Y-70379004D01*
X183631297Y-70379003D01*
X183629011Y-70376200D01*
X183510027Y-70277768D01*
X183473070Y-70247194D01*
X183473069Y-70247193D01*
X183470275Y-70244882D01*
X183460161Y-70239413D01*
X183292238Y-70148618D01*
X183289055Y-70146897D01*
X183285605Y-70145829D01*
X183285600Y-70145827D01*
X183139332Y-70100550D01*
X183092254Y-70085977D01*
X182887369Y-70064443D01*
X182883765Y-70064771D01*
X182883764Y-70064771D01*
X182883215Y-70064821D01*
X182682203Y-70083114D01*
X182667165Y-70087540D01*
X182488043Y-70140258D01*
X182488039Y-70140260D01*
X182484572Y-70141280D01*
X182403821Y-70183496D01*
X182305209Y-70235049D01*
X182305206Y-70235051D01*
X182302002Y-70236726D01*
X182299184Y-70238992D01*
X182299182Y-70238993D01*
X182144266Y-70363548D01*
X182144263Y-70363551D01*
X182141447Y-70365815D01*
X182139121Y-70368587D01*
X182139119Y-70368589D01*
X182011351Y-70520856D01*
X182011348Y-70520860D01*
X182009024Y-70523630D01*
X181977301Y-70581334D01*
X181928247Y-70670563D01*
X181890160Y-70703905D01*
X181839552Y-70704965D01*
X181800103Y-70673247D01*
X181789400Y-70634913D01*
X181789400Y-68363689D01*
X181789776Y-68358565D01*
X181791254Y-68354261D01*
X181789452Y-68306254D01*
X181789400Y-68303478D01*
X181789400Y-68284335D01*
X181788776Y-68280981D01*
X181788502Y-68278018D01*
X181788241Y-68273992D01*
X181788239Y-68273925D01*
X181787210Y-68246526D01*
X181784513Y-68240248D01*
X181781896Y-68234156D01*
X181777138Y-68218496D01*
X181776302Y-68214009D01*
X181774674Y-68205264D01*
X181760388Y-68182087D01*
X181755397Y-68172481D01*
X181744652Y-68147471D01*
X181740789Y-68142767D01*
X181734820Y-68136798D01*
X181724153Y-68123303D01*
X181721690Y-68119307D01*
X181721688Y-68119304D01*
X181718103Y-68113489D01*
X181694579Y-68095601D01*
X181687045Y-68089023D01*
X179415898Y-65817876D01*
X179394506Y-65772000D01*
X179407607Y-65723105D01*
X179415898Y-65713224D01*
X179416180Y-65712942D01*
X179426062Y-65704650D01*
X179436518Y-65697329D01*
X179436519Y-65697328D01*
X179441819Y-65693617D01*
X179447121Y-65686045D01*
X179449851Y-65682393D01*
X179524121Y-65589261D01*
X179581749Y-65469592D01*
X179584520Y-65457453D01*
X179597659Y-65399882D01*
X179611303Y-65340100D01*
X179611303Y-65315888D01*
X179611301Y-65235391D01*
X179611300Y-65207278D01*
X179581741Y-65077787D01*
X179579941Y-65074049D01*
X179579939Y-65074044D01*
X179525912Y-64961864D01*
X179524109Y-64958120D01*
X179513172Y-64944407D01*
X179449993Y-64865188D01*
X179447232Y-64861495D01*
X179445779Y-64859420D01*
X179445776Y-64859417D01*
X179441819Y-64853766D01*
X179441816Y-64853764D01*
X179441812Y-64853758D01*
X179436160Y-64849801D01*
X179436158Y-64849799D01*
X179434067Y-64848335D01*
X179430368Y-64845570D01*
X179415165Y-64833446D01*
X179337457Y-64771475D01*
X179333719Y-64769675D01*
X179333716Y-64769673D01*
X179221530Y-64715647D01*
X179221529Y-64715647D01*
X179217792Y-64713847D01*
X179166661Y-64702177D01*
X179092353Y-64685216D01*
X179092350Y-64685216D01*
X179088303Y-64684292D01*
X178955485Y-64684292D01*
X178951438Y-64685216D01*
X178951435Y-64685216D01*
X178830043Y-64712923D01*
X178830041Y-64712924D01*
X178825996Y-64713847D01*
X178825975Y-64713757D01*
X178776988Y-64713145D01*
X178738621Y-64680125D01*
X178730454Y-64630169D01*
X178732435Y-64622775D01*
X178733256Y-64621071D01*
X178762806Y-64491567D01*
X178762806Y-64482346D01*
X178762797Y-64382346D01*
X178762795Y-64358733D01*
X178761543Y-64353247D01*
X178734149Y-64233289D01*
X178733223Y-64229234D01*
X178675573Y-64109563D01*
X178601485Y-64016689D01*
X178598721Y-64012993D01*
X178597249Y-64010890D01*
X178597247Y-64010888D01*
X178593291Y-64005238D01*
X178593270Y-64005224D01*
X178593256Y-64005203D01*
X178587601Y-64001245D01*
X178587599Y-64001243D01*
X178585487Y-63999765D01*
X178581781Y-63996995D01*
X178563059Y-63982065D01*
X178488929Y-63922947D01*
X178485191Y-63921147D01*
X178485188Y-63921145D01*
X178373002Y-63867119D01*
X178373001Y-63867119D01*
X178369264Y-63865319D01*
X178304228Y-63850475D01*
X178243825Y-63836688D01*
X178243822Y-63836688D01*
X178239775Y-63835764D01*
X178106957Y-63835764D01*
X178102910Y-63836688D01*
X178102907Y-63836688D01*
X178042504Y-63850475D01*
X177977468Y-63865319D01*
X177857803Y-63922947D01*
X177810837Y-63960401D01*
X177803177Y-63965754D01*
X177802251Y-63966317D01*
X177797455Y-63968378D01*
X177792751Y-63972241D01*
X177791475Y-63973517D01*
X177782926Y-63982065D01*
X177776741Y-63987591D01*
X177764856Y-63997069D01*
X177761163Y-63999831D01*
X177759147Y-64001243D01*
X177753441Y-64005238D01*
X177749730Y-64010538D01*
X177749727Y-64010541D01*
X177742412Y-64020989D01*
X177734029Y-64030963D01*
X177733741Y-64031250D01*
X177687827Y-64052563D01*
X177638956Y-64039376D01*
X177629180Y-64031159D01*
X176963321Y-63365299D01*
X176941929Y-63319422D01*
X176955030Y-63270528D01*
X176972149Y-63253108D01*
X177003230Y-63230526D01*
X177076491Y-63149162D01*
X177120267Y-63100544D01*
X177120268Y-63100542D01*
X177122859Y-63097665D01*
X177212250Y-62942835D01*
X177267497Y-62772803D01*
X177268463Y-62763618D01*
X177285780Y-62598853D01*
X177286185Y-62595000D01*
X177267497Y-62417197D01*
X177212250Y-62247165D01*
X177154373Y-62146919D01*
X180061000Y-62146919D01*
X180061155Y-62150311D01*
X180075102Y-62302092D01*
X180076332Y-62308733D01*
X180131862Y-62505624D01*
X180134284Y-62511932D01*
X180224765Y-62695409D01*
X180228290Y-62701163D01*
X180350690Y-62865076D01*
X180355216Y-62870103D01*
X180505429Y-63008958D01*
X180510800Y-63013079D01*
X180683805Y-63122237D01*
X180689825Y-63125304D01*
X180879829Y-63201109D01*
X180886314Y-63203029D01*
X181086954Y-63242939D01*
X181093662Y-63243644D01*
X181097953Y-63243700D01*
X181107995Y-63240193D01*
X181111000Y-63235143D01*
X181111000Y-63231706D01*
X181311000Y-63231706D01*
X181314638Y-63241702D01*
X181317878Y-63243572D01*
X181506569Y-63211149D01*
X181513104Y-63209398D01*
X181705028Y-63138593D01*
X181711122Y-63135687D01*
X181886937Y-63031088D01*
X181892396Y-63027122D01*
X182046203Y-62892236D01*
X182050856Y-62887332D01*
X182177499Y-62726687D01*
X182181185Y-62721011D01*
X182276429Y-62539983D01*
X182279022Y-62533720D01*
X182339683Y-62338363D01*
X182341087Y-62331757D01*
X182360743Y-62165687D01*
X182361000Y-62161328D01*
X182361000Y-61708048D01*
X182357362Y-61698052D01*
X182352075Y-61695000D01*
X181324048Y-61695000D01*
X181314052Y-61698638D01*
X181311000Y-61703925D01*
X181311000Y-63231706D01*
X181111000Y-63231706D01*
X181111000Y-61708048D01*
X181107362Y-61698052D01*
X181102075Y-61695000D01*
X180074048Y-61695000D01*
X180064052Y-61698638D01*
X180061000Y-61703925D01*
X180061000Y-62146919D01*
X177154373Y-62146919D01*
X177122859Y-62092335D01*
X177118859Y-62087892D01*
X177005823Y-61962354D01*
X177003230Y-61959474D01*
X176999389Y-61956683D01*
X176861737Y-61856672D01*
X176861735Y-61856671D01*
X176858593Y-61854388D01*
X176855042Y-61852807D01*
X176698817Y-61783251D01*
X176698812Y-61783250D01*
X176695267Y-61781671D01*
X176520391Y-61744500D01*
X176442204Y-61744500D01*
X176394638Y-61727187D01*
X176369328Y-61683350D01*
X176368621Y-61672116D01*
X176369462Y-61668573D01*
X176365476Y-61639286D01*
X176364800Y-61629307D01*
X176364800Y-61519500D01*
X176378467Y-61481952D01*
X180061000Y-61481952D01*
X180064638Y-61491948D01*
X180069925Y-61495000D01*
X181097952Y-61495000D01*
X181107948Y-61491362D01*
X181111000Y-61486075D01*
X181111000Y-61481952D01*
X181311000Y-61481952D01*
X181314638Y-61491948D01*
X181319925Y-61495000D01*
X182347952Y-61495000D01*
X182357948Y-61491362D01*
X182361000Y-61486075D01*
X182361000Y-61043081D01*
X182360845Y-61039689D01*
X182346898Y-60887908D01*
X182345668Y-60881267D01*
X182290138Y-60684376D01*
X182287716Y-60678068D01*
X182197235Y-60494591D01*
X182193710Y-60488837D01*
X182071310Y-60324924D01*
X182066784Y-60319897D01*
X181916571Y-60181042D01*
X181911200Y-60176921D01*
X181738195Y-60067763D01*
X181732175Y-60064696D01*
X181542171Y-59988891D01*
X181535686Y-59986971D01*
X181335046Y-59947061D01*
X181328338Y-59946356D01*
X181324047Y-59946300D01*
X181314005Y-59949807D01*
X181311000Y-59954857D01*
X181311000Y-61481952D01*
X181111000Y-61481952D01*
X181111000Y-59958294D01*
X181107362Y-59948298D01*
X181104122Y-59946428D01*
X180915431Y-59978851D01*
X180908896Y-59980602D01*
X180716972Y-60051407D01*
X180710878Y-60054313D01*
X180535063Y-60158912D01*
X180529604Y-60162878D01*
X180375797Y-60297764D01*
X180371144Y-60302668D01*
X180244501Y-60463313D01*
X180240815Y-60468989D01*
X180145571Y-60650017D01*
X180142978Y-60656280D01*
X180082317Y-60851637D01*
X180080913Y-60858243D01*
X180061257Y-61024313D01*
X180061000Y-61028672D01*
X180061000Y-61481952D01*
X176378467Y-61481952D01*
X176382113Y-61471934D01*
X176425950Y-61446624D01*
X176438800Y-61445500D01*
X176520391Y-61445500D01*
X176695267Y-61408329D01*
X176698812Y-61406750D01*
X176698817Y-61406749D01*
X176855042Y-61337193D01*
X176858593Y-61335612D01*
X177003230Y-61230526D01*
X177095006Y-61128599D01*
X177120267Y-61100544D01*
X177120268Y-61100542D01*
X177122859Y-61097665D01*
X177212250Y-60942835D01*
X177267497Y-60772803D01*
X177286185Y-60595000D01*
X177271008Y-60450598D01*
X177267902Y-60421048D01*
X177267902Y-60421046D01*
X177267497Y-60417197D01*
X177212250Y-60247165D01*
X177122859Y-60092335D01*
X177070527Y-60034214D01*
X177005823Y-59962354D01*
X177003230Y-59959474D01*
X176996875Y-59954857D01*
X176861737Y-59856672D01*
X176861735Y-59856671D01*
X176858593Y-59854388D01*
X176837386Y-59844946D01*
X176698817Y-59783251D01*
X176698811Y-59783249D01*
X176695267Y-59781671D01*
X176520391Y-59744500D01*
X176341609Y-59744500D01*
X176337813Y-59745307D01*
X176337812Y-59745307D01*
X176170528Y-59780864D01*
X176170525Y-59780865D01*
X176166733Y-59781671D01*
X176163191Y-59783248D01*
X176163188Y-59783249D01*
X176108619Y-59807545D01*
X176003408Y-59854388D01*
X176000272Y-59856666D01*
X176000271Y-59856667D01*
X175865125Y-59954857D01*
X175858770Y-59959474D01*
X175856177Y-59962354D01*
X175791474Y-60034214D01*
X175739141Y-60092335D01*
X175649750Y-60247165D01*
X175594503Y-60417197D01*
X175594098Y-60421046D01*
X175594098Y-60421048D01*
X175590992Y-60450598D01*
X175575815Y-60595000D01*
X175594503Y-60772803D01*
X175649750Y-60942835D01*
X175739141Y-61097665D01*
X175741730Y-61100540D01*
X175741737Y-61100550D01*
X175766993Y-61128599D01*
X175786000Y-61178114D01*
X175786000Y-61503664D01*
X175768687Y-61551230D01*
X175764326Y-61555990D01*
X175346739Y-61973577D01*
X175342853Y-61976932D01*
X175338764Y-61978930D01*
X175334117Y-61983940D01*
X175306104Y-62014138D01*
X175304178Y-62016138D01*
X175290630Y-62029686D01*
X175288700Y-62032499D01*
X175286801Y-62034785D01*
X175284136Y-62037820D01*
X175270089Y-62052962D01*
X175270088Y-62052964D01*
X175265444Y-62057970D01*
X175262913Y-62064314D01*
X175260459Y-62070466D01*
X175252749Y-62084906D01*
X175245131Y-62096011D01*
X175243553Y-62102661D01*
X175238847Y-62122491D01*
X175235579Y-62132826D01*
X175227428Y-62153255D01*
X175227426Y-62153261D01*
X175225494Y-62158105D01*
X175224900Y-62164163D01*
X175224900Y-62172603D01*
X175222900Y-62189689D01*
X175220238Y-62200907D01*
X175221160Y-62207680D01*
X175224224Y-62230195D01*
X175224900Y-62240174D01*
X175224900Y-62922273D01*
X175224524Y-62927397D01*
X175223046Y-62931701D01*
X175223302Y-62938525D01*
X175223302Y-62938526D01*
X175224848Y-62979708D01*
X175224900Y-62982484D01*
X175224900Y-63001627D01*
X175225524Y-63004981D01*
X175225798Y-63007944D01*
X175226058Y-63011961D01*
X175227090Y-63039436D01*
X175230985Y-63048503D01*
X175232403Y-63051803D01*
X175237161Y-63067462D01*
X175239626Y-63080698D01*
X175253912Y-63103873D01*
X175258904Y-63113485D01*
X175267583Y-63133688D01*
X175267585Y-63133691D01*
X175269647Y-63138491D01*
X175273511Y-63143194D01*
X175279479Y-63149162D01*
X175290146Y-63162657D01*
X175296197Y-63172473D01*
X175301636Y-63176609D01*
X175319725Y-63190364D01*
X175327259Y-63196942D01*
X175809574Y-63679257D01*
X175812931Y-63683146D01*
X175814930Y-63687236D01*
X175840161Y-63710641D01*
X175850152Y-63719909D01*
X175852152Y-63721835D01*
X175865687Y-63735370D01*
X175868498Y-63737299D01*
X175870789Y-63739202D01*
X175873821Y-63741865D01*
X175888962Y-63755911D01*
X175888964Y-63755912D01*
X175893970Y-63760556D01*
X175906468Y-63765542D01*
X175920906Y-63773251D01*
X175932011Y-63780869D01*
X175938661Y-63782447D01*
X175958491Y-63787153D01*
X175968826Y-63790421D01*
X175989255Y-63798572D01*
X175989261Y-63798574D01*
X175994105Y-63800506D01*
X176000163Y-63801100D01*
X176008604Y-63801100D01*
X176025691Y-63803100D01*
X176030257Y-63804184D01*
X176030259Y-63804184D01*
X176036908Y-63805762D01*
X176043680Y-63804840D01*
X176050503Y-63805174D01*
X176050394Y-63807406D01*
X176090011Y-63816011D01*
X176102845Y-63826266D01*
X176395253Y-64118674D01*
X176416645Y-64164550D01*
X176403544Y-64213445D01*
X176362080Y-64242479D01*
X176349350Y-64244155D01*
X176349396Y-64244595D01*
X176337864Y-64245807D01*
X176170684Y-64281342D01*
X176163344Y-64283727D01*
X176007201Y-64353247D01*
X176000522Y-64357103D01*
X175914936Y-64419285D01*
X175908986Y-64428106D01*
X175909393Y-64431971D01*
X176431000Y-64953579D01*
X177090645Y-65613223D01*
X177100284Y-65617718D01*
X177105354Y-65616359D01*
X177119859Y-65600249D01*
X177124389Y-65594013D01*
X177209852Y-65445988D01*
X177212990Y-65438940D01*
X177265807Y-65276384D01*
X177267410Y-65268847D01*
X177277634Y-65171567D01*
X177299824Y-65126071D01*
X177346067Y-65105482D01*
X177394725Y-65119435D01*
X177403555Y-65126976D01*
X178688926Y-66412347D01*
X178710318Y-66458223D01*
X178710600Y-66464673D01*
X178710600Y-67629256D01*
X178693287Y-67676822D01*
X178649450Y-67702132D01*
X178599600Y-67693342D01*
X178573004Y-67667092D01*
X178467088Y-67489063D01*
X178463122Y-67483604D01*
X178328236Y-67329797D01*
X178323332Y-67325144D01*
X178162687Y-67198501D01*
X178157011Y-67194815D01*
X177975983Y-67099571D01*
X177969720Y-67096978D01*
X177774363Y-67036317D01*
X177767757Y-67034913D01*
X177601687Y-67015257D01*
X177597328Y-67015000D01*
X177144048Y-67015000D01*
X177134052Y-67018638D01*
X177131000Y-67023925D01*
X177131000Y-69301952D01*
X177134638Y-69311948D01*
X177139925Y-69315000D01*
X177582919Y-69315000D01*
X177586311Y-69314845D01*
X177738092Y-69300898D01*
X177744733Y-69299668D01*
X177941624Y-69244138D01*
X177947932Y-69241716D01*
X178131409Y-69151235D01*
X178137163Y-69147710D01*
X178301076Y-69025310D01*
X178306103Y-69020784D01*
X178444958Y-68870571D01*
X178449079Y-68865200D01*
X178558237Y-68692195D01*
X178561302Y-68686179D01*
X178567868Y-68669722D01*
X178601575Y-68631958D01*
X178651670Y-68624695D01*
X178694714Y-68651332D01*
X178710600Y-68697144D01*
X178710600Y-70366511D01*
X178693287Y-70414077D01*
X178649450Y-70439387D01*
X178599600Y-70430597D01*
X178579254Y-70413282D01*
X178549011Y-70376200D01*
X178430027Y-70277768D01*
X178393070Y-70247194D01*
X178393069Y-70247193D01*
X178390275Y-70244882D01*
X178380161Y-70239413D01*
X178212238Y-70148618D01*
X178209055Y-70146897D01*
X178205605Y-70145829D01*
X178205600Y-70145827D01*
X178059332Y-70100550D01*
X178012254Y-70085977D01*
X177807369Y-70064443D01*
X177803765Y-70064771D01*
X177803764Y-70064771D01*
X177803215Y-70064821D01*
X177602203Y-70083114D01*
X177587165Y-70087540D01*
X177408043Y-70140258D01*
X177408039Y-70140260D01*
X177404572Y-70141280D01*
X177323821Y-70183496D01*
X177225209Y-70235049D01*
X177225206Y-70235051D01*
X177222002Y-70236726D01*
X177219184Y-70238992D01*
X177219182Y-70238993D01*
X177064266Y-70363548D01*
X177064263Y-70363551D01*
X177061447Y-70365815D01*
X177059121Y-70368587D01*
X177059119Y-70368589D01*
X176931351Y-70520856D01*
X176931348Y-70520860D01*
X176929024Y-70523630D01*
X176927282Y-70526798D01*
X176925233Y-70529791D01*
X176923883Y-70528866D01*
X176890153Y-70558388D01*
X176839545Y-70559442D01*
X176800099Y-70527720D01*
X176789400Y-70489393D01*
X176789400Y-70473083D01*
X176788776Y-70469729D01*
X176788502Y-70466766D01*
X176788241Y-70462740D01*
X176788162Y-70460619D01*
X176787210Y-70435274D01*
X176784513Y-70428996D01*
X176781896Y-70422904D01*
X176777138Y-70407244D01*
X176776622Y-70404475D01*
X176774674Y-70394012D01*
X176760388Y-70370835D01*
X176755397Y-70361229D01*
X176744652Y-70336219D01*
X176740789Y-70331515D01*
X176734820Y-70325546D01*
X176724153Y-70312051D01*
X176721690Y-70308055D01*
X176721688Y-70308052D01*
X176718103Y-70302237D01*
X176694579Y-70284349D01*
X176687045Y-70277771D01*
X175991713Y-69582439D01*
X175988358Y-69578553D01*
X175986360Y-69574464D01*
X175951151Y-69541803D01*
X175949152Y-69539878D01*
X175935604Y-69526330D01*
X175932791Y-69524400D01*
X175930505Y-69522501D01*
X175927470Y-69519836D01*
X175912328Y-69505789D01*
X175912326Y-69505788D01*
X175907320Y-69501144D01*
X175894822Y-69496158D01*
X175880384Y-69488449D01*
X175869279Y-69480831D01*
X175842800Y-69474547D01*
X175832464Y-69471279D01*
X175812035Y-69463128D01*
X175812029Y-69463126D01*
X175807185Y-69461194D01*
X175801127Y-69460600D01*
X175792687Y-69460600D01*
X175775600Y-69458600D01*
X175771034Y-69457516D01*
X175771032Y-69457516D01*
X175764383Y-69455938D01*
X175735764Y-69459833D01*
X175735095Y-69459924D01*
X175725116Y-69460600D01*
X174651973Y-69460600D01*
X174604407Y-69443287D01*
X174599647Y-69438926D01*
X174339529Y-69178807D01*
X174065361Y-68904639D01*
X174062006Y-68900753D01*
X174060008Y-68896664D01*
X174024798Y-68864002D01*
X174022799Y-68862077D01*
X174009252Y-68848530D01*
X174006439Y-68846600D01*
X174004153Y-68844701D01*
X174001118Y-68842036D01*
X173985976Y-68827989D01*
X173985974Y-68827988D01*
X173980968Y-68823344D01*
X173968470Y-68818358D01*
X173954032Y-68810649D01*
X173942927Y-68803031D01*
X173916448Y-68796747D01*
X173906112Y-68793479D01*
X173885683Y-68785328D01*
X173885677Y-68785326D01*
X173880833Y-68783394D01*
X173874775Y-68782800D01*
X173866335Y-68782800D01*
X173849248Y-68780800D01*
X173844682Y-68779716D01*
X173844680Y-68779716D01*
X173838031Y-68778138D01*
X173809412Y-68782033D01*
X173808743Y-68782124D01*
X173798764Y-68782800D01*
X172886473Y-68782800D01*
X172838907Y-68765487D01*
X172834147Y-68761126D01*
X172344899Y-68271878D01*
X175382428Y-68271878D01*
X175414851Y-68460569D01*
X175416602Y-68467104D01*
X175487407Y-68659028D01*
X175490313Y-68665122D01*
X175594912Y-68840937D01*
X175598878Y-68846396D01*
X175733764Y-69000203D01*
X175738668Y-69004856D01*
X175899313Y-69131499D01*
X175904989Y-69135185D01*
X176086017Y-69230429D01*
X176092280Y-69233022D01*
X176287637Y-69293683D01*
X176294243Y-69295087D01*
X176460313Y-69314743D01*
X176464672Y-69315000D01*
X176917952Y-69315000D01*
X176927948Y-69311362D01*
X176931000Y-69306075D01*
X176931000Y-68278048D01*
X176927362Y-68268052D01*
X176922075Y-68265000D01*
X175394294Y-68265000D01*
X175384298Y-68268638D01*
X175382428Y-68271878D01*
X172344899Y-68271878D01*
X172124974Y-68051953D01*
X175382300Y-68051953D01*
X175385807Y-68061995D01*
X175390857Y-68065000D01*
X176917952Y-68065000D01*
X176927948Y-68061362D01*
X176931000Y-68056075D01*
X176931000Y-67028048D01*
X176927362Y-67018052D01*
X176922075Y-67015000D01*
X176479081Y-67015000D01*
X176475689Y-67015155D01*
X176323908Y-67029102D01*
X176317267Y-67030332D01*
X176120376Y-67085862D01*
X176114068Y-67088284D01*
X175930591Y-67178765D01*
X175924837Y-67182290D01*
X175760924Y-67304690D01*
X175755897Y-67309216D01*
X175617042Y-67459429D01*
X175612921Y-67464800D01*
X175503763Y-67637805D01*
X175500696Y-67643825D01*
X175424891Y-67833829D01*
X175422971Y-67840314D01*
X175383061Y-68040954D01*
X175382356Y-68047662D01*
X175382300Y-68051953D01*
X172124974Y-68051953D01*
X169929869Y-65856847D01*
X169908477Y-65810971D01*
X169921208Y-65763457D01*
X175909109Y-65763457D01*
X175910116Y-65767213D01*
X176000522Y-65832897D01*
X176007201Y-65836753D01*
X176163344Y-65906273D01*
X176170684Y-65908658D01*
X176337864Y-65944193D01*
X176345543Y-65945000D01*
X176516457Y-65945000D01*
X176524136Y-65944193D01*
X176691316Y-65908658D01*
X176698656Y-65906273D01*
X176854799Y-65836753D01*
X176861478Y-65832897D01*
X176947064Y-65770715D01*
X176953014Y-65761894D01*
X176952607Y-65758029D01*
X176440226Y-65245647D01*
X176430587Y-65241152D01*
X176424688Y-65242733D01*
X175913604Y-65753818D01*
X175909109Y-65763457D01*
X169921208Y-65763457D01*
X169921578Y-65762076D01*
X169929870Y-65752194D01*
X169967597Y-65714469D01*
X169981256Y-65700810D01*
X169991147Y-65692512D01*
X169997137Y-65688319D01*
X170006879Y-65681500D01*
X170010593Y-65676198D01*
X170010597Y-65676194D01*
X170012855Y-65672970D01*
X170015604Y-65669294D01*
X170089139Y-65577108D01*
X170146781Y-65457453D01*
X170152877Y-65430761D01*
X170175425Y-65332020D01*
X170176350Y-65327970D01*
X170176357Y-65257191D01*
X170176364Y-65199308D01*
X170176364Y-65195155D01*
X170155907Y-65105483D01*
X170154394Y-65098853D01*
X175576723Y-65098853D01*
X175594590Y-65268847D01*
X175596193Y-65276384D01*
X175649010Y-65438940D01*
X175652148Y-65445988D01*
X175737611Y-65594013D01*
X175742141Y-65600249D01*
X175753397Y-65612751D01*
X175762791Y-65617746D01*
X175767922Y-65616656D01*
X176280353Y-65104226D01*
X176284848Y-65094587D01*
X176283267Y-65088688D01*
X175771355Y-64576777D01*
X175761716Y-64572282D01*
X175756646Y-64573641D01*
X175742141Y-64589751D01*
X175737611Y-64595987D01*
X175652148Y-64744012D01*
X175649010Y-64751060D01*
X175596193Y-64913616D01*
X175594590Y-64921153D01*
X175576723Y-65091147D01*
X175576723Y-65098853D01*
X170154394Y-65098853D01*
X170147749Y-65069724D01*
X170147748Y-65069722D01*
X170146823Y-65065666D01*
X170145019Y-65061920D01*
X170145018Y-65061916D01*
X170091008Y-64949740D01*
X170091007Y-64949738D01*
X170089206Y-64945998D01*
X170074242Y-64927230D01*
X170018540Y-64857372D01*
X170015082Y-64853034D01*
X170012322Y-64849342D01*
X170009720Y-64845626D01*
X170009719Y-64845625D01*
X170006924Y-64841633D01*
X170006916Y-64841627D01*
X170006910Y-64841619D01*
X169999186Y-64836211D01*
X169995508Y-64833461D01*
X169902548Y-64759328D01*
X169811844Y-64715647D01*
X169786621Y-64703500D01*
X169786620Y-64703500D01*
X169782883Y-64701700D01*
X169706614Y-64684292D01*
X169657444Y-64673069D01*
X169657441Y-64673069D01*
X169653394Y-64672145D01*
X169520576Y-64672145D01*
X169516529Y-64673069D01*
X169516526Y-64673069D01*
X169467356Y-64684292D01*
X169391087Y-64701700D01*
X169387350Y-64703500D01*
X169387349Y-64703500D01*
X169362126Y-64715647D01*
X169271422Y-64759328D01*
X169224459Y-64796780D01*
X169216806Y-64802129D01*
X169215879Y-64802693D01*
X169211073Y-64804758D01*
X169206370Y-64808622D01*
X169196551Y-64818441D01*
X169190364Y-64823970D01*
X169178473Y-64833453D01*
X169174774Y-64836218D01*
X169172362Y-64837906D01*
X169172359Y-64837909D01*
X169167060Y-64841619D01*
X169163348Y-64846920D01*
X169163347Y-64846921D01*
X169156029Y-64857372D01*
X169147739Y-64867251D01*
X169096333Y-64918658D01*
X169050457Y-64940051D01*
X169001563Y-64926951D01*
X168991681Y-64918659D01*
X167438321Y-63365299D01*
X167416929Y-63319423D01*
X167430030Y-63270528D01*
X167447149Y-63253108D01*
X167478230Y-63230526D01*
X167551491Y-63149162D01*
X167595267Y-63100544D01*
X167595268Y-63100542D01*
X167597859Y-63097665D01*
X167687250Y-62942835D01*
X167742497Y-62772803D01*
X167743463Y-62763618D01*
X167760780Y-62598853D01*
X167761185Y-62595000D01*
X167742497Y-62417197D01*
X167687250Y-62247165D01*
X167629373Y-62146919D01*
X170536000Y-62146919D01*
X170536155Y-62150311D01*
X170550102Y-62302092D01*
X170551332Y-62308733D01*
X170606862Y-62505624D01*
X170609284Y-62511932D01*
X170699765Y-62695409D01*
X170703290Y-62701163D01*
X170825690Y-62865076D01*
X170830216Y-62870103D01*
X170980429Y-63008958D01*
X170985800Y-63013079D01*
X171158805Y-63122237D01*
X171164825Y-63125304D01*
X171354829Y-63201109D01*
X171361314Y-63203029D01*
X171561954Y-63242939D01*
X171568662Y-63243644D01*
X171572953Y-63243700D01*
X171582995Y-63240193D01*
X171586000Y-63235143D01*
X171586000Y-63231706D01*
X171786000Y-63231706D01*
X171789638Y-63241702D01*
X171792878Y-63243572D01*
X171981569Y-63211149D01*
X171988104Y-63209398D01*
X172180028Y-63138593D01*
X172186122Y-63135687D01*
X172361937Y-63031088D01*
X172367396Y-63027122D01*
X172521203Y-62892236D01*
X172525856Y-62887332D01*
X172652499Y-62726687D01*
X172656185Y-62721011D01*
X172751429Y-62539983D01*
X172754022Y-62533720D01*
X172814683Y-62338363D01*
X172816087Y-62331757D01*
X172835743Y-62165687D01*
X172836000Y-62161328D01*
X172836000Y-61708048D01*
X172832362Y-61698052D01*
X172827075Y-61695000D01*
X171799048Y-61695000D01*
X171789052Y-61698638D01*
X171786000Y-61703925D01*
X171786000Y-63231706D01*
X171586000Y-63231706D01*
X171586000Y-61708048D01*
X171582362Y-61698052D01*
X171577075Y-61695000D01*
X170549048Y-61695000D01*
X170539052Y-61698638D01*
X170536000Y-61703925D01*
X170536000Y-62146919D01*
X167629373Y-62146919D01*
X167597859Y-62092335D01*
X167593859Y-62087892D01*
X167480823Y-61962354D01*
X167478230Y-61959474D01*
X167474389Y-61956683D01*
X167336737Y-61856672D01*
X167336735Y-61856671D01*
X167333593Y-61854388D01*
X167330042Y-61852807D01*
X167173817Y-61783251D01*
X167173812Y-61783250D01*
X167170267Y-61781671D01*
X166995391Y-61744500D01*
X166917204Y-61744500D01*
X166869638Y-61727187D01*
X166844328Y-61683350D01*
X166843621Y-61672116D01*
X166844462Y-61668573D01*
X166840476Y-61639286D01*
X166839800Y-61629307D01*
X166839800Y-61519500D01*
X166853467Y-61481952D01*
X170536000Y-61481952D01*
X170539638Y-61491948D01*
X170544925Y-61495000D01*
X171572952Y-61495000D01*
X171582948Y-61491362D01*
X171586000Y-61486075D01*
X171586000Y-61481952D01*
X171786000Y-61481952D01*
X171789638Y-61491948D01*
X171794925Y-61495000D01*
X172822952Y-61495000D01*
X172832948Y-61491362D01*
X172836000Y-61486075D01*
X172836000Y-61043081D01*
X172835845Y-61039689D01*
X172821898Y-60887908D01*
X172820668Y-60881267D01*
X172765138Y-60684376D01*
X172762716Y-60678068D01*
X172672235Y-60494591D01*
X172668710Y-60488837D01*
X172546310Y-60324924D01*
X172541784Y-60319897D01*
X172391571Y-60181042D01*
X172386200Y-60176921D01*
X172213195Y-60067763D01*
X172207175Y-60064696D01*
X172017171Y-59988891D01*
X172010686Y-59986971D01*
X171810046Y-59947061D01*
X171803338Y-59946356D01*
X171799047Y-59946300D01*
X171789005Y-59949807D01*
X171786000Y-59954857D01*
X171786000Y-61481952D01*
X171586000Y-61481952D01*
X171586000Y-59958294D01*
X171582362Y-59948298D01*
X171579122Y-59946428D01*
X171390431Y-59978851D01*
X171383896Y-59980602D01*
X171191972Y-60051407D01*
X171185878Y-60054313D01*
X171010063Y-60158912D01*
X171004604Y-60162878D01*
X170850797Y-60297764D01*
X170846144Y-60302668D01*
X170719501Y-60463313D01*
X170715815Y-60468989D01*
X170620571Y-60650017D01*
X170617978Y-60656280D01*
X170557317Y-60851637D01*
X170555913Y-60858243D01*
X170536257Y-61024313D01*
X170536000Y-61028672D01*
X170536000Y-61481952D01*
X166853467Y-61481952D01*
X166857113Y-61471934D01*
X166900950Y-61446624D01*
X166913800Y-61445500D01*
X166995391Y-61445500D01*
X167170267Y-61408329D01*
X167173812Y-61406750D01*
X167173817Y-61406749D01*
X167330042Y-61337193D01*
X167333593Y-61335612D01*
X167478230Y-61230526D01*
X167570006Y-61128599D01*
X167595267Y-61100544D01*
X167595268Y-61100542D01*
X167597859Y-61097665D01*
X167687250Y-60942835D01*
X167742497Y-60772803D01*
X167761185Y-60595000D01*
X167746008Y-60450598D01*
X167742902Y-60421048D01*
X167742902Y-60421046D01*
X167742497Y-60417197D01*
X167687250Y-60247165D01*
X167597859Y-60092335D01*
X167545527Y-60034214D01*
X167480823Y-59962354D01*
X167478230Y-59959474D01*
X167471875Y-59954857D01*
X167336737Y-59856672D01*
X167336735Y-59856671D01*
X167333593Y-59854388D01*
X167312386Y-59844946D01*
X167173817Y-59783251D01*
X167173811Y-59783249D01*
X167170267Y-59781671D01*
X166995391Y-59744500D01*
X166816609Y-59744500D01*
X166812813Y-59745307D01*
X166812812Y-59745307D01*
X166645528Y-59780864D01*
X166645525Y-59780865D01*
X166641733Y-59781671D01*
X166638191Y-59783248D01*
X166638188Y-59783249D01*
X166583619Y-59807545D01*
X166478408Y-59854388D01*
X166475272Y-59856666D01*
X166475271Y-59856667D01*
X166340125Y-59954857D01*
X166333770Y-59959474D01*
X166331177Y-59962354D01*
X166266474Y-60034214D01*
X166214141Y-60092335D01*
X166124750Y-60247165D01*
X166069503Y-60417197D01*
X166069098Y-60421046D01*
X166069098Y-60421048D01*
X166065992Y-60450598D01*
X166050815Y-60595000D01*
X166069503Y-60772803D01*
X166124750Y-60942835D01*
X166214141Y-61097665D01*
X166216730Y-61100540D01*
X166216737Y-61100550D01*
X166241993Y-61128599D01*
X166261000Y-61178114D01*
X166261000Y-61503664D01*
X166243687Y-61551230D01*
X166239326Y-61555990D01*
X165821739Y-61973577D01*
X165817853Y-61976932D01*
X165813764Y-61978930D01*
X165809117Y-61983940D01*
X165781104Y-62014138D01*
X165779178Y-62016138D01*
X165765630Y-62029686D01*
X165763700Y-62032499D01*
X165761801Y-62034785D01*
X165759136Y-62037820D01*
X165745089Y-62052962D01*
X165745088Y-62052964D01*
X165740444Y-62057970D01*
X165737913Y-62064314D01*
X165735459Y-62070466D01*
X165727749Y-62084906D01*
X165720131Y-62096011D01*
X165718553Y-62102661D01*
X165713847Y-62122491D01*
X165710579Y-62132826D01*
X165702428Y-62153255D01*
X165702426Y-62153261D01*
X165700494Y-62158105D01*
X165699900Y-62164163D01*
X165699900Y-62172603D01*
X165697900Y-62189689D01*
X165695238Y-62200907D01*
X165696160Y-62207680D01*
X165699224Y-62230195D01*
X165699900Y-62240174D01*
X165699900Y-62922273D01*
X165699524Y-62927397D01*
X165698046Y-62931701D01*
X165698302Y-62938525D01*
X165698302Y-62938526D01*
X165699848Y-62979708D01*
X165699900Y-62982484D01*
X165699900Y-63001627D01*
X165700524Y-63004981D01*
X165700798Y-63007944D01*
X165701058Y-63011961D01*
X165702090Y-63039436D01*
X165705985Y-63048503D01*
X165707403Y-63051803D01*
X165712161Y-63067462D01*
X165714626Y-63080698D01*
X165728912Y-63103873D01*
X165733904Y-63113485D01*
X165742583Y-63133688D01*
X165742585Y-63133691D01*
X165744647Y-63138491D01*
X165748511Y-63143194D01*
X165754479Y-63149162D01*
X165765146Y-63162657D01*
X165771197Y-63172473D01*
X165776636Y-63176609D01*
X165794725Y-63190364D01*
X165802259Y-63196942D01*
X166284574Y-63679257D01*
X166287931Y-63683146D01*
X166289930Y-63687236D01*
X166315161Y-63710641D01*
X166325152Y-63719909D01*
X166327152Y-63721835D01*
X166340687Y-63735370D01*
X166343498Y-63737299D01*
X166345789Y-63739202D01*
X166348821Y-63741865D01*
X166363962Y-63755911D01*
X166363964Y-63755912D01*
X166368970Y-63760556D01*
X166381468Y-63765542D01*
X166395906Y-63773251D01*
X166407011Y-63780869D01*
X166413661Y-63782447D01*
X166433491Y-63787153D01*
X166443826Y-63790421D01*
X166464255Y-63798572D01*
X166464261Y-63798574D01*
X166469105Y-63800506D01*
X166475163Y-63801100D01*
X166483604Y-63801100D01*
X166500691Y-63803100D01*
X166505257Y-63804184D01*
X166505259Y-63804184D01*
X166511908Y-63805762D01*
X166518680Y-63804840D01*
X166525503Y-63805174D01*
X166525394Y-63807406D01*
X166565011Y-63816011D01*
X166577845Y-63826266D01*
X166870253Y-64118674D01*
X166891645Y-64164550D01*
X166878544Y-64213445D01*
X166837080Y-64242479D01*
X166824350Y-64244155D01*
X166824396Y-64244595D01*
X166812864Y-64245807D01*
X166645684Y-64281342D01*
X166638344Y-64283727D01*
X166482201Y-64353247D01*
X166475522Y-64357103D01*
X166389936Y-64419285D01*
X166383986Y-64428106D01*
X166384393Y-64431971D01*
X166906000Y-64953579D01*
X167565645Y-65613223D01*
X167575284Y-65617718D01*
X167580354Y-65616359D01*
X167594859Y-65600249D01*
X167599389Y-65594013D01*
X167684852Y-65445988D01*
X167687990Y-65438940D01*
X167740807Y-65276384D01*
X167742410Y-65268847D01*
X167752634Y-65171567D01*
X167774824Y-65126071D01*
X167821067Y-65105482D01*
X167869725Y-65119435D01*
X167878555Y-65126976D01*
X172346936Y-69595357D01*
X172350293Y-69599246D01*
X172352292Y-69603336D01*
X172357302Y-69607983D01*
X172387514Y-69636009D01*
X172389514Y-69637935D01*
X172403049Y-69651470D01*
X172405860Y-69653399D01*
X172408151Y-69655302D01*
X172411183Y-69657965D01*
X172426324Y-69672011D01*
X172426326Y-69672012D01*
X172431332Y-69676656D01*
X172443830Y-69681642D01*
X172458268Y-69689351D01*
X172469373Y-69696969D01*
X172476023Y-69698547D01*
X172495853Y-69703253D01*
X172506188Y-69706521D01*
X172526617Y-69714672D01*
X172526623Y-69714674D01*
X172531467Y-69716606D01*
X172537525Y-69717200D01*
X172545966Y-69717200D01*
X172563053Y-69719200D01*
X172567619Y-69720284D01*
X172567621Y-69720284D01*
X172574270Y-69721862D01*
X172603557Y-69717876D01*
X172613536Y-69717200D01*
X173525827Y-69717200D01*
X173573393Y-69734513D01*
X173578153Y-69738874D01*
X173688926Y-69849648D01*
X173710318Y-69895525D01*
X173710600Y-69901974D01*
X173710600Y-70464601D01*
X173693287Y-70512167D01*
X173649450Y-70537477D01*
X173599600Y-70528687D01*
X173579254Y-70511371D01*
X173569904Y-70499906D01*
X173498567Y-70412439D01*
X173471298Y-70379004D01*
X173471297Y-70379003D01*
X173469011Y-70376200D01*
X173350027Y-70277768D01*
X173313070Y-70247194D01*
X173313069Y-70247193D01*
X173310275Y-70244882D01*
X173300161Y-70239413D01*
X173132238Y-70148618D01*
X173129055Y-70146897D01*
X173125605Y-70145829D01*
X173125600Y-70145827D01*
X172979332Y-70100550D01*
X172932254Y-70085977D01*
X172727369Y-70064443D01*
X172723765Y-70064771D01*
X172723764Y-70064771D01*
X172723215Y-70064821D01*
X172522203Y-70083114D01*
X172507165Y-70087540D01*
X172328043Y-70140258D01*
X172328039Y-70140260D01*
X172324572Y-70141280D01*
X172243821Y-70183496D01*
X172145209Y-70235049D01*
X172145206Y-70235051D01*
X172142002Y-70236726D01*
X172139184Y-70238992D01*
X172139182Y-70238993D01*
X171984266Y-70363548D01*
X171984263Y-70363551D01*
X171981447Y-70365815D01*
X171979121Y-70368587D01*
X171979119Y-70368589D01*
X171851351Y-70520856D01*
X171851348Y-70520860D01*
X171849024Y-70523630D01*
X171749776Y-70704162D01*
X171687484Y-70900532D01*
X171687081Y-70904123D01*
X171687081Y-70904124D01*
X171683003Y-70940485D01*
X171664520Y-71105262D01*
X171664823Y-71108871D01*
X171664823Y-71108873D01*
X171668404Y-71151519D01*
X171681759Y-71310553D01*
X171738544Y-71508586D01*
X171740196Y-71511800D01*
X171740197Y-71511803D01*
X171804203Y-71636346D01*
X171832712Y-71691818D01*
X171960677Y-71853270D01*
X171963430Y-71855613D01*
X171963433Y-71855616D01*
X171999474Y-71886289D01*
X172117564Y-71986791D01*
X172163508Y-72012468D01*
X172294239Y-72085532D01*
X172294243Y-72085534D01*
X172297398Y-72087297D01*
X172300834Y-72088414D01*
X172300840Y-72088416D01*
X172425256Y-72128841D01*
X172493329Y-72150959D01*
X172553033Y-72158078D01*
X172694294Y-72174922D01*
X172694297Y-72174922D01*
X172697894Y-72175351D01*
X172774273Y-72169474D01*
X172899689Y-72159824D01*
X172899691Y-72159824D01*
X172903300Y-72159546D01*
X173101725Y-72104145D01*
X173133776Y-72087955D01*
X173282376Y-72012892D01*
X173282379Y-72012890D01*
X173285610Y-72011258D01*
X173447951Y-71884424D01*
X173450636Y-71881314D01*
X173523751Y-71796608D01*
X173580582Y-71730768D01*
X173624768Y-71706073D01*
X173674491Y-71715558D01*
X173706484Y-71754785D01*
X173710600Y-71779121D01*
X173710600Y-72347563D01*
X173710224Y-72352687D01*
X173708746Y-72356991D01*
X173709002Y-72363815D01*
X173709002Y-72363816D01*
X173710548Y-72404998D01*
X173710600Y-72407774D01*
X173710600Y-72426917D01*
X173711224Y-72430271D01*
X173711498Y-72433234D01*
X173711758Y-72437251D01*
X173712790Y-72464726D01*
X173716115Y-72472464D01*
X173718103Y-72477093D01*
X173722861Y-72492752D01*
X173725326Y-72505988D01*
X173739612Y-72529163D01*
X173744604Y-72538775D01*
X173753283Y-72558978D01*
X173753285Y-72558981D01*
X173755347Y-72563781D01*
X173759211Y-72568484D01*
X173765179Y-72574452D01*
X173775846Y-72587947D01*
X173781897Y-72597763D01*
X173787336Y-72601899D01*
X173805425Y-72615654D01*
X173812959Y-72622232D01*
X174301965Y-73111238D01*
X174323357Y-73157114D01*
X174314486Y-73199213D01*
X174296412Y-73232091D01*
X174289776Y-73244162D01*
X174227484Y-73440532D01*
X174227081Y-73444123D01*
X174227081Y-73444124D01*
X174223003Y-73480485D01*
X174204520Y-73645262D01*
X174204823Y-73648871D01*
X174204823Y-73648873D01*
X174208404Y-73691519D01*
X174221759Y-73850553D01*
X174278544Y-74048586D01*
X174280196Y-74051800D01*
X174280197Y-74051803D01*
X174301001Y-74092283D01*
X174372712Y-74231818D01*
X174500677Y-74393270D01*
X174503430Y-74395613D01*
X174503433Y-74395616D01*
X174534062Y-74421683D01*
X174657564Y-74526791D01*
X174703508Y-74552468D01*
X174834239Y-74625532D01*
X174834243Y-74625534D01*
X174837398Y-74627297D01*
X174840834Y-74628414D01*
X174840840Y-74628416D01*
X174965256Y-74668841D01*
X175033329Y-74690959D01*
X175083590Y-74696952D01*
X175234294Y-74714922D01*
X175234297Y-74714922D01*
X175237894Y-74715351D01*
X175307437Y-74710000D01*
X175439689Y-74699824D01*
X175439691Y-74699824D01*
X175443300Y-74699546D01*
X175641725Y-74644145D01*
X175673776Y-74627955D01*
X175822376Y-74552892D01*
X175822379Y-74552890D01*
X175825610Y-74551258D01*
X175987951Y-74424424D01*
X176012817Y-74395616D01*
X176120201Y-74271210D01*
X176120203Y-74271208D01*
X176122564Y-74268472D01*
X176124347Y-74265333D01*
X176124350Y-74265329D01*
X176173443Y-74178908D01*
X176224323Y-74089344D01*
X176236812Y-74051803D01*
X176288208Y-73897299D01*
X176289351Y-73893863D01*
X176289820Y-73890155D01*
X176314913Y-73691519D01*
X176314913Y-73691513D01*
X176315171Y-73689474D01*
X176315583Y-73660000D01*
X176305521Y-73557372D01*
X176295833Y-73458570D01*
X176295480Y-73454970D01*
X176235935Y-73257749D01*
X176158276Y-73111692D01*
X176140917Y-73079044D01*
X176140916Y-73079042D01*
X176139218Y-73075849D01*
X176009011Y-72916200D01*
X175850275Y-72784882D01*
X175840161Y-72779413D01*
X175672238Y-72688618D01*
X175669055Y-72686897D01*
X175665605Y-72685829D01*
X175665600Y-72685827D01*
X175540996Y-72647256D01*
X175472254Y-72625977D01*
X175267369Y-72604443D01*
X175263765Y-72604771D01*
X175263764Y-72604771D01*
X175199306Y-72610637D01*
X175062203Y-72623114D01*
X175038851Y-72629987D01*
X174868043Y-72680258D01*
X174868039Y-72680260D01*
X174864572Y-72681280D01*
X174817886Y-72705687D01*
X174798469Y-72715838D01*
X174748295Y-72722533D01*
X174711859Y-72702585D01*
X174311074Y-72301800D01*
X174289682Y-72255924D01*
X174289400Y-72249474D01*
X174289400Y-71799203D01*
X174306713Y-71751637D01*
X174350550Y-71726327D01*
X174400400Y-71735117D01*
X174421392Y-71753237D01*
X174500677Y-71853270D01*
X174503430Y-71855613D01*
X174503433Y-71855616D01*
X174539474Y-71886289D01*
X174657564Y-71986791D01*
X174703508Y-72012468D01*
X174834239Y-72085532D01*
X174834243Y-72085534D01*
X174837398Y-72087297D01*
X174840834Y-72088414D01*
X174840840Y-72088416D01*
X174965256Y-72128841D01*
X175033329Y-72150959D01*
X175093033Y-72158078D01*
X175234294Y-72174922D01*
X175234297Y-72174922D01*
X175237894Y-72175351D01*
X175314273Y-72169474D01*
X175439689Y-72159824D01*
X175439691Y-72159824D01*
X175443300Y-72159546D01*
X175641725Y-72104145D01*
X175673776Y-72087955D01*
X175822376Y-72012892D01*
X175822379Y-72012890D01*
X175825610Y-72011258D01*
X175987951Y-71884424D01*
X175990636Y-71881314D01*
X176063751Y-71796608D01*
X176080582Y-71777109D01*
X176124768Y-71752414D01*
X176174491Y-71761899D01*
X176206484Y-71801126D01*
X176210600Y-71825462D01*
X176210600Y-72307563D01*
X176210224Y-72312687D01*
X176208746Y-72316991D01*
X176209002Y-72323815D01*
X176209002Y-72323816D01*
X176210548Y-72364998D01*
X176210600Y-72367774D01*
X176210600Y-72386917D01*
X176211224Y-72390271D01*
X176211498Y-72393234D01*
X176211758Y-72397251D01*
X176212790Y-72424726D01*
X176215488Y-72431005D01*
X176218103Y-72437093D01*
X176222861Y-72452752D01*
X176225326Y-72465988D01*
X176239612Y-72489163D01*
X176244604Y-72498775D01*
X176253283Y-72518978D01*
X176253285Y-72518981D01*
X176255347Y-72523781D01*
X176259211Y-72528484D01*
X176265179Y-72534452D01*
X176275846Y-72547947D01*
X176281897Y-72557763D01*
X176287336Y-72561899D01*
X176305425Y-72575654D01*
X176312959Y-72582232D01*
X176841965Y-73111238D01*
X176863357Y-73157114D01*
X176854486Y-73199213D01*
X176836412Y-73232091D01*
X176829776Y-73244162D01*
X176767484Y-73440532D01*
X176767081Y-73444123D01*
X176767081Y-73444124D01*
X176763003Y-73480485D01*
X176744520Y-73645262D01*
X176744823Y-73648871D01*
X176744823Y-73648873D01*
X176748404Y-73691519D01*
X176761759Y-73850553D01*
X176818544Y-74048586D01*
X176820196Y-74051800D01*
X176820197Y-74051803D01*
X176841001Y-74092283D01*
X176912712Y-74231818D01*
X177040677Y-74393270D01*
X177043430Y-74395613D01*
X177043433Y-74395616D01*
X177074062Y-74421683D01*
X177197564Y-74526791D01*
X177243508Y-74552468D01*
X177374239Y-74625532D01*
X177374243Y-74625534D01*
X177377398Y-74627297D01*
X177380834Y-74628414D01*
X177380840Y-74628416D01*
X177505256Y-74668841D01*
X177573329Y-74690959D01*
X177623590Y-74696952D01*
X177774294Y-74714922D01*
X177774297Y-74714922D01*
X177777894Y-74715351D01*
X177847437Y-74710000D01*
X177979689Y-74699824D01*
X177979691Y-74699824D01*
X177983300Y-74699546D01*
X178181725Y-74644145D01*
X178213776Y-74627955D01*
X178362376Y-74552892D01*
X178362379Y-74552890D01*
X178365610Y-74551258D01*
X178527951Y-74424424D01*
X178552817Y-74395616D01*
X178660201Y-74271210D01*
X178660203Y-74271208D01*
X178662564Y-74268472D01*
X178664347Y-74265333D01*
X178664350Y-74265329D01*
X178713443Y-74178908D01*
X178764323Y-74089344D01*
X178776812Y-74051803D01*
X178828208Y-73897299D01*
X178829351Y-73893863D01*
X178829820Y-73890155D01*
X178854913Y-73691519D01*
X178854913Y-73691513D01*
X178855171Y-73689474D01*
X178855583Y-73660000D01*
X178845521Y-73557372D01*
X178835833Y-73458570D01*
X178835480Y-73454970D01*
X178775935Y-73257749D01*
X178698276Y-73111692D01*
X178680917Y-73079044D01*
X178680916Y-73079042D01*
X178679218Y-73075849D01*
X178549011Y-72916200D01*
X178390275Y-72784882D01*
X178380161Y-72779413D01*
X178212238Y-72688618D01*
X178209055Y-72686897D01*
X178205605Y-72685829D01*
X178205600Y-72685827D01*
X178080996Y-72647256D01*
X178012254Y-72625977D01*
X177807369Y-72604443D01*
X177803765Y-72604771D01*
X177803764Y-72604771D01*
X177739306Y-72610637D01*
X177602203Y-72623114D01*
X177578851Y-72629987D01*
X177408043Y-72680258D01*
X177408039Y-72680260D01*
X177404572Y-72681280D01*
X177357886Y-72705687D01*
X177338469Y-72715838D01*
X177288295Y-72722533D01*
X177251859Y-72702585D01*
X176811074Y-72261800D01*
X176789682Y-72215924D01*
X176789400Y-72209474D01*
X176789400Y-71748736D01*
X176806713Y-71701170D01*
X176850550Y-71675860D01*
X176900400Y-71684650D01*
X176921393Y-71702771D01*
X176943583Y-71730768D01*
X177040677Y-71853270D01*
X177043430Y-71855613D01*
X177043433Y-71855616D01*
X177079474Y-71886289D01*
X177197564Y-71986791D01*
X177243508Y-72012468D01*
X177374239Y-72085532D01*
X177374243Y-72085534D01*
X177377398Y-72087297D01*
X177380834Y-72088414D01*
X177380840Y-72088416D01*
X177505256Y-72128841D01*
X177573329Y-72150959D01*
X177633033Y-72158078D01*
X177774294Y-72174922D01*
X177774297Y-72174922D01*
X177777894Y-72175351D01*
X177854273Y-72169474D01*
X177979689Y-72159824D01*
X177979691Y-72159824D01*
X177983300Y-72159546D01*
X178181725Y-72104145D01*
X178213776Y-72087955D01*
X178362376Y-72012892D01*
X178362379Y-72012890D01*
X178365610Y-72011258D01*
X178527951Y-71884424D01*
X178530631Y-71881319D01*
X178580582Y-71823450D01*
X178624769Y-71798755D01*
X178674491Y-71808240D01*
X178706484Y-71847467D01*
X178710600Y-71871803D01*
X178710600Y-72267563D01*
X178710224Y-72272687D01*
X178708746Y-72276991D01*
X178709002Y-72283815D01*
X178709002Y-72283816D01*
X178710548Y-72324998D01*
X178710600Y-72327774D01*
X178710600Y-72346917D01*
X178711224Y-72350271D01*
X178711498Y-72353234D01*
X178711758Y-72357251D01*
X178712790Y-72384726D01*
X178715488Y-72391005D01*
X178718103Y-72397093D01*
X178722861Y-72412752D01*
X178725326Y-72425988D01*
X178739612Y-72449163D01*
X178744604Y-72458775D01*
X178753283Y-72478978D01*
X178753285Y-72478981D01*
X178755347Y-72483781D01*
X178759211Y-72488484D01*
X178765179Y-72494452D01*
X178775846Y-72507947D01*
X178781897Y-72517763D01*
X178787336Y-72521899D01*
X178805425Y-72535654D01*
X178812959Y-72542232D01*
X179381965Y-73111238D01*
X179403357Y-73157114D01*
X179394486Y-73199213D01*
X179376412Y-73232091D01*
X179369776Y-73244162D01*
X179307484Y-73440532D01*
X179307081Y-73444123D01*
X179307081Y-73444124D01*
X179303003Y-73480485D01*
X179284520Y-73645262D01*
X179284823Y-73648871D01*
X179284823Y-73648873D01*
X179288404Y-73691519D01*
X179301759Y-73850553D01*
X179358544Y-74048586D01*
X179360196Y-74051800D01*
X179360197Y-74051803D01*
X179381001Y-74092283D01*
X179452712Y-74231818D01*
X179580677Y-74393270D01*
X179583430Y-74395613D01*
X179583433Y-74395616D01*
X179614062Y-74421683D01*
X179737564Y-74526791D01*
X179783508Y-74552468D01*
X179914239Y-74625532D01*
X179914243Y-74625534D01*
X179917398Y-74627297D01*
X179920834Y-74628414D01*
X179920840Y-74628416D01*
X180045256Y-74668841D01*
X180113329Y-74690959D01*
X180163590Y-74696952D01*
X180314294Y-74714922D01*
X180314297Y-74714922D01*
X180317894Y-74715351D01*
X180387437Y-74710000D01*
X180519689Y-74699824D01*
X180519691Y-74699824D01*
X180523300Y-74699546D01*
X180721725Y-74644145D01*
X180753776Y-74627955D01*
X180902376Y-74552892D01*
X180902379Y-74552890D01*
X180905610Y-74551258D01*
X181067951Y-74424424D01*
X181092817Y-74395616D01*
X181200201Y-74271210D01*
X181200203Y-74271208D01*
X181202564Y-74268472D01*
X181204347Y-74265333D01*
X181204350Y-74265329D01*
X181253443Y-74178908D01*
X181304323Y-74089344D01*
X181316812Y-74051803D01*
X181368208Y-73897299D01*
X181369351Y-73893863D01*
X181369820Y-73890155D01*
X181394913Y-73691519D01*
X181394913Y-73691513D01*
X181395171Y-73689474D01*
X181395583Y-73660000D01*
X181385521Y-73557372D01*
X181375833Y-73458570D01*
X181375480Y-73454970D01*
X181315935Y-73257749D01*
X181238276Y-73111692D01*
X181220917Y-73079044D01*
X181220916Y-73079042D01*
X181219218Y-73075849D01*
X181089011Y-72916200D01*
X180930275Y-72784882D01*
X180920161Y-72779413D01*
X180752238Y-72688618D01*
X180749055Y-72686897D01*
X180745605Y-72685829D01*
X180745600Y-72685827D01*
X180620996Y-72647256D01*
X180552254Y-72625977D01*
X180347369Y-72604443D01*
X180343765Y-72604771D01*
X180343764Y-72604771D01*
X180279306Y-72610637D01*
X180142203Y-72623114D01*
X180118851Y-72629987D01*
X179948043Y-72680258D01*
X179948039Y-72680260D01*
X179944572Y-72681280D01*
X179897886Y-72705687D01*
X179878469Y-72715838D01*
X179828295Y-72722533D01*
X179791859Y-72702585D01*
X179311074Y-72221800D01*
X179289682Y-72175924D01*
X179289400Y-72169474D01*
X179289400Y-71678834D01*
X179306713Y-71631268D01*
X179350550Y-71605958D01*
X179400400Y-71614748D01*
X179429217Y-71645008D01*
X179451482Y-71688330D01*
X179455384Y-71694384D01*
X179578789Y-71850083D01*
X179583794Y-71855267D01*
X179735094Y-71984032D01*
X179741013Y-71988146D01*
X179914440Y-72085072D01*
X179921041Y-72087955D01*
X180109991Y-72149348D01*
X180117036Y-72150897D01*
X180227043Y-72164015D01*
X180237400Y-72161586D01*
X180240000Y-72158111D01*
X180240000Y-71233048D01*
X180236362Y-71223052D01*
X180231075Y-71220000D01*
X179363400Y-71220000D01*
X179315834Y-71202687D01*
X179290524Y-71158850D01*
X179289400Y-71146000D01*
X179289400Y-71094000D01*
X179306713Y-71046434D01*
X179350550Y-71021124D01*
X179363400Y-71020000D01*
X180226952Y-71020000D01*
X180236948Y-71016362D01*
X180240000Y-71011075D01*
X180240000Y-70087764D01*
X180236362Y-70077768D01*
X180232290Y-70075418D01*
X180145912Y-70083278D01*
X180138818Y-70084631D01*
X179948231Y-70140724D01*
X179941555Y-70143422D01*
X179765483Y-70235469D01*
X179759456Y-70239413D01*
X179604619Y-70363906D01*
X179599471Y-70368947D01*
X179471765Y-70521140D01*
X179467693Y-70527087D01*
X179428247Y-70598840D01*
X179390161Y-70632183D01*
X179339553Y-70633243D01*
X179300103Y-70601525D01*
X179289400Y-70563191D01*
X179289400Y-66688577D01*
X179306713Y-66641011D01*
X179350550Y-66615701D01*
X179400400Y-66624491D01*
X179415726Y-66636251D01*
X180408730Y-67629256D01*
X181188926Y-68409452D01*
X181210318Y-68455328D01*
X181210600Y-68461778D01*
X181210600Y-70320317D01*
X181193287Y-70367883D01*
X181149450Y-70393193D01*
X181099600Y-70384403D01*
X181088947Y-70376202D01*
X181088655Y-70376554D01*
X180932789Y-70247610D01*
X180926804Y-70243573D01*
X180752043Y-70149081D01*
X180745405Y-70146290D01*
X180555612Y-70087540D01*
X180548552Y-70086091D01*
X180452977Y-70076045D01*
X180442657Y-70078618D01*
X180440000Y-70082275D01*
X180440000Y-72152407D01*
X180443638Y-72162403D01*
X180447875Y-72164849D01*
X180519602Y-72159330D01*
X180526701Y-72158078D01*
X180718062Y-72104649D01*
X180724770Y-72102047D01*
X180902107Y-72012468D01*
X180908195Y-72008604D01*
X181064751Y-71886289D01*
X181069976Y-71881314D01*
X181080583Y-71869025D01*
X181124769Y-71844330D01*
X181174492Y-71853815D01*
X181206484Y-71893042D01*
X181210600Y-71917378D01*
X181210600Y-72227563D01*
X181210224Y-72232687D01*
X181208746Y-72236991D01*
X181209002Y-72243815D01*
X181209002Y-72243816D01*
X181210548Y-72284998D01*
X181210600Y-72287774D01*
X181210600Y-72306917D01*
X181211224Y-72310271D01*
X181211498Y-72313234D01*
X181211758Y-72317251D01*
X181212790Y-72344726D01*
X181215958Y-72352100D01*
X181218103Y-72357093D01*
X181222861Y-72372752D01*
X181225326Y-72385988D01*
X181239612Y-72409163D01*
X181244604Y-72418775D01*
X181253283Y-72438978D01*
X181253285Y-72438981D01*
X181255347Y-72443781D01*
X181259211Y-72448484D01*
X181265179Y-72454452D01*
X181275846Y-72467947D01*
X181281897Y-72477763D01*
X181287336Y-72481899D01*
X181305425Y-72495654D01*
X181312959Y-72502232D01*
X181921965Y-73111238D01*
X181943357Y-73157114D01*
X181934486Y-73199213D01*
X181916412Y-73232091D01*
X181909776Y-73244162D01*
X181847484Y-73440532D01*
X181847081Y-73444123D01*
X181847081Y-73444124D01*
X181843003Y-73480485D01*
X181824520Y-73645262D01*
X181824823Y-73648871D01*
X181824823Y-73648873D01*
X181828404Y-73691519D01*
X181841759Y-73850553D01*
X181898544Y-74048586D01*
X181900196Y-74051800D01*
X181900197Y-74051803D01*
X181921001Y-74092283D01*
X181992712Y-74231818D01*
X182120677Y-74393270D01*
X182123430Y-74395613D01*
X182123433Y-74395616D01*
X182154062Y-74421683D01*
X182277564Y-74526791D01*
X182323508Y-74552468D01*
X182454239Y-74625532D01*
X182454243Y-74625534D01*
X182457398Y-74627297D01*
X182460834Y-74628414D01*
X182460840Y-74628416D01*
X182585256Y-74668841D01*
X182653329Y-74690959D01*
X182703590Y-74696952D01*
X182854294Y-74714922D01*
X182854297Y-74714922D01*
X182857894Y-74715351D01*
X182927437Y-74710000D01*
X183059689Y-74699824D01*
X183059691Y-74699824D01*
X183063300Y-74699546D01*
X183261725Y-74644145D01*
X183293776Y-74627955D01*
X183442376Y-74552892D01*
X183442379Y-74552890D01*
X183445610Y-74551258D01*
X183607951Y-74424424D01*
X183742564Y-74268472D01*
X183743346Y-74269147D01*
X183781596Y-74242561D01*
X183832007Y-74247148D01*
X183867675Y-74283066D01*
X183874500Y-74314106D01*
X183874500Y-78334522D01*
X183857187Y-78382088D01*
X183852826Y-78386848D01*
X182892848Y-79346826D01*
X182846972Y-79368218D01*
X182840522Y-79368500D01*
X177002826Y-79368500D01*
X176956198Y-79351020D01*
X176956193Y-79351028D01*
X176951774Y-79348164D01*
X176951772Y-79348162D01*
X176852329Y-79283708D01*
X176852330Y-79283708D01*
X176847906Y-79280841D01*
X176842857Y-79279331D01*
X176842855Y-79279330D01*
X176729326Y-79245377D01*
X176729325Y-79245377D01*
X176724273Y-79243866D01*
X176658771Y-79243466D01*
X176600501Y-79243110D01*
X176600500Y-79243110D01*
X176595231Y-79243078D01*
X176471155Y-79278539D01*
X176362019Y-79347399D01*
X176358531Y-79351348D01*
X176358529Y-79351350D01*
X176338007Y-79374587D01*
X176276596Y-79444122D01*
X176274357Y-79448891D01*
X176274355Y-79448894D01*
X176239688Y-79522733D01*
X176221754Y-79560932D01*
X176201901Y-79688440D01*
X176202584Y-79693663D01*
X176202584Y-79693666D01*
X176210028Y-79750587D01*
X176218633Y-79816394D01*
X176237638Y-79859586D01*
X176242527Y-79870697D01*
X176245838Y-79921207D01*
X176215906Y-79962029D01*
X176174794Y-79974500D01*
X176165478Y-79974500D01*
X176117912Y-79957187D01*
X176113152Y-79952826D01*
X175871697Y-79711371D01*
X175850770Y-79669535D01*
X175837586Y-79577473D01*
X175837585Y-79577471D01*
X175836839Y-79572259D01*
X175783428Y-79454788D01*
X175778350Y-79448894D01*
X175702633Y-79361020D01*
X175702632Y-79361019D01*
X175699193Y-79357028D01*
X175694774Y-79354164D01*
X175694772Y-79354162D01*
X175595329Y-79289708D01*
X175595330Y-79289708D01*
X175590906Y-79286841D01*
X175585857Y-79285331D01*
X175585855Y-79285330D01*
X175472326Y-79251377D01*
X175472325Y-79251377D01*
X175467273Y-79249866D01*
X175401771Y-79249466D01*
X175343501Y-79249110D01*
X175343500Y-79249110D01*
X175338231Y-79249078D01*
X175214155Y-79284539D01*
X175105019Y-79353399D01*
X175101531Y-79357348D01*
X175101529Y-79357350D01*
X175086306Y-79374587D01*
X175019596Y-79450122D01*
X175017357Y-79454891D01*
X175017355Y-79454894D01*
X174985505Y-79522733D01*
X174964754Y-79566932D01*
X174944901Y-79694440D01*
X174945584Y-79699663D01*
X174945584Y-79699666D01*
X174960165Y-79811167D01*
X174961633Y-79822394D01*
X174963756Y-79827219D01*
X175005112Y-79921207D01*
X175013605Y-79940510D01*
X175096639Y-80039291D01*
X175204060Y-80110796D01*
X175209092Y-80112368D01*
X175209094Y-80112369D01*
X175244714Y-80123497D01*
X175327233Y-80149278D01*
X175332500Y-80149375D01*
X175332503Y-80149375D01*
X175360249Y-80149883D01*
X175411219Y-80171545D01*
X175757506Y-80517832D01*
X175761861Y-80522585D01*
X175787545Y-80553194D01*
X175822149Y-80573172D01*
X175827589Y-80576638D01*
X175855011Y-80595840D01*
X175855014Y-80595841D01*
X175860316Y-80599554D01*
X175866571Y-80601230D01*
X175871096Y-80603340D01*
X175876662Y-80605646D01*
X175881350Y-80607352D01*
X175886955Y-80610588D01*
X175893327Y-80611712D01*
X175893328Y-80611712D01*
X175926304Y-80617527D01*
X175932604Y-80618924D01*
X175951442Y-80623971D01*
X175971193Y-80629263D01*
X176010982Y-80625782D01*
X176017432Y-80625500D01*
X183382559Y-80625500D01*
X183389009Y-80625782D01*
X183422358Y-80628700D01*
X183422359Y-80628700D01*
X183428807Y-80629264D01*
X183467404Y-80618921D01*
X183473703Y-80617525D01*
X183483271Y-80615838D01*
X183506672Y-80611712D01*
X183506674Y-80611711D01*
X183513045Y-80610588D01*
X183518647Y-80607353D01*
X183523358Y-80605639D01*
X183528882Y-80603351D01*
X183533432Y-80601229D01*
X183539684Y-80599554D01*
X183572411Y-80576638D01*
X183577851Y-80573172D01*
X183604763Y-80557635D01*
X183606850Y-80556430D01*
X183612455Y-80553194D01*
X183616618Y-80548233D01*
X183638140Y-80522585D01*
X183642501Y-80517825D01*
X186917832Y-77242494D01*
X186922592Y-77238133D01*
X186953194Y-77212455D01*
X186973172Y-77177851D01*
X186976638Y-77172411D01*
X186995841Y-77144987D01*
X186995842Y-77144986D01*
X186999554Y-77139684D01*
X187001229Y-77133432D01*
X187003351Y-77128882D01*
X187005639Y-77123358D01*
X187007353Y-77118647D01*
X187010588Y-77113045D01*
X187017525Y-77073703D01*
X187018922Y-77067401D01*
X187027588Y-77035060D01*
X187029264Y-77028807D01*
X187025782Y-76989005D01*
X187025500Y-76982556D01*
X187025500Y-69017429D01*
X187025782Y-69010979D01*
X187028699Y-68977642D01*
X187028699Y-68977641D01*
X187029263Y-68971193D01*
X187018923Y-68932607D01*
X187017526Y-68926305D01*
X187011712Y-68893329D01*
X187011712Y-68893328D01*
X187010588Y-68886955D01*
X187007352Y-68881350D01*
X187005643Y-68876654D01*
X187003351Y-68871121D01*
X187001229Y-68866569D01*
X186999553Y-68860316D01*
X186989807Y-68846396D01*
X186976640Y-68827592D01*
X186973172Y-68822148D01*
X186956432Y-68793153D01*
X186956431Y-68793152D01*
X186953194Y-68787545D01*
X186948236Y-68783385D01*
X186948232Y-68783380D01*
X186922591Y-68761865D01*
X186917831Y-68757504D01*
X186360028Y-68199702D01*
X186272174Y-68111848D01*
X186250782Y-68065972D01*
X186250500Y-68059522D01*
X186250500Y-66856525D01*
X186267813Y-66808959D01*
X186311650Y-66783649D01*
X186361500Y-66792439D01*
X186390317Y-66822700D01*
X186402712Y-66846818D01*
X186530677Y-67008270D01*
X186533430Y-67010613D01*
X186533433Y-67010616D01*
X186561982Y-67034913D01*
X186687564Y-67141791D01*
X186734266Y-67167892D01*
X186864239Y-67240532D01*
X186864243Y-67240534D01*
X186867398Y-67242297D01*
X186870834Y-67243414D01*
X186870840Y-67243416D01*
X186995256Y-67283841D01*
X187063329Y-67305959D01*
X187127176Y-67313572D01*
X187264294Y-67329922D01*
X187264297Y-67329922D01*
X187267894Y-67330351D01*
X187336714Y-67325056D01*
X187469689Y-67314824D01*
X187469691Y-67314824D01*
X187473300Y-67314546D01*
X187671725Y-67259145D01*
X187702863Y-67243416D01*
X187852376Y-67167892D01*
X187852379Y-67167890D01*
X187855610Y-67166258D01*
X188017951Y-67039424D01*
X188152564Y-66883472D01*
X188154347Y-66880333D01*
X188154350Y-66880329D01*
X188252537Y-66707488D01*
X188254323Y-66704344D01*
X188254858Y-66704648D01*
X188288062Y-66670266D01*
X188338404Y-66664975D01*
X188380368Y-66693282D01*
X188394500Y-66736777D01*
X188394500Y-83799500D01*
X188377187Y-83847066D01*
X188333350Y-83872376D01*
X188320500Y-83873500D01*
X155849500Y-83873500D01*
X155801934Y-83856187D01*
X155776624Y-83812350D01*
X155775500Y-83799500D01*
X155775500Y-81566538D01*
X169405027Y-81566538D01*
X169406407Y-81571685D01*
X169557265Y-81708956D01*
X169560571Y-81711634D01*
X169838059Y-81911029D01*
X169841662Y-81913315D01*
X170140224Y-82079493D01*
X170144073Y-82081354D01*
X170459754Y-82212112D01*
X170463780Y-82213514D01*
X170792406Y-82307127D01*
X170796573Y-82308058D01*
X171133780Y-82363278D01*
X171138008Y-82363722D01*
X171479343Y-82379819D01*
X171483591Y-82379774D01*
X171824518Y-82356532D01*
X171828727Y-82356001D01*
X172164711Y-82293730D01*
X172168854Y-82292712D01*
X172495452Y-82192237D01*
X172499441Y-82190753D01*
X172812321Y-82053409D01*
X172816129Y-82051469D01*
X173111147Y-81879074D01*
X173114689Y-81876720D01*
X173387952Y-81671550D01*
X173391200Y-81668804D01*
X173490093Y-81574959D01*
X173494838Y-81565441D01*
X173493517Y-81559938D01*
X171459226Y-79525647D01*
X171449587Y-79521152D01*
X171443688Y-79522733D01*
X169409522Y-81556899D01*
X169405027Y-81566538D01*
X155775500Y-81566538D01*
X155775500Y-80094440D01*
X165044901Y-80094440D01*
X165045584Y-80099663D01*
X165045584Y-80099666D01*
X165054984Y-80171545D01*
X165061633Y-80222394D01*
X165113605Y-80340510D01*
X165196639Y-80439291D01*
X165304060Y-80510796D01*
X165309092Y-80512368D01*
X165309094Y-80512369D01*
X165341794Y-80522585D01*
X165427233Y-80549278D01*
X165432501Y-80549375D01*
X165432504Y-80549375D01*
X165486552Y-80550365D01*
X165556255Y-80551643D01*
X165561338Y-80550257D01*
X165561340Y-80550257D01*
X165655559Y-80524569D01*
X165680755Y-80517700D01*
X165790724Y-80450179D01*
X165877322Y-80354507D01*
X165933588Y-80238375D01*
X165954997Y-80111120D01*
X165955133Y-80100000D01*
X165936839Y-79972259D01*
X165929986Y-79957187D01*
X165885610Y-79859586D01*
X165885608Y-79859583D01*
X165883428Y-79854788D01*
X165876003Y-79846170D01*
X165802633Y-79761020D01*
X165802632Y-79761019D01*
X165799193Y-79757028D01*
X165794774Y-79754164D01*
X165794772Y-79754162D01*
X165695329Y-79689708D01*
X165695330Y-79689708D01*
X165690906Y-79686841D01*
X165685857Y-79685331D01*
X165685855Y-79685330D01*
X165572326Y-79651377D01*
X165572325Y-79651377D01*
X165567273Y-79649866D01*
X165501771Y-79649466D01*
X165443501Y-79649110D01*
X165443500Y-79649110D01*
X165438231Y-79649078D01*
X165314155Y-79684539D01*
X165205019Y-79753399D01*
X165201531Y-79757348D01*
X165201529Y-79757350D01*
X165198288Y-79761020D01*
X165119596Y-79850122D01*
X165117357Y-79854891D01*
X165117355Y-79854894D01*
X165089554Y-79914110D01*
X165064754Y-79966932D01*
X165044901Y-80094440D01*
X155775500Y-80094440D01*
X155775500Y-79282728D01*
X168446455Y-79282728D01*
X168455400Y-79624341D01*
X168455754Y-79628557D01*
X168503903Y-79966868D01*
X168504744Y-79971039D01*
X168591453Y-80301556D01*
X168592771Y-80305614D01*
X168716894Y-80623971D01*
X168718666Y-80627842D01*
X168878563Y-80929833D01*
X168880768Y-80933475D01*
X169074313Y-81215083D01*
X169076913Y-81218436D01*
X169249217Y-81415951D01*
X169258530Y-81421092D01*
X169263453Y-81420126D01*
X171299353Y-79384226D01*
X171303463Y-79375413D01*
X171596152Y-79375413D01*
X171597733Y-79381312D01*
X173634998Y-81418577D01*
X173644637Y-81423072D01*
X173649203Y-81421848D01*
X173861160Y-81168349D01*
X173863706Y-81164922D01*
X174051312Y-80879318D01*
X174053436Y-80875639D01*
X174206967Y-80570377D01*
X174208665Y-80566454D01*
X174326091Y-80245573D01*
X174327326Y-80241483D01*
X174407091Y-79909233D01*
X174407846Y-79905036D01*
X174448956Y-79565325D01*
X174449206Y-79562040D01*
X174455032Y-79376663D01*
X174454988Y-79373341D01*
X174435292Y-79031740D01*
X174434801Y-79027498D01*
X174376051Y-78690876D01*
X174375084Y-78686754D01*
X174278030Y-78359103D01*
X174276591Y-78355108D01*
X174142526Y-78040796D01*
X174140632Y-78036982D01*
X173971331Y-77740164D01*
X173969015Y-77736598D01*
X173766718Y-77461204D01*
X173764003Y-77457923D01*
X173649817Y-77335044D01*
X173640348Y-77330198D01*
X173634997Y-77331424D01*
X171600647Y-79365774D01*
X171596152Y-79375413D01*
X171303463Y-79375413D01*
X171303848Y-79374587D01*
X171302267Y-79368688D01*
X169267465Y-77333886D01*
X169257826Y-77329391D01*
X169252016Y-77330948D01*
X169197348Y-77386191D01*
X169194540Y-77389377D01*
X168983691Y-77658283D01*
X168981265Y-77661775D01*
X168802726Y-77953121D01*
X168800709Y-77956883D01*
X168656842Y-78266820D01*
X168655273Y-78270785D01*
X168547982Y-78595200D01*
X168546879Y-78599317D01*
X168477589Y-78933907D01*
X168476964Y-78938141D01*
X168446588Y-79278492D01*
X168446455Y-79282728D01*
X155775500Y-79282728D01*
X155775500Y-77182887D01*
X169403652Y-77182887D01*
X169405288Y-77188867D01*
X171440774Y-79224353D01*
X171450413Y-79228848D01*
X171456312Y-79227267D01*
X173492450Y-77191129D01*
X173496945Y-77181490D01*
X173495684Y-77176785D01*
X173268496Y-76982749D01*
X173265098Y-76980169D01*
X172981483Y-76789588D01*
X172977818Y-76787420D01*
X172674168Y-76630695D01*
X172670287Y-76628966D01*
X172350637Y-76508181D01*
X172346572Y-76506908D01*
X172015164Y-76423663D01*
X172010989Y-76422866D01*
X171672195Y-76378263D01*
X171667962Y-76377953D01*
X171326290Y-76372585D01*
X171322038Y-76372764D01*
X170982016Y-76406703D01*
X170977821Y-76407368D01*
X170643957Y-76480162D01*
X170639856Y-76481306D01*
X170316585Y-76591987D01*
X170312622Y-76593604D01*
X170004209Y-76740709D01*
X170000488Y-76742755D01*
X169711026Y-76924334D01*
X169707542Y-76926810D01*
X169440863Y-77140460D01*
X169437710Y-77143299D01*
X169408097Y-77173223D01*
X169403652Y-77182887D01*
X155775500Y-77182887D01*
X155775500Y-68271878D01*
X156332428Y-68271878D01*
X156364851Y-68460569D01*
X156366602Y-68467104D01*
X156437407Y-68659028D01*
X156440313Y-68665122D01*
X156544912Y-68840937D01*
X156548878Y-68846396D01*
X156683764Y-69000203D01*
X156688668Y-69004856D01*
X156849313Y-69131499D01*
X156854989Y-69135185D01*
X157036017Y-69230429D01*
X157042280Y-69233022D01*
X157237637Y-69293683D01*
X157244243Y-69295087D01*
X157410313Y-69314743D01*
X157414672Y-69315000D01*
X157867952Y-69315000D01*
X157877948Y-69311362D01*
X157881000Y-69306075D01*
X157881000Y-68278048D01*
X157877362Y-68268052D01*
X157872075Y-68265000D01*
X156344294Y-68265000D01*
X156334298Y-68268638D01*
X156332428Y-68271878D01*
X155775500Y-68271878D01*
X155775500Y-68051953D01*
X156332300Y-68051953D01*
X156335807Y-68061995D01*
X156340857Y-68065000D01*
X157867952Y-68065000D01*
X157877948Y-68061362D01*
X157881000Y-68056075D01*
X157881000Y-67028048D01*
X157877362Y-67018052D01*
X157872075Y-67015000D01*
X157429081Y-67015000D01*
X157425689Y-67015155D01*
X157273908Y-67029102D01*
X157267267Y-67030332D01*
X157070376Y-67085862D01*
X157064068Y-67088284D01*
X156880591Y-67178765D01*
X156874837Y-67182290D01*
X156710924Y-67304690D01*
X156705897Y-67309216D01*
X156567042Y-67459429D01*
X156562921Y-67464800D01*
X156453763Y-67637805D01*
X156450696Y-67643825D01*
X156374891Y-67833829D01*
X156372971Y-67840314D01*
X156333061Y-68040954D01*
X156332356Y-68047662D01*
X156332300Y-68051953D01*
X155775500Y-68051953D01*
X155775500Y-65763457D01*
X156859109Y-65763457D01*
X156860116Y-65767213D01*
X156950522Y-65832897D01*
X156957201Y-65836753D01*
X157113344Y-65906273D01*
X157120684Y-65908658D01*
X157287864Y-65944193D01*
X157295543Y-65945000D01*
X157466457Y-65945000D01*
X157474136Y-65944193D01*
X157641316Y-65908658D01*
X157648656Y-65906273D01*
X157804799Y-65836753D01*
X157811478Y-65832897D01*
X157897064Y-65770715D01*
X157903014Y-65761894D01*
X157902607Y-65758029D01*
X157390226Y-65245647D01*
X157380587Y-65241152D01*
X157374688Y-65242733D01*
X156863604Y-65753818D01*
X156859109Y-65763457D01*
X155775500Y-65763457D01*
X155775500Y-65098853D01*
X156526723Y-65098853D01*
X156544590Y-65268847D01*
X156546193Y-65276384D01*
X156599010Y-65438940D01*
X156602148Y-65445988D01*
X156687611Y-65594013D01*
X156692141Y-65600249D01*
X156703397Y-65612751D01*
X156712791Y-65617746D01*
X156717922Y-65616656D01*
X157230353Y-65104226D01*
X157234848Y-65094587D01*
X157233267Y-65088688D01*
X156721355Y-64576777D01*
X156711716Y-64572282D01*
X156706646Y-64573641D01*
X156692141Y-64589751D01*
X156687611Y-64595987D01*
X156602148Y-64744012D01*
X156599010Y-64751060D01*
X156546193Y-64913616D01*
X156544590Y-64921153D01*
X156526723Y-65091147D01*
X156526723Y-65098853D01*
X155775500Y-65098853D01*
X155775500Y-62200907D01*
X156170238Y-62200907D01*
X156171160Y-62207680D01*
X156174224Y-62230195D01*
X156174900Y-62240174D01*
X156174900Y-62922273D01*
X156174524Y-62927397D01*
X156173046Y-62931701D01*
X156173302Y-62938525D01*
X156173302Y-62938526D01*
X156174848Y-62979708D01*
X156174900Y-62982484D01*
X156174900Y-63001627D01*
X156175524Y-63004981D01*
X156175798Y-63007944D01*
X156176058Y-63011961D01*
X156177090Y-63039436D01*
X156180985Y-63048503D01*
X156182403Y-63051803D01*
X156187161Y-63067462D01*
X156189626Y-63080698D01*
X156203912Y-63103873D01*
X156208904Y-63113485D01*
X156217583Y-63133688D01*
X156217585Y-63133691D01*
X156219647Y-63138491D01*
X156223511Y-63143194D01*
X156229479Y-63149162D01*
X156240146Y-63162657D01*
X156246197Y-63172473D01*
X156251636Y-63176609D01*
X156269725Y-63190364D01*
X156277259Y-63196942D01*
X156759574Y-63679257D01*
X156762931Y-63683146D01*
X156764930Y-63687236D01*
X156790161Y-63710641D01*
X156800152Y-63719909D01*
X156802152Y-63721835D01*
X156815687Y-63735370D01*
X156818498Y-63737299D01*
X156820789Y-63739202D01*
X156823821Y-63741865D01*
X156838962Y-63755911D01*
X156838964Y-63755912D01*
X156843970Y-63760556D01*
X156856468Y-63765542D01*
X156870906Y-63773251D01*
X156882011Y-63780869D01*
X156888661Y-63782447D01*
X156908491Y-63787153D01*
X156918826Y-63790421D01*
X156939255Y-63798572D01*
X156939261Y-63798574D01*
X156944105Y-63800506D01*
X156950163Y-63801100D01*
X156958604Y-63801100D01*
X156975691Y-63803100D01*
X156980257Y-63804184D01*
X156980259Y-63804184D01*
X156986908Y-63805762D01*
X156993680Y-63804840D01*
X157000503Y-63805174D01*
X157000394Y-63807406D01*
X157040011Y-63816011D01*
X157052845Y-63826266D01*
X157345252Y-64118674D01*
X157366644Y-64164551D01*
X157353543Y-64213445D01*
X157312078Y-64242479D01*
X157299350Y-64244154D01*
X157299396Y-64244595D01*
X157287864Y-64245807D01*
X157120684Y-64281342D01*
X157113344Y-64283727D01*
X156957201Y-64353247D01*
X156950522Y-64357103D01*
X156864936Y-64419285D01*
X156858986Y-64428106D01*
X156859393Y-64431971D01*
X157381000Y-64953579D01*
X158040645Y-65613223D01*
X158050284Y-65617718D01*
X158055354Y-65616359D01*
X158069859Y-65600249D01*
X158074389Y-65594013D01*
X158159852Y-65445988D01*
X158162990Y-65438940D01*
X158215807Y-65276384D01*
X158217410Y-65268847D01*
X158227634Y-65171568D01*
X158249824Y-65126072D01*
X158296067Y-65105483D01*
X158344725Y-65119436D01*
X158353555Y-65126977D01*
X159511126Y-66284548D01*
X159532518Y-66330424D01*
X159532800Y-66336874D01*
X159532800Y-67423457D01*
X159515487Y-67471023D01*
X159471650Y-67496333D01*
X159421800Y-67487543D01*
X159403164Y-67472249D01*
X159278236Y-67329797D01*
X159273332Y-67325144D01*
X159112687Y-67198501D01*
X159107011Y-67194815D01*
X158925983Y-67099571D01*
X158919720Y-67096978D01*
X158724363Y-67036317D01*
X158717757Y-67034913D01*
X158551687Y-67015257D01*
X158547328Y-67015000D01*
X158094048Y-67015000D01*
X158084052Y-67018638D01*
X158081000Y-67023925D01*
X158081000Y-69301952D01*
X158084638Y-69311948D01*
X158089925Y-69315000D01*
X158532919Y-69315000D01*
X158536311Y-69314845D01*
X158688092Y-69300898D01*
X158694733Y-69299668D01*
X158891624Y-69244138D01*
X158897932Y-69241716D01*
X159081409Y-69151235D01*
X159087163Y-69147710D01*
X159251076Y-69025310D01*
X159256103Y-69020784D01*
X159394962Y-68870566D01*
X159400091Y-68863882D01*
X159442782Y-68836683D01*
X159492968Y-68843290D01*
X159527167Y-68880609D01*
X159532800Y-68908929D01*
X159532800Y-69277275D01*
X159515487Y-69324841D01*
X159511126Y-69329601D01*
X158582439Y-70258287D01*
X158578553Y-70261642D01*
X158574464Y-70263640D01*
X158549525Y-70290525D01*
X158541804Y-70298848D01*
X158539878Y-70300848D01*
X158526330Y-70314396D01*
X158524400Y-70317209D01*
X158522501Y-70319495D01*
X158519836Y-70322530D01*
X158505789Y-70337672D01*
X158505788Y-70337674D01*
X158501144Y-70342680D01*
X158498613Y-70349024D01*
X158496159Y-70355176D01*
X158488449Y-70369616D01*
X158480831Y-70380721D01*
X158479253Y-70387371D01*
X158474547Y-70407201D01*
X158471279Y-70417536D01*
X158463128Y-70437965D01*
X158463126Y-70437971D01*
X158461194Y-70442815D01*
X158460600Y-70448873D01*
X158460600Y-70452340D01*
X158443287Y-70499906D01*
X158399450Y-70525216D01*
X158349600Y-70516426D01*
X158329254Y-70499110D01*
X158325892Y-70494987D01*
X158246673Y-70397856D01*
X158231298Y-70379004D01*
X158231297Y-70379003D01*
X158229011Y-70376200D01*
X158110027Y-70277768D01*
X158073070Y-70247194D01*
X158073069Y-70247193D01*
X158070275Y-70244882D01*
X158060161Y-70239413D01*
X157892238Y-70148618D01*
X157889055Y-70146897D01*
X157885605Y-70145829D01*
X157885600Y-70145827D01*
X157739332Y-70100550D01*
X157692254Y-70085977D01*
X157487369Y-70064443D01*
X157483765Y-70064771D01*
X157483764Y-70064771D01*
X157483215Y-70064821D01*
X157282203Y-70083114D01*
X157267165Y-70087540D01*
X157088043Y-70140258D01*
X157088039Y-70140260D01*
X157084572Y-70141280D01*
X157003821Y-70183496D01*
X156905209Y-70235049D01*
X156905206Y-70235051D01*
X156902002Y-70236726D01*
X156899184Y-70238992D01*
X156899182Y-70238993D01*
X156744266Y-70363548D01*
X156744263Y-70363551D01*
X156741447Y-70365815D01*
X156739121Y-70368587D01*
X156739119Y-70368589D01*
X156611351Y-70520856D01*
X156611348Y-70520860D01*
X156609024Y-70523630D01*
X156509776Y-70704162D01*
X156447484Y-70900532D01*
X156447081Y-70904123D01*
X156447081Y-70904124D01*
X156443003Y-70940485D01*
X156424520Y-71105262D01*
X156424823Y-71108871D01*
X156424823Y-71108873D01*
X156428404Y-71151519D01*
X156441759Y-71310553D01*
X156498544Y-71508586D01*
X156500196Y-71511800D01*
X156500197Y-71511803D01*
X156564203Y-71636346D01*
X156592712Y-71691818D01*
X156720677Y-71853270D01*
X156723430Y-71855613D01*
X156723433Y-71855616D01*
X156759474Y-71886289D01*
X156877564Y-71986791D01*
X156923508Y-72012468D01*
X157054239Y-72085532D01*
X157054243Y-72085534D01*
X157057398Y-72087297D01*
X157060834Y-72088414D01*
X157060840Y-72088416D01*
X157185256Y-72128841D01*
X157253329Y-72150959D01*
X157313033Y-72158078D01*
X157454294Y-72174922D01*
X157454297Y-72174922D01*
X157457894Y-72175351D01*
X157534273Y-72169474D01*
X157659689Y-72159824D01*
X157659691Y-72159824D01*
X157663300Y-72159546D01*
X157861725Y-72104145D01*
X157893776Y-72087955D01*
X158042376Y-72012892D01*
X158042379Y-72012890D01*
X158045610Y-72011258D01*
X158207951Y-71884424D01*
X158210636Y-71881314D01*
X158283751Y-71796608D01*
X158330583Y-71742353D01*
X158374768Y-71717658D01*
X158424491Y-71727143D01*
X158456484Y-71766369D01*
X158460600Y-71790706D01*
X158460600Y-72239474D01*
X158443287Y-72287040D01*
X158438926Y-72291800D01*
X158028514Y-72702212D01*
X157982638Y-72723604D01*
X157940995Y-72714981D01*
X157889055Y-72686897D01*
X157885605Y-72685829D01*
X157885600Y-72685827D01*
X157760996Y-72647256D01*
X157692254Y-72625977D01*
X157487369Y-72604443D01*
X157483765Y-72604771D01*
X157483764Y-72604771D01*
X157419306Y-72610637D01*
X157282203Y-72623114D01*
X157258851Y-72629987D01*
X157088043Y-72680258D01*
X157088039Y-72680260D01*
X157084572Y-72681280D01*
X157003614Y-72723604D01*
X156905209Y-72775049D01*
X156905206Y-72775051D01*
X156902002Y-72776726D01*
X156899184Y-72778992D01*
X156899182Y-72778993D01*
X156744266Y-72903548D01*
X156744263Y-72903551D01*
X156741447Y-72905815D01*
X156739121Y-72908587D01*
X156739119Y-72908589D01*
X156611351Y-73060856D01*
X156611348Y-73060860D01*
X156609024Y-73063630D01*
X156509776Y-73244162D01*
X156447484Y-73440532D01*
X156447081Y-73444123D01*
X156447081Y-73444124D01*
X156443003Y-73480485D01*
X156424520Y-73645262D01*
X156424823Y-73648871D01*
X156424823Y-73648873D01*
X156428404Y-73691519D01*
X156441759Y-73850553D01*
X156498544Y-74048586D01*
X156500196Y-74051800D01*
X156500197Y-74051803D01*
X156521001Y-74092283D01*
X156592712Y-74231818D01*
X156720677Y-74393270D01*
X156723430Y-74395613D01*
X156723433Y-74395616D01*
X156754062Y-74421683D01*
X156877564Y-74526791D01*
X156923508Y-74552468D01*
X157054239Y-74625532D01*
X157054243Y-74625534D01*
X157057398Y-74627297D01*
X157060834Y-74628414D01*
X157060840Y-74628416D01*
X157185256Y-74668841D01*
X157253329Y-74690959D01*
X157303590Y-74696952D01*
X157454294Y-74714922D01*
X157454297Y-74714922D01*
X157457894Y-74715351D01*
X157527437Y-74710000D01*
X157659689Y-74699824D01*
X157659691Y-74699824D01*
X157663300Y-74699546D01*
X157861725Y-74644145D01*
X157893776Y-74627955D01*
X158042376Y-74552892D01*
X158042379Y-74552890D01*
X158045610Y-74551258D01*
X158207951Y-74424424D01*
X158232817Y-74395616D01*
X158340201Y-74271210D01*
X158340203Y-74271208D01*
X158342564Y-74268472D01*
X158344347Y-74265333D01*
X158344350Y-74265329D01*
X158393443Y-74178908D01*
X158444323Y-74089344D01*
X158456812Y-74051803D01*
X158508208Y-73897299D01*
X158509351Y-73893863D01*
X158509820Y-73890155D01*
X158534913Y-73691519D01*
X158534913Y-73691513D01*
X158535171Y-73689474D01*
X158535583Y-73660000D01*
X158525521Y-73557372D01*
X158515833Y-73458570D01*
X158515480Y-73454970D01*
X158455935Y-73257749D01*
X158454239Y-73254559D01*
X158454236Y-73254552D01*
X158424570Y-73198758D01*
X158417525Y-73148632D01*
X158437582Y-73111692D01*
X158917561Y-72631713D01*
X158921447Y-72628358D01*
X158925536Y-72626360D01*
X158958197Y-72591151D01*
X158960122Y-72589152D01*
X158973670Y-72575604D01*
X158975600Y-72572791D01*
X158977499Y-72570505D01*
X158980164Y-72567470D01*
X158980441Y-72567172D01*
X158991245Y-72555525D01*
X158994211Y-72552328D01*
X158994212Y-72552326D01*
X158998856Y-72547320D01*
X159003842Y-72534822D01*
X159011551Y-72520384D01*
X159019169Y-72509279D01*
X159025453Y-72482799D01*
X159028721Y-72472464D01*
X159036872Y-72452035D01*
X159036874Y-72452029D01*
X159038806Y-72447185D01*
X159039400Y-72441127D01*
X159039400Y-72432687D01*
X159041400Y-72415600D01*
X159042484Y-72411034D01*
X159042484Y-72411032D01*
X159044062Y-72404383D01*
X159040076Y-72375096D01*
X159039400Y-72365117D01*
X159039400Y-71786586D01*
X159056713Y-71739020D01*
X159100550Y-71713710D01*
X159150400Y-71722500D01*
X159171392Y-71740620D01*
X159260677Y-71853270D01*
X159263430Y-71855613D01*
X159263433Y-71855616D01*
X159299474Y-71886289D01*
X159417564Y-71986791D01*
X159463508Y-72012468D01*
X159594239Y-72085532D01*
X159594243Y-72085534D01*
X159597398Y-72087297D01*
X159600834Y-72088414D01*
X159600840Y-72088416D01*
X159725256Y-72128841D01*
X159793329Y-72150959D01*
X159853033Y-72158078D01*
X159994294Y-72174922D01*
X159994297Y-72174922D01*
X159997894Y-72175351D01*
X160074273Y-72169474D01*
X160199689Y-72159824D01*
X160199691Y-72159824D01*
X160203300Y-72159546D01*
X160401725Y-72104145D01*
X160433776Y-72087955D01*
X160582376Y-72012892D01*
X160582379Y-72012890D01*
X160585610Y-72011258D01*
X160747951Y-71884424D01*
X160750636Y-71881314D01*
X160823751Y-71796608D01*
X160830582Y-71788694D01*
X160874768Y-71763999D01*
X160924491Y-71773484D01*
X160956484Y-71812710D01*
X160960600Y-71837047D01*
X160960600Y-72279475D01*
X160943287Y-72327041D01*
X160938926Y-72331801D01*
X160568515Y-72702212D01*
X160522639Y-72723604D01*
X160480994Y-72714980D01*
X160429055Y-72686897D01*
X160425605Y-72685829D01*
X160425600Y-72685827D01*
X160300996Y-72647256D01*
X160232254Y-72625977D01*
X160027369Y-72604443D01*
X160023765Y-72604771D01*
X160023764Y-72604771D01*
X159959306Y-72610637D01*
X159822203Y-72623114D01*
X159798851Y-72629987D01*
X159628043Y-72680258D01*
X159628039Y-72680260D01*
X159624572Y-72681280D01*
X159543614Y-72723604D01*
X159445209Y-72775049D01*
X159445206Y-72775051D01*
X159442002Y-72776726D01*
X159439184Y-72778992D01*
X159439182Y-72778993D01*
X159284266Y-72903548D01*
X159284263Y-72903551D01*
X159281447Y-72905815D01*
X159279121Y-72908587D01*
X159279119Y-72908589D01*
X159151351Y-73060856D01*
X159151348Y-73060860D01*
X159149024Y-73063630D01*
X159049776Y-73244162D01*
X158987484Y-73440532D01*
X158987081Y-73444123D01*
X158987081Y-73444124D01*
X158983003Y-73480485D01*
X158964520Y-73645262D01*
X158964823Y-73648871D01*
X158964823Y-73648873D01*
X158968404Y-73691519D01*
X158981759Y-73850553D01*
X159038544Y-74048586D01*
X159040196Y-74051800D01*
X159040197Y-74051803D01*
X159061001Y-74092283D01*
X159132712Y-74231818D01*
X159260677Y-74393270D01*
X159263430Y-74395613D01*
X159263433Y-74395616D01*
X159294062Y-74421683D01*
X159417564Y-74526791D01*
X159463508Y-74552468D01*
X159594239Y-74625532D01*
X159594243Y-74625534D01*
X159597398Y-74627297D01*
X159600834Y-74628414D01*
X159600840Y-74628416D01*
X159725256Y-74668841D01*
X159793329Y-74690959D01*
X159843590Y-74696952D01*
X159994294Y-74714922D01*
X159994297Y-74714922D01*
X159997894Y-74715351D01*
X160067437Y-74710000D01*
X160199689Y-74699824D01*
X160199691Y-74699824D01*
X160203300Y-74699546D01*
X160401725Y-74644145D01*
X160433776Y-74627955D01*
X160582376Y-74552892D01*
X160582379Y-74552890D01*
X160585610Y-74551258D01*
X160747951Y-74424424D01*
X160772817Y-74395616D01*
X160880201Y-74271210D01*
X160880203Y-74271208D01*
X160882564Y-74268472D01*
X160884347Y-74265333D01*
X160884350Y-74265329D01*
X160933443Y-74178908D01*
X160984323Y-74089344D01*
X160996812Y-74051803D01*
X161048208Y-73897299D01*
X161049351Y-73893863D01*
X161049820Y-73890155D01*
X161065278Y-73767792D01*
X161515310Y-73767792D01*
X161521949Y-73846855D01*
X161523250Y-73853942D01*
X161578013Y-74044922D01*
X161580663Y-74051617D01*
X161671479Y-74228326D01*
X161675384Y-74234384D01*
X161798789Y-74390083D01*
X161803794Y-74395267D01*
X161955094Y-74524032D01*
X161961013Y-74528146D01*
X162134440Y-74625072D01*
X162141041Y-74627955D01*
X162329991Y-74689348D01*
X162337036Y-74690897D01*
X162447043Y-74704015D01*
X162457400Y-74701586D01*
X162460000Y-74698111D01*
X162460000Y-74692407D01*
X162660000Y-74692407D01*
X162663638Y-74702403D01*
X162667875Y-74704849D01*
X162739602Y-74699330D01*
X162746701Y-74698078D01*
X162938062Y-74644649D01*
X162944770Y-74642047D01*
X163122107Y-74552468D01*
X163128195Y-74548604D01*
X163284751Y-74426289D01*
X163289970Y-74421319D01*
X163419791Y-74270920D01*
X163423939Y-74265040D01*
X163522078Y-74092283D01*
X163525006Y-74085708D01*
X163587719Y-73897189D01*
X163589316Y-73890155D01*
X163604124Y-73772946D01*
X163601767Y-73762573D01*
X163598377Y-73760000D01*
X162673048Y-73760000D01*
X162663052Y-73763638D01*
X162660000Y-73768925D01*
X162660000Y-74692407D01*
X162460000Y-74692407D01*
X162460000Y-73773048D01*
X162456362Y-73763052D01*
X162451075Y-73760000D01*
X161527704Y-73760000D01*
X161517708Y-73763638D01*
X161515310Y-73767792D01*
X161065278Y-73767792D01*
X161074913Y-73691519D01*
X161074913Y-73691513D01*
X161075171Y-73689474D01*
X161075583Y-73660000D01*
X161065521Y-73557372D01*
X161064507Y-73547033D01*
X161516040Y-73547033D01*
X161518542Y-73557372D01*
X161522107Y-73560000D01*
X162446952Y-73560000D01*
X162456948Y-73556362D01*
X162460000Y-73551075D01*
X162460000Y-73546952D01*
X162660000Y-73546952D01*
X162663638Y-73556948D01*
X162668925Y-73560000D01*
X163592228Y-73560000D01*
X163602224Y-73556362D01*
X163604528Y-73552371D01*
X163595340Y-73458670D01*
X163593941Y-73451602D01*
X163536516Y-73261403D01*
X163533772Y-73254745D01*
X163440498Y-73079322D01*
X163436512Y-73073323D01*
X163310942Y-72919358D01*
X163305866Y-72914247D01*
X163152789Y-72787610D01*
X163146804Y-72783573D01*
X162972043Y-72689081D01*
X162965405Y-72686290D01*
X162775612Y-72627540D01*
X162768552Y-72626091D01*
X162672977Y-72616045D01*
X162662657Y-72618618D01*
X162660000Y-72622275D01*
X162660000Y-73546952D01*
X162460000Y-73546952D01*
X162460000Y-72627764D01*
X162456362Y-72617768D01*
X162452290Y-72615418D01*
X162365912Y-72623278D01*
X162358818Y-72624631D01*
X162168231Y-72680724D01*
X162161555Y-72683422D01*
X161985483Y-72775469D01*
X161979456Y-72779413D01*
X161824619Y-72903906D01*
X161819471Y-72908947D01*
X161691765Y-73061140D01*
X161687696Y-73067083D01*
X161591980Y-73241191D01*
X161589144Y-73247808D01*
X161529068Y-73437189D01*
X161527572Y-73444228D01*
X161516040Y-73547033D01*
X161064507Y-73547033D01*
X161055833Y-73458570D01*
X161055480Y-73454970D01*
X160995935Y-73257749D01*
X160964569Y-73198756D01*
X160957524Y-73148632D01*
X160977581Y-73111692D01*
X161417557Y-72671716D01*
X161421446Y-72668359D01*
X161425536Y-72666360D01*
X161458210Y-72631137D01*
X161460135Y-72629138D01*
X161473670Y-72615603D01*
X161475599Y-72612792D01*
X161477502Y-72610501D01*
X161480165Y-72607469D01*
X161494211Y-72592328D01*
X161494212Y-72592326D01*
X161498856Y-72587320D01*
X161503842Y-72574822D01*
X161511551Y-72560384D01*
X161519169Y-72549279D01*
X161525453Y-72522799D01*
X161528721Y-72512464D01*
X161536872Y-72492035D01*
X161536874Y-72492029D01*
X161538806Y-72487185D01*
X161539400Y-72481127D01*
X161539400Y-72472686D01*
X161541400Y-72455599D01*
X161542484Y-72451033D01*
X161542484Y-72451031D01*
X161544062Y-72444382D01*
X161540076Y-72415095D01*
X161539400Y-72405116D01*
X161539400Y-71735736D01*
X161556713Y-71688170D01*
X161600550Y-71662860D01*
X161650400Y-71671650D01*
X161672093Y-71692309D01*
X161672712Y-71691818D01*
X161800677Y-71853270D01*
X161803430Y-71855613D01*
X161803433Y-71855616D01*
X161839474Y-71886289D01*
X161957564Y-71986791D01*
X162003508Y-72012468D01*
X162134239Y-72085532D01*
X162134243Y-72085534D01*
X162137398Y-72087297D01*
X162140834Y-72088414D01*
X162140840Y-72088416D01*
X162265256Y-72128841D01*
X162333329Y-72150959D01*
X162393033Y-72158078D01*
X162534294Y-72174922D01*
X162534297Y-72174922D01*
X162537894Y-72175351D01*
X162614273Y-72169474D01*
X162739689Y-72159824D01*
X162739691Y-72159824D01*
X162743300Y-72159546D01*
X162941725Y-72104145D01*
X162973776Y-72087955D01*
X163122376Y-72012892D01*
X163122379Y-72012890D01*
X163125610Y-72011258D01*
X163287951Y-71884424D01*
X163290631Y-71881319D01*
X163420201Y-71731210D01*
X163420203Y-71731208D01*
X163422564Y-71728472D01*
X163424347Y-71725333D01*
X163424350Y-71725329D01*
X163500600Y-71591104D01*
X163524323Y-71549344D01*
X163530855Y-71529710D01*
X163588208Y-71357299D01*
X163589351Y-71353863D01*
X163589820Y-71350155D01*
X163614913Y-71151519D01*
X163614913Y-71151513D01*
X163615171Y-71149474D01*
X163615583Y-71120000D01*
X163605422Y-71016362D01*
X163595833Y-70918570D01*
X163595480Y-70914970D01*
X163535935Y-70717749D01*
X163522290Y-70692087D01*
X163515246Y-70641964D01*
X163535303Y-70605023D01*
X163653832Y-70486494D01*
X163658592Y-70482133D01*
X163673787Y-70469383D01*
X163689194Y-70456455D01*
X163709172Y-70421851D01*
X163712638Y-70416411D01*
X163731841Y-70388987D01*
X163731842Y-70388986D01*
X163735554Y-70383684D01*
X163737229Y-70377432D01*
X163739351Y-70372882D01*
X163741639Y-70367358D01*
X163743353Y-70362647D01*
X163746588Y-70357045D01*
X163747943Y-70349363D01*
X163748483Y-70346297D01*
X163773792Y-70302459D01*
X163821358Y-70285146D01*
X163868924Y-70302458D01*
X163889099Y-70331270D01*
X163889412Y-70333045D01*
X163892648Y-70338650D01*
X163894364Y-70343365D01*
X163896649Y-70348882D01*
X163898771Y-70353432D01*
X163900446Y-70359684D01*
X163904158Y-70364986D01*
X163904159Y-70364987D01*
X163923362Y-70392411D01*
X163926828Y-70397851D01*
X163946806Y-70432455D01*
X163951767Y-70436618D01*
X163951769Y-70436620D01*
X163977409Y-70458134D01*
X163982169Y-70462495D01*
X164123856Y-70604182D01*
X164145247Y-70650057D01*
X164136375Y-70692158D01*
X164129776Y-70704162D01*
X164067484Y-70900532D01*
X164067081Y-70904123D01*
X164067081Y-70904124D01*
X164063003Y-70940485D01*
X164044520Y-71105262D01*
X164044823Y-71108871D01*
X164044823Y-71108873D01*
X164048404Y-71151519D01*
X164061759Y-71310553D01*
X164118544Y-71508586D01*
X164120196Y-71511800D01*
X164120197Y-71511803D01*
X164184203Y-71636346D01*
X164212712Y-71691818D01*
X164340677Y-71853270D01*
X164343430Y-71855613D01*
X164343433Y-71855616D01*
X164379474Y-71886289D01*
X164497564Y-71986791D01*
X164543508Y-72012468D01*
X164674239Y-72085532D01*
X164674243Y-72085534D01*
X164677398Y-72087297D01*
X164680834Y-72088414D01*
X164680840Y-72088416D01*
X164805256Y-72128841D01*
X164873329Y-72150959D01*
X164933033Y-72158078D01*
X165074294Y-72174922D01*
X165074297Y-72174922D01*
X165077894Y-72175351D01*
X165154273Y-72169474D01*
X165279689Y-72159824D01*
X165279691Y-72159824D01*
X165283300Y-72159546D01*
X165481725Y-72104145D01*
X165513776Y-72087955D01*
X165662376Y-72012892D01*
X165662379Y-72012890D01*
X165665610Y-72011258D01*
X165827951Y-71884424D01*
X165828713Y-71885399D01*
X165870855Y-71866988D01*
X165919414Y-71881280D01*
X165947425Y-71923442D01*
X165949500Y-71940842D01*
X165949500Y-72319522D01*
X165932187Y-72367088D01*
X165927826Y-72371848D01*
X165615379Y-72684295D01*
X165569503Y-72705687D01*
X165527857Y-72697063D01*
X165512238Y-72688618D01*
X165509055Y-72686897D01*
X165505605Y-72685829D01*
X165505600Y-72685827D01*
X165380996Y-72647256D01*
X165312254Y-72625977D01*
X165107369Y-72604443D01*
X165103765Y-72604771D01*
X165103764Y-72604771D01*
X165039306Y-72610637D01*
X164902203Y-72623114D01*
X164878851Y-72629987D01*
X164708043Y-72680258D01*
X164708039Y-72680260D01*
X164704572Y-72681280D01*
X164623614Y-72723604D01*
X164525209Y-72775049D01*
X164525206Y-72775051D01*
X164522002Y-72776726D01*
X164519184Y-72778992D01*
X164519182Y-72778993D01*
X164364266Y-72903548D01*
X164364263Y-72903551D01*
X164361447Y-72905815D01*
X164359121Y-72908587D01*
X164359119Y-72908589D01*
X164231351Y-73060856D01*
X164231348Y-73060860D01*
X164229024Y-73063630D01*
X164129776Y-73244162D01*
X164067484Y-73440532D01*
X164067081Y-73444123D01*
X164067081Y-73444124D01*
X164063003Y-73480485D01*
X164044520Y-73645262D01*
X164044823Y-73648871D01*
X164044823Y-73648873D01*
X164048404Y-73691519D01*
X164061759Y-73850553D01*
X164118544Y-74048586D01*
X164120196Y-74051800D01*
X164120197Y-74051803D01*
X164141001Y-74092283D01*
X164212712Y-74231818D01*
X164340677Y-74393270D01*
X164343430Y-74395613D01*
X164343433Y-74395616D01*
X164374062Y-74421683D01*
X164497564Y-74526791D01*
X164543508Y-74552468D01*
X164674239Y-74625532D01*
X164674243Y-74625534D01*
X164677398Y-74627297D01*
X164680834Y-74628414D01*
X164680840Y-74628416D01*
X164805256Y-74668841D01*
X164873329Y-74690959D01*
X164923590Y-74696952D01*
X165074294Y-74714922D01*
X165074297Y-74714922D01*
X165077894Y-74715351D01*
X165147437Y-74710000D01*
X165279689Y-74699824D01*
X165279691Y-74699824D01*
X165283300Y-74699546D01*
X165481725Y-74644145D01*
X165513776Y-74627955D01*
X165662376Y-74552892D01*
X165662379Y-74552890D01*
X165665610Y-74551258D01*
X165827951Y-74424424D01*
X165852817Y-74395616D01*
X165960201Y-74271210D01*
X165960203Y-74271208D01*
X165962564Y-74268472D01*
X165964347Y-74265333D01*
X165964350Y-74265329D01*
X166013443Y-74178908D01*
X166064323Y-74089344D01*
X166076812Y-74051803D01*
X166128208Y-73897299D01*
X166129351Y-73893863D01*
X166129820Y-73890155D01*
X166154913Y-73691519D01*
X166154913Y-73691513D01*
X166155171Y-73689474D01*
X166155583Y-73660000D01*
X166154138Y-73645262D01*
X166584520Y-73645262D01*
X166584823Y-73648871D01*
X166584823Y-73648873D01*
X166588404Y-73691519D01*
X166601759Y-73850553D01*
X166658544Y-74048586D01*
X166660196Y-74051800D01*
X166660197Y-74051803D01*
X166681001Y-74092283D01*
X166752712Y-74231818D01*
X166880677Y-74393270D01*
X166883430Y-74395613D01*
X166883433Y-74395616D01*
X166914062Y-74421683D01*
X167037564Y-74526791D01*
X167083508Y-74552468D01*
X167214239Y-74625532D01*
X167214243Y-74625534D01*
X167217398Y-74627297D01*
X167220834Y-74628414D01*
X167220840Y-74628416D01*
X167345256Y-74668841D01*
X167413329Y-74690959D01*
X167463590Y-74696952D01*
X167614294Y-74714922D01*
X167614297Y-74714922D01*
X167617894Y-74715351D01*
X167687437Y-74710000D01*
X167819689Y-74699824D01*
X167819691Y-74699824D01*
X167823300Y-74699546D01*
X168021725Y-74644145D01*
X168053776Y-74627955D01*
X168202376Y-74552892D01*
X168202379Y-74552890D01*
X168205610Y-74551258D01*
X168367951Y-74424424D01*
X168392817Y-74395616D01*
X168500201Y-74271210D01*
X168500203Y-74271208D01*
X168502564Y-74268472D01*
X168504347Y-74265333D01*
X168504350Y-74265329D01*
X168553443Y-74178908D01*
X168604323Y-74089344D01*
X168616812Y-74051803D01*
X168668208Y-73897299D01*
X168669351Y-73893863D01*
X168669820Y-73890155D01*
X168694913Y-73691519D01*
X168694913Y-73691513D01*
X168695171Y-73689474D01*
X168695583Y-73660000D01*
X168694138Y-73645262D01*
X169124520Y-73645262D01*
X169124823Y-73648871D01*
X169124823Y-73648873D01*
X169128404Y-73691519D01*
X169141759Y-73850553D01*
X169198544Y-74048586D01*
X169200196Y-74051800D01*
X169200197Y-74051803D01*
X169221001Y-74092283D01*
X169292712Y-74231818D01*
X169420677Y-74393270D01*
X169423430Y-74395613D01*
X169423433Y-74395616D01*
X169454062Y-74421683D01*
X169577564Y-74526791D01*
X169623508Y-74552468D01*
X169754239Y-74625532D01*
X169754243Y-74625534D01*
X169757398Y-74627297D01*
X169760834Y-74628414D01*
X169760840Y-74628416D01*
X169885256Y-74668841D01*
X169953329Y-74690959D01*
X170003590Y-74696952D01*
X170154294Y-74714922D01*
X170154297Y-74714922D01*
X170157894Y-74715351D01*
X170227437Y-74710000D01*
X170359689Y-74699824D01*
X170359691Y-74699824D01*
X170363300Y-74699546D01*
X170561725Y-74644145D01*
X170593776Y-74627955D01*
X170742376Y-74552892D01*
X170742379Y-74552890D01*
X170745610Y-74551258D01*
X170907951Y-74424424D01*
X170932817Y-74395616D01*
X171040201Y-74271210D01*
X171040203Y-74271208D01*
X171042564Y-74268472D01*
X171044347Y-74265333D01*
X171044350Y-74265329D01*
X171093443Y-74178908D01*
X171144323Y-74089344D01*
X171156812Y-74051803D01*
X171208208Y-73897299D01*
X171209351Y-73893863D01*
X171209820Y-73890155D01*
X171225278Y-73767792D01*
X171675310Y-73767792D01*
X171681949Y-73846855D01*
X171683250Y-73853942D01*
X171738013Y-74044922D01*
X171740663Y-74051617D01*
X171831479Y-74228326D01*
X171835384Y-74234384D01*
X171958789Y-74390083D01*
X171963794Y-74395267D01*
X172115094Y-74524032D01*
X172121013Y-74528146D01*
X172294440Y-74625072D01*
X172301041Y-74627955D01*
X172489991Y-74689348D01*
X172497036Y-74690897D01*
X172607043Y-74704015D01*
X172617400Y-74701586D01*
X172620000Y-74698111D01*
X172620000Y-74692407D01*
X172820000Y-74692407D01*
X172823638Y-74702403D01*
X172827875Y-74704849D01*
X172899602Y-74699330D01*
X172906701Y-74698078D01*
X173098062Y-74644649D01*
X173104770Y-74642047D01*
X173282107Y-74552468D01*
X173288195Y-74548604D01*
X173444751Y-74426289D01*
X173449970Y-74421319D01*
X173579791Y-74270920D01*
X173583939Y-74265040D01*
X173682078Y-74092283D01*
X173685006Y-74085708D01*
X173747719Y-73897189D01*
X173749316Y-73890155D01*
X173764124Y-73772946D01*
X173761767Y-73762573D01*
X173758377Y-73760000D01*
X172833048Y-73760000D01*
X172823052Y-73763638D01*
X172820000Y-73768925D01*
X172820000Y-74692407D01*
X172620000Y-74692407D01*
X172620000Y-73773048D01*
X172616362Y-73763052D01*
X172611075Y-73760000D01*
X171687704Y-73760000D01*
X171677708Y-73763638D01*
X171675310Y-73767792D01*
X171225278Y-73767792D01*
X171234913Y-73691519D01*
X171234913Y-73691513D01*
X171235171Y-73689474D01*
X171235583Y-73660000D01*
X171225521Y-73557372D01*
X171224507Y-73547033D01*
X171676040Y-73547033D01*
X171678542Y-73557372D01*
X171682107Y-73560000D01*
X172606952Y-73560000D01*
X172616948Y-73556362D01*
X172620000Y-73551075D01*
X172620000Y-73546952D01*
X172820000Y-73546952D01*
X172823638Y-73556948D01*
X172828925Y-73560000D01*
X173752228Y-73560000D01*
X173762224Y-73556362D01*
X173764528Y-73552371D01*
X173755340Y-73458670D01*
X173753941Y-73451602D01*
X173696516Y-73261403D01*
X173693772Y-73254745D01*
X173600498Y-73079322D01*
X173596512Y-73073323D01*
X173470942Y-72919358D01*
X173465866Y-72914247D01*
X173312789Y-72787610D01*
X173306804Y-72783573D01*
X173132043Y-72689081D01*
X173125405Y-72686290D01*
X172935612Y-72627540D01*
X172928552Y-72626091D01*
X172832977Y-72616045D01*
X172822657Y-72618618D01*
X172820000Y-72622275D01*
X172820000Y-73546952D01*
X172620000Y-73546952D01*
X172620000Y-72627764D01*
X172616362Y-72617768D01*
X172612290Y-72615418D01*
X172525912Y-72623278D01*
X172518818Y-72624631D01*
X172328231Y-72680724D01*
X172321555Y-72683422D01*
X172145483Y-72775469D01*
X172139456Y-72779413D01*
X171984619Y-72903906D01*
X171979471Y-72908947D01*
X171851765Y-73061140D01*
X171847696Y-73067083D01*
X171751980Y-73241191D01*
X171749144Y-73247808D01*
X171689068Y-73437189D01*
X171687572Y-73444228D01*
X171676040Y-73547033D01*
X171224507Y-73547033D01*
X171215833Y-73458570D01*
X171215480Y-73454970D01*
X171155935Y-73257749D01*
X171078276Y-73111692D01*
X171060917Y-73079044D01*
X171060916Y-73079042D01*
X171059218Y-73075849D01*
X170929011Y-72916200D01*
X170770275Y-72784882D01*
X170760161Y-72779413D01*
X170592238Y-72688618D01*
X170589055Y-72686897D01*
X170585605Y-72685829D01*
X170585600Y-72685827D01*
X170460996Y-72647256D01*
X170392254Y-72625977D01*
X170187369Y-72604443D01*
X170183765Y-72604771D01*
X170183764Y-72604771D01*
X170119306Y-72610637D01*
X169982203Y-72623114D01*
X169958851Y-72629987D01*
X169788043Y-72680258D01*
X169788039Y-72680260D01*
X169784572Y-72681280D01*
X169703614Y-72723604D01*
X169605209Y-72775049D01*
X169605206Y-72775051D01*
X169602002Y-72776726D01*
X169599184Y-72778992D01*
X169599182Y-72778993D01*
X169444266Y-72903548D01*
X169444263Y-72903551D01*
X169441447Y-72905815D01*
X169439121Y-72908587D01*
X169439119Y-72908589D01*
X169311351Y-73060856D01*
X169311348Y-73060860D01*
X169309024Y-73063630D01*
X169209776Y-73244162D01*
X169147484Y-73440532D01*
X169147081Y-73444123D01*
X169147081Y-73444124D01*
X169143003Y-73480485D01*
X169124520Y-73645262D01*
X168694138Y-73645262D01*
X168685521Y-73557372D01*
X168675833Y-73458570D01*
X168675480Y-73454970D01*
X168615935Y-73257749D01*
X168538276Y-73111692D01*
X168520917Y-73079044D01*
X168520916Y-73079042D01*
X168519218Y-73075849D01*
X168389011Y-72916200D01*
X168230275Y-72784882D01*
X168220161Y-72779413D01*
X168052238Y-72688618D01*
X168049055Y-72686897D01*
X168045605Y-72685829D01*
X168045600Y-72685827D01*
X167920996Y-72647256D01*
X167852254Y-72625977D01*
X167647369Y-72604443D01*
X167643765Y-72604771D01*
X167643764Y-72604771D01*
X167579306Y-72610637D01*
X167442203Y-72623114D01*
X167418851Y-72629987D01*
X167248043Y-72680258D01*
X167248039Y-72680260D01*
X167244572Y-72681280D01*
X167163614Y-72723604D01*
X167065209Y-72775049D01*
X167065206Y-72775051D01*
X167062002Y-72776726D01*
X167059184Y-72778992D01*
X167059182Y-72778993D01*
X166904266Y-72903548D01*
X166904263Y-72903551D01*
X166901447Y-72905815D01*
X166899121Y-72908587D01*
X166899119Y-72908589D01*
X166771351Y-73060856D01*
X166771348Y-73060860D01*
X166769024Y-73063630D01*
X166669776Y-73244162D01*
X166607484Y-73440532D01*
X166607081Y-73444123D01*
X166607081Y-73444124D01*
X166603003Y-73480485D01*
X166584520Y-73645262D01*
X166154138Y-73645262D01*
X166145521Y-73557372D01*
X166135833Y-73458570D01*
X166135480Y-73454970D01*
X166075935Y-73257749D01*
X166062290Y-73232087D01*
X166055246Y-73181964D01*
X166075303Y-73145023D01*
X166492832Y-72727494D01*
X166497592Y-72723133D01*
X166522080Y-72702585D01*
X166528194Y-72697455D01*
X166548172Y-72662851D01*
X166551638Y-72657411D01*
X166570841Y-72629987D01*
X166570842Y-72629986D01*
X166574554Y-72624684D01*
X166576229Y-72618432D01*
X166578351Y-72613882D01*
X166580639Y-72608358D01*
X166582353Y-72603647D01*
X166585588Y-72598045D01*
X166586804Y-72591152D01*
X166592524Y-72558706D01*
X166593922Y-72552401D01*
X166595115Y-72547948D01*
X166604264Y-72513807D01*
X166603252Y-72502232D01*
X166600782Y-72474009D01*
X166600500Y-72467559D01*
X166600500Y-71700432D01*
X166617813Y-71652866D01*
X166661650Y-71627556D01*
X166711500Y-71636346D01*
X166740317Y-71666607D01*
X166751479Y-71688326D01*
X166755384Y-71694384D01*
X166878789Y-71850083D01*
X166883794Y-71855267D01*
X167035094Y-71984032D01*
X167041013Y-71988146D01*
X167214440Y-72085072D01*
X167221041Y-72087955D01*
X167409991Y-72149348D01*
X167417036Y-72150897D01*
X167527043Y-72164015D01*
X167537400Y-72161586D01*
X167540000Y-72158111D01*
X167540000Y-72152407D01*
X167740000Y-72152407D01*
X167743638Y-72162403D01*
X167747875Y-72164849D01*
X167819602Y-72159330D01*
X167826701Y-72158078D01*
X168018062Y-72104649D01*
X168024770Y-72102047D01*
X168202107Y-72012468D01*
X168208195Y-72008604D01*
X168364751Y-71886289D01*
X168369970Y-71881319D01*
X168499791Y-71730920D01*
X168503939Y-71725040D01*
X168602078Y-71552283D01*
X168605006Y-71545708D01*
X168667719Y-71357189D01*
X168669316Y-71350155D01*
X168684124Y-71232946D01*
X168681767Y-71222573D01*
X168678377Y-71220000D01*
X167753048Y-71220000D01*
X167743052Y-71223638D01*
X167740000Y-71228925D01*
X167740000Y-72152407D01*
X167540000Y-72152407D01*
X167540000Y-71233048D01*
X167536362Y-71223052D01*
X167531075Y-71220000D01*
X166674500Y-71220000D01*
X166626934Y-71202687D01*
X166601624Y-71158850D01*
X166600500Y-71146000D01*
X166600500Y-71105262D01*
X169124520Y-71105262D01*
X169124823Y-71108871D01*
X169124823Y-71108873D01*
X169128404Y-71151519D01*
X169141759Y-71310553D01*
X169198544Y-71508586D01*
X169200196Y-71511800D01*
X169200197Y-71511803D01*
X169264203Y-71636346D01*
X169292712Y-71691818D01*
X169420677Y-71853270D01*
X169423430Y-71855613D01*
X169423433Y-71855616D01*
X169459474Y-71886289D01*
X169577564Y-71986791D01*
X169623508Y-72012468D01*
X169754239Y-72085532D01*
X169754243Y-72085534D01*
X169757398Y-72087297D01*
X169760834Y-72088414D01*
X169760840Y-72088416D01*
X169885256Y-72128841D01*
X169953329Y-72150959D01*
X170013033Y-72158078D01*
X170154294Y-72174922D01*
X170154297Y-72174922D01*
X170157894Y-72175351D01*
X170234273Y-72169474D01*
X170359689Y-72159824D01*
X170359691Y-72159824D01*
X170363300Y-72159546D01*
X170561725Y-72104145D01*
X170593776Y-72087955D01*
X170742376Y-72012892D01*
X170742379Y-72012890D01*
X170745610Y-72011258D01*
X170907951Y-71884424D01*
X170910631Y-71881319D01*
X171040201Y-71731210D01*
X171040203Y-71731208D01*
X171042564Y-71728472D01*
X171044347Y-71725333D01*
X171044350Y-71725329D01*
X171120600Y-71591104D01*
X171144323Y-71549344D01*
X171150855Y-71529710D01*
X171208208Y-71357299D01*
X171209351Y-71353863D01*
X171209820Y-71350155D01*
X171234913Y-71151519D01*
X171234913Y-71151513D01*
X171235171Y-71149474D01*
X171235583Y-71120000D01*
X171225422Y-71016362D01*
X171215833Y-70918570D01*
X171215480Y-70914970D01*
X171155935Y-70717749D01*
X171073756Y-70563191D01*
X171060917Y-70539044D01*
X171060916Y-70539042D01*
X171059218Y-70535849D01*
X170929011Y-70376200D01*
X170810027Y-70277768D01*
X170773070Y-70247194D01*
X170773069Y-70247193D01*
X170770275Y-70244882D01*
X170760161Y-70239413D01*
X170592238Y-70148618D01*
X170589055Y-70146897D01*
X170585605Y-70145829D01*
X170585600Y-70145827D01*
X170439332Y-70100550D01*
X170392254Y-70085977D01*
X170187369Y-70064443D01*
X170183765Y-70064771D01*
X170183764Y-70064771D01*
X170183215Y-70064821D01*
X169982203Y-70083114D01*
X169967165Y-70087540D01*
X169788043Y-70140258D01*
X169788039Y-70140260D01*
X169784572Y-70141280D01*
X169703821Y-70183496D01*
X169605209Y-70235049D01*
X169605206Y-70235051D01*
X169602002Y-70236726D01*
X169599184Y-70238992D01*
X169599182Y-70238993D01*
X169444266Y-70363548D01*
X169444263Y-70363551D01*
X169441447Y-70365815D01*
X169439121Y-70368587D01*
X169439119Y-70368589D01*
X169311351Y-70520856D01*
X169311348Y-70520860D01*
X169309024Y-70523630D01*
X169209776Y-70704162D01*
X169147484Y-70900532D01*
X169147081Y-70904123D01*
X169147081Y-70904124D01*
X169143003Y-70940485D01*
X169124520Y-71105262D01*
X166600500Y-71105262D01*
X166600500Y-71094000D01*
X166617813Y-71046434D01*
X166661650Y-71021124D01*
X166674500Y-71020000D01*
X167526952Y-71020000D01*
X167536948Y-71016362D01*
X167540000Y-71011075D01*
X167540000Y-71006952D01*
X167740000Y-71006952D01*
X167743638Y-71016948D01*
X167748925Y-71020000D01*
X168672228Y-71020000D01*
X168682224Y-71016362D01*
X168684528Y-71012371D01*
X168675340Y-70918670D01*
X168673941Y-70911602D01*
X168616516Y-70721403D01*
X168613772Y-70714745D01*
X168520498Y-70539322D01*
X168516512Y-70533323D01*
X168390942Y-70379358D01*
X168385866Y-70374247D01*
X168232789Y-70247610D01*
X168226804Y-70243573D01*
X168052043Y-70149081D01*
X168045405Y-70146290D01*
X167855612Y-70087540D01*
X167848552Y-70086091D01*
X167752977Y-70076045D01*
X167742657Y-70078618D01*
X167740000Y-70082275D01*
X167740000Y-71006952D01*
X167540000Y-71006952D01*
X167540000Y-70087764D01*
X167536362Y-70077768D01*
X167532290Y-70075418D01*
X167445912Y-70083278D01*
X167438818Y-70084631D01*
X167248231Y-70140724D01*
X167241555Y-70143422D01*
X167065483Y-70235469D01*
X167059456Y-70239413D01*
X166904619Y-70363906D01*
X166899471Y-70368947D01*
X166771765Y-70521140D01*
X166767693Y-70527087D01*
X166739347Y-70578649D01*
X166701261Y-70611992D01*
X166650653Y-70613052D01*
X166611203Y-70581334D01*
X166600500Y-70543000D01*
X166600500Y-70492441D01*
X166600782Y-70485991D01*
X166603700Y-70452642D01*
X166603700Y-70452641D01*
X166604264Y-70446193D01*
X166593921Y-70407596D01*
X166592524Y-70401294D01*
X166586712Y-70368328D01*
X166586711Y-70368326D01*
X166585588Y-70361955D01*
X166582353Y-70356353D01*
X166580639Y-70351642D01*
X166578351Y-70346118D01*
X166576229Y-70341568D01*
X166574554Y-70335316D01*
X166565601Y-70322530D01*
X166551638Y-70302589D01*
X166548169Y-70297144D01*
X166540781Y-70284346D01*
X166528194Y-70262545D01*
X166511822Y-70248807D01*
X166497585Y-70236860D01*
X166492825Y-70232499D01*
X165297174Y-69036848D01*
X165275782Y-68990972D01*
X165275500Y-68984522D01*
X165275500Y-68271878D01*
X165857428Y-68271878D01*
X165889851Y-68460569D01*
X165891602Y-68467104D01*
X165962407Y-68659028D01*
X165965313Y-68665122D01*
X166069912Y-68840937D01*
X166073878Y-68846396D01*
X166208764Y-69000203D01*
X166213668Y-69004856D01*
X166374313Y-69131499D01*
X166379989Y-69135185D01*
X166561017Y-69230429D01*
X166567280Y-69233022D01*
X166762637Y-69293683D01*
X166769243Y-69295087D01*
X166935313Y-69314743D01*
X166939672Y-69315000D01*
X167392952Y-69315000D01*
X167402948Y-69311362D01*
X167406000Y-69306075D01*
X167406000Y-69301952D01*
X167606000Y-69301952D01*
X167609638Y-69311948D01*
X167614925Y-69315000D01*
X168057919Y-69315000D01*
X168061311Y-69314845D01*
X168213092Y-69300898D01*
X168219733Y-69299668D01*
X168416624Y-69244138D01*
X168422932Y-69241716D01*
X168606409Y-69151235D01*
X168612163Y-69147710D01*
X168776076Y-69025310D01*
X168781103Y-69020784D01*
X168919958Y-68870571D01*
X168924079Y-68865200D01*
X169033237Y-68692195D01*
X169036304Y-68686175D01*
X169112109Y-68496171D01*
X169114029Y-68489686D01*
X169153939Y-68289046D01*
X169154644Y-68282338D01*
X169154700Y-68278047D01*
X169151193Y-68268005D01*
X169146143Y-68265000D01*
X167619048Y-68265000D01*
X167609052Y-68268638D01*
X167606000Y-68273925D01*
X167606000Y-69301952D01*
X167406000Y-69301952D01*
X167406000Y-68278048D01*
X167402362Y-68268052D01*
X167397075Y-68265000D01*
X165869294Y-68265000D01*
X165859298Y-68268638D01*
X165857428Y-68271878D01*
X165275500Y-68271878D01*
X165275500Y-68051953D01*
X165857300Y-68051953D01*
X165860807Y-68061995D01*
X165865857Y-68065000D01*
X167392952Y-68065000D01*
X167402948Y-68061362D01*
X167406000Y-68056075D01*
X167406000Y-68051952D01*
X167606000Y-68051952D01*
X167609638Y-68061948D01*
X167614925Y-68065000D01*
X169142706Y-68065000D01*
X169152702Y-68061362D01*
X169154572Y-68058122D01*
X169122149Y-67869431D01*
X169120398Y-67862896D01*
X169049593Y-67670972D01*
X169046687Y-67664878D01*
X168942088Y-67489063D01*
X168938122Y-67483604D01*
X168803236Y-67329797D01*
X168798332Y-67325144D01*
X168637687Y-67198501D01*
X168632011Y-67194815D01*
X168450983Y-67099571D01*
X168444720Y-67096978D01*
X168249363Y-67036317D01*
X168242757Y-67034913D01*
X168076687Y-67015257D01*
X168072328Y-67015000D01*
X167619048Y-67015000D01*
X167609052Y-67018638D01*
X167606000Y-67023925D01*
X167606000Y-68051952D01*
X167406000Y-68051952D01*
X167406000Y-67028048D01*
X167402362Y-67018052D01*
X167397075Y-67015000D01*
X166954081Y-67015000D01*
X166950689Y-67015155D01*
X166798908Y-67029102D01*
X166792267Y-67030332D01*
X166595376Y-67085862D01*
X166589068Y-67088284D01*
X166405591Y-67178765D01*
X166399837Y-67182290D01*
X166235924Y-67304690D01*
X166230897Y-67309216D01*
X166092042Y-67459429D01*
X166087921Y-67464800D01*
X165978763Y-67637805D01*
X165975696Y-67643825D01*
X165899891Y-67833829D01*
X165897971Y-67840314D01*
X165858061Y-68040954D01*
X165857356Y-68047662D01*
X165857300Y-68051953D01*
X165275500Y-68051953D01*
X165275500Y-65763457D01*
X166384109Y-65763457D01*
X166385116Y-65767213D01*
X166475522Y-65832897D01*
X166482201Y-65836753D01*
X166638344Y-65906273D01*
X166645684Y-65908658D01*
X166812864Y-65944193D01*
X166820543Y-65945000D01*
X166991457Y-65945000D01*
X166999136Y-65944193D01*
X167166316Y-65908658D01*
X167173656Y-65906273D01*
X167329799Y-65836753D01*
X167336478Y-65832897D01*
X167422064Y-65770715D01*
X167428014Y-65761894D01*
X167427607Y-65758029D01*
X166915226Y-65245647D01*
X166905587Y-65241152D01*
X166899688Y-65242733D01*
X166388604Y-65753818D01*
X166384109Y-65763457D01*
X165275500Y-65763457D01*
X165275500Y-65098853D01*
X166051723Y-65098853D01*
X166069590Y-65268847D01*
X166071193Y-65276384D01*
X166124010Y-65438940D01*
X166127148Y-65445988D01*
X166212611Y-65594013D01*
X166217141Y-65600249D01*
X166228397Y-65612751D01*
X166237791Y-65617746D01*
X166242922Y-65616656D01*
X166755353Y-65104226D01*
X166759848Y-65094587D01*
X166758267Y-65088688D01*
X166246355Y-64576777D01*
X166236716Y-64572282D01*
X166231646Y-64573641D01*
X166217141Y-64589751D01*
X166212611Y-64595987D01*
X166127148Y-64744012D01*
X166124010Y-64751060D01*
X166071193Y-64913616D01*
X166069590Y-64921153D01*
X166051723Y-65091147D01*
X166051723Y-65098853D01*
X165275500Y-65098853D01*
X165275500Y-58764748D01*
X166055500Y-58764748D01*
X166067133Y-58823231D01*
X166071184Y-58829293D01*
X166071184Y-58829294D01*
X166107398Y-58883491D01*
X166111448Y-58889552D01*
X166177769Y-58933867D01*
X166222295Y-58942724D01*
X166232682Y-58944790D01*
X166232683Y-58944790D01*
X166236252Y-58945500D01*
X167575748Y-58945500D01*
X167579317Y-58944790D01*
X167579318Y-58944790D01*
X167589705Y-58942724D01*
X167634231Y-58933867D01*
X167700552Y-58889552D01*
X167704602Y-58883491D01*
X167740816Y-58829294D01*
X167740816Y-58829293D01*
X167744867Y-58823231D01*
X167756500Y-58764748D01*
X175580500Y-58764748D01*
X175592133Y-58823231D01*
X175596184Y-58829293D01*
X175596184Y-58829294D01*
X175632398Y-58883491D01*
X175636448Y-58889552D01*
X175702769Y-58933867D01*
X175747295Y-58942724D01*
X175757682Y-58944790D01*
X175757683Y-58944790D01*
X175761252Y-58945500D01*
X177100748Y-58945500D01*
X177104317Y-58944790D01*
X177104318Y-58944790D01*
X177114705Y-58942724D01*
X177159231Y-58933867D01*
X177225552Y-58889552D01*
X177229602Y-58883491D01*
X177265816Y-58829294D01*
X177265816Y-58829293D01*
X177269867Y-58823231D01*
X177281500Y-58764748D01*
X177281500Y-57425252D01*
X177269867Y-57366769D01*
X177239370Y-57321127D01*
X177229602Y-57306509D01*
X177225552Y-57300448D01*
X177159231Y-57256133D01*
X177114705Y-57247276D01*
X177104318Y-57245210D01*
X177104317Y-57245210D01*
X177100748Y-57244500D01*
X175761252Y-57244500D01*
X175757683Y-57245210D01*
X175757682Y-57245210D01*
X175747295Y-57247276D01*
X175702769Y-57256133D01*
X175636448Y-57300448D01*
X175632398Y-57306509D01*
X175622631Y-57321127D01*
X175592133Y-57366769D01*
X175580500Y-57425252D01*
X175580500Y-58764748D01*
X167756500Y-58764748D01*
X167756500Y-57425252D01*
X167744867Y-57366769D01*
X167714370Y-57321127D01*
X167704602Y-57306509D01*
X167700552Y-57300448D01*
X167634231Y-57256133D01*
X167589705Y-57247276D01*
X167579318Y-57245210D01*
X167579317Y-57245210D01*
X167575748Y-57244500D01*
X166236252Y-57244500D01*
X166232683Y-57245210D01*
X166232682Y-57245210D01*
X166222295Y-57247276D01*
X166177769Y-57256133D01*
X166111448Y-57300448D01*
X166107398Y-57306509D01*
X166097631Y-57321127D01*
X166067133Y-57366769D01*
X166055500Y-57425252D01*
X166055500Y-58764748D01*
X165275500Y-58764748D01*
X165275500Y-57615478D01*
X165292813Y-57567912D01*
X165297174Y-57563152D01*
X165913152Y-56947174D01*
X165959028Y-56925782D01*
X165965478Y-56925500D01*
X172282559Y-56925500D01*
X172289009Y-56925782D01*
X172322358Y-56928700D01*
X172322359Y-56928700D01*
X172328807Y-56929264D01*
X172367404Y-56918921D01*
X172373703Y-56917525D01*
X172383271Y-56915838D01*
X172406672Y-56911712D01*
X172406674Y-56911711D01*
X172413045Y-56910588D01*
X172418647Y-56907353D01*
X172423358Y-56905639D01*
X172428882Y-56903351D01*
X172433432Y-56901229D01*
X172439684Y-56899554D01*
X172468432Y-56879424D01*
X172472411Y-56876638D01*
X172477851Y-56873172D01*
X172512455Y-56853194D01*
X172518968Y-56845432D01*
X172538140Y-56822585D01*
X172542501Y-56817825D01*
X174228448Y-55131878D01*
X175382428Y-55131878D01*
X175414851Y-55320569D01*
X175416602Y-55327104D01*
X175487407Y-55519028D01*
X175490313Y-55525122D01*
X175594912Y-55700937D01*
X175598878Y-55706396D01*
X175733764Y-55860203D01*
X175738668Y-55864856D01*
X175899313Y-55991499D01*
X175904989Y-55995185D01*
X176086017Y-56090429D01*
X176092280Y-56093022D01*
X176287637Y-56153683D01*
X176294243Y-56155087D01*
X176460313Y-56174743D01*
X176464672Y-56175000D01*
X176917952Y-56175000D01*
X176927948Y-56171362D01*
X176931000Y-56166075D01*
X176931000Y-56161952D01*
X177131000Y-56161952D01*
X177134638Y-56171948D01*
X177139925Y-56175000D01*
X177582919Y-56175000D01*
X177586311Y-56174845D01*
X177738092Y-56160898D01*
X177744733Y-56159668D01*
X177941624Y-56104138D01*
X177947932Y-56101716D01*
X177950880Y-56100262D01*
X183694520Y-56100262D01*
X183694823Y-56103871D01*
X183694823Y-56103873D01*
X183708835Y-56270736D01*
X183711759Y-56305553D01*
X183768544Y-56503586D01*
X183770196Y-56506800D01*
X183770197Y-56506803D01*
X183791106Y-56547487D01*
X183862712Y-56686818D01*
X183990677Y-56848270D01*
X183993430Y-56850613D01*
X183993433Y-56850616D01*
X184019933Y-56873169D01*
X184147564Y-56981791D01*
X184194266Y-57007892D01*
X184324239Y-57080532D01*
X184324243Y-57080534D01*
X184327398Y-57082297D01*
X184330834Y-57083414D01*
X184330840Y-57083416D01*
X184455256Y-57123841D01*
X184523329Y-57145959D01*
X184587176Y-57153572D01*
X184724294Y-57169922D01*
X184724297Y-57169922D01*
X184727894Y-57170351D01*
X184796714Y-57165056D01*
X184929689Y-57154824D01*
X184929691Y-57154824D01*
X184933300Y-57154546D01*
X185131725Y-57099145D01*
X185162863Y-57083416D01*
X185312376Y-57007892D01*
X185312379Y-57007890D01*
X185315610Y-57006258D01*
X185477951Y-56879424D01*
X185529149Y-56820110D01*
X185610201Y-56726210D01*
X185610203Y-56726208D01*
X185612564Y-56723472D01*
X185614347Y-56720333D01*
X185614350Y-56720329D01*
X185695898Y-56576777D01*
X185714323Y-56544344D01*
X185725660Y-56510266D01*
X185778208Y-56352299D01*
X185779351Y-56348863D01*
X185782135Y-56326831D01*
X185804913Y-56146519D01*
X185804913Y-56146513D01*
X185805171Y-56144474D01*
X185805583Y-56115000D01*
X185785480Y-55909970D01*
X185725935Y-55712749D01*
X185635259Y-55542211D01*
X185630917Y-55534044D01*
X185630916Y-55534042D01*
X185629218Y-55530849D01*
X185499011Y-55371200D01*
X185340275Y-55239882D01*
X185329384Y-55233993D01*
X185162238Y-55143618D01*
X185159055Y-55141897D01*
X185155605Y-55140829D01*
X185155600Y-55140827D01*
X185019485Y-55098693D01*
X184962254Y-55080977D01*
X184757369Y-55059443D01*
X184753765Y-55059771D01*
X184753764Y-55059771D01*
X184675076Y-55066932D01*
X184552203Y-55078114D01*
X184503247Y-55092522D01*
X184358043Y-55135258D01*
X184358039Y-55135260D01*
X184354572Y-55136280D01*
X184258633Y-55186436D01*
X184175209Y-55230049D01*
X184175206Y-55230051D01*
X184172002Y-55231726D01*
X184169184Y-55233992D01*
X184169182Y-55233993D01*
X184014266Y-55358548D01*
X184014263Y-55358551D01*
X184011447Y-55360815D01*
X184009121Y-55363587D01*
X184009119Y-55363589D01*
X183881351Y-55515856D01*
X183881348Y-55515860D01*
X183879024Y-55518630D01*
X183779776Y-55699162D01*
X183778682Y-55702611D01*
X183720727Y-55885310D01*
X183717484Y-55895532D01*
X183717081Y-55899123D01*
X183717081Y-55899124D01*
X183715461Y-55913570D01*
X183694520Y-56100262D01*
X177950880Y-56100262D01*
X178131409Y-56011235D01*
X178137163Y-56007710D01*
X178301076Y-55885310D01*
X178306103Y-55880784D01*
X178444958Y-55730571D01*
X178449079Y-55725200D01*
X178558237Y-55552195D01*
X178561304Y-55546175D01*
X178637109Y-55356171D01*
X178639029Y-55349686D01*
X178678939Y-55149046D01*
X178679644Y-55142338D01*
X178679700Y-55138047D01*
X178676193Y-55128005D01*
X178671143Y-55125000D01*
X177144048Y-55125000D01*
X177134052Y-55128638D01*
X177131000Y-55133925D01*
X177131000Y-56161952D01*
X176931000Y-56161952D01*
X176931000Y-55138048D01*
X176927362Y-55128052D01*
X176922075Y-55125000D01*
X175394294Y-55125000D01*
X175384298Y-55128638D01*
X175382428Y-55131878D01*
X174228448Y-55131878D01*
X174448373Y-54911953D01*
X175382300Y-54911953D01*
X175385807Y-54921995D01*
X175390857Y-54925000D01*
X176917952Y-54925000D01*
X176927948Y-54921362D01*
X176931000Y-54916075D01*
X176931000Y-54911952D01*
X177131000Y-54911952D01*
X177134638Y-54921948D01*
X177139925Y-54925000D01*
X178667706Y-54925000D01*
X178677702Y-54921362D01*
X178679572Y-54918122D01*
X178647149Y-54729431D01*
X178645398Y-54722896D01*
X178574593Y-54530972D01*
X178571687Y-54524878D01*
X178467088Y-54349063D01*
X178463122Y-54343604D01*
X178328236Y-54189797D01*
X178323332Y-54185144D01*
X178162687Y-54058501D01*
X178157011Y-54054815D01*
X177975983Y-53959571D01*
X177969720Y-53956978D01*
X177774363Y-53896317D01*
X177767757Y-53894913D01*
X177601687Y-53875257D01*
X177597328Y-53875000D01*
X177144048Y-53875000D01*
X177134052Y-53878638D01*
X177131000Y-53883925D01*
X177131000Y-54911952D01*
X176931000Y-54911952D01*
X176931000Y-53888048D01*
X176927362Y-53878052D01*
X176922075Y-53875000D01*
X176479081Y-53875000D01*
X176475689Y-53875155D01*
X176323908Y-53889102D01*
X176317267Y-53890332D01*
X176120376Y-53945862D01*
X176114068Y-53948284D01*
X175930591Y-54038765D01*
X175924837Y-54042290D01*
X175760924Y-54164690D01*
X175755897Y-54169216D01*
X175617042Y-54319429D01*
X175612921Y-54324800D01*
X175503763Y-54497805D01*
X175500696Y-54503825D01*
X175424891Y-54693829D01*
X175422971Y-54700314D01*
X175383061Y-54900954D01*
X175382356Y-54907662D01*
X175382300Y-54911953D01*
X174448373Y-54911953D01*
X176171534Y-53188792D01*
X180819310Y-53188792D01*
X180825949Y-53267855D01*
X180827250Y-53274942D01*
X180882013Y-53465922D01*
X180884663Y-53472617D01*
X180975479Y-53649326D01*
X180979384Y-53655384D01*
X181102789Y-53811083D01*
X181107794Y-53816267D01*
X181259094Y-53945032D01*
X181265013Y-53949146D01*
X181438440Y-54046072D01*
X181445041Y-54048955D01*
X181633991Y-54110348D01*
X181641036Y-54111897D01*
X181751043Y-54125015D01*
X181761400Y-54122586D01*
X181764000Y-54119111D01*
X181764000Y-54113407D01*
X181964000Y-54113407D01*
X181967638Y-54123403D01*
X181971875Y-54125849D01*
X182043602Y-54120330D01*
X182050701Y-54119078D01*
X182242062Y-54065649D01*
X182248770Y-54063047D01*
X182426107Y-53973468D01*
X182432195Y-53969604D01*
X182588751Y-53847289D01*
X182593970Y-53842319D01*
X182723791Y-53691920D01*
X182727939Y-53686040D01*
X182826078Y-53513283D01*
X182829006Y-53506708D01*
X182891719Y-53318189D01*
X182893316Y-53311155D01*
X182908124Y-53193946D01*
X182906953Y-53188792D01*
X183359310Y-53188792D01*
X183365949Y-53267855D01*
X183367250Y-53274942D01*
X183422013Y-53465922D01*
X183424663Y-53472617D01*
X183515479Y-53649326D01*
X183519384Y-53655384D01*
X183642789Y-53811083D01*
X183647794Y-53816267D01*
X183799094Y-53945032D01*
X183805013Y-53949146D01*
X183978440Y-54046072D01*
X183985041Y-54048955D01*
X184173991Y-54110348D01*
X184181036Y-54111897D01*
X184291043Y-54125015D01*
X184301400Y-54122586D01*
X184304000Y-54119111D01*
X184304000Y-54113407D01*
X184504000Y-54113407D01*
X184507638Y-54123403D01*
X184511875Y-54125849D01*
X184583602Y-54120330D01*
X184590701Y-54119078D01*
X184782062Y-54065649D01*
X184788770Y-54063047D01*
X184966107Y-53973468D01*
X184972195Y-53969604D01*
X185128751Y-53847289D01*
X185133970Y-53842319D01*
X185263791Y-53691920D01*
X185267939Y-53686040D01*
X185366078Y-53513283D01*
X185369006Y-53506708D01*
X185431719Y-53318189D01*
X185433316Y-53311155D01*
X185448124Y-53193946D01*
X185445767Y-53183573D01*
X185442377Y-53181000D01*
X184517048Y-53181000D01*
X184507052Y-53184638D01*
X184504000Y-53189925D01*
X184504000Y-54113407D01*
X184304000Y-54113407D01*
X184304000Y-53194048D01*
X184300362Y-53184052D01*
X184295075Y-53181000D01*
X183371704Y-53181000D01*
X183361708Y-53184638D01*
X183359310Y-53188792D01*
X182906953Y-53188792D01*
X182905767Y-53183573D01*
X182902377Y-53181000D01*
X181977048Y-53181000D01*
X181967052Y-53184638D01*
X181964000Y-53189925D01*
X181964000Y-54113407D01*
X181764000Y-54113407D01*
X181764000Y-53194048D01*
X181760362Y-53184052D01*
X181755075Y-53181000D01*
X180831704Y-53181000D01*
X180821708Y-53184638D01*
X180819310Y-53188792D01*
X176171534Y-53188792D01*
X177213152Y-52147174D01*
X177259028Y-52125782D01*
X177265478Y-52125500D01*
X181166495Y-52125500D01*
X181214061Y-52142813D01*
X181239371Y-52186650D01*
X181230581Y-52236500D01*
X181212864Y-52257171D01*
X181128618Y-52324906D01*
X181123471Y-52329947D01*
X180995765Y-52482140D01*
X180991696Y-52488083D01*
X180895980Y-52662191D01*
X180893144Y-52668808D01*
X180833068Y-52858189D01*
X180831572Y-52865228D01*
X180820040Y-52968033D01*
X180822542Y-52978372D01*
X180826107Y-52981000D01*
X182896228Y-52981000D01*
X182906224Y-52977362D01*
X182908528Y-52973371D01*
X182908005Y-52968033D01*
X183360040Y-52968033D01*
X183362542Y-52978372D01*
X183366107Y-52981000D01*
X184290952Y-52981000D01*
X184300948Y-52977362D01*
X184304000Y-52972075D01*
X184304000Y-52967952D01*
X184504000Y-52967952D01*
X184507638Y-52977948D01*
X184512925Y-52981000D01*
X185436228Y-52981000D01*
X185446224Y-52977362D01*
X185448528Y-52973371D01*
X185439340Y-52879670D01*
X185437941Y-52872602D01*
X185380516Y-52682403D01*
X185377772Y-52675745D01*
X185284498Y-52500322D01*
X185280512Y-52494323D01*
X185154942Y-52340358D01*
X185149866Y-52335247D01*
X184996789Y-52208610D01*
X184990804Y-52204573D01*
X184816043Y-52110081D01*
X184809405Y-52107290D01*
X184619612Y-52048540D01*
X184612552Y-52047091D01*
X184516977Y-52037045D01*
X184506657Y-52039618D01*
X184504000Y-52043275D01*
X184504000Y-52967952D01*
X184304000Y-52967952D01*
X184304000Y-52048764D01*
X184300362Y-52038768D01*
X184296290Y-52036418D01*
X184209912Y-52044278D01*
X184202818Y-52045631D01*
X184012231Y-52101724D01*
X184005555Y-52104422D01*
X183829483Y-52196469D01*
X183823456Y-52200413D01*
X183668619Y-52324906D01*
X183663471Y-52329947D01*
X183535765Y-52482140D01*
X183531696Y-52488083D01*
X183435980Y-52662191D01*
X183433144Y-52668808D01*
X183373068Y-52858189D01*
X183371572Y-52865228D01*
X183360040Y-52968033D01*
X182908005Y-52968033D01*
X182899340Y-52879670D01*
X182897941Y-52872602D01*
X182840516Y-52682403D01*
X182837772Y-52675745D01*
X182744498Y-52500322D01*
X182740512Y-52494323D01*
X182614942Y-52340358D01*
X182609866Y-52335247D01*
X182514699Y-52256518D01*
X182489084Y-52212859D01*
X182497525Y-52162948D01*
X182536074Y-52130141D01*
X182561868Y-52125500D01*
X183127559Y-52125500D01*
X183134009Y-52125782D01*
X183167358Y-52128700D01*
X183167359Y-52128700D01*
X183173807Y-52129264D01*
X183212404Y-52118921D01*
X183218703Y-52117525D01*
X183228271Y-52115838D01*
X183251672Y-52111712D01*
X183251674Y-52111711D01*
X183258045Y-52110588D01*
X183263647Y-52107353D01*
X183268358Y-52105639D01*
X183273882Y-52103351D01*
X183278432Y-52101229D01*
X183284684Y-52099554D01*
X183317411Y-52076638D01*
X183322851Y-52073172D01*
X183357455Y-52053194D01*
X183363801Y-52045631D01*
X183383140Y-52022585D01*
X183387501Y-52017825D01*
X183887703Y-51517623D01*
X183933579Y-51496231D01*
X183974916Y-51505094D01*
X183974921Y-51505082D01*
X183974979Y-51505107D01*
X183976134Y-51505355D01*
X183981398Y-51508297D01*
X183984834Y-51509414D01*
X183984840Y-51509416D01*
X184089957Y-51543570D01*
X184177329Y-51571959D01*
X184241176Y-51579572D01*
X184378294Y-51595922D01*
X184378297Y-51595922D01*
X184381894Y-51596351D01*
X184450714Y-51591056D01*
X184583689Y-51580824D01*
X184583691Y-51580824D01*
X184587300Y-51580546D01*
X184719734Y-51543570D01*
X184782244Y-51526117D01*
X184782245Y-51526117D01*
X184785725Y-51525145D01*
X184816863Y-51509416D01*
X184966376Y-51433892D01*
X184966379Y-51433890D01*
X184969610Y-51432258D01*
X185131951Y-51305424D01*
X185266564Y-51149472D01*
X185268347Y-51146333D01*
X185268350Y-51146329D01*
X185328573Y-51040317D01*
X185368323Y-50970344D01*
X185381882Y-50929586D01*
X185432208Y-50778299D01*
X185433351Y-50774863D01*
X185438823Y-50731553D01*
X185458913Y-50572519D01*
X185458913Y-50572513D01*
X185459171Y-50570474D01*
X185459583Y-50541000D01*
X185451103Y-50454507D01*
X185439833Y-50339570D01*
X185439480Y-50335970D01*
X185379935Y-50138749D01*
X185283218Y-49956849D01*
X185153011Y-49797200D01*
X184994275Y-49665882D01*
X184983384Y-49659993D01*
X184816238Y-49569618D01*
X184813055Y-49567897D01*
X184809605Y-49566829D01*
X184809600Y-49566827D01*
X184684996Y-49528256D01*
X184616254Y-49506977D01*
X184411369Y-49485443D01*
X184407765Y-49485771D01*
X184407764Y-49485771D01*
X184407215Y-49485821D01*
X184206203Y-49504114D01*
X184157247Y-49518522D01*
X184012043Y-49561258D01*
X184012039Y-49561260D01*
X184008572Y-49562280D01*
X183966454Y-49584299D01*
X183829209Y-49656049D01*
X183829206Y-49656051D01*
X183826002Y-49657726D01*
X183823184Y-49659992D01*
X183823182Y-49659993D01*
X183668266Y-49784548D01*
X183668263Y-49784551D01*
X183665447Y-49786815D01*
X183663121Y-49789587D01*
X183663119Y-49789589D01*
X183535351Y-49941856D01*
X183535348Y-49941860D01*
X183533024Y-49944630D01*
X183433776Y-50125162D01*
X183432682Y-50128611D01*
X183372869Y-50317167D01*
X183371484Y-50321532D01*
X183371081Y-50325123D01*
X183371081Y-50325124D01*
X183369595Y-50338375D01*
X183348520Y-50526262D01*
X183348823Y-50529871D01*
X183348823Y-50529873D01*
X183359049Y-50651643D01*
X183365759Y-50731553D01*
X183422544Y-50929586D01*
X183437985Y-50959631D01*
X183442873Y-50969143D01*
X183449216Y-51019363D01*
X183429381Y-51055293D01*
X183040826Y-51443848D01*
X182994950Y-51465240D01*
X182946055Y-51452139D01*
X182917021Y-51410675D01*
X182914500Y-51391522D01*
X182914500Y-49671252D01*
X182902867Y-49612769D01*
X182858552Y-49546448D01*
X182852491Y-49542398D01*
X182798294Y-49506184D01*
X182798293Y-49506184D01*
X182792231Y-49502133D01*
X182747705Y-49493276D01*
X182737318Y-49491210D01*
X182737317Y-49491210D01*
X182733748Y-49490500D01*
X180994252Y-49490500D01*
X180990683Y-49491210D01*
X180990682Y-49491210D01*
X180980295Y-49493276D01*
X180935769Y-49502133D01*
X180929707Y-49506184D01*
X180929706Y-49506184D01*
X180875509Y-49542398D01*
X180869448Y-49546448D01*
X180825133Y-49612769D01*
X180813500Y-49671252D01*
X180813500Y-51400500D01*
X180796187Y-51448066D01*
X180752350Y-51473376D01*
X180739500Y-51474500D01*
X177117433Y-51474500D01*
X177110984Y-51474218D01*
X177108267Y-51473980D01*
X177071193Y-51470737D01*
X177064938Y-51472413D01*
X177032604Y-51481076D01*
X177026304Y-51482473D01*
X176993328Y-51488288D01*
X176993327Y-51488288D01*
X176986955Y-51489412D01*
X176981350Y-51492648D01*
X176976662Y-51494354D01*
X176971096Y-51496660D01*
X176966571Y-51498770D01*
X176960316Y-51500446D01*
X176955014Y-51504159D01*
X176955011Y-51504160D01*
X176927589Y-51523362D01*
X176922149Y-51526828D01*
X176887545Y-51546806D01*
X176883383Y-51551766D01*
X176883382Y-51551767D01*
X176861860Y-51577415D01*
X176857499Y-51582175D01*
X172186848Y-56252826D01*
X172140972Y-56274218D01*
X172134522Y-56274500D01*
X168347572Y-56274500D01*
X168300006Y-56257187D01*
X168274696Y-56213350D01*
X168283486Y-56163500D01*
X168322263Y-56130963D01*
X168327485Y-56129278D01*
X168416624Y-56104138D01*
X168422932Y-56101716D01*
X168606409Y-56011235D01*
X168612163Y-56007710D01*
X168776076Y-55885310D01*
X168781103Y-55880784D01*
X168919958Y-55730571D01*
X168924079Y-55725200D01*
X169033237Y-55552195D01*
X169036304Y-55546175D01*
X169112109Y-55356171D01*
X169114029Y-55349686D01*
X169153939Y-55149046D01*
X169154644Y-55142338D01*
X169154700Y-55138047D01*
X169151193Y-55128005D01*
X169146143Y-55125000D01*
X165869294Y-55125000D01*
X165859298Y-55128638D01*
X165857428Y-55131878D01*
X165889851Y-55320569D01*
X165891602Y-55327104D01*
X165962407Y-55519028D01*
X165965313Y-55525122D01*
X166069912Y-55700937D01*
X166073878Y-55706396D01*
X166208764Y-55860203D01*
X166213668Y-55864856D01*
X166374313Y-55991499D01*
X166379989Y-55995185D01*
X166561017Y-56090429D01*
X166567280Y-56093022D01*
X166685815Y-56129829D01*
X166726108Y-56160468D01*
X166737279Y-56209839D01*
X166714102Y-56254840D01*
X166663871Y-56274500D01*
X165817442Y-56274500D01*
X165810992Y-56274218D01*
X165809991Y-56274130D01*
X165771194Y-56270736D01*
X165732587Y-56281080D01*
X165726297Y-56282475D01*
X165686955Y-56289412D01*
X165681348Y-56292649D01*
X165676628Y-56294367D01*
X165671118Y-56296649D01*
X165666568Y-56298771D01*
X165660316Y-56300446D01*
X165655014Y-56304158D01*
X165655013Y-56304159D01*
X165627589Y-56323362D01*
X165622149Y-56326828D01*
X165587545Y-56346806D01*
X165583383Y-56351766D01*
X165583382Y-56351767D01*
X165561860Y-56377415D01*
X165557499Y-56382175D01*
X164732168Y-57207506D01*
X164727409Y-57211867D01*
X164696806Y-57237545D01*
X164686075Y-57256133D01*
X164676831Y-57272144D01*
X164673362Y-57277588D01*
X164660117Y-57296504D01*
X164618653Y-57325538D01*
X164568227Y-57321127D01*
X164532433Y-57285334D01*
X164525500Y-57254060D01*
X164525500Y-55540276D01*
X164544637Y-55490617D01*
X164552032Y-55482447D01*
X164577322Y-55454507D01*
X164633588Y-55338375D01*
X164651530Y-55231726D01*
X164654522Y-55213944D01*
X164654522Y-55213943D01*
X164654997Y-55211120D01*
X164655133Y-55200000D01*
X164647836Y-55149046D01*
X164637586Y-55077472D01*
X164637585Y-55077469D01*
X164636839Y-55072259D01*
X164634417Y-55066932D01*
X164585610Y-54959586D01*
X164585608Y-54959583D01*
X164583428Y-54954788D01*
X164576003Y-54946170D01*
X164546520Y-54911953D01*
X165857300Y-54911953D01*
X165860807Y-54921995D01*
X165865857Y-54925000D01*
X167392952Y-54925000D01*
X167402948Y-54921362D01*
X167406000Y-54916075D01*
X167406000Y-54911952D01*
X167606000Y-54911952D01*
X167609638Y-54921948D01*
X167614925Y-54925000D01*
X169142706Y-54925000D01*
X169152702Y-54921362D01*
X169154572Y-54918122D01*
X169122149Y-54729431D01*
X169120398Y-54722896D01*
X169049593Y-54530972D01*
X169046687Y-54524878D01*
X168942088Y-54349063D01*
X168938122Y-54343604D01*
X168803236Y-54189797D01*
X168798332Y-54185144D01*
X168637687Y-54058501D01*
X168632011Y-54054815D01*
X168542153Y-54007538D01*
X169405027Y-54007538D01*
X169406407Y-54012685D01*
X169557265Y-54149956D01*
X169560571Y-54152634D01*
X169838059Y-54352029D01*
X169841662Y-54354315D01*
X170140224Y-54520493D01*
X170144073Y-54522354D01*
X170459754Y-54653112D01*
X170463780Y-54654514D01*
X170792406Y-54748127D01*
X170796573Y-54749058D01*
X171133780Y-54804278D01*
X171138008Y-54804722D01*
X171479343Y-54820819D01*
X171483591Y-54820774D01*
X171824518Y-54797532D01*
X171828727Y-54797001D01*
X172164711Y-54734730D01*
X172168854Y-54733712D01*
X172495452Y-54633237D01*
X172499441Y-54631753D01*
X172812321Y-54494409D01*
X172816129Y-54492469D01*
X173111147Y-54320074D01*
X173114689Y-54317720D01*
X173387952Y-54112550D01*
X173391200Y-54109804D01*
X173490093Y-54015959D01*
X173494838Y-54006441D01*
X173493517Y-54000938D01*
X171459226Y-51966647D01*
X171449587Y-51962152D01*
X171443688Y-51963733D01*
X169409522Y-53997899D01*
X169405027Y-54007538D01*
X168542153Y-54007538D01*
X168450983Y-53959571D01*
X168444720Y-53956978D01*
X168249363Y-53896317D01*
X168242757Y-53894913D01*
X168076687Y-53875257D01*
X168072328Y-53875000D01*
X167619048Y-53875000D01*
X167609052Y-53878638D01*
X167606000Y-53883925D01*
X167606000Y-54911952D01*
X167406000Y-54911952D01*
X167406000Y-53888048D01*
X167402362Y-53878052D01*
X167397075Y-53875000D01*
X166954081Y-53875000D01*
X166950689Y-53875155D01*
X166798908Y-53889102D01*
X166792267Y-53890332D01*
X166595376Y-53945862D01*
X166589068Y-53948284D01*
X166405591Y-54038765D01*
X166399837Y-54042290D01*
X166235924Y-54164690D01*
X166230897Y-54169216D01*
X166092042Y-54319429D01*
X166087921Y-54324800D01*
X165978763Y-54497805D01*
X165975696Y-54503825D01*
X165899891Y-54693829D01*
X165897971Y-54700314D01*
X165858061Y-54900954D01*
X165857356Y-54907662D01*
X165857300Y-54911953D01*
X164546520Y-54911953D01*
X164502633Y-54861020D01*
X164502632Y-54861019D01*
X164499193Y-54857028D01*
X164494774Y-54854164D01*
X164494772Y-54854162D01*
X164395329Y-54789708D01*
X164395330Y-54789708D01*
X164390906Y-54786841D01*
X164385857Y-54785331D01*
X164385855Y-54785330D01*
X164272326Y-54751377D01*
X164272325Y-54751377D01*
X164267273Y-54749866D01*
X164201771Y-54749466D01*
X164143501Y-54749110D01*
X164143500Y-54749110D01*
X164138231Y-54749078D01*
X164014155Y-54784539D01*
X163905019Y-54853399D01*
X163901531Y-54857348D01*
X163901529Y-54857350D01*
X163898288Y-54861020D01*
X163819596Y-54950122D01*
X163817357Y-54954891D01*
X163817355Y-54954894D01*
X163766603Y-55062994D01*
X163730716Y-55098693D01*
X163680278Y-55102973D01*
X163638890Y-55073831D01*
X163632254Y-55062174D01*
X163585610Y-54959586D01*
X163585608Y-54959583D01*
X163583428Y-54954788D01*
X163576003Y-54946170D01*
X163502633Y-54861020D01*
X163502632Y-54861019D01*
X163499193Y-54857028D01*
X163494774Y-54854164D01*
X163494772Y-54854162D01*
X163395329Y-54789708D01*
X163395330Y-54789708D01*
X163390906Y-54786841D01*
X163385857Y-54785331D01*
X163385855Y-54785330D01*
X163272326Y-54751377D01*
X163272325Y-54751377D01*
X163267273Y-54749866D01*
X163201771Y-54749466D01*
X163143501Y-54749110D01*
X163143500Y-54749110D01*
X163138231Y-54749078D01*
X163014155Y-54784539D01*
X162905019Y-54853399D01*
X162901531Y-54857348D01*
X162901529Y-54857350D01*
X162898288Y-54861020D01*
X162819596Y-54950122D01*
X162817357Y-54954891D01*
X162817355Y-54954894D01*
X162766603Y-55062994D01*
X162730716Y-55098693D01*
X162680278Y-55102973D01*
X162638890Y-55073831D01*
X162632254Y-55062174D01*
X162585610Y-54959586D01*
X162585608Y-54959583D01*
X162583428Y-54954788D01*
X162576003Y-54946170D01*
X162502633Y-54861020D01*
X162502632Y-54861019D01*
X162499193Y-54857028D01*
X162494774Y-54854164D01*
X162494772Y-54854162D01*
X162395329Y-54789708D01*
X162395330Y-54789708D01*
X162390906Y-54786841D01*
X162385857Y-54785331D01*
X162385855Y-54785330D01*
X162272326Y-54751377D01*
X162272325Y-54751377D01*
X162267273Y-54749866D01*
X162201771Y-54749466D01*
X162143501Y-54749110D01*
X162143500Y-54749110D01*
X162138231Y-54749078D01*
X162014155Y-54784539D01*
X161905019Y-54853399D01*
X161901531Y-54857348D01*
X161901529Y-54857350D01*
X161898288Y-54861020D01*
X161819596Y-54950122D01*
X161817357Y-54954891D01*
X161817355Y-54954894D01*
X161773892Y-55047469D01*
X161764754Y-55066932D01*
X161744901Y-55194440D01*
X161745584Y-55199663D01*
X161745584Y-55199666D01*
X161758223Y-55296316D01*
X161761633Y-55322394D01*
X161813605Y-55440510D01*
X161896639Y-55539291D01*
X162004060Y-55610796D01*
X162009092Y-55612368D01*
X162009094Y-55612369D01*
X162044714Y-55623497D01*
X162127233Y-55649278D01*
X162132501Y-55649375D01*
X162132504Y-55649375D01*
X162186552Y-55650365D01*
X162256255Y-55651643D01*
X162261338Y-55650257D01*
X162261340Y-55650257D01*
X162375671Y-55619086D01*
X162380755Y-55617700D01*
X162490724Y-55550179D01*
X162577322Y-55454507D01*
X162633588Y-55338375D01*
X162635445Y-55339275D01*
X162661409Y-55305679D01*
X162710866Y-55294894D01*
X162755684Y-55318422D01*
X162768686Y-55338424D01*
X162779759Y-55363589D01*
X162813605Y-55440510D01*
X162896639Y-55539291D01*
X163004060Y-55610796D01*
X163009092Y-55612368D01*
X163009094Y-55612369D01*
X163058567Y-55627825D01*
X163098807Y-55658534D01*
X163110500Y-55698458D01*
X163110500Y-60237350D01*
X163093187Y-60284916D01*
X163049350Y-60310226D01*
X162999500Y-60301436D01*
X162986269Y-60291690D01*
X162866571Y-60181042D01*
X162861200Y-60176921D01*
X162688195Y-60067763D01*
X162682175Y-60064696D01*
X162492171Y-59988891D01*
X162485686Y-59986971D01*
X162285046Y-59947061D01*
X162278338Y-59946356D01*
X162274047Y-59946300D01*
X162264005Y-59949807D01*
X162261000Y-59954857D01*
X162261000Y-63231706D01*
X162264638Y-63241702D01*
X162267878Y-63243572D01*
X162456569Y-63211149D01*
X162463104Y-63209398D01*
X162655028Y-63138593D01*
X162661122Y-63135687D01*
X162836937Y-63031088D01*
X162842396Y-63027122D01*
X162987708Y-62899686D01*
X163034885Y-62881340D01*
X163082818Y-62897610D01*
X163109078Y-62940885D01*
X163110500Y-62955322D01*
X163110500Y-70078522D01*
X163093187Y-70126088D01*
X163088826Y-70130848D01*
X163075379Y-70144295D01*
X163029503Y-70165687D01*
X162987857Y-70157063D01*
X162972238Y-70148618D01*
X162969055Y-70146897D01*
X162965605Y-70145829D01*
X162965600Y-70145827D01*
X162819332Y-70100550D01*
X162772254Y-70085977D01*
X162567369Y-70064443D01*
X162563765Y-70064771D01*
X162563764Y-70064771D01*
X162563215Y-70064821D01*
X162362203Y-70083114D01*
X162347165Y-70087540D01*
X162168043Y-70140258D01*
X162168039Y-70140260D01*
X162164572Y-70141280D01*
X162083821Y-70183496D01*
X161985209Y-70235049D01*
X161985206Y-70235051D01*
X161982002Y-70236726D01*
X161979184Y-70238992D01*
X161979182Y-70238993D01*
X161824266Y-70363548D01*
X161824263Y-70363551D01*
X161821447Y-70365815D01*
X161819121Y-70368587D01*
X161819119Y-70368589D01*
X161691351Y-70520856D01*
X161691348Y-70520860D01*
X161689024Y-70523630D01*
X161683615Y-70533469D01*
X161678787Y-70542251D01*
X161640700Y-70575593D01*
X161590092Y-70576653D01*
X161550643Y-70544935D01*
X161539992Y-70509376D01*
X161539452Y-70494987D01*
X161539400Y-70492212D01*
X161539400Y-70473083D01*
X161538776Y-70469733D01*
X161538503Y-70466777D01*
X161538241Y-70462746D01*
X161538162Y-70460619D01*
X161537210Y-70435274D01*
X161534513Y-70428996D01*
X161534513Y-70428995D01*
X161531897Y-70422907D01*
X161527139Y-70407248D01*
X161526030Y-70401294D01*
X161524674Y-70394012D01*
X161510388Y-70370836D01*
X161505396Y-70361225D01*
X161496717Y-70341022D01*
X161496715Y-70341019D01*
X161494653Y-70336219D01*
X161490789Y-70331516D01*
X161484819Y-70325546D01*
X161474153Y-70312052D01*
X161474153Y-70312051D01*
X161468103Y-70302237D01*
X161444575Y-70284346D01*
X161437041Y-70277768D01*
X160488874Y-69329600D01*
X160467482Y-69283723D01*
X160467200Y-69277274D01*
X160467200Y-66091496D01*
X160467577Y-66086367D01*
X160469055Y-66082061D01*
X160467252Y-66034040D01*
X160467200Y-66031264D01*
X160467200Y-66012135D01*
X160466575Y-66008779D01*
X160466303Y-66005832D01*
X160466042Y-66001806D01*
X160465266Y-65981156D01*
X160465010Y-65974327D01*
X160459697Y-65961961D01*
X160454939Y-65946298D01*
X160453725Y-65939779D01*
X160453724Y-65939778D01*
X160452474Y-65933064D01*
X160448889Y-65927248D01*
X160438194Y-65909896D01*
X160433198Y-65900278D01*
X160424519Y-65880077D01*
X160424515Y-65880070D01*
X160422453Y-65875271D01*
X160418589Y-65870568D01*
X160412620Y-65864599D01*
X160401954Y-65851105D01*
X160395903Y-65841289D01*
X160390468Y-65837156D01*
X160390466Y-65837154D01*
X160372376Y-65823399D01*
X160364841Y-65816820D01*
X160265898Y-65717877D01*
X160244506Y-65672001D01*
X160257607Y-65623106D01*
X160265898Y-65613225D01*
X160429046Y-65450076D01*
X160438927Y-65441785D01*
X160454674Y-65430761D01*
X160460259Y-65422787D01*
X160463009Y-65419109D01*
X160483043Y-65393993D01*
X160536965Y-65326390D01*
X160540431Y-65319194D01*
X160592800Y-65210470D01*
X160592801Y-65210468D01*
X160594604Y-65206724D01*
X160624167Y-65077231D01*
X160624170Y-64966230D01*
X160624171Y-64948564D01*
X160624171Y-64944407D01*
X160594617Y-64814913D01*
X160536986Y-64695244D01*
X160494309Y-64641732D01*
X160487420Y-64630838D01*
X160486263Y-64629280D01*
X160483264Y-64623145D01*
X160472812Y-64613449D01*
X160465286Y-64605339D01*
X160462860Y-64602297D01*
X160460110Y-64598619D01*
X160454690Y-64590880D01*
X160447469Y-64585825D01*
X160443798Y-64583080D01*
X160442675Y-64582184D01*
X160419417Y-64563637D01*
X160415230Y-64560034D01*
X160409232Y-64554470D01*
X160409231Y-64554469D01*
X160404224Y-64549825D01*
X160400025Y-64548149D01*
X160399742Y-64547948D01*
X160350347Y-64508560D01*
X160346489Y-64506702D01*
X160234417Y-64452738D01*
X160230671Y-64450934D01*
X160136750Y-64429503D01*
X160105219Y-64422308D01*
X160105217Y-64422308D01*
X160101173Y-64421385D01*
X160097022Y-64421385D01*
X160034807Y-64421389D01*
X159968346Y-64421394D01*
X159838852Y-64450961D01*
X159838833Y-64450876D01*
X159789832Y-64450271D01*
X159751460Y-64417258D01*
X159743286Y-64367303D01*
X159745275Y-64359879D01*
X159746098Y-64358169D01*
X159775643Y-64228686D01*
X159775639Y-64095875D01*
X159746085Y-63966394D01*
X159724295Y-63921144D01*
X159690265Y-63850475D01*
X159688463Y-63846733D01*
X159645781Y-63793206D01*
X159638885Y-63782302D01*
X159637737Y-63780756D01*
X159634736Y-63774617D01*
X159624292Y-63764928D01*
X159616767Y-63756820D01*
X159614338Y-63753774D01*
X159611587Y-63750093D01*
X159609896Y-63747677D01*
X159609894Y-63747675D01*
X159606182Y-63742373D01*
X159597632Y-63736386D01*
X159593952Y-63733632D01*
X159571875Y-63716023D01*
X159567694Y-63712426D01*
X159560704Y-63705942D01*
X159560703Y-63705941D01*
X159555696Y-63701297D01*
X159551309Y-63699547D01*
X159550452Y-63698937D01*
X159505042Y-63662718D01*
X159505041Y-63662717D01*
X159501792Y-63660126D01*
X159439079Y-63629918D01*
X159385888Y-63604297D01*
X159385885Y-63604296D01*
X159382140Y-63602492D01*
X159252664Y-63572928D01*
X159186228Y-63572921D01*
X159124008Y-63572914D01*
X159119855Y-63572914D01*
X159115805Y-63573838D01*
X159115804Y-63573838D01*
X159098455Y-63577796D01*
X158990374Y-63602453D01*
X158870710Y-63660062D01*
X158823736Y-63697513D01*
X158816086Y-63702858D01*
X158815132Y-63703439D01*
X158810331Y-63705501D01*
X158805627Y-63709365D01*
X158795819Y-63719173D01*
X158789625Y-63724708D01*
X158777751Y-63734175D01*
X158774067Y-63736929D01*
X158766346Y-63742333D01*
X158758323Y-63753788D01*
X158755300Y-63758104D01*
X158747014Y-63767978D01*
X158583833Y-63931159D01*
X158537957Y-63952551D01*
X158489062Y-63939450D01*
X158479181Y-63931159D01*
X157913321Y-63365299D01*
X157891929Y-63319423D01*
X157905030Y-63270528D01*
X157922149Y-63253108D01*
X157953230Y-63230526D01*
X158026491Y-63149162D01*
X158070267Y-63100544D01*
X158070268Y-63100542D01*
X158072859Y-63097665D01*
X158162250Y-62942835D01*
X158217497Y-62772803D01*
X158218463Y-62763618D01*
X158235780Y-62598853D01*
X158236185Y-62595000D01*
X158217497Y-62417197D01*
X158162250Y-62247165D01*
X158104373Y-62146919D01*
X161011000Y-62146919D01*
X161011155Y-62150311D01*
X161025102Y-62302092D01*
X161026332Y-62308733D01*
X161081862Y-62505624D01*
X161084284Y-62511932D01*
X161174765Y-62695409D01*
X161178290Y-62701163D01*
X161300690Y-62865076D01*
X161305216Y-62870103D01*
X161455429Y-63008958D01*
X161460800Y-63013079D01*
X161633805Y-63122237D01*
X161639825Y-63125304D01*
X161829829Y-63201109D01*
X161836314Y-63203029D01*
X162036954Y-63242939D01*
X162043662Y-63243644D01*
X162047953Y-63243700D01*
X162057995Y-63240193D01*
X162061000Y-63235143D01*
X162061000Y-61708048D01*
X162057362Y-61698052D01*
X162052075Y-61695000D01*
X161024048Y-61695000D01*
X161014052Y-61698638D01*
X161011000Y-61703925D01*
X161011000Y-62146919D01*
X158104373Y-62146919D01*
X158072859Y-62092335D01*
X158068859Y-62087892D01*
X157955823Y-61962354D01*
X157953230Y-61959474D01*
X157949389Y-61956683D01*
X157811737Y-61856672D01*
X157811735Y-61856671D01*
X157808593Y-61854388D01*
X157805042Y-61852807D01*
X157648817Y-61783251D01*
X157648812Y-61783250D01*
X157645267Y-61781671D01*
X157470391Y-61744500D01*
X157392204Y-61744500D01*
X157344638Y-61727187D01*
X157319328Y-61683350D01*
X157318621Y-61672116D01*
X157319462Y-61668573D01*
X157315476Y-61639286D01*
X157314800Y-61629307D01*
X157314800Y-61519500D01*
X157328467Y-61481952D01*
X161011000Y-61481952D01*
X161014638Y-61491948D01*
X161019925Y-61495000D01*
X162047952Y-61495000D01*
X162057948Y-61491362D01*
X162061000Y-61486075D01*
X162061000Y-59958294D01*
X162057362Y-59948298D01*
X162054122Y-59946428D01*
X161865431Y-59978851D01*
X161858896Y-59980602D01*
X161666972Y-60051407D01*
X161660878Y-60054313D01*
X161485063Y-60158912D01*
X161479604Y-60162878D01*
X161325797Y-60297764D01*
X161321144Y-60302668D01*
X161194501Y-60463313D01*
X161190815Y-60468989D01*
X161095571Y-60650017D01*
X161092978Y-60656280D01*
X161032317Y-60851637D01*
X161030913Y-60858243D01*
X161011257Y-61024313D01*
X161011000Y-61028672D01*
X161011000Y-61481952D01*
X157328467Y-61481952D01*
X157332113Y-61471934D01*
X157375950Y-61446624D01*
X157388800Y-61445500D01*
X157470391Y-61445500D01*
X157645267Y-61408329D01*
X157648812Y-61406750D01*
X157648817Y-61406749D01*
X157805042Y-61337193D01*
X157808593Y-61335612D01*
X157953230Y-61230526D01*
X158045006Y-61128599D01*
X158070267Y-61100544D01*
X158070268Y-61100542D01*
X158072859Y-61097665D01*
X158162250Y-60942835D01*
X158217497Y-60772803D01*
X158236185Y-60595000D01*
X158221008Y-60450598D01*
X158217902Y-60421048D01*
X158217902Y-60421046D01*
X158217497Y-60417197D01*
X158162250Y-60247165D01*
X158072859Y-60092335D01*
X158020527Y-60034214D01*
X157955823Y-59962354D01*
X157953230Y-59959474D01*
X157946875Y-59954857D01*
X157811737Y-59856672D01*
X157811735Y-59856671D01*
X157808593Y-59854388D01*
X157787386Y-59844946D01*
X157648817Y-59783251D01*
X157648811Y-59783249D01*
X157645267Y-59781671D01*
X157470391Y-59744500D01*
X157291609Y-59744500D01*
X157287813Y-59745307D01*
X157287812Y-59745307D01*
X157120528Y-59780864D01*
X157120525Y-59780865D01*
X157116733Y-59781671D01*
X157113191Y-59783248D01*
X157113188Y-59783249D01*
X157058619Y-59807545D01*
X156953408Y-59854388D01*
X156950272Y-59856666D01*
X156950271Y-59856667D01*
X156815125Y-59954857D01*
X156808770Y-59959474D01*
X156806177Y-59962354D01*
X156741474Y-60034214D01*
X156689141Y-60092335D01*
X156599750Y-60247165D01*
X156544503Y-60417197D01*
X156544098Y-60421046D01*
X156544098Y-60421048D01*
X156540992Y-60450598D01*
X156525815Y-60595000D01*
X156544503Y-60772803D01*
X156599750Y-60942835D01*
X156689141Y-61097665D01*
X156691730Y-61100540D01*
X156691737Y-61100550D01*
X156716993Y-61128599D01*
X156736000Y-61178114D01*
X156736000Y-61503664D01*
X156718687Y-61551230D01*
X156714326Y-61555990D01*
X156296739Y-61973577D01*
X156292853Y-61976932D01*
X156288764Y-61978930D01*
X156284117Y-61983940D01*
X156256104Y-62014138D01*
X156254178Y-62016138D01*
X156240630Y-62029686D01*
X156238700Y-62032499D01*
X156236801Y-62034785D01*
X156234136Y-62037820D01*
X156220089Y-62052962D01*
X156220088Y-62052964D01*
X156215444Y-62057970D01*
X156212913Y-62064314D01*
X156210459Y-62070466D01*
X156202749Y-62084906D01*
X156195131Y-62096011D01*
X156193553Y-62102661D01*
X156188847Y-62122491D01*
X156185579Y-62132826D01*
X156177428Y-62153255D01*
X156177426Y-62153261D01*
X156175494Y-62158105D01*
X156174900Y-62164163D01*
X156174900Y-62172603D01*
X156172900Y-62189689D01*
X156170238Y-62200907D01*
X155775500Y-62200907D01*
X155775500Y-58764748D01*
X156530500Y-58764748D01*
X156542133Y-58823231D01*
X156546184Y-58829293D01*
X156546184Y-58829294D01*
X156582398Y-58883491D01*
X156586448Y-58889552D01*
X156652769Y-58933867D01*
X156697295Y-58942724D01*
X156707682Y-58944790D01*
X156707683Y-58944790D01*
X156711252Y-58945500D01*
X158050748Y-58945500D01*
X158054317Y-58944790D01*
X158054318Y-58944790D01*
X158064705Y-58942724D01*
X158109231Y-58933867D01*
X158175552Y-58889552D01*
X158179602Y-58883491D01*
X158215816Y-58829294D01*
X158215816Y-58829293D01*
X158219867Y-58823231D01*
X158231500Y-58764748D01*
X158231500Y-57425252D01*
X158219867Y-57366769D01*
X158189370Y-57321127D01*
X158179602Y-57306509D01*
X158175552Y-57300448D01*
X158109231Y-57256133D01*
X158064705Y-57247276D01*
X158054318Y-57245210D01*
X158054317Y-57245210D01*
X158050748Y-57244500D01*
X156711252Y-57244500D01*
X156707683Y-57245210D01*
X156707682Y-57245210D01*
X156697295Y-57247276D01*
X156652769Y-57256133D01*
X156586448Y-57300448D01*
X156582398Y-57306509D01*
X156572631Y-57321127D01*
X156542133Y-57366769D01*
X156530500Y-57425252D01*
X156530500Y-58764748D01*
X155775500Y-58764748D01*
X155775500Y-55131878D01*
X156332428Y-55131878D01*
X156364851Y-55320569D01*
X156366602Y-55327104D01*
X156437407Y-55519028D01*
X156440313Y-55525122D01*
X156544912Y-55700937D01*
X156548878Y-55706396D01*
X156683764Y-55860203D01*
X156688668Y-55864856D01*
X156849313Y-55991499D01*
X156854989Y-55995185D01*
X157036017Y-56090429D01*
X157042280Y-56093022D01*
X157237637Y-56153683D01*
X157244243Y-56155087D01*
X157410313Y-56174743D01*
X157414672Y-56175000D01*
X157867952Y-56175000D01*
X157877948Y-56171362D01*
X157881000Y-56166075D01*
X157881000Y-56161952D01*
X158081000Y-56161952D01*
X158084638Y-56171948D01*
X158089925Y-56175000D01*
X158532919Y-56175000D01*
X158536311Y-56174845D01*
X158688092Y-56160898D01*
X158694733Y-56159668D01*
X158891624Y-56104138D01*
X158897932Y-56101716D01*
X159081409Y-56011235D01*
X159087163Y-56007710D01*
X159251076Y-55885310D01*
X159256103Y-55880784D01*
X159394958Y-55730571D01*
X159399079Y-55725200D01*
X159508237Y-55552195D01*
X159511304Y-55546175D01*
X159587109Y-55356171D01*
X159589029Y-55349686D01*
X159628939Y-55149046D01*
X159629644Y-55142338D01*
X159629700Y-55138047D01*
X159626193Y-55128005D01*
X159621143Y-55125000D01*
X158094048Y-55125000D01*
X158084052Y-55128638D01*
X158081000Y-55133925D01*
X158081000Y-56161952D01*
X157881000Y-56161952D01*
X157881000Y-55138048D01*
X157877362Y-55128052D01*
X157872075Y-55125000D01*
X156344294Y-55125000D01*
X156334298Y-55128638D01*
X156332428Y-55131878D01*
X155775500Y-55131878D01*
X155775500Y-54911953D01*
X156332300Y-54911953D01*
X156335807Y-54921995D01*
X156340857Y-54925000D01*
X157867952Y-54925000D01*
X157877948Y-54921362D01*
X157881000Y-54916075D01*
X157881000Y-54911952D01*
X158081000Y-54911952D01*
X158084638Y-54921948D01*
X158089925Y-54925000D01*
X159617706Y-54925000D01*
X159627702Y-54921362D01*
X159629572Y-54918122D01*
X159597149Y-54729431D01*
X159595398Y-54722896D01*
X159524593Y-54530972D01*
X159521687Y-54524878D01*
X159417088Y-54349063D01*
X159413122Y-54343604D01*
X159278236Y-54189797D01*
X159273332Y-54185144D01*
X159112687Y-54058501D01*
X159107011Y-54054815D01*
X158925983Y-53959571D01*
X158919720Y-53956978D01*
X158724363Y-53896317D01*
X158717757Y-53894913D01*
X158551687Y-53875257D01*
X158547328Y-53875000D01*
X158094048Y-53875000D01*
X158084052Y-53878638D01*
X158081000Y-53883925D01*
X158081000Y-54911952D01*
X157881000Y-54911952D01*
X157881000Y-53888048D01*
X157877362Y-53878052D01*
X157872075Y-53875000D01*
X157429081Y-53875000D01*
X157425689Y-53875155D01*
X157273908Y-53889102D01*
X157267267Y-53890332D01*
X157070376Y-53945862D01*
X157064068Y-53948284D01*
X156880591Y-54038765D01*
X156874837Y-54042290D01*
X156710924Y-54164690D01*
X156705897Y-54169216D01*
X156567042Y-54319429D01*
X156562921Y-54324800D01*
X156453763Y-54497805D01*
X156450696Y-54503825D01*
X156374891Y-54693829D01*
X156372971Y-54700314D01*
X156333061Y-54900954D01*
X156332356Y-54907662D01*
X156332300Y-54911953D01*
X155775500Y-54911953D01*
X155775500Y-51723728D01*
X168446455Y-51723728D01*
X168455400Y-52065341D01*
X168455754Y-52069557D01*
X168503903Y-52407868D01*
X168504744Y-52412039D01*
X168591453Y-52742556D01*
X168592771Y-52746614D01*
X168716894Y-53064971D01*
X168718666Y-53068842D01*
X168878563Y-53370833D01*
X168880768Y-53374475D01*
X169074313Y-53656083D01*
X169076913Y-53659436D01*
X169249217Y-53856951D01*
X169258530Y-53862092D01*
X169263453Y-53861126D01*
X171299353Y-51825226D01*
X171303463Y-51816413D01*
X171596152Y-51816413D01*
X171597733Y-51822312D01*
X173634998Y-53859577D01*
X173644637Y-53864072D01*
X173649203Y-53862848D01*
X173861160Y-53609349D01*
X173863706Y-53605922D01*
X174051312Y-53320318D01*
X174053436Y-53316639D01*
X174206967Y-53011377D01*
X174208665Y-53007454D01*
X174326091Y-52686573D01*
X174327326Y-52682483D01*
X174407091Y-52350233D01*
X174407846Y-52346036D01*
X174448956Y-52006325D01*
X174449206Y-52003040D01*
X174455032Y-51817663D01*
X174454988Y-51814341D01*
X174435292Y-51472740D01*
X174434801Y-51468498D01*
X174376051Y-51131876D01*
X174375084Y-51127754D01*
X174278030Y-50800103D01*
X174276591Y-50796108D01*
X174142526Y-50481796D01*
X174140632Y-50477982D01*
X173978903Y-50194440D01*
X176044901Y-50194440D01*
X176045584Y-50199663D01*
X176045584Y-50199666D01*
X176046708Y-50208257D01*
X176061633Y-50322394D01*
X176113605Y-50440510D01*
X176196639Y-50539291D01*
X176304060Y-50610796D01*
X176309092Y-50612368D01*
X176309094Y-50612369D01*
X176344714Y-50623497D01*
X176427233Y-50649278D01*
X176432501Y-50649375D01*
X176432504Y-50649375D01*
X176486552Y-50650365D01*
X176556255Y-50651643D01*
X176561338Y-50650257D01*
X176561340Y-50650257D01*
X176675671Y-50619086D01*
X176680755Y-50617700D01*
X176790724Y-50550179D01*
X176877322Y-50454507D01*
X176933588Y-50338375D01*
X176954997Y-50211120D01*
X176955133Y-50200000D01*
X176953591Y-50189234D01*
X176937586Y-50077472D01*
X176937585Y-50077469D01*
X176936839Y-50072259D01*
X176883428Y-49954788D01*
X176876003Y-49946170D01*
X176802633Y-49861020D01*
X176802632Y-49861019D01*
X176799193Y-49857028D01*
X176794774Y-49854164D01*
X176794772Y-49854162D01*
X176695329Y-49789708D01*
X176695330Y-49789708D01*
X176690906Y-49786841D01*
X176685857Y-49785331D01*
X176685855Y-49785330D01*
X176572326Y-49751377D01*
X176572325Y-49751377D01*
X176567273Y-49749866D01*
X176501771Y-49749466D01*
X176443501Y-49749110D01*
X176443500Y-49749110D01*
X176438231Y-49749078D01*
X176314155Y-49784539D01*
X176205019Y-49853399D01*
X176201531Y-49857348D01*
X176201529Y-49857350D01*
X176198288Y-49861020D01*
X176119596Y-49950122D01*
X176117357Y-49954891D01*
X176117355Y-49954894D01*
X176073892Y-50047469D01*
X176064754Y-50066932D01*
X176044901Y-50194440D01*
X173978903Y-50194440D01*
X173971331Y-50181164D01*
X173969015Y-50177598D01*
X173766718Y-49902204D01*
X173764003Y-49898923D01*
X173649817Y-49776044D01*
X173640348Y-49771198D01*
X173634997Y-49772424D01*
X171600647Y-51806774D01*
X171596152Y-51816413D01*
X171303463Y-51816413D01*
X171303848Y-51815587D01*
X171302267Y-51809688D01*
X169267465Y-49774886D01*
X169257826Y-49770391D01*
X169252016Y-49771948D01*
X169197348Y-49827191D01*
X169194540Y-49830377D01*
X168983691Y-50099283D01*
X168981265Y-50102775D01*
X168802726Y-50394121D01*
X168800709Y-50397883D01*
X168656842Y-50707820D01*
X168655273Y-50711785D01*
X168547982Y-51036200D01*
X168546879Y-51040317D01*
X168477589Y-51374907D01*
X168476964Y-51379141D01*
X168446588Y-51719492D01*
X168446455Y-51723728D01*
X155775500Y-51723728D01*
X155775500Y-49042500D01*
X155792813Y-48994934D01*
X155836650Y-48969624D01*
X155849500Y-48968500D01*
X170124180Y-48968500D01*
X170171746Y-48985813D01*
G37*
%TD.AperFunction*%
%TA.AperFunction,Conductor*%
G36*
X186338391Y-71757381D02*
G01*
X186370384Y-71796608D01*
X186374500Y-71820944D01*
X186374500Y-72537064D01*
X186357187Y-72584630D01*
X186313350Y-72609940D01*
X186293246Y-72610708D01*
X186286058Y-72610000D01*
X185533048Y-72610000D01*
X185523052Y-72613638D01*
X185520000Y-72618925D01*
X185520000Y-74696952D01*
X185523638Y-74706948D01*
X185528925Y-74710000D01*
X185696647Y-74710000D01*
X185744213Y-74727313D01*
X185769523Y-74771150D01*
X185760733Y-74821000D01*
X185721956Y-74853537D01*
X185716983Y-74855151D01*
X185614155Y-74884539D01*
X185505019Y-74953399D01*
X185501531Y-74957348D01*
X185501529Y-74957350D01*
X185498288Y-74961020D01*
X185419596Y-75050122D01*
X185417357Y-75054891D01*
X185417355Y-75054894D01*
X185380457Y-75133486D01*
X185364754Y-75166932D01*
X185344901Y-75294440D01*
X185345584Y-75299663D01*
X185345584Y-75299666D01*
X185358223Y-75396315D01*
X185361633Y-75422394D01*
X185413605Y-75540510D01*
X185496639Y-75639291D01*
X185604060Y-75710796D01*
X185609092Y-75712368D01*
X185609094Y-75712369D01*
X185644714Y-75723497D01*
X185727233Y-75749278D01*
X185732501Y-75749375D01*
X185732504Y-75749375D01*
X185786552Y-75750365D01*
X185856255Y-75751643D01*
X185861338Y-75750257D01*
X185861340Y-75750257D01*
X185975671Y-75719086D01*
X185980755Y-75717700D01*
X186090724Y-75650179D01*
X186177322Y-75554507D01*
X186233588Y-75438375D01*
X186235912Y-75439501D01*
X186260963Y-75407094D01*
X186310421Y-75396315D01*
X186355237Y-75419849D01*
X186374500Y-75469647D01*
X186374500Y-76834522D01*
X186357187Y-76882088D01*
X186352826Y-76886848D01*
X184654380Y-78585294D01*
X184608504Y-78606686D01*
X184559609Y-78593585D01*
X184530575Y-78552121D01*
X184528714Y-78530858D01*
X184529264Y-78528807D01*
X184525782Y-78489009D01*
X184525500Y-78482559D01*
X184525500Y-74784000D01*
X184542813Y-74736434D01*
X184586650Y-74711124D01*
X184599500Y-74710000D01*
X185306952Y-74710000D01*
X185316948Y-74706362D01*
X185320000Y-74701075D01*
X185320000Y-73773048D01*
X185316362Y-73763052D01*
X185311075Y-73760000D01*
X184599500Y-73760000D01*
X184551934Y-73742687D01*
X184526624Y-73698850D01*
X184525500Y-73686000D01*
X184525500Y-73634000D01*
X184542813Y-73586434D01*
X184586650Y-73561124D01*
X184599500Y-73560000D01*
X185306952Y-73560000D01*
X185316948Y-73556362D01*
X185320000Y-73551075D01*
X185320000Y-72623048D01*
X185316362Y-72613052D01*
X185311075Y-72610000D01*
X184599500Y-72610000D01*
X184551934Y-72592687D01*
X184526624Y-72548850D01*
X184525500Y-72536000D01*
X184525500Y-71895218D01*
X184542813Y-71847652D01*
X184586650Y-71822342D01*
X184636500Y-71831132D01*
X184655884Y-71847864D01*
X184655917Y-71847832D01*
X184656268Y-71848195D01*
X184657492Y-71849252D01*
X184660677Y-71853270D01*
X184663430Y-71855613D01*
X184663433Y-71855616D01*
X184699474Y-71886289D01*
X184817564Y-71986791D01*
X184863508Y-72012468D01*
X184994239Y-72085532D01*
X184994243Y-72085534D01*
X184997398Y-72087297D01*
X185000834Y-72088414D01*
X185000840Y-72088416D01*
X185125256Y-72128841D01*
X185193329Y-72150959D01*
X185253033Y-72158078D01*
X185394294Y-72174922D01*
X185394297Y-72174922D01*
X185397894Y-72175351D01*
X185474273Y-72169474D01*
X185599689Y-72159824D01*
X185599691Y-72159824D01*
X185603300Y-72159546D01*
X185801725Y-72104145D01*
X185833776Y-72087955D01*
X185982376Y-72012892D01*
X185982379Y-72012890D01*
X185985610Y-72011258D01*
X186147951Y-71884424D01*
X186150631Y-71881319D01*
X186244482Y-71772591D01*
X186288669Y-71747896D01*
X186338391Y-71757381D01*
G37*
%TD.AperFunction*%
%TD*%
M02*
