%TF.GenerationSoftware,KiCad,Pcbnew,(6.0.9)*%
%TF.CreationDate,2022-12-12T20:16:16+01:00*%
%TF.ProjectId,h3_extra_ports,68335f65-7874-4726-915f-706f7274732e,rev?*%
%TF.SameCoordinates,Original*%
%TF.FileFunction,Copper,L3,Inr*%
%TF.FilePolarity,Positive*%
%FSLAX46Y46*%
G04 Gerber Fmt 4.6, Leading zero omitted, Abs format (unit mm)*
G04 Created by KiCad (PCBNEW (6.0.9)) date 2022-12-12 20:16:16*
%MOMM*%
%LPD*%
G01*
G04 APERTURE LIST*
%TA.AperFunction,ComponentPad*%
%ADD10C,5.600000*%
%TD*%
%TA.AperFunction,ComponentPad*%
%ADD11R,1.300000X1.300000*%
%TD*%
%TA.AperFunction,ComponentPad*%
%ADD12C,1.300000*%
%TD*%
%TA.AperFunction,ComponentPad*%
%ADD13O,2.900000X1.900000*%
%TD*%
%TA.AperFunction,ComponentPad*%
%ADD14O,1.900000X2.900000*%
%TD*%
%TA.AperFunction,ComponentPad*%
%ADD15R,1.700000X1.700000*%
%TD*%
%TA.AperFunction,ComponentPad*%
%ADD16O,1.700000X1.700000*%
%TD*%
%TA.AperFunction,ComponentPad*%
%ADD17C,1.700000*%
%TD*%
%TA.AperFunction,ViaPad*%
%ADD18C,0.800000*%
%TD*%
%TA.AperFunction,ViaPad*%
%ADD19C,0.500000*%
%TD*%
G04 APERTURE END LIST*
D10*
%TO.N,GND*%
%TO.C,H2*%
X171450000Y-79375000D03*
%TD*%
D11*
%TO.N,Net-(C11-Pad2)*%
%TO.C,J2*%
X157381000Y-58095000D03*
D12*
%TO.N,/USB2_P6_DN*%
X157381000Y-60595000D03*
%TO.N,/USB2_P6_DP*%
X157381000Y-62595000D03*
%TO.N,GND*%
X157381000Y-65095000D03*
D13*
X157981000Y-55025000D03*
X157981000Y-68165000D03*
D14*
X162161000Y-61595000D03*
%TD*%
D11*
%TO.N,Net-(C7-Pad2)*%
%TO.C,J1*%
X166906000Y-58095000D03*
D12*
%TO.N,/USB2_P5_DN*%
X166906000Y-60595000D03*
%TO.N,/USB2_P5_DP*%
X166906000Y-62595000D03*
%TO.N,GND*%
X166906000Y-65095000D03*
D13*
X167506000Y-68165000D03*
X167506000Y-55025000D03*
D14*
X171686000Y-61595000D03*
%TD*%
D10*
%TO.N,GND*%
%TO.C,H1*%
X171450000Y-51816000D03*
%TD*%
D15*
%TO.N,Net-(J4-Pad1)*%
%TO.C,J4*%
X181864000Y-50541000D03*
D16*
%TO.N,/PWR_BTN#*%
X184404000Y-50541000D03*
%TO.N,GND*%
X181864000Y-53081000D03*
X184404000Y-53081000D03*
%TD*%
D11*
%TO.N,Net-(C15-Pad2)*%
%TO.C,J3*%
X176431000Y-58095000D03*
D12*
%TO.N,/USB2_P7_DN*%
X176431000Y-60595000D03*
%TO.N,/USB2_P7_DP*%
X176431000Y-62595000D03*
%TO.N,GND*%
X176431000Y-65095000D03*
D14*
X181211000Y-61595000D03*
D13*
X177031000Y-55025000D03*
X177031000Y-68165000D03*
%TD*%
D17*
%TO.N,/+V5P0A*%
%TO.C,J6*%
X157480000Y-71120000D03*
D16*
%TO.N,/USB2_P6_DN*%
X157480000Y-73660000D03*
%TO.N,/HDMI_CEC*%
X160020000Y-71120000D03*
%TO.N,/USB2_P6_DP*%
X160020000Y-73660000D03*
%TO.N,/I2C_0_SDA*%
X162560000Y-71120000D03*
%TO.N,GND*%
X162560000Y-73660000D03*
%TO.N,/I2C_0_SCL*%
X165100000Y-71120000D03*
%TO.N,/PWR_BTN#*%
X165100000Y-73660000D03*
%TO.N,GND*%
X167640000Y-71120000D03*
%TO.N,/I2C_1_SDA*%
X167640000Y-73660000D03*
%TO.N,/UART0_RTS#*%
X170180000Y-71120000D03*
%TO.N,/I2C_1_SCL*%
X170180000Y-73660000D03*
%TO.N,/UART0_CTS#*%
X172720000Y-71120000D03*
%TO.N,GND*%
X172720000Y-73660000D03*
%TO.N,/UART0_TXD*%
X175260000Y-71120000D03*
%TO.N,/USB2_P5_DN*%
X175260000Y-73660000D03*
%TO.N,/UART0_RXD*%
X177800000Y-71120000D03*
%TO.N,/USB2_P5_DP*%
X177800000Y-73660000D03*
%TO.N,GND*%
X180340000Y-71120000D03*
%TO.N,/USB2_P7_DN*%
X180340000Y-73660000D03*
%TO.N,/+3.3V_RUN_H*%
X182880000Y-71120000D03*
%TO.N,/USB2_P7_DP*%
X182880000Y-73660000D03*
%TO.N,/+5V_RUN_H*%
X185420000Y-71120000D03*
%TO.N,GND*%
X185420000Y-73660000D03*
%TD*%
D15*
%TO.N,GND*%
%TO.C,J9*%
X185420000Y-73660000D03*
D16*
%TO.N,/+5V_RUN_H*%
X185420000Y-71120000D03*
%TO.N,/USB2_P7_DP*%
X182880000Y-73660000D03*
%TO.N,/+3.3V_RUN_H*%
X182880000Y-71120000D03*
%TO.N,/USB2_P7_DN*%
X180340000Y-73660000D03*
%TO.N,GND*%
X180340000Y-71120000D03*
%TO.N,/USB2_P5_DP*%
X177800000Y-73660000D03*
%TO.N,/UART0_RXD*%
X177800000Y-71120000D03*
%TO.N,/USB2_P5_DN*%
X175260000Y-73660000D03*
%TO.N,/UART0_TXD*%
X175260000Y-71120000D03*
%TO.N,GND*%
X172720000Y-73660000D03*
%TO.N,/UART0_CTS#*%
X172720000Y-71120000D03*
%TO.N,/I2C_1_SCL*%
X170180000Y-73660000D03*
%TO.N,/UART0_RTS#*%
X170180000Y-71120000D03*
%TO.N,/I2C_1_SDA*%
X167640000Y-73660000D03*
%TO.N,GND*%
X167640000Y-71120000D03*
%TO.N,/PWR_BTN#*%
X165100000Y-73660000D03*
%TO.N,/I2C_0_SCL*%
X165100000Y-71120000D03*
%TO.N,GND*%
X162560000Y-73660000D03*
%TO.N,/I2C_0_SDA*%
X162560000Y-71120000D03*
%TO.N,/USB2_P6_DP*%
X160020000Y-73660000D03*
%TO.N,/HDMI_CEC*%
X160020000Y-71120000D03*
%TO.N,/USB2_P6_DN*%
X157480000Y-73660000D03*
%TO.N,/+V5P0A*%
X157480000Y-71120000D03*
%TD*%
D15*
%TO.N,unconnected-(J5-Pad1)*%
%TO.C,J5*%
X184750000Y-66275000D03*
D16*
%TO.N,/RS232_RX*%
X187290000Y-66275000D03*
%TO.N,/RS232_TX*%
X184750000Y-63735000D03*
%TO.N,unconnected-(J5-Pad4)*%
X187290000Y-63735000D03*
%TO.N,GND*%
X184750000Y-61195000D03*
%TO.N,unconnected-(J5-Pad6)*%
X187290000Y-61195000D03*
%TO.N,/RS232_RTS*%
X184750000Y-58655000D03*
%TO.N,/RS232_CTS*%
X187290000Y-58655000D03*
%TO.N,unconnected-(J5-Pad9)*%
X184750000Y-56115000D03*
%TO.N,unconnected-(J5-Pad10)*%
X187290000Y-56115000D03*
%TD*%
D18*
%TO.N,GND*%
X187250000Y-82250000D03*
D19*
%TO.N,/+3.3V_RUN_H*%
X176500000Y-50200000D03*
X162200000Y-55200000D03*
X165500000Y-80100000D03*
X185800000Y-75300000D03*
%TO.N,/RS232_RTS*%
X176657000Y-79694000D03*
%TO.N,/RS232_CTS*%
X175400000Y-79700000D03*
%TO.N,/I2C_0_SCL*%
X164200000Y-55200000D03*
%TO.N,/I2C_0_SDA*%
X163200000Y-55200000D03*
%TD*%
%TA.AperFunction,Conductor*%
%TO.N,/+3.3V_RUN_H*%
G36*
X170170583Y-48985813D02*
G01*
X170195893Y-49029650D01*
X170187103Y-49079500D01*
X170154875Y-49109291D01*
X170003967Y-49181270D01*
X170003958Y-49181275D01*
X170002048Y-49182186D01*
X170000251Y-49183313D01*
X170000246Y-49183316D01*
X169710736Y-49364925D01*
X169710731Y-49364929D01*
X169708921Y-49366064D01*
X169438871Y-49582415D01*
X169195477Y-49828371D01*
X169194166Y-49830043D01*
X169094738Y-49956849D01*
X168981966Y-50100672D01*
X168980854Y-50102486D01*
X168980853Y-50102488D01*
X168956513Y-50142207D01*
X168801168Y-50395709D01*
X168800271Y-50397641D01*
X168800268Y-50397647D01*
X168720044Y-50570474D01*
X168655478Y-50709570D01*
X168632748Y-50778299D01*
X168582715Y-50929586D01*
X168546828Y-51038097D01*
X168546396Y-51040184D01*
X168546395Y-51040187D01*
X168527864Y-51129672D01*
X168476658Y-51376935D01*
X168445898Y-51721592D01*
X168454956Y-52067501D01*
X168503712Y-52410076D01*
X168591519Y-52744777D01*
X168592292Y-52746759D01*
X168592295Y-52746769D01*
X168694010Y-53007653D01*
X168717214Y-53067167D01*
X168879130Y-53372974D01*
X168880334Y-53374726D01*
X168880339Y-53374734D01*
X168971183Y-53506912D01*
X169075122Y-53658144D01*
X169076517Y-53659743D01*
X169276440Y-53888919D01*
X169302592Y-53918898D01*
X169558524Y-54151778D01*
X169560251Y-54153019D01*
X169560256Y-54153023D01*
X169837791Y-54352452D01*
X169837796Y-54352455D01*
X169839527Y-54353699D01*
X170141876Y-54521985D01*
X170143851Y-54522803D01*
X170143855Y-54522805D01*
X170163051Y-54530756D01*
X170461563Y-54654403D01*
X170622232Y-54700171D01*
X170792297Y-54748616D01*
X170792303Y-54748617D01*
X170794352Y-54749201D01*
X170796462Y-54749546D01*
X170796464Y-54749547D01*
X171133728Y-54804776D01*
X171133734Y-54804777D01*
X171135831Y-54805120D01*
X171291551Y-54812464D01*
X171479348Y-54821320D01*
X171479352Y-54821320D01*
X171481474Y-54821420D01*
X171826700Y-54797885D01*
X171828784Y-54797499D01*
X171828790Y-54797498D01*
X172164831Y-54735217D01*
X172164838Y-54735215D01*
X172166933Y-54734827D01*
X172497663Y-54633081D01*
X172499611Y-54632226D01*
X172499616Y-54632224D01*
X172812548Y-54494856D01*
X172812549Y-54494856D01*
X172814507Y-54493996D01*
X172816350Y-54492919D01*
X172816356Y-54492916D01*
X173111424Y-54320492D01*
X173111427Y-54320490D01*
X173113265Y-54319416D01*
X173289785Y-54186881D01*
X173388275Y-54112933D01*
X173388279Y-54112930D01*
X173389978Y-54111654D01*
X173640977Y-53873465D01*
X173797447Y-53686329D01*
X173861563Y-53609648D01*
X173861569Y-53609640D01*
X173862936Y-53608005D01*
X174052913Y-53318792D01*
X174179923Y-53066262D01*
X180808520Y-53066262D01*
X180808823Y-53069871D01*
X180808823Y-53069873D01*
X180812404Y-53112519D01*
X180825759Y-53271553D01*
X180882544Y-53469586D01*
X180884196Y-53472800D01*
X180884197Y-53472803D01*
X180953681Y-53608005D01*
X180976712Y-53652818D01*
X181104677Y-53814270D01*
X181107430Y-53816613D01*
X181107433Y-53816616D01*
X181138062Y-53842683D01*
X181261564Y-53947791D01*
X181308266Y-53973892D01*
X181438239Y-54046532D01*
X181438243Y-54046534D01*
X181441398Y-54048297D01*
X181444834Y-54049414D01*
X181444840Y-54049416D01*
X181569256Y-54089841D01*
X181637329Y-54111959D01*
X181701176Y-54119572D01*
X181838294Y-54135922D01*
X181838297Y-54135922D01*
X181841894Y-54136351D01*
X181910714Y-54131056D01*
X182043689Y-54120824D01*
X182043691Y-54120824D01*
X182047300Y-54120546D01*
X182245725Y-54065145D01*
X182263877Y-54055976D01*
X182426376Y-53973892D01*
X182426379Y-53973890D01*
X182429610Y-53972258D01*
X182591951Y-53845424D01*
X182726564Y-53689472D01*
X182728347Y-53686333D01*
X182728350Y-53686329D01*
X182777443Y-53599908D01*
X182828323Y-53510344D01*
X182840812Y-53472803D01*
X182892208Y-53318299D01*
X182893351Y-53314863D01*
X182898823Y-53271553D01*
X182918913Y-53112519D01*
X182918913Y-53112513D01*
X182919171Y-53110474D01*
X182919583Y-53081000D01*
X182918412Y-53069050D01*
X182918139Y-53066262D01*
X183348520Y-53066262D01*
X183348823Y-53069871D01*
X183348823Y-53069873D01*
X183352404Y-53112519D01*
X183365759Y-53271553D01*
X183422544Y-53469586D01*
X183424196Y-53472800D01*
X183424197Y-53472803D01*
X183493681Y-53608005D01*
X183516712Y-53652818D01*
X183644677Y-53814270D01*
X183647430Y-53816613D01*
X183647433Y-53816616D01*
X183678062Y-53842683D01*
X183801564Y-53947791D01*
X183848266Y-53973892D01*
X183978239Y-54046532D01*
X183978243Y-54046534D01*
X183981398Y-54048297D01*
X183984834Y-54049414D01*
X183984840Y-54049416D01*
X184109256Y-54089841D01*
X184177329Y-54111959D01*
X184241176Y-54119572D01*
X184378294Y-54135922D01*
X184378297Y-54135922D01*
X184381894Y-54136351D01*
X184450714Y-54131056D01*
X184583689Y-54120824D01*
X184583691Y-54120824D01*
X184587300Y-54120546D01*
X184785725Y-54065145D01*
X184803877Y-54055976D01*
X184966376Y-53973892D01*
X184966379Y-53973890D01*
X184969610Y-53972258D01*
X185131951Y-53845424D01*
X185266564Y-53689472D01*
X185268347Y-53686333D01*
X185268350Y-53686329D01*
X185317443Y-53599908D01*
X185368323Y-53510344D01*
X185380812Y-53472803D01*
X185432208Y-53318299D01*
X185433351Y-53314863D01*
X185438823Y-53271553D01*
X185458913Y-53112519D01*
X185458913Y-53112513D01*
X185459171Y-53110474D01*
X185459583Y-53081000D01*
X185458412Y-53069050D01*
X185439833Y-52879570D01*
X185439480Y-52875970D01*
X185379935Y-52678749D01*
X185283218Y-52496849D01*
X185153011Y-52337200D01*
X184994275Y-52205882D01*
X184983384Y-52199993D01*
X184816238Y-52109618D01*
X184813055Y-52107897D01*
X184809605Y-52106829D01*
X184809600Y-52106827D01*
X184675714Y-52065383D01*
X184616254Y-52046977D01*
X184411369Y-52025443D01*
X184407765Y-52025771D01*
X184407764Y-52025771D01*
X184407215Y-52025821D01*
X184206203Y-52044114D01*
X184157247Y-52058522D01*
X184012043Y-52101258D01*
X184012039Y-52101260D01*
X184008572Y-52102280D01*
X183912633Y-52152436D01*
X183829209Y-52196049D01*
X183829206Y-52196051D01*
X183826002Y-52197726D01*
X183823184Y-52199992D01*
X183823182Y-52199993D01*
X183668266Y-52324548D01*
X183668263Y-52324551D01*
X183665447Y-52326815D01*
X183663121Y-52329587D01*
X183663119Y-52329589D01*
X183535351Y-52481856D01*
X183535348Y-52481860D01*
X183533024Y-52484630D01*
X183433776Y-52665162D01*
X183371484Y-52861532D01*
X183371081Y-52865123D01*
X183371081Y-52865124D01*
X183369461Y-52879570D01*
X183348520Y-53066262D01*
X182918139Y-53066262D01*
X182899833Y-52879570D01*
X182899480Y-52875970D01*
X182839935Y-52678749D01*
X182743218Y-52496849D01*
X182613011Y-52337200D01*
X182454275Y-52205882D01*
X182443384Y-52199993D01*
X182276238Y-52109618D01*
X182273055Y-52107897D01*
X182269605Y-52106829D01*
X182269600Y-52106827D01*
X182135714Y-52065383D01*
X182076254Y-52046977D01*
X181871369Y-52025443D01*
X181867765Y-52025771D01*
X181867764Y-52025771D01*
X181867215Y-52025821D01*
X181666203Y-52044114D01*
X181617247Y-52058522D01*
X181472043Y-52101258D01*
X181472039Y-52101260D01*
X181468572Y-52102280D01*
X181372633Y-52152436D01*
X181289209Y-52196049D01*
X181289206Y-52196051D01*
X181286002Y-52197726D01*
X181283184Y-52199992D01*
X181283182Y-52199993D01*
X181128266Y-52324548D01*
X181128263Y-52324551D01*
X181125447Y-52326815D01*
X181123121Y-52329587D01*
X181123119Y-52329589D01*
X180995351Y-52481856D01*
X180995348Y-52481860D01*
X180993024Y-52484630D01*
X180893776Y-52665162D01*
X180831484Y-52861532D01*
X180831081Y-52865123D01*
X180831081Y-52865124D01*
X180829461Y-52879570D01*
X180808520Y-53066262D01*
X174179923Y-53066262D01*
X174208390Y-53009662D01*
X174327305Y-52684710D01*
X174408084Y-52348243D01*
X174449654Y-52004722D01*
X174455585Y-51816000D01*
X174435666Y-51470547D01*
X174425229Y-51410748D01*
X180813500Y-51410748D01*
X180825133Y-51469231D01*
X180869448Y-51535552D01*
X180935769Y-51579867D01*
X180980295Y-51588724D01*
X180990682Y-51590790D01*
X180990683Y-51590790D01*
X180994252Y-51591500D01*
X182733748Y-51591500D01*
X182737317Y-51590790D01*
X182737318Y-51590790D01*
X182747705Y-51588724D01*
X182792231Y-51579867D01*
X182858552Y-51535552D01*
X182902867Y-51469231D01*
X182914500Y-51410748D01*
X182914500Y-50526262D01*
X183348520Y-50526262D01*
X183348823Y-50529871D01*
X183348823Y-50529873D01*
X183363913Y-50709570D01*
X183365759Y-50731553D01*
X183422544Y-50929586D01*
X183424196Y-50932800D01*
X183424197Y-50932803D01*
X183445106Y-50973487D01*
X183516712Y-51112818D01*
X183644677Y-51274270D01*
X183647430Y-51276613D01*
X183647433Y-51276616D01*
X183678062Y-51302683D01*
X183801564Y-51407791D01*
X183848266Y-51433892D01*
X183978239Y-51506532D01*
X183978243Y-51506534D01*
X183981398Y-51508297D01*
X183984834Y-51509414D01*
X183984840Y-51509416D01*
X184109256Y-51549841D01*
X184177329Y-51571959D01*
X184241176Y-51579572D01*
X184378294Y-51595922D01*
X184378297Y-51595922D01*
X184381894Y-51596351D01*
X184454166Y-51590790D01*
X184583689Y-51580824D01*
X184583691Y-51580824D01*
X184587300Y-51580546D01*
X184748451Y-51535552D01*
X184782244Y-51526117D01*
X184782245Y-51526117D01*
X184785725Y-51525145D01*
X184816863Y-51509416D01*
X184966376Y-51433892D01*
X184966379Y-51433890D01*
X184969610Y-51432258D01*
X185131951Y-51305424D01*
X185266564Y-51149472D01*
X185268347Y-51146333D01*
X185268350Y-51146329D01*
X185317444Y-51059908D01*
X185368323Y-50970344D01*
X185380812Y-50932803D01*
X185432208Y-50778299D01*
X185433351Y-50774863D01*
X185438823Y-50731553D01*
X185458913Y-50572519D01*
X185458913Y-50572513D01*
X185459171Y-50570474D01*
X185459583Y-50541000D01*
X185439480Y-50335970D01*
X185379935Y-50138749D01*
X185283218Y-49956849D01*
X185153011Y-49797200D01*
X184994275Y-49665882D01*
X184983384Y-49659993D01*
X184816238Y-49569618D01*
X184813055Y-49567897D01*
X184809605Y-49566829D01*
X184809600Y-49566827D01*
X184684996Y-49528256D01*
X184616254Y-49506977D01*
X184411369Y-49485443D01*
X184407765Y-49485771D01*
X184407764Y-49485771D01*
X184407215Y-49485821D01*
X184206203Y-49504114D01*
X184157247Y-49518522D01*
X184012043Y-49561258D01*
X184012039Y-49561260D01*
X184008572Y-49562280D01*
X183923594Y-49606706D01*
X183829209Y-49656049D01*
X183829206Y-49656051D01*
X183826002Y-49657726D01*
X183823184Y-49659992D01*
X183823182Y-49659993D01*
X183668266Y-49784548D01*
X183668263Y-49784551D01*
X183665447Y-49786815D01*
X183663121Y-49789587D01*
X183663119Y-49789589D01*
X183535351Y-49941856D01*
X183535348Y-49941860D01*
X183533024Y-49944630D01*
X183433776Y-50125162D01*
X183371484Y-50321532D01*
X183371081Y-50325123D01*
X183371081Y-50325124D01*
X183369461Y-50339570D01*
X183348520Y-50526262D01*
X182914500Y-50526262D01*
X182914500Y-49671252D01*
X182902867Y-49612769D01*
X182858552Y-49546448D01*
X182852491Y-49542398D01*
X182798294Y-49506184D01*
X182798293Y-49506184D01*
X182792231Y-49502133D01*
X182747705Y-49493276D01*
X182737318Y-49491210D01*
X182737317Y-49491210D01*
X182733748Y-49490500D01*
X180994252Y-49490500D01*
X180990683Y-49491210D01*
X180990682Y-49491210D01*
X180980295Y-49493276D01*
X180935769Y-49502133D01*
X180929707Y-49506184D01*
X180929706Y-49506184D01*
X180875509Y-49542398D01*
X180869448Y-49546448D01*
X180825133Y-49612769D01*
X180813500Y-49671252D01*
X180813500Y-51410748D01*
X174425229Y-51410748D01*
X174396995Y-51248971D01*
X174376539Y-51131762D01*
X174376538Y-51131758D01*
X174376174Y-51129672D01*
X174277897Y-50797894D01*
X174142138Y-50479611D01*
X173970696Y-50179041D01*
X173765843Y-49900168D01*
X173530295Y-49646688D01*
X173267174Y-49421962D01*
X173265408Y-49420775D01*
X173265401Y-49420770D01*
X172981738Y-49230157D01*
X172981737Y-49230157D01*
X172979967Y-49228967D01*
X172746099Y-49108258D01*
X172711771Y-49071057D01*
X172709387Y-49020494D01*
X172740061Y-48980228D01*
X172780039Y-48968500D01*
X188320500Y-48968500D01*
X188368066Y-48985813D01*
X188393376Y-49029650D01*
X188394500Y-49042500D01*
X188394500Y-55657747D01*
X188377187Y-55705313D01*
X188333350Y-55730623D01*
X188283500Y-55721833D01*
X188255162Y-55692488D01*
X188170917Y-55534044D01*
X188170916Y-55534042D01*
X188169218Y-55530849D01*
X188039011Y-55371200D01*
X187880275Y-55239882D01*
X187869384Y-55233993D01*
X187702238Y-55143618D01*
X187699055Y-55141897D01*
X187695605Y-55140829D01*
X187695600Y-55140827D01*
X187559485Y-55098693D01*
X187502254Y-55080977D01*
X187297369Y-55059443D01*
X187293765Y-55059771D01*
X187293764Y-55059771D01*
X187215076Y-55066932D01*
X187092203Y-55078114D01*
X187043247Y-55092522D01*
X186898043Y-55135258D01*
X186898039Y-55135260D01*
X186894572Y-55136280D01*
X186870052Y-55149099D01*
X186715209Y-55230049D01*
X186715206Y-55230051D01*
X186712002Y-55231726D01*
X186709184Y-55233992D01*
X186709182Y-55233993D01*
X186554266Y-55358548D01*
X186554263Y-55358551D01*
X186551447Y-55360815D01*
X186549121Y-55363587D01*
X186549119Y-55363589D01*
X186421351Y-55515856D01*
X186421348Y-55515860D01*
X186419024Y-55518630D01*
X186319776Y-55699162D01*
X186318682Y-55702611D01*
X186261253Y-55883651D01*
X186257484Y-55895532D01*
X186257081Y-55899123D01*
X186257081Y-55899124D01*
X186255461Y-55913570D01*
X186234520Y-56100262D01*
X186234823Y-56103871D01*
X186234823Y-56103873D01*
X186239165Y-56155578D01*
X186251759Y-56305553D01*
X186308544Y-56503586D01*
X186310196Y-56506800D01*
X186310197Y-56506803D01*
X186331106Y-56547487D01*
X186402712Y-56686818D01*
X186530677Y-56848270D01*
X186533430Y-56850613D01*
X186533433Y-56850616D01*
X186564062Y-56876683D01*
X186687564Y-56981791D01*
X186734266Y-57007892D01*
X186864239Y-57080532D01*
X186864243Y-57080534D01*
X186867398Y-57082297D01*
X186870834Y-57083414D01*
X186870840Y-57083416D01*
X186995256Y-57123841D01*
X187063329Y-57145959D01*
X187127176Y-57153572D01*
X187264294Y-57169922D01*
X187264297Y-57169922D01*
X187267894Y-57170351D01*
X187336714Y-57165056D01*
X187469689Y-57154824D01*
X187469691Y-57154824D01*
X187473300Y-57154546D01*
X187671725Y-57099145D01*
X187702863Y-57083416D01*
X187852376Y-57007892D01*
X187852379Y-57007890D01*
X187855610Y-57006258D01*
X188017951Y-56879424D01*
X188152564Y-56723472D01*
X188154347Y-56720333D01*
X188154350Y-56720329D01*
X188252537Y-56547488D01*
X188254323Y-56544344D01*
X188254858Y-56544648D01*
X188288062Y-56510266D01*
X188338404Y-56504975D01*
X188380368Y-56533282D01*
X188394500Y-56576777D01*
X188394500Y-58197747D01*
X188377187Y-58245313D01*
X188333350Y-58270623D01*
X188283500Y-58261833D01*
X188255162Y-58232488D01*
X188170917Y-58074044D01*
X188170916Y-58074042D01*
X188169218Y-58070849D01*
X188039011Y-57911200D01*
X187880275Y-57779882D01*
X187869384Y-57773993D01*
X187702238Y-57683618D01*
X187699055Y-57681897D01*
X187695605Y-57680829D01*
X187695600Y-57680827D01*
X187570996Y-57642256D01*
X187502254Y-57620977D01*
X187297369Y-57599443D01*
X187293765Y-57599771D01*
X187293764Y-57599771D01*
X187293215Y-57599821D01*
X187092203Y-57618114D01*
X187043247Y-57632522D01*
X186898043Y-57675258D01*
X186898039Y-57675260D01*
X186894572Y-57676280D01*
X186798633Y-57726436D01*
X186715209Y-57770049D01*
X186715206Y-57770051D01*
X186712002Y-57771726D01*
X186709184Y-57773992D01*
X186709182Y-57773993D01*
X186554266Y-57898548D01*
X186554263Y-57898551D01*
X186551447Y-57900815D01*
X186549121Y-57903587D01*
X186549119Y-57903589D01*
X186421351Y-58055856D01*
X186421348Y-58055860D01*
X186419024Y-58058630D01*
X186319776Y-58239162D01*
X186257484Y-58435532D01*
X186257081Y-58439123D01*
X186257081Y-58439124D01*
X186255461Y-58453570D01*
X186234520Y-58640262D01*
X186234823Y-58643871D01*
X186234823Y-58643873D01*
X186245273Y-58768318D01*
X186251759Y-58845553D01*
X186308544Y-59043586D01*
X186310196Y-59046800D01*
X186310197Y-59046803D01*
X186331106Y-59087487D01*
X186402712Y-59226818D01*
X186530677Y-59388270D01*
X186533430Y-59390613D01*
X186533433Y-59390616D01*
X186564062Y-59416683D01*
X186687564Y-59521791D01*
X186734266Y-59547892D01*
X186864239Y-59620532D01*
X186864243Y-59620534D01*
X186867398Y-59622297D01*
X186870834Y-59623414D01*
X186870840Y-59623416D01*
X186995256Y-59663841D01*
X187063329Y-59685959D01*
X187127176Y-59693572D01*
X187264294Y-59709922D01*
X187264297Y-59709922D01*
X187267894Y-59710351D01*
X187336714Y-59705056D01*
X187469689Y-59694824D01*
X187469691Y-59694824D01*
X187473300Y-59694546D01*
X187671725Y-59639145D01*
X187702863Y-59623416D01*
X187852376Y-59547892D01*
X187852379Y-59547890D01*
X187855610Y-59546258D01*
X188017951Y-59419424D01*
X188152564Y-59263472D01*
X188154347Y-59260333D01*
X188154350Y-59260329D01*
X188252537Y-59087488D01*
X188254323Y-59084344D01*
X188254858Y-59084648D01*
X188288062Y-59050266D01*
X188338404Y-59044975D01*
X188380368Y-59073282D01*
X188394500Y-59116777D01*
X188394500Y-60737747D01*
X188377187Y-60785313D01*
X188333350Y-60810623D01*
X188283500Y-60801833D01*
X188255162Y-60772488D01*
X188170917Y-60614044D01*
X188170916Y-60614042D01*
X188169218Y-60610849D01*
X188039011Y-60451200D01*
X187880275Y-60319882D01*
X187869384Y-60313993D01*
X187702238Y-60223618D01*
X187699055Y-60221897D01*
X187695605Y-60220829D01*
X187695600Y-60220827D01*
X187552491Y-60176528D01*
X187502254Y-60160977D01*
X187297369Y-60139443D01*
X187293765Y-60139771D01*
X187293764Y-60139771D01*
X187293215Y-60139821D01*
X187092203Y-60158114D01*
X187077396Y-60162472D01*
X186898043Y-60215258D01*
X186898039Y-60215260D01*
X186894572Y-60216280D01*
X186835495Y-60247165D01*
X186715209Y-60310049D01*
X186715206Y-60310051D01*
X186712002Y-60311726D01*
X186709184Y-60313992D01*
X186709182Y-60313993D01*
X186554266Y-60438548D01*
X186554263Y-60438551D01*
X186551447Y-60440815D01*
X186549121Y-60443587D01*
X186549119Y-60443589D01*
X186421351Y-60595856D01*
X186421348Y-60595860D01*
X186419024Y-60598630D01*
X186319776Y-60779162D01*
X186318682Y-60782611D01*
X186266791Y-60946193D01*
X186257484Y-60975532D01*
X186257081Y-60979123D01*
X186257081Y-60979124D01*
X186255461Y-60993570D01*
X186234520Y-61180262D01*
X186234823Y-61183871D01*
X186234823Y-61183873D01*
X186238404Y-61226519D01*
X186251759Y-61385553D01*
X186308544Y-61583586D01*
X186310196Y-61586800D01*
X186310197Y-61586803D01*
X186331106Y-61627487D01*
X186402712Y-61766818D01*
X186530677Y-61928270D01*
X186533430Y-61930613D01*
X186533433Y-61930616D01*
X186598681Y-61986146D01*
X186687564Y-62061791D01*
X186734266Y-62087892D01*
X186864239Y-62160532D01*
X186864243Y-62160534D01*
X186867398Y-62162297D01*
X186870834Y-62163414D01*
X186870840Y-62163416D01*
X186995256Y-62203841D01*
X187063329Y-62225959D01*
X187127176Y-62233572D01*
X187264294Y-62249922D01*
X187264297Y-62249922D01*
X187267894Y-62250351D01*
X187352942Y-62243807D01*
X187469689Y-62234824D01*
X187469691Y-62234824D01*
X187473300Y-62234546D01*
X187671725Y-62179145D01*
X187702863Y-62163416D01*
X187852376Y-62087892D01*
X187852379Y-62087890D01*
X187855610Y-62086258D01*
X188017951Y-61959424D01*
X188047292Y-61925432D01*
X188150201Y-61806210D01*
X188150203Y-61806208D01*
X188152564Y-61803472D01*
X188154347Y-61800333D01*
X188154350Y-61800329D01*
X188252537Y-61627488D01*
X188254323Y-61624344D01*
X188254858Y-61624648D01*
X188288062Y-61590266D01*
X188338404Y-61584975D01*
X188380368Y-61613282D01*
X188394500Y-61656777D01*
X188394500Y-63277747D01*
X188377187Y-63325313D01*
X188333350Y-63350623D01*
X188283500Y-63341833D01*
X188255162Y-63312488D01*
X188170917Y-63154044D01*
X188170916Y-63154042D01*
X188169218Y-63150849D01*
X188039011Y-62991200D01*
X187919800Y-62892580D01*
X187883070Y-62862194D01*
X187883069Y-62862193D01*
X187880275Y-62859882D01*
X187869384Y-62853993D01*
X187702238Y-62763618D01*
X187699055Y-62761897D01*
X187695605Y-62760829D01*
X187695600Y-62760827D01*
X187567894Y-62721296D01*
X187502254Y-62700977D01*
X187297369Y-62679443D01*
X187293765Y-62679771D01*
X187293764Y-62679771D01*
X187293215Y-62679821D01*
X187092203Y-62698114D01*
X187043247Y-62712522D01*
X186898043Y-62755258D01*
X186898039Y-62755260D01*
X186894572Y-62756280D01*
X186798633Y-62806436D01*
X186715209Y-62850049D01*
X186715206Y-62850051D01*
X186712002Y-62851726D01*
X186709184Y-62853992D01*
X186709182Y-62853993D01*
X186554266Y-62978548D01*
X186554263Y-62978551D01*
X186551447Y-62980815D01*
X186549121Y-62983587D01*
X186549119Y-62983589D01*
X186421351Y-63135856D01*
X186421348Y-63135860D01*
X186419024Y-63138630D01*
X186319776Y-63319162D01*
X186257484Y-63515532D01*
X186257081Y-63519123D01*
X186257081Y-63519124D01*
X186255461Y-63533570D01*
X186234520Y-63720262D01*
X186234823Y-63723871D01*
X186234823Y-63723873D01*
X186238404Y-63766519D01*
X186251759Y-63925553D01*
X186308544Y-64123586D01*
X186310196Y-64126800D01*
X186310197Y-64126803D01*
X186389788Y-64281671D01*
X186402712Y-64306818D01*
X186530677Y-64468270D01*
X186533430Y-64470613D01*
X186533433Y-64470616D01*
X186564062Y-64496683D01*
X186687564Y-64601791D01*
X186734266Y-64627892D01*
X186864239Y-64700532D01*
X186864243Y-64700534D01*
X186867398Y-64702297D01*
X186870834Y-64703414D01*
X186870840Y-64703416D01*
X186995152Y-64743807D01*
X187063329Y-64765959D01*
X187127176Y-64773572D01*
X187264294Y-64789922D01*
X187264297Y-64789922D01*
X187267894Y-64790351D01*
X187336714Y-64785056D01*
X187469689Y-64774824D01*
X187469691Y-64774824D01*
X187473300Y-64774546D01*
X187671725Y-64719145D01*
X187702863Y-64703416D01*
X187852376Y-64627892D01*
X187852379Y-64627890D01*
X187855610Y-64626258D01*
X188017951Y-64499424D01*
X188054403Y-64457194D01*
X188150201Y-64346210D01*
X188150203Y-64346208D01*
X188152564Y-64343472D01*
X188154347Y-64340333D01*
X188154350Y-64340329D01*
X188252537Y-64167488D01*
X188254323Y-64164344D01*
X188254858Y-64164648D01*
X188288062Y-64130266D01*
X188338404Y-64124975D01*
X188380368Y-64153282D01*
X188394500Y-64196777D01*
X188394500Y-65817747D01*
X188377187Y-65865313D01*
X188333350Y-65890623D01*
X188283500Y-65881833D01*
X188255162Y-65852488D01*
X188170917Y-65694044D01*
X188170916Y-65694042D01*
X188169218Y-65690849D01*
X188039011Y-65531200D01*
X187880275Y-65399882D01*
X187869384Y-65393993D01*
X187702238Y-65303618D01*
X187699055Y-65301897D01*
X187695605Y-65300829D01*
X187695600Y-65300827D01*
X187570996Y-65262256D01*
X187502254Y-65240977D01*
X187297369Y-65219443D01*
X187293765Y-65219771D01*
X187293764Y-65219771D01*
X187293215Y-65219821D01*
X187092203Y-65238114D01*
X187043247Y-65252522D01*
X186898043Y-65295258D01*
X186898039Y-65295260D01*
X186894572Y-65296280D01*
X186809594Y-65340706D01*
X186715209Y-65390049D01*
X186715206Y-65390051D01*
X186712002Y-65391726D01*
X186709184Y-65393992D01*
X186709182Y-65393993D01*
X186554266Y-65518548D01*
X186554263Y-65518551D01*
X186551447Y-65520815D01*
X186549121Y-65523587D01*
X186549119Y-65523589D01*
X186421351Y-65675856D01*
X186421348Y-65675860D01*
X186419024Y-65678630D01*
X186319776Y-65859162D01*
X186257484Y-66055532D01*
X186257081Y-66059123D01*
X186257081Y-66059124D01*
X186253003Y-66095485D01*
X186234520Y-66260262D01*
X186234823Y-66263871D01*
X186234823Y-66263873D01*
X186251456Y-66461945D01*
X186251759Y-66465553D01*
X186308544Y-66663586D01*
X186310196Y-66666800D01*
X186310197Y-66666803D01*
X186331106Y-66707488D01*
X186402712Y-66846818D01*
X186530677Y-67008270D01*
X186533430Y-67010613D01*
X186533433Y-67010616D01*
X186561873Y-67034820D01*
X186687564Y-67141791D01*
X186734266Y-67167892D01*
X186864239Y-67240532D01*
X186864243Y-67240534D01*
X186867398Y-67242297D01*
X186870834Y-67243414D01*
X186870840Y-67243416D01*
X186995256Y-67283841D01*
X187063329Y-67305959D01*
X187127176Y-67313572D01*
X187264294Y-67329922D01*
X187264297Y-67329922D01*
X187267894Y-67330351D01*
X187340257Y-67324783D01*
X187469689Y-67314824D01*
X187469691Y-67314824D01*
X187473300Y-67314546D01*
X187634451Y-67269552D01*
X187668244Y-67260117D01*
X187668245Y-67260117D01*
X187671725Y-67259145D01*
X187702863Y-67243416D01*
X187852376Y-67167892D01*
X187852379Y-67167890D01*
X187855610Y-67166258D01*
X188017951Y-67039424D01*
X188152564Y-66883472D01*
X188154347Y-66880333D01*
X188154350Y-66880329D01*
X188252537Y-66707488D01*
X188254323Y-66704344D01*
X188254858Y-66704648D01*
X188288062Y-66670266D01*
X188338404Y-66664975D01*
X188380368Y-66693282D01*
X188394500Y-66736777D01*
X188394500Y-83799500D01*
X188377187Y-83847066D01*
X188333350Y-83872376D01*
X188320500Y-83873500D01*
X155849500Y-83873500D01*
X155801934Y-83856187D01*
X155776624Y-83812350D01*
X155775500Y-83799500D01*
X155775500Y-79280592D01*
X168445898Y-79280592D01*
X168454956Y-79626501D01*
X168503712Y-79969076D01*
X168591519Y-80303777D01*
X168592292Y-80305759D01*
X168592295Y-80305769D01*
X168694010Y-80566653D01*
X168717214Y-80626167D01*
X168879130Y-80931974D01*
X168880334Y-80933726D01*
X168880339Y-80933734D01*
X168987948Y-81090306D01*
X169075122Y-81217144D01*
X169076517Y-81218743D01*
X169261529Y-81430826D01*
X169302592Y-81477898D01*
X169558524Y-81710778D01*
X169560251Y-81712019D01*
X169560256Y-81712023D01*
X169837791Y-81911452D01*
X169837796Y-81911455D01*
X169839527Y-81912699D01*
X170141876Y-82080985D01*
X170143851Y-82081803D01*
X170143855Y-82081805D01*
X170283697Y-82139729D01*
X170461563Y-82213403D01*
X170606916Y-82254808D01*
X170792297Y-82307616D01*
X170792303Y-82307617D01*
X170794352Y-82308201D01*
X170796462Y-82308546D01*
X170796464Y-82308547D01*
X171133728Y-82363776D01*
X171133734Y-82363777D01*
X171135831Y-82364120D01*
X171291551Y-82371464D01*
X171479348Y-82380320D01*
X171479352Y-82380320D01*
X171481474Y-82380420D01*
X171826700Y-82356885D01*
X171828784Y-82356499D01*
X171828790Y-82356498D01*
X172164831Y-82294217D01*
X172164838Y-82294215D01*
X172166933Y-82293827D01*
X172309395Y-82250000D01*
X186644318Y-82250000D01*
X186644951Y-82254808D01*
X186658409Y-82357029D01*
X186664956Y-82406762D01*
X186725464Y-82552841D01*
X186728414Y-82556685D01*
X186728416Y-82556689D01*
X186818763Y-82674431D01*
X186821718Y-82678282D01*
X186825569Y-82681237D01*
X186943311Y-82771584D01*
X186943315Y-82771586D01*
X186947159Y-82774536D01*
X187093238Y-82835044D01*
X187098040Y-82835676D01*
X187098043Y-82835677D01*
X187245192Y-82855049D01*
X187250000Y-82855682D01*
X187254808Y-82855049D01*
X187401957Y-82835677D01*
X187401960Y-82835676D01*
X187406762Y-82835044D01*
X187552841Y-82774536D01*
X187556685Y-82771586D01*
X187556689Y-82771584D01*
X187674431Y-82681237D01*
X187678282Y-82678282D01*
X187681237Y-82674431D01*
X187771584Y-82556689D01*
X187771586Y-82556685D01*
X187774536Y-82552841D01*
X187835044Y-82406762D01*
X187841592Y-82357029D01*
X187855049Y-82254808D01*
X187855682Y-82250000D01*
X187835044Y-82093238D01*
X187774536Y-81947159D01*
X187771586Y-81943315D01*
X187771584Y-81943311D01*
X187681237Y-81825569D01*
X187678282Y-81821718D01*
X187674431Y-81818763D01*
X187556689Y-81728416D01*
X187556685Y-81728414D01*
X187552841Y-81725464D01*
X187406762Y-81664956D01*
X187401960Y-81664324D01*
X187401957Y-81664323D01*
X187254808Y-81644951D01*
X187250000Y-81644318D01*
X187245192Y-81644951D01*
X187098043Y-81664323D01*
X187098040Y-81664324D01*
X187093238Y-81664956D01*
X186947159Y-81725464D01*
X186943315Y-81728414D01*
X186943311Y-81728416D01*
X186825569Y-81818763D01*
X186821718Y-81821718D01*
X186818763Y-81825569D01*
X186728416Y-81943311D01*
X186728414Y-81943315D01*
X186725464Y-81947159D01*
X186664956Y-82093238D01*
X186644318Y-82250000D01*
X172309395Y-82250000D01*
X172497663Y-82192081D01*
X172499611Y-82191226D01*
X172499616Y-82191224D01*
X172812548Y-82053856D01*
X172812549Y-82053856D01*
X172814507Y-82052996D01*
X172816350Y-82051919D01*
X172816356Y-82051916D01*
X173111424Y-81879492D01*
X173111427Y-81879490D01*
X173113265Y-81878416D01*
X173188780Y-81821718D01*
X173388275Y-81671933D01*
X173388279Y-81671930D01*
X173389978Y-81670654D01*
X173640977Y-81432465D01*
X173719893Y-81338082D01*
X173861563Y-81168648D01*
X173861569Y-81168640D01*
X173862936Y-81167005D01*
X174052913Y-80877792D01*
X174208390Y-80568662D01*
X174327305Y-80243710D01*
X174349409Y-80151643D01*
X174398177Y-79948507D01*
X174408084Y-79907243D01*
X174433836Y-79694440D01*
X174944901Y-79694440D01*
X174945584Y-79699663D01*
X174945584Y-79699666D01*
X174960165Y-79811167D01*
X174961633Y-79822394D01*
X175013605Y-79940510D01*
X175096639Y-80039291D01*
X175204060Y-80110796D01*
X175209092Y-80112368D01*
X175209094Y-80112369D01*
X175244714Y-80123497D01*
X175327233Y-80149278D01*
X175332501Y-80149375D01*
X175332504Y-80149375D01*
X175386552Y-80150365D01*
X175456255Y-80151643D01*
X175461338Y-80150257D01*
X175461340Y-80150257D01*
X175575671Y-80119086D01*
X175580755Y-80117700D01*
X175690724Y-80050179D01*
X175777322Y-79954507D01*
X175833588Y-79838375D01*
X175854997Y-79711120D01*
X175855133Y-79700000D01*
X175853591Y-79689234D01*
X175853477Y-79688440D01*
X176201901Y-79688440D01*
X176202584Y-79693663D01*
X176202584Y-79693666D01*
X176204867Y-79711120D01*
X176218633Y-79816394D01*
X176220756Y-79821219D01*
X176230394Y-79843122D01*
X176270605Y-79934510D01*
X176353639Y-80033291D01*
X176461060Y-80104796D01*
X176466092Y-80106368D01*
X176466094Y-80106369D01*
X176493538Y-80114943D01*
X176584233Y-80143278D01*
X176589501Y-80143375D01*
X176589504Y-80143375D01*
X176643552Y-80144365D01*
X176713255Y-80145643D01*
X176718338Y-80144257D01*
X176718340Y-80144257D01*
X176812559Y-80118569D01*
X176837755Y-80111700D01*
X176947724Y-80044179D01*
X177034322Y-79948507D01*
X177090588Y-79832375D01*
X177104002Y-79752644D01*
X177111522Y-79707944D01*
X177111522Y-79707943D01*
X177111997Y-79705120D01*
X177112133Y-79694000D01*
X177102767Y-79628599D01*
X177094586Y-79571472D01*
X177094585Y-79571469D01*
X177093839Y-79566259D01*
X177045338Y-79459586D01*
X177042610Y-79453586D01*
X177042608Y-79453583D01*
X177040428Y-79448788D01*
X177033003Y-79440170D01*
X176959633Y-79355020D01*
X176959632Y-79355019D01*
X176956193Y-79351028D01*
X176951774Y-79348164D01*
X176951772Y-79348162D01*
X176852329Y-79283708D01*
X176852330Y-79283708D01*
X176847906Y-79280841D01*
X176842857Y-79279331D01*
X176842855Y-79279330D01*
X176729326Y-79245377D01*
X176729325Y-79245377D01*
X176724273Y-79243866D01*
X176658771Y-79243466D01*
X176600501Y-79243110D01*
X176600500Y-79243110D01*
X176595231Y-79243078D01*
X176471155Y-79278539D01*
X176362019Y-79347399D01*
X176358531Y-79351348D01*
X176358529Y-79351350D01*
X176336174Y-79376663D01*
X176276596Y-79444122D01*
X176274357Y-79448891D01*
X176274355Y-79448894D01*
X176230892Y-79541469D01*
X176221754Y-79560932D01*
X176201901Y-79688440D01*
X175853477Y-79688440D01*
X175837586Y-79577472D01*
X175837585Y-79577469D01*
X175836839Y-79572259D01*
X175833701Y-79565357D01*
X175785610Y-79459586D01*
X175785608Y-79459583D01*
X175783428Y-79454788D01*
X175778350Y-79448894D01*
X175702633Y-79361020D01*
X175702632Y-79361019D01*
X175699193Y-79357028D01*
X175694774Y-79354164D01*
X175694772Y-79354162D01*
X175595329Y-79289708D01*
X175595330Y-79289708D01*
X175590906Y-79286841D01*
X175585857Y-79285331D01*
X175585855Y-79285330D01*
X175472326Y-79251377D01*
X175472325Y-79251377D01*
X175467273Y-79249866D01*
X175401771Y-79249466D01*
X175343501Y-79249110D01*
X175343500Y-79249110D01*
X175338231Y-79249078D01*
X175214155Y-79284539D01*
X175105019Y-79353399D01*
X175101531Y-79357348D01*
X175101529Y-79357350D01*
X175084473Y-79376663D01*
X175019596Y-79450122D01*
X175017357Y-79454891D01*
X175017355Y-79454894D01*
X174973892Y-79547469D01*
X174964754Y-79566932D01*
X174944901Y-79694440D01*
X174433836Y-79694440D01*
X174449654Y-79563722D01*
X174453074Y-79454894D01*
X174455533Y-79376663D01*
X174455533Y-79376657D01*
X174455585Y-79375000D01*
X174435666Y-79029547D01*
X174376174Y-78688672D01*
X174277897Y-78356894D01*
X174142138Y-78038611D01*
X173970696Y-77738041D01*
X173765843Y-77459168D01*
X173530295Y-77205688D01*
X173267174Y-76980962D01*
X173265408Y-76979775D01*
X173265401Y-76979770D01*
X172981738Y-76789157D01*
X172981737Y-76789157D01*
X172979967Y-76787967D01*
X172672482Y-76629261D01*
X172348793Y-76506950D01*
X172185296Y-76465882D01*
X172015249Y-76423169D01*
X172015246Y-76423168D01*
X172013190Y-76422652D01*
X172011087Y-76422375D01*
X172011081Y-76422374D01*
X171672231Y-76377764D01*
X171672224Y-76377764D01*
X171670124Y-76377487D01*
X171512868Y-76375016D01*
X171326269Y-76372084D01*
X171326261Y-76372084D01*
X171324139Y-76372051D01*
X170979823Y-76406419D01*
X170641739Y-76480133D01*
X170639731Y-76480820D01*
X170639722Y-76480823D01*
X170436374Y-76550445D01*
X170314367Y-76592217D01*
X170312431Y-76593140D01*
X170312432Y-76593140D01*
X170003967Y-76740270D01*
X170003958Y-76740275D01*
X170002048Y-76741186D01*
X170000251Y-76742313D01*
X170000246Y-76742316D01*
X169710736Y-76923925D01*
X169710731Y-76923929D01*
X169708921Y-76925064D01*
X169438871Y-77141415D01*
X169195477Y-77387371D01*
X168981966Y-77659672D01*
X168801168Y-77954709D01*
X168800271Y-77956641D01*
X168800268Y-77956647D01*
X168761311Y-78040573D01*
X168655478Y-78268570D01*
X168546828Y-78597097D01*
X168546396Y-78599184D01*
X168546395Y-78599187D01*
X168527864Y-78688672D01*
X168476658Y-78935935D01*
X168445898Y-79280592D01*
X155775500Y-79280592D01*
X155775500Y-73645262D01*
X156424520Y-73645262D01*
X156424823Y-73648871D01*
X156424823Y-73648873D01*
X156431728Y-73731101D01*
X156441759Y-73850553D01*
X156498544Y-74048586D01*
X156500196Y-74051800D01*
X156500197Y-74051803D01*
X156521106Y-74092487D01*
X156592712Y-74231818D01*
X156720677Y-74393270D01*
X156723430Y-74395613D01*
X156723433Y-74395616D01*
X156754062Y-74421683D01*
X156877564Y-74526791D01*
X156924266Y-74552892D01*
X157054239Y-74625532D01*
X157054243Y-74625534D01*
X157057398Y-74627297D01*
X157060834Y-74628414D01*
X157060840Y-74628416D01*
X157185256Y-74668841D01*
X157253329Y-74690959D01*
X157317176Y-74698572D01*
X157454294Y-74714922D01*
X157454297Y-74714922D01*
X157457894Y-74715351D01*
X157530166Y-74709790D01*
X157659689Y-74699824D01*
X157659691Y-74699824D01*
X157663300Y-74699546D01*
X157824451Y-74654552D01*
X157858244Y-74645117D01*
X157858245Y-74645117D01*
X157861725Y-74644145D01*
X157892863Y-74628416D01*
X158042376Y-74552892D01*
X158042379Y-74552890D01*
X158045610Y-74551258D01*
X158207951Y-74424424D01*
X158342564Y-74268472D01*
X158344347Y-74265333D01*
X158344350Y-74265329D01*
X158393443Y-74178908D01*
X158444323Y-74089344D01*
X158456812Y-74051803D01*
X158508208Y-73897299D01*
X158509351Y-73893863D01*
X158514823Y-73850553D01*
X158534913Y-73691519D01*
X158534913Y-73691513D01*
X158535171Y-73689474D01*
X158535583Y-73660000D01*
X158534138Y-73645262D01*
X158964520Y-73645262D01*
X158964823Y-73648871D01*
X158964823Y-73648873D01*
X158971728Y-73731101D01*
X158981759Y-73850553D01*
X159038544Y-74048586D01*
X159040196Y-74051800D01*
X159040197Y-74051803D01*
X159061106Y-74092487D01*
X159132712Y-74231818D01*
X159260677Y-74393270D01*
X159263430Y-74395613D01*
X159263433Y-74395616D01*
X159294062Y-74421683D01*
X159417564Y-74526791D01*
X159464266Y-74552892D01*
X159594239Y-74625532D01*
X159594243Y-74625534D01*
X159597398Y-74627297D01*
X159600834Y-74628414D01*
X159600840Y-74628416D01*
X159725256Y-74668841D01*
X159793329Y-74690959D01*
X159857176Y-74698572D01*
X159994294Y-74714922D01*
X159994297Y-74714922D01*
X159997894Y-74715351D01*
X160070166Y-74709790D01*
X160199689Y-74699824D01*
X160199691Y-74699824D01*
X160203300Y-74699546D01*
X160364451Y-74654552D01*
X160398244Y-74645117D01*
X160398245Y-74645117D01*
X160401725Y-74644145D01*
X160432863Y-74628416D01*
X160582376Y-74552892D01*
X160582379Y-74552890D01*
X160585610Y-74551258D01*
X160747951Y-74424424D01*
X160882564Y-74268472D01*
X160884347Y-74265333D01*
X160884350Y-74265329D01*
X160933443Y-74178908D01*
X160984323Y-74089344D01*
X160996812Y-74051803D01*
X161048208Y-73897299D01*
X161049351Y-73893863D01*
X161054823Y-73850553D01*
X161074913Y-73691519D01*
X161074913Y-73691513D01*
X161075171Y-73689474D01*
X161075583Y-73660000D01*
X161074138Y-73645262D01*
X161504520Y-73645262D01*
X161504823Y-73648871D01*
X161504823Y-73648873D01*
X161511728Y-73731101D01*
X161521759Y-73850553D01*
X161578544Y-74048586D01*
X161580196Y-74051800D01*
X161580197Y-74051803D01*
X161601106Y-74092487D01*
X161672712Y-74231818D01*
X161800677Y-74393270D01*
X161803430Y-74395613D01*
X161803433Y-74395616D01*
X161834062Y-74421683D01*
X161957564Y-74526791D01*
X162004266Y-74552892D01*
X162134239Y-74625532D01*
X162134243Y-74625534D01*
X162137398Y-74627297D01*
X162140834Y-74628414D01*
X162140840Y-74628416D01*
X162265256Y-74668841D01*
X162333329Y-74690959D01*
X162397176Y-74698572D01*
X162534294Y-74714922D01*
X162534297Y-74714922D01*
X162537894Y-74715351D01*
X162610166Y-74709790D01*
X162739689Y-74699824D01*
X162739691Y-74699824D01*
X162743300Y-74699546D01*
X162904451Y-74654552D01*
X162938244Y-74645117D01*
X162938245Y-74645117D01*
X162941725Y-74644145D01*
X162972863Y-74628416D01*
X163122376Y-74552892D01*
X163122379Y-74552890D01*
X163125610Y-74551258D01*
X163287951Y-74424424D01*
X163422564Y-74268472D01*
X163424347Y-74265333D01*
X163424350Y-74265329D01*
X163473443Y-74178908D01*
X163524323Y-74089344D01*
X163536812Y-74051803D01*
X163588208Y-73897299D01*
X163589351Y-73893863D01*
X163594823Y-73850553D01*
X163614913Y-73691519D01*
X163614913Y-73691513D01*
X163615171Y-73689474D01*
X163615583Y-73660000D01*
X163614138Y-73645262D01*
X164044520Y-73645262D01*
X164044823Y-73648871D01*
X164044823Y-73648873D01*
X164051728Y-73731101D01*
X164061759Y-73850553D01*
X164118544Y-74048586D01*
X164120196Y-74051800D01*
X164120197Y-74051803D01*
X164141106Y-74092487D01*
X164212712Y-74231818D01*
X164340677Y-74393270D01*
X164343430Y-74395613D01*
X164343433Y-74395616D01*
X164374062Y-74421683D01*
X164497564Y-74526791D01*
X164544266Y-74552892D01*
X164674239Y-74625532D01*
X164674243Y-74625534D01*
X164677398Y-74627297D01*
X164680834Y-74628414D01*
X164680840Y-74628416D01*
X164805256Y-74668841D01*
X164873329Y-74690959D01*
X164937176Y-74698572D01*
X165074294Y-74714922D01*
X165074297Y-74714922D01*
X165077894Y-74715351D01*
X165150166Y-74709790D01*
X165279689Y-74699824D01*
X165279691Y-74699824D01*
X165283300Y-74699546D01*
X165444451Y-74654552D01*
X165478244Y-74645117D01*
X165478245Y-74645117D01*
X165481725Y-74644145D01*
X165512863Y-74628416D01*
X165662376Y-74552892D01*
X165662379Y-74552890D01*
X165665610Y-74551258D01*
X165827951Y-74424424D01*
X165962564Y-74268472D01*
X165964347Y-74265333D01*
X165964350Y-74265329D01*
X166013443Y-74178908D01*
X166064323Y-74089344D01*
X166076812Y-74051803D01*
X166128208Y-73897299D01*
X166129351Y-73893863D01*
X166134823Y-73850553D01*
X166154913Y-73691519D01*
X166154913Y-73691513D01*
X166155171Y-73689474D01*
X166155583Y-73660000D01*
X166154138Y-73645262D01*
X166584520Y-73645262D01*
X166584823Y-73648871D01*
X166584823Y-73648873D01*
X166591728Y-73731101D01*
X166601759Y-73850553D01*
X166658544Y-74048586D01*
X166660196Y-74051800D01*
X166660197Y-74051803D01*
X166681106Y-74092487D01*
X166752712Y-74231818D01*
X166880677Y-74393270D01*
X166883430Y-74395613D01*
X166883433Y-74395616D01*
X166914062Y-74421683D01*
X167037564Y-74526791D01*
X167084266Y-74552892D01*
X167214239Y-74625532D01*
X167214243Y-74625534D01*
X167217398Y-74627297D01*
X167220834Y-74628414D01*
X167220840Y-74628416D01*
X167345256Y-74668841D01*
X167413329Y-74690959D01*
X167477176Y-74698572D01*
X167614294Y-74714922D01*
X167614297Y-74714922D01*
X167617894Y-74715351D01*
X167690166Y-74709790D01*
X167819689Y-74699824D01*
X167819691Y-74699824D01*
X167823300Y-74699546D01*
X167984451Y-74654552D01*
X168018244Y-74645117D01*
X168018245Y-74645117D01*
X168021725Y-74644145D01*
X168052863Y-74628416D01*
X168202376Y-74552892D01*
X168202379Y-74552890D01*
X168205610Y-74551258D01*
X168367951Y-74424424D01*
X168502564Y-74268472D01*
X168504347Y-74265333D01*
X168504350Y-74265329D01*
X168553443Y-74178908D01*
X168604323Y-74089344D01*
X168616812Y-74051803D01*
X168668208Y-73897299D01*
X168669351Y-73893863D01*
X168674823Y-73850553D01*
X168694913Y-73691519D01*
X168694913Y-73691513D01*
X168695171Y-73689474D01*
X168695583Y-73660000D01*
X168694138Y-73645262D01*
X169124520Y-73645262D01*
X169124823Y-73648871D01*
X169124823Y-73648873D01*
X169131728Y-73731101D01*
X169141759Y-73850553D01*
X169198544Y-74048586D01*
X169200196Y-74051800D01*
X169200197Y-74051803D01*
X169221106Y-74092487D01*
X169292712Y-74231818D01*
X169420677Y-74393270D01*
X169423430Y-74395613D01*
X169423433Y-74395616D01*
X169454062Y-74421683D01*
X169577564Y-74526791D01*
X169624266Y-74552892D01*
X169754239Y-74625532D01*
X169754243Y-74625534D01*
X169757398Y-74627297D01*
X169760834Y-74628414D01*
X169760840Y-74628416D01*
X169885256Y-74668841D01*
X169953329Y-74690959D01*
X170017176Y-74698572D01*
X170154294Y-74714922D01*
X170154297Y-74714922D01*
X170157894Y-74715351D01*
X170230166Y-74709790D01*
X170359689Y-74699824D01*
X170359691Y-74699824D01*
X170363300Y-74699546D01*
X170524451Y-74654552D01*
X170558244Y-74645117D01*
X170558245Y-74645117D01*
X170561725Y-74644145D01*
X170592863Y-74628416D01*
X170742376Y-74552892D01*
X170742379Y-74552890D01*
X170745610Y-74551258D01*
X170907951Y-74424424D01*
X171042564Y-74268472D01*
X171044347Y-74265333D01*
X171044350Y-74265329D01*
X171093443Y-74178908D01*
X171144323Y-74089344D01*
X171156812Y-74051803D01*
X171208208Y-73897299D01*
X171209351Y-73893863D01*
X171214823Y-73850553D01*
X171234913Y-73691519D01*
X171234913Y-73691513D01*
X171235171Y-73689474D01*
X171235583Y-73660000D01*
X171234138Y-73645262D01*
X171664520Y-73645262D01*
X171664823Y-73648871D01*
X171664823Y-73648873D01*
X171671728Y-73731101D01*
X171681759Y-73850553D01*
X171738544Y-74048586D01*
X171740196Y-74051800D01*
X171740197Y-74051803D01*
X171761106Y-74092487D01*
X171832712Y-74231818D01*
X171960677Y-74393270D01*
X171963430Y-74395613D01*
X171963433Y-74395616D01*
X171994062Y-74421683D01*
X172117564Y-74526791D01*
X172164266Y-74552892D01*
X172294239Y-74625532D01*
X172294243Y-74625534D01*
X172297398Y-74627297D01*
X172300834Y-74628414D01*
X172300840Y-74628416D01*
X172425256Y-74668841D01*
X172493329Y-74690959D01*
X172557176Y-74698572D01*
X172694294Y-74714922D01*
X172694297Y-74714922D01*
X172697894Y-74715351D01*
X172770166Y-74709790D01*
X172899689Y-74699824D01*
X172899691Y-74699824D01*
X172903300Y-74699546D01*
X173064451Y-74654552D01*
X173098244Y-74645117D01*
X173098245Y-74645117D01*
X173101725Y-74644145D01*
X173132863Y-74628416D01*
X173282376Y-74552892D01*
X173282379Y-74552890D01*
X173285610Y-74551258D01*
X173447951Y-74424424D01*
X173582564Y-74268472D01*
X173584347Y-74265333D01*
X173584350Y-74265329D01*
X173633443Y-74178908D01*
X173684323Y-74089344D01*
X173696812Y-74051803D01*
X173748208Y-73897299D01*
X173749351Y-73893863D01*
X173754823Y-73850553D01*
X173774913Y-73691519D01*
X173774913Y-73691513D01*
X173775171Y-73689474D01*
X173775583Y-73660000D01*
X173774138Y-73645262D01*
X174204520Y-73645262D01*
X174204823Y-73648871D01*
X174204823Y-73648873D01*
X174211728Y-73731101D01*
X174221759Y-73850553D01*
X174278544Y-74048586D01*
X174280196Y-74051800D01*
X174280197Y-74051803D01*
X174301106Y-74092487D01*
X174372712Y-74231818D01*
X174500677Y-74393270D01*
X174503430Y-74395613D01*
X174503433Y-74395616D01*
X174534062Y-74421683D01*
X174657564Y-74526791D01*
X174704266Y-74552892D01*
X174834239Y-74625532D01*
X174834243Y-74625534D01*
X174837398Y-74627297D01*
X174840834Y-74628414D01*
X174840840Y-74628416D01*
X174965256Y-74668841D01*
X175033329Y-74690959D01*
X175097176Y-74698572D01*
X175234294Y-74714922D01*
X175234297Y-74714922D01*
X175237894Y-74715351D01*
X175310166Y-74709790D01*
X175439689Y-74699824D01*
X175439691Y-74699824D01*
X175443300Y-74699546D01*
X175604451Y-74654552D01*
X175638244Y-74645117D01*
X175638245Y-74645117D01*
X175641725Y-74644145D01*
X175672863Y-74628416D01*
X175822376Y-74552892D01*
X175822379Y-74552890D01*
X175825610Y-74551258D01*
X175987951Y-74424424D01*
X176122564Y-74268472D01*
X176124347Y-74265333D01*
X176124350Y-74265329D01*
X176173443Y-74178908D01*
X176224323Y-74089344D01*
X176236812Y-74051803D01*
X176288208Y-73897299D01*
X176289351Y-73893863D01*
X176294823Y-73850553D01*
X176314913Y-73691519D01*
X176314913Y-73691513D01*
X176315171Y-73689474D01*
X176315583Y-73660000D01*
X176314138Y-73645262D01*
X176744520Y-73645262D01*
X176744823Y-73648871D01*
X176744823Y-73648873D01*
X176751728Y-73731101D01*
X176761759Y-73850553D01*
X176818544Y-74048586D01*
X176820196Y-74051800D01*
X176820197Y-74051803D01*
X176841106Y-74092487D01*
X176912712Y-74231818D01*
X177040677Y-74393270D01*
X177043430Y-74395613D01*
X177043433Y-74395616D01*
X177074062Y-74421683D01*
X177197564Y-74526791D01*
X177244266Y-74552892D01*
X177374239Y-74625532D01*
X177374243Y-74625534D01*
X177377398Y-74627297D01*
X177380834Y-74628414D01*
X177380840Y-74628416D01*
X177505256Y-74668841D01*
X177573329Y-74690959D01*
X177637176Y-74698572D01*
X177774294Y-74714922D01*
X177774297Y-74714922D01*
X177777894Y-74715351D01*
X177850166Y-74709790D01*
X177979689Y-74699824D01*
X177979691Y-74699824D01*
X177983300Y-74699546D01*
X178144451Y-74654552D01*
X178178244Y-74645117D01*
X178178245Y-74645117D01*
X178181725Y-74644145D01*
X178212863Y-74628416D01*
X178362376Y-74552892D01*
X178362379Y-74552890D01*
X178365610Y-74551258D01*
X178527951Y-74424424D01*
X178662564Y-74268472D01*
X178664347Y-74265333D01*
X178664350Y-74265329D01*
X178713443Y-74178908D01*
X178764323Y-74089344D01*
X178776812Y-74051803D01*
X178828208Y-73897299D01*
X178829351Y-73893863D01*
X178834823Y-73850553D01*
X178854913Y-73691519D01*
X178854913Y-73691513D01*
X178855171Y-73689474D01*
X178855583Y-73660000D01*
X178854138Y-73645262D01*
X179284520Y-73645262D01*
X179284823Y-73648871D01*
X179284823Y-73648873D01*
X179291728Y-73731101D01*
X179301759Y-73850553D01*
X179358544Y-74048586D01*
X179360196Y-74051800D01*
X179360197Y-74051803D01*
X179381106Y-74092487D01*
X179452712Y-74231818D01*
X179580677Y-74393270D01*
X179583430Y-74395613D01*
X179583433Y-74395616D01*
X179614062Y-74421683D01*
X179737564Y-74526791D01*
X179784266Y-74552892D01*
X179914239Y-74625532D01*
X179914243Y-74625534D01*
X179917398Y-74627297D01*
X179920834Y-74628414D01*
X179920840Y-74628416D01*
X180045256Y-74668841D01*
X180113329Y-74690959D01*
X180177176Y-74698572D01*
X180314294Y-74714922D01*
X180314297Y-74714922D01*
X180317894Y-74715351D01*
X180390166Y-74709790D01*
X180519689Y-74699824D01*
X180519691Y-74699824D01*
X180523300Y-74699546D01*
X180684451Y-74654552D01*
X180718244Y-74645117D01*
X180718245Y-74645117D01*
X180721725Y-74644145D01*
X180752863Y-74628416D01*
X180902376Y-74552892D01*
X180902379Y-74552890D01*
X180905610Y-74551258D01*
X181067951Y-74424424D01*
X181202564Y-74268472D01*
X181204347Y-74265333D01*
X181204350Y-74265329D01*
X181253443Y-74178908D01*
X181304323Y-74089344D01*
X181316812Y-74051803D01*
X181368208Y-73897299D01*
X181369351Y-73893863D01*
X181374823Y-73850553D01*
X181394913Y-73691519D01*
X181394913Y-73691513D01*
X181395171Y-73689474D01*
X181395583Y-73660000D01*
X181394138Y-73645262D01*
X181824520Y-73645262D01*
X181824823Y-73648871D01*
X181824823Y-73648873D01*
X181831728Y-73731101D01*
X181841759Y-73850553D01*
X181898544Y-74048586D01*
X181900196Y-74051800D01*
X181900197Y-74051803D01*
X181921106Y-74092487D01*
X181992712Y-74231818D01*
X182120677Y-74393270D01*
X182123430Y-74395613D01*
X182123433Y-74395616D01*
X182154062Y-74421683D01*
X182277564Y-74526791D01*
X182324266Y-74552892D01*
X182454239Y-74625532D01*
X182454243Y-74625534D01*
X182457398Y-74627297D01*
X182460834Y-74628414D01*
X182460840Y-74628416D01*
X182585256Y-74668841D01*
X182653329Y-74690959D01*
X182717176Y-74698572D01*
X182854294Y-74714922D01*
X182854297Y-74714922D01*
X182857894Y-74715351D01*
X182930166Y-74709790D01*
X183059689Y-74699824D01*
X183059691Y-74699824D01*
X183063300Y-74699546D01*
X183224451Y-74654552D01*
X183258244Y-74645117D01*
X183258245Y-74645117D01*
X183261725Y-74644145D01*
X183292863Y-74628416D01*
X183442376Y-74552892D01*
X183442379Y-74552890D01*
X183445610Y-74551258D01*
X183607951Y-74424424D01*
X183742564Y-74268472D01*
X183744347Y-74265333D01*
X183744350Y-74265329D01*
X183793443Y-74178908D01*
X183844323Y-74089344D01*
X183856812Y-74051803D01*
X183908208Y-73897299D01*
X183909351Y-73893863D01*
X183914823Y-73850553D01*
X183934913Y-73691519D01*
X183934913Y-73691513D01*
X183935171Y-73689474D01*
X183935583Y-73660000D01*
X183934138Y-73645262D01*
X184364520Y-73645262D01*
X184364823Y-73648871D01*
X184364823Y-73648873D01*
X184369240Y-73701470D01*
X184369500Y-73707662D01*
X184369500Y-74529748D01*
X184381133Y-74588231D01*
X184425448Y-74654552D01*
X184491769Y-74698867D01*
X184536295Y-74707724D01*
X184546682Y-74709790D01*
X184546683Y-74709790D01*
X184550252Y-74710500D01*
X185352818Y-74710500D01*
X185361580Y-74711021D01*
X185394294Y-74714922D01*
X185394297Y-74714922D01*
X185397894Y-74715351D01*
X185458106Y-74710718D01*
X185463783Y-74710500D01*
X186289748Y-74710500D01*
X186293317Y-74709790D01*
X186293318Y-74709790D01*
X186303705Y-74707724D01*
X186348231Y-74698867D01*
X186414552Y-74654552D01*
X186458867Y-74588231D01*
X186470500Y-74529748D01*
X186470500Y-73731101D01*
X186471084Y-73721826D01*
X186474912Y-73691525D01*
X186474912Y-73691523D01*
X186475171Y-73689474D01*
X186475583Y-73660000D01*
X186470853Y-73611759D01*
X186470500Y-73604538D01*
X186470500Y-72790252D01*
X186458867Y-72731769D01*
X186414552Y-72665448D01*
X186408491Y-72661398D01*
X186354294Y-72625184D01*
X186354293Y-72625184D01*
X186348231Y-72621133D01*
X186303705Y-72612276D01*
X186293318Y-72610210D01*
X186293317Y-72610210D01*
X186289748Y-72609500D01*
X185479366Y-72609500D01*
X185471631Y-72609095D01*
X185463274Y-72608217D01*
X185427369Y-72604443D01*
X185423765Y-72604771D01*
X185423764Y-72604771D01*
X185423215Y-72604821D01*
X185376251Y-72609095D01*
X185375152Y-72609195D01*
X185368445Y-72609500D01*
X184550252Y-72609500D01*
X184546683Y-72610210D01*
X184546682Y-72610210D01*
X184536295Y-72612276D01*
X184491769Y-72621133D01*
X184485707Y-72625184D01*
X184485706Y-72625184D01*
X184431509Y-72661398D01*
X184425448Y-72665448D01*
X184381133Y-72731769D01*
X184369500Y-72790252D01*
X184369500Y-73596725D01*
X184369039Y-73604974D01*
X184364520Y-73645262D01*
X183934138Y-73645262D01*
X183915480Y-73454970D01*
X183855935Y-73257749D01*
X183759218Y-73075849D01*
X183629011Y-72916200D01*
X183470275Y-72784882D01*
X183459384Y-72778993D01*
X183292238Y-72688618D01*
X183289055Y-72686897D01*
X183285605Y-72685829D01*
X183285600Y-72685827D01*
X183160996Y-72647256D01*
X183092254Y-72625977D01*
X182887369Y-72604443D01*
X182883765Y-72604771D01*
X182883764Y-72604771D01*
X182831800Y-72609500D01*
X182682203Y-72623114D01*
X182633247Y-72637522D01*
X182488043Y-72680258D01*
X182488039Y-72680260D01*
X182484572Y-72681280D01*
X182399594Y-72725706D01*
X182305209Y-72775049D01*
X182305206Y-72775051D01*
X182302002Y-72776726D01*
X182299184Y-72778992D01*
X182299182Y-72778993D01*
X182144266Y-72903548D01*
X182144263Y-72903551D01*
X182141447Y-72905815D01*
X182139121Y-72908587D01*
X182139119Y-72908589D01*
X182011351Y-73060856D01*
X182011348Y-73060860D01*
X182009024Y-73063630D01*
X181909776Y-73244162D01*
X181847484Y-73440532D01*
X181847081Y-73444123D01*
X181847081Y-73444124D01*
X181845461Y-73458570D01*
X181824520Y-73645262D01*
X181394138Y-73645262D01*
X181375480Y-73454970D01*
X181315935Y-73257749D01*
X181219218Y-73075849D01*
X181089011Y-72916200D01*
X180930275Y-72784882D01*
X180919384Y-72778993D01*
X180752238Y-72688618D01*
X180749055Y-72686897D01*
X180745605Y-72685829D01*
X180745600Y-72685827D01*
X180620996Y-72647256D01*
X180552254Y-72625977D01*
X180347369Y-72604443D01*
X180343765Y-72604771D01*
X180343764Y-72604771D01*
X180291800Y-72609500D01*
X180142203Y-72623114D01*
X180093247Y-72637522D01*
X179948043Y-72680258D01*
X179948039Y-72680260D01*
X179944572Y-72681280D01*
X179859594Y-72725706D01*
X179765209Y-72775049D01*
X179765206Y-72775051D01*
X179762002Y-72776726D01*
X179759184Y-72778992D01*
X179759182Y-72778993D01*
X179604266Y-72903548D01*
X179604263Y-72903551D01*
X179601447Y-72905815D01*
X179599121Y-72908587D01*
X179599119Y-72908589D01*
X179471351Y-73060856D01*
X179471348Y-73060860D01*
X179469024Y-73063630D01*
X179369776Y-73244162D01*
X179307484Y-73440532D01*
X179307081Y-73444123D01*
X179307081Y-73444124D01*
X179305461Y-73458570D01*
X179284520Y-73645262D01*
X178854138Y-73645262D01*
X178835480Y-73454970D01*
X178775935Y-73257749D01*
X178679218Y-73075849D01*
X178549011Y-72916200D01*
X178390275Y-72784882D01*
X178379384Y-72778993D01*
X178212238Y-72688618D01*
X178209055Y-72686897D01*
X178205605Y-72685829D01*
X178205600Y-72685827D01*
X178080996Y-72647256D01*
X178012254Y-72625977D01*
X177807369Y-72604443D01*
X177803765Y-72604771D01*
X177803764Y-72604771D01*
X177751800Y-72609500D01*
X177602203Y-72623114D01*
X177553247Y-72637522D01*
X177408043Y-72680258D01*
X177408039Y-72680260D01*
X177404572Y-72681280D01*
X177319594Y-72725706D01*
X177225209Y-72775049D01*
X177225206Y-72775051D01*
X177222002Y-72776726D01*
X177219184Y-72778992D01*
X177219182Y-72778993D01*
X177064266Y-72903548D01*
X177064263Y-72903551D01*
X177061447Y-72905815D01*
X177059121Y-72908587D01*
X177059119Y-72908589D01*
X176931351Y-73060856D01*
X176931348Y-73060860D01*
X176929024Y-73063630D01*
X176829776Y-73244162D01*
X176767484Y-73440532D01*
X176767081Y-73444123D01*
X176767081Y-73444124D01*
X176765461Y-73458570D01*
X176744520Y-73645262D01*
X176314138Y-73645262D01*
X176295480Y-73454970D01*
X176235935Y-73257749D01*
X176139218Y-73075849D01*
X176009011Y-72916200D01*
X175850275Y-72784882D01*
X175839384Y-72778993D01*
X175672238Y-72688618D01*
X175669055Y-72686897D01*
X175665605Y-72685829D01*
X175665600Y-72685827D01*
X175540996Y-72647256D01*
X175472254Y-72625977D01*
X175267369Y-72604443D01*
X175263765Y-72604771D01*
X175263764Y-72604771D01*
X175211800Y-72609500D01*
X175062203Y-72623114D01*
X175013247Y-72637522D01*
X174868043Y-72680258D01*
X174868039Y-72680260D01*
X174864572Y-72681280D01*
X174779594Y-72725706D01*
X174685209Y-72775049D01*
X174685206Y-72775051D01*
X174682002Y-72776726D01*
X174679184Y-72778992D01*
X174679182Y-72778993D01*
X174524266Y-72903548D01*
X174524263Y-72903551D01*
X174521447Y-72905815D01*
X174519121Y-72908587D01*
X174519119Y-72908589D01*
X174391351Y-73060856D01*
X174391348Y-73060860D01*
X174389024Y-73063630D01*
X174289776Y-73244162D01*
X174227484Y-73440532D01*
X174227081Y-73444123D01*
X174227081Y-73444124D01*
X174225461Y-73458570D01*
X174204520Y-73645262D01*
X173774138Y-73645262D01*
X173755480Y-73454970D01*
X173695935Y-73257749D01*
X173599218Y-73075849D01*
X173469011Y-72916200D01*
X173310275Y-72784882D01*
X173299384Y-72778993D01*
X173132238Y-72688618D01*
X173129055Y-72686897D01*
X173125605Y-72685829D01*
X173125600Y-72685827D01*
X173000996Y-72647256D01*
X172932254Y-72625977D01*
X172727369Y-72604443D01*
X172723765Y-72604771D01*
X172723764Y-72604771D01*
X172671800Y-72609500D01*
X172522203Y-72623114D01*
X172473247Y-72637522D01*
X172328043Y-72680258D01*
X172328039Y-72680260D01*
X172324572Y-72681280D01*
X172239594Y-72725706D01*
X172145209Y-72775049D01*
X172145206Y-72775051D01*
X172142002Y-72776726D01*
X172139184Y-72778992D01*
X172139182Y-72778993D01*
X171984266Y-72903548D01*
X171984263Y-72903551D01*
X171981447Y-72905815D01*
X171979121Y-72908587D01*
X171979119Y-72908589D01*
X171851351Y-73060856D01*
X171851348Y-73060860D01*
X171849024Y-73063630D01*
X171749776Y-73244162D01*
X171687484Y-73440532D01*
X171687081Y-73444123D01*
X171687081Y-73444124D01*
X171685461Y-73458570D01*
X171664520Y-73645262D01*
X171234138Y-73645262D01*
X171215480Y-73454970D01*
X171155935Y-73257749D01*
X171059218Y-73075849D01*
X170929011Y-72916200D01*
X170770275Y-72784882D01*
X170759384Y-72778993D01*
X170592238Y-72688618D01*
X170589055Y-72686897D01*
X170585605Y-72685829D01*
X170585600Y-72685827D01*
X170460996Y-72647256D01*
X170392254Y-72625977D01*
X170187369Y-72604443D01*
X170183765Y-72604771D01*
X170183764Y-72604771D01*
X170131800Y-72609500D01*
X169982203Y-72623114D01*
X169933247Y-72637522D01*
X169788043Y-72680258D01*
X169788039Y-72680260D01*
X169784572Y-72681280D01*
X169699594Y-72725706D01*
X169605209Y-72775049D01*
X169605206Y-72775051D01*
X169602002Y-72776726D01*
X169599184Y-72778992D01*
X169599182Y-72778993D01*
X169444266Y-72903548D01*
X169444263Y-72903551D01*
X169441447Y-72905815D01*
X169439121Y-72908587D01*
X169439119Y-72908589D01*
X169311351Y-73060856D01*
X169311348Y-73060860D01*
X169309024Y-73063630D01*
X169209776Y-73244162D01*
X169147484Y-73440532D01*
X169147081Y-73444123D01*
X169147081Y-73444124D01*
X169145461Y-73458570D01*
X169124520Y-73645262D01*
X168694138Y-73645262D01*
X168675480Y-73454970D01*
X168615935Y-73257749D01*
X168519218Y-73075849D01*
X168389011Y-72916200D01*
X168230275Y-72784882D01*
X168219384Y-72778993D01*
X168052238Y-72688618D01*
X168049055Y-72686897D01*
X168045605Y-72685829D01*
X168045600Y-72685827D01*
X167920996Y-72647256D01*
X167852254Y-72625977D01*
X167647369Y-72604443D01*
X167643765Y-72604771D01*
X167643764Y-72604771D01*
X167591800Y-72609500D01*
X167442203Y-72623114D01*
X167393247Y-72637522D01*
X167248043Y-72680258D01*
X167248039Y-72680260D01*
X167244572Y-72681280D01*
X167159594Y-72725706D01*
X167065209Y-72775049D01*
X167065206Y-72775051D01*
X167062002Y-72776726D01*
X167059184Y-72778992D01*
X167059182Y-72778993D01*
X166904266Y-72903548D01*
X166904263Y-72903551D01*
X166901447Y-72905815D01*
X166899121Y-72908587D01*
X166899119Y-72908589D01*
X166771351Y-73060856D01*
X166771348Y-73060860D01*
X166769024Y-73063630D01*
X166669776Y-73244162D01*
X166607484Y-73440532D01*
X166607081Y-73444123D01*
X166607081Y-73444124D01*
X166605461Y-73458570D01*
X166584520Y-73645262D01*
X166154138Y-73645262D01*
X166135480Y-73454970D01*
X166075935Y-73257749D01*
X165979218Y-73075849D01*
X165849011Y-72916200D01*
X165690275Y-72784882D01*
X165679384Y-72778993D01*
X165512238Y-72688618D01*
X165509055Y-72686897D01*
X165505605Y-72685829D01*
X165505600Y-72685827D01*
X165380996Y-72647256D01*
X165312254Y-72625977D01*
X165107369Y-72604443D01*
X165103765Y-72604771D01*
X165103764Y-72604771D01*
X165051800Y-72609500D01*
X164902203Y-72623114D01*
X164853247Y-72637522D01*
X164708043Y-72680258D01*
X164708039Y-72680260D01*
X164704572Y-72681280D01*
X164619594Y-72725706D01*
X164525209Y-72775049D01*
X164525206Y-72775051D01*
X164522002Y-72776726D01*
X164519184Y-72778992D01*
X164519182Y-72778993D01*
X164364266Y-72903548D01*
X164364263Y-72903551D01*
X164361447Y-72905815D01*
X164359121Y-72908587D01*
X164359119Y-72908589D01*
X164231351Y-73060856D01*
X164231348Y-73060860D01*
X164229024Y-73063630D01*
X164129776Y-73244162D01*
X164067484Y-73440532D01*
X164067081Y-73444123D01*
X164067081Y-73444124D01*
X164065461Y-73458570D01*
X164044520Y-73645262D01*
X163614138Y-73645262D01*
X163595480Y-73454970D01*
X163535935Y-73257749D01*
X163439218Y-73075849D01*
X163309011Y-72916200D01*
X163150275Y-72784882D01*
X163139384Y-72778993D01*
X162972238Y-72688618D01*
X162969055Y-72686897D01*
X162965605Y-72685829D01*
X162965600Y-72685827D01*
X162840996Y-72647256D01*
X162772254Y-72625977D01*
X162567369Y-72604443D01*
X162563765Y-72604771D01*
X162563764Y-72604771D01*
X162511800Y-72609500D01*
X162362203Y-72623114D01*
X162313247Y-72637522D01*
X162168043Y-72680258D01*
X162168039Y-72680260D01*
X162164572Y-72681280D01*
X162079594Y-72725706D01*
X161985209Y-72775049D01*
X161985206Y-72775051D01*
X161982002Y-72776726D01*
X161979184Y-72778992D01*
X161979182Y-72778993D01*
X161824266Y-72903548D01*
X161824263Y-72903551D01*
X161821447Y-72905815D01*
X161819121Y-72908587D01*
X161819119Y-72908589D01*
X161691351Y-73060856D01*
X161691348Y-73060860D01*
X161689024Y-73063630D01*
X161589776Y-73244162D01*
X161527484Y-73440532D01*
X161527081Y-73444123D01*
X161527081Y-73444124D01*
X161525461Y-73458570D01*
X161504520Y-73645262D01*
X161074138Y-73645262D01*
X161055480Y-73454970D01*
X160995935Y-73257749D01*
X160899218Y-73075849D01*
X160769011Y-72916200D01*
X160610275Y-72784882D01*
X160599384Y-72778993D01*
X160432238Y-72688618D01*
X160429055Y-72686897D01*
X160425605Y-72685829D01*
X160425600Y-72685827D01*
X160300996Y-72647256D01*
X160232254Y-72625977D01*
X160027369Y-72604443D01*
X160023765Y-72604771D01*
X160023764Y-72604771D01*
X159971800Y-72609500D01*
X159822203Y-72623114D01*
X159773247Y-72637522D01*
X159628043Y-72680258D01*
X159628039Y-72680260D01*
X159624572Y-72681280D01*
X159539594Y-72725706D01*
X159445209Y-72775049D01*
X159445206Y-72775051D01*
X159442002Y-72776726D01*
X159439184Y-72778992D01*
X159439182Y-72778993D01*
X159284266Y-72903548D01*
X159284263Y-72903551D01*
X159281447Y-72905815D01*
X159279121Y-72908587D01*
X159279119Y-72908589D01*
X159151351Y-73060856D01*
X159151348Y-73060860D01*
X159149024Y-73063630D01*
X159049776Y-73244162D01*
X158987484Y-73440532D01*
X158987081Y-73444123D01*
X158987081Y-73444124D01*
X158985461Y-73458570D01*
X158964520Y-73645262D01*
X158534138Y-73645262D01*
X158515480Y-73454970D01*
X158455935Y-73257749D01*
X158359218Y-73075849D01*
X158229011Y-72916200D01*
X158070275Y-72784882D01*
X158059384Y-72778993D01*
X157892238Y-72688618D01*
X157889055Y-72686897D01*
X157885605Y-72685829D01*
X157885600Y-72685827D01*
X157760996Y-72647256D01*
X157692254Y-72625977D01*
X157487369Y-72604443D01*
X157483765Y-72604771D01*
X157483764Y-72604771D01*
X157431800Y-72609500D01*
X157282203Y-72623114D01*
X157233247Y-72637522D01*
X157088043Y-72680258D01*
X157088039Y-72680260D01*
X157084572Y-72681280D01*
X156999594Y-72725706D01*
X156905209Y-72775049D01*
X156905206Y-72775051D01*
X156902002Y-72776726D01*
X156899184Y-72778992D01*
X156899182Y-72778993D01*
X156744266Y-72903548D01*
X156744263Y-72903551D01*
X156741447Y-72905815D01*
X156739121Y-72908587D01*
X156739119Y-72908589D01*
X156611351Y-73060856D01*
X156611348Y-73060860D01*
X156609024Y-73063630D01*
X156509776Y-73244162D01*
X156447484Y-73440532D01*
X156447081Y-73444123D01*
X156447081Y-73444124D01*
X156445461Y-73458570D01*
X156424520Y-73645262D01*
X155775500Y-73645262D01*
X155775500Y-71105262D01*
X156424520Y-71105262D01*
X156424823Y-71108871D01*
X156424823Y-71108873D01*
X156428404Y-71151519D01*
X156441759Y-71310553D01*
X156498544Y-71508586D01*
X156500196Y-71511800D01*
X156500197Y-71511803D01*
X156521001Y-71552283D01*
X156592712Y-71691818D01*
X156720677Y-71853270D01*
X156723430Y-71855613D01*
X156723433Y-71855616D01*
X156754062Y-71881683D01*
X156877564Y-71986791D01*
X156923508Y-72012468D01*
X157054239Y-72085532D01*
X157054243Y-72085534D01*
X157057398Y-72087297D01*
X157060834Y-72088414D01*
X157060840Y-72088416D01*
X157185256Y-72128841D01*
X157253329Y-72150959D01*
X157313033Y-72158078D01*
X157454294Y-72174922D01*
X157454297Y-72174922D01*
X157457894Y-72175351D01*
X157526714Y-72170056D01*
X157659689Y-72159824D01*
X157659691Y-72159824D01*
X157663300Y-72159546D01*
X157861725Y-72104145D01*
X157893776Y-72087955D01*
X158042376Y-72012892D01*
X158042379Y-72012890D01*
X158045610Y-72011258D01*
X158207951Y-71884424D01*
X158232817Y-71855616D01*
X158340201Y-71731210D01*
X158340203Y-71731208D01*
X158342564Y-71728472D01*
X158344347Y-71725333D01*
X158344350Y-71725329D01*
X158393444Y-71638908D01*
X158444323Y-71549344D01*
X158456812Y-71511803D01*
X158508208Y-71357299D01*
X158509351Y-71353863D01*
X158509820Y-71350155D01*
X158534913Y-71151519D01*
X158534913Y-71151513D01*
X158535171Y-71149474D01*
X158535583Y-71120000D01*
X158534138Y-71105262D01*
X158964520Y-71105262D01*
X158964823Y-71108871D01*
X158964823Y-71108873D01*
X158968404Y-71151519D01*
X158981759Y-71310553D01*
X159038544Y-71508586D01*
X159040196Y-71511800D01*
X159040197Y-71511803D01*
X159061001Y-71552283D01*
X159132712Y-71691818D01*
X159260677Y-71853270D01*
X159263430Y-71855613D01*
X159263433Y-71855616D01*
X159294062Y-71881683D01*
X159417564Y-71986791D01*
X159463508Y-72012468D01*
X159594239Y-72085532D01*
X159594243Y-72085534D01*
X159597398Y-72087297D01*
X159600834Y-72088414D01*
X159600840Y-72088416D01*
X159725256Y-72128841D01*
X159793329Y-72150959D01*
X159853033Y-72158078D01*
X159994294Y-72174922D01*
X159994297Y-72174922D01*
X159997894Y-72175351D01*
X160066714Y-72170056D01*
X160199689Y-72159824D01*
X160199691Y-72159824D01*
X160203300Y-72159546D01*
X160401725Y-72104145D01*
X160433776Y-72087955D01*
X160582376Y-72012892D01*
X160582379Y-72012890D01*
X160585610Y-72011258D01*
X160747951Y-71884424D01*
X160772817Y-71855616D01*
X160880201Y-71731210D01*
X160880203Y-71731208D01*
X160882564Y-71728472D01*
X160884347Y-71725333D01*
X160884350Y-71725329D01*
X160933444Y-71638908D01*
X160984323Y-71549344D01*
X160996812Y-71511803D01*
X161048208Y-71357299D01*
X161049351Y-71353863D01*
X161049820Y-71350155D01*
X161074913Y-71151519D01*
X161074913Y-71151513D01*
X161075171Y-71149474D01*
X161075583Y-71120000D01*
X161074138Y-71105262D01*
X161504520Y-71105262D01*
X161504823Y-71108871D01*
X161504823Y-71108873D01*
X161508404Y-71151519D01*
X161521759Y-71310553D01*
X161578544Y-71508586D01*
X161580196Y-71511800D01*
X161580197Y-71511803D01*
X161601001Y-71552283D01*
X161672712Y-71691818D01*
X161800677Y-71853270D01*
X161803430Y-71855613D01*
X161803433Y-71855616D01*
X161834062Y-71881683D01*
X161957564Y-71986791D01*
X162003508Y-72012468D01*
X162134239Y-72085532D01*
X162134243Y-72085534D01*
X162137398Y-72087297D01*
X162140834Y-72088414D01*
X162140840Y-72088416D01*
X162265256Y-72128841D01*
X162333329Y-72150959D01*
X162393033Y-72158078D01*
X162534294Y-72174922D01*
X162534297Y-72174922D01*
X162537894Y-72175351D01*
X162606714Y-72170056D01*
X162739689Y-72159824D01*
X162739691Y-72159824D01*
X162743300Y-72159546D01*
X162941725Y-72104145D01*
X162973776Y-72087955D01*
X163122376Y-72012892D01*
X163122379Y-72012890D01*
X163125610Y-72011258D01*
X163287951Y-71884424D01*
X163312817Y-71855616D01*
X163420201Y-71731210D01*
X163420203Y-71731208D01*
X163422564Y-71728472D01*
X163424347Y-71725333D01*
X163424350Y-71725329D01*
X163473444Y-71638908D01*
X163524323Y-71549344D01*
X163536812Y-71511803D01*
X163588208Y-71357299D01*
X163589351Y-71353863D01*
X163589820Y-71350155D01*
X163614913Y-71151519D01*
X163614913Y-71151513D01*
X163615171Y-71149474D01*
X163615583Y-71120000D01*
X163614138Y-71105262D01*
X164044520Y-71105262D01*
X164044823Y-71108871D01*
X164044823Y-71108873D01*
X164048404Y-71151519D01*
X164061759Y-71310553D01*
X164118544Y-71508586D01*
X164120196Y-71511800D01*
X164120197Y-71511803D01*
X164141001Y-71552283D01*
X164212712Y-71691818D01*
X164340677Y-71853270D01*
X164343430Y-71855613D01*
X164343433Y-71855616D01*
X164374062Y-71881683D01*
X164497564Y-71986791D01*
X164543508Y-72012468D01*
X164674239Y-72085532D01*
X164674243Y-72085534D01*
X164677398Y-72087297D01*
X164680834Y-72088414D01*
X164680840Y-72088416D01*
X164805256Y-72128841D01*
X164873329Y-72150959D01*
X164933033Y-72158078D01*
X165074294Y-72174922D01*
X165074297Y-72174922D01*
X165077894Y-72175351D01*
X165146714Y-72170056D01*
X165279689Y-72159824D01*
X165279691Y-72159824D01*
X165283300Y-72159546D01*
X165481725Y-72104145D01*
X165513776Y-72087955D01*
X165662376Y-72012892D01*
X165662379Y-72012890D01*
X165665610Y-72011258D01*
X165827951Y-71884424D01*
X165852817Y-71855616D01*
X165960201Y-71731210D01*
X165960203Y-71731208D01*
X165962564Y-71728472D01*
X165964347Y-71725333D01*
X165964350Y-71725329D01*
X166013444Y-71638908D01*
X166064323Y-71549344D01*
X166076812Y-71511803D01*
X166128208Y-71357299D01*
X166129351Y-71353863D01*
X166129820Y-71350155D01*
X166154913Y-71151519D01*
X166154913Y-71151513D01*
X166155171Y-71149474D01*
X166155583Y-71120000D01*
X166154138Y-71105262D01*
X166584520Y-71105262D01*
X166584823Y-71108871D01*
X166584823Y-71108873D01*
X166588404Y-71151519D01*
X166601759Y-71310553D01*
X166658544Y-71508586D01*
X166660196Y-71511800D01*
X166660197Y-71511803D01*
X166681001Y-71552283D01*
X166752712Y-71691818D01*
X166880677Y-71853270D01*
X166883430Y-71855613D01*
X166883433Y-71855616D01*
X166914062Y-71881683D01*
X167037564Y-71986791D01*
X167083508Y-72012468D01*
X167214239Y-72085532D01*
X167214243Y-72085534D01*
X167217398Y-72087297D01*
X167220834Y-72088414D01*
X167220840Y-72088416D01*
X167345256Y-72128841D01*
X167413329Y-72150959D01*
X167473033Y-72158078D01*
X167614294Y-72174922D01*
X167614297Y-72174922D01*
X167617894Y-72175351D01*
X167686714Y-72170056D01*
X167819689Y-72159824D01*
X167819691Y-72159824D01*
X167823300Y-72159546D01*
X168021725Y-72104145D01*
X168053776Y-72087955D01*
X168202376Y-72012892D01*
X168202379Y-72012890D01*
X168205610Y-72011258D01*
X168367951Y-71884424D01*
X168392817Y-71855616D01*
X168500201Y-71731210D01*
X168500203Y-71731208D01*
X168502564Y-71728472D01*
X168504347Y-71725333D01*
X168504350Y-71725329D01*
X168553444Y-71638908D01*
X168604323Y-71549344D01*
X168616812Y-71511803D01*
X168668208Y-71357299D01*
X168669351Y-71353863D01*
X168669820Y-71350155D01*
X168694913Y-71151519D01*
X168694913Y-71151513D01*
X168695171Y-71149474D01*
X168695583Y-71120000D01*
X168694138Y-71105262D01*
X169124520Y-71105262D01*
X169124823Y-71108871D01*
X169124823Y-71108873D01*
X169128404Y-71151519D01*
X169141759Y-71310553D01*
X169198544Y-71508586D01*
X169200196Y-71511800D01*
X169200197Y-71511803D01*
X169221001Y-71552283D01*
X169292712Y-71691818D01*
X169420677Y-71853270D01*
X169423430Y-71855613D01*
X169423433Y-71855616D01*
X169454062Y-71881683D01*
X169577564Y-71986791D01*
X169623508Y-72012468D01*
X169754239Y-72085532D01*
X169754243Y-72085534D01*
X169757398Y-72087297D01*
X169760834Y-72088414D01*
X169760840Y-72088416D01*
X169885256Y-72128841D01*
X169953329Y-72150959D01*
X170013033Y-72158078D01*
X170154294Y-72174922D01*
X170154297Y-72174922D01*
X170157894Y-72175351D01*
X170226714Y-72170056D01*
X170359689Y-72159824D01*
X170359691Y-72159824D01*
X170363300Y-72159546D01*
X170561725Y-72104145D01*
X170593776Y-72087955D01*
X170742376Y-72012892D01*
X170742379Y-72012890D01*
X170745610Y-72011258D01*
X170907951Y-71884424D01*
X170932817Y-71855616D01*
X171040201Y-71731210D01*
X171040203Y-71731208D01*
X171042564Y-71728472D01*
X171044347Y-71725333D01*
X171044350Y-71725329D01*
X171093444Y-71638908D01*
X171144323Y-71549344D01*
X171156812Y-71511803D01*
X171208208Y-71357299D01*
X171209351Y-71353863D01*
X171209820Y-71350155D01*
X171234913Y-71151519D01*
X171234913Y-71151513D01*
X171235171Y-71149474D01*
X171235583Y-71120000D01*
X171234138Y-71105262D01*
X171664520Y-71105262D01*
X171664823Y-71108871D01*
X171664823Y-71108873D01*
X171668404Y-71151519D01*
X171681759Y-71310553D01*
X171738544Y-71508586D01*
X171740196Y-71511800D01*
X171740197Y-71511803D01*
X171761001Y-71552283D01*
X171832712Y-71691818D01*
X171960677Y-71853270D01*
X171963430Y-71855613D01*
X171963433Y-71855616D01*
X171994062Y-71881683D01*
X172117564Y-71986791D01*
X172163508Y-72012468D01*
X172294239Y-72085532D01*
X172294243Y-72085534D01*
X172297398Y-72087297D01*
X172300834Y-72088414D01*
X172300840Y-72088416D01*
X172425256Y-72128841D01*
X172493329Y-72150959D01*
X172553033Y-72158078D01*
X172694294Y-72174922D01*
X172694297Y-72174922D01*
X172697894Y-72175351D01*
X172766714Y-72170056D01*
X172899689Y-72159824D01*
X172899691Y-72159824D01*
X172903300Y-72159546D01*
X173101725Y-72104145D01*
X173133776Y-72087955D01*
X173282376Y-72012892D01*
X173282379Y-72012890D01*
X173285610Y-72011258D01*
X173447951Y-71884424D01*
X173472817Y-71855616D01*
X173580201Y-71731210D01*
X173580203Y-71731208D01*
X173582564Y-71728472D01*
X173584347Y-71725333D01*
X173584350Y-71725329D01*
X173633444Y-71638908D01*
X173684323Y-71549344D01*
X173696812Y-71511803D01*
X173748208Y-71357299D01*
X173749351Y-71353863D01*
X173749820Y-71350155D01*
X173774913Y-71151519D01*
X173774913Y-71151513D01*
X173775171Y-71149474D01*
X173775583Y-71120000D01*
X173774138Y-71105262D01*
X174204520Y-71105262D01*
X174204823Y-71108871D01*
X174204823Y-71108873D01*
X174208404Y-71151519D01*
X174221759Y-71310553D01*
X174278544Y-71508586D01*
X174280196Y-71511800D01*
X174280197Y-71511803D01*
X174301001Y-71552283D01*
X174372712Y-71691818D01*
X174500677Y-71853270D01*
X174503430Y-71855613D01*
X174503433Y-71855616D01*
X174534062Y-71881683D01*
X174657564Y-71986791D01*
X174703508Y-72012468D01*
X174834239Y-72085532D01*
X174834243Y-72085534D01*
X174837398Y-72087297D01*
X174840834Y-72088414D01*
X174840840Y-72088416D01*
X174965256Y-72128841D01*
X175033329Y-72150959D01*
X175093033Y-72158078D01*
X175234294Y-72174922D01*
X175234297Y-72174922D01*
X175237894Y-72175351D01*
X175306714Y-72170056D01*
X175439689Y-72159824D01*
X175439691Y-72159824D01*
X175443300Y-72159546D01*
X175641725Y-72104145D01*
X175673776Y-72087955D01*
X175822376Y-72012892D01*
X175822379Y-72012890D01*
X175825610Y-72011258D01*
X175987951Y-71884424D01*
X176012817Y-71855616D01*
X176120201Y-71731210D01*
X176120203Y-71731208D01*
X176122564Y-71728472D01*
X176124347Y-71725333D01*
X176124350Y-71725329D01*
X176173444Y-71638908D01*
X176224323Y-71549344D01*
X176236812Y-71511803D01*
X176288208Y-71357299D01*
X176289351Y-71353863D01*
X176289820Y-71350155D01*
X176314913Y-71151519D01*
X176314913Y-71151513D01*
X176315171Y-71149474D01*
X176315583Y-71120000D01*
X176314138Y-71105262D01*
X176744520Y-71105262D01*
X176744823Y-71108871D01*
X176744823Y-71108873D01*
X176748404Y-71151519D01*
X176761759Y-71310553D01*
X176818544Y-71508586D01*
X176820196Y-71511800D01*
X176820197Y-71511803D01*
X176841001Y-71552283D01*
X176912712Y-71691818D01*
X177040677Y-71853270D01*
X177043430Y-71855613D01*
X177043433Y-71855616D01*
X177074062Y-71881683D01*
X177197564Y-71986791D01*
X177243508Y-72012468D01*
X177374239Y-72085532D01*
X177374243Y-72085534D01*
X177377398Y-72087297D01*
X177380834Y-72088414D01*
X177380840Y-72088416D01*
X177505256Y-72128841D01*
X177573329Y-72150959D01*
X177633033Y-72158078D01*
X177774294Y-72174922D01*
X177774297Y-72174922D01*
X177777894Y-72175351D01*
X177846714Y-72170056D01*
X177979689Y-72159824D01*
X177979691Y-72159824D01*
X177983300Y-72159546D01*
X178181725Y-72104145D01*
X178213776Y-72087955D01*
X178362376Y-72012892D01*
X178362379Y-72012890D01*
X178365610Y-72011258D01*
X178527951Y-71884424D01*
X178552817Y-71855616D01*
X178660201Y-71731210D01*
X178660203Y-71731208D01*
X178662564Y-71728472D01*
X178664347Y-71725333D01*
X178664350Y-71725329D01*
X178713444Y-71638908D01*
X178764323Y-71549344D01*
X178776812Y-71511803D01*
X178828208Y-71357299D01*
X178829351Y-71353863D01*
X178829820Y-71350155D01*
X178854913Y-71151519D01*
X178854913Y-71151513D01*
X178855171Y-71149474D01*
X178855583Y-71120000D01*
X178854138Y-71105262D01*
X179284520Y-71105262D01*
X179284823Y-71108871D01*
X179284823Y-71108873D01*
X179288404Y-71151519D01*
X179301759Y-71310553D01*
X179358544Y-71508586D01*
X179360196Y-71511800D01*
X179360197Y-71511803D01*
X179381001Y-71552283D01*
X179452712Y-71691818D01*
X179580677Y-71853270D01*
X179583430Y-71855613D01*
X179583433Y-71855616D01*
X179614062Y-71881683D01*
X179737564Y-71986791D01*
X179783508Y-72012468D01*
X179914239Y-72085532D01*
X179914243Y-72085534D01*
X179917398Y-72087297D01*
X179920834Y-72088414D01*
X179920840Y-72088416D01*
X180045256Y-72128841D01*
X180113329Y-72150959D01*
X180173033Y-72158078D01*
X180314294Y-72174922D01*
X180314297Y-72174922D01*
X180317894Y-72175351D01*
X180386714Y-72170056D01*
X180519689Y-72159824D01*
X180519691Y-72159824D01*
X180523300Y-72159546D01*
X180721725Y-72104145D01*
X180753776Y-72087955D01*
X180902376Y-72012892D01*
X180902379Y-72012890D01*
X180905610Y-72011258D01*
X181067951Y-71884424D01*
X181092817Y-71855616D01*
X181200201Y-71731210D01*
X181200203Y-71731208D01*
X181202564Y-71728472D01*
X181204347Y-71725333D01*
X181204350Y-71725329D01*
X181253444Y-71638908D01*
X181304323Y-71549344D01*
X181316812Y-71511803D01*
X181368208Y-71357299D01*
X181369351Y-71353863D01*
X181369820Y-71350155D01*
X181385278Y-71227792D01*
X181835310Y-71227792D01*
X181841949Y-71306855D01*
X181843250Y-71313942D01*
X181898013Y-71504922D01*
X181900663Y-71511617D01*
X181991479Y-71688326D01*
X181995384Y-71694384D01*
X182118789Y-71850083D01*
X182123794Y-71855267D01*
X182275094Y-71984032D01*
X182281013Y-71988146D01*
X182454440Y-72085072D01*
X182461041Y-72087955D01*
X182649991Y-72149348D01*
X182657036Y-72150897D01*
X182767043Y-72164015D01*
X182777400Y-72161586D01*
X182780000Y-72158111D01*
X182780000Y-72152407D01*
X182980000Y-72152407D01*
X182983638Y-72162403D01*
X182987875Y-72164849D01*
X183059602Y-72159330D01*
X183066701Y-72158078D01*
X183258062Y-72104649D01*
X183264770Y-72102047D01*
X183442107Y-72012468D01*
X183448195Y-72008604D01*
X183604751Y-71886289D01*
X183609970Y-71881319D01*
X183739791Y-71730920D01*
X183743939Y-71725040D01*
X183842078Y-71552283D01*
X183845006Y-71545708D01*
X183907719Y-71357189D01*
X183909316Y-71350155D01*
X183924124Y-71232946D01*
X183921767Y-71222573D01*
X183918377Y-71220000D01*
X182993048Y-71220000D01*
X182983052Y-71223638D01*
X182980000Y-71228925D01*
X182980000Y-72152407D01*
X182780000Y-72152407D01*
X182780000Y-71233048D01*
X182776362Y-71223052D01*
X182771075Y-71220000D01*
X181847704Y-71220000D01*
X181837708Y-71223638D01*
X181835310Y-71227792D01*
X181385278Y-71227792D01*
X181394913Y-71151519D01*
X181394913Y-71151513D01*
X181395171Y-71149474D01*
X181395583Y-71120000D01*
X181394138Y-71105262D01*
X184364520Y-71105262D01*
X184364823Y-71108871D01*
X184364823Y-71108873D01*
X184368404Y-71151519D01*
X184381759Y-71310553D01*
X184438544Y-71508586D01*
X184440196Y-71511800D01*
X184440197Y-71511803D01*
X184461001Y-71552283D01*
X184532712Y-71691818D01*
X184660677Y-71853270D01*
X184663430Y-71855613D01*
X184663433Y-71855616D01*
X184694062Y-71881683D01*
X184817564Y-71986791D01*
X184863508Y-72012468D01*
X184994239Y-72085532D01*
X184994243Y-72085534D01*
X184997398Y-72087297D01*
X185000834Y-72088414D01*
X185000840Y-72088416D01*
X185125256Y-72128841D01*
X185193329Y-72150959D01*
X185253033Y-72158078D01*
X185394294Y-72174922D01*
X185394297Y-72174922D01*
X185397894Y-72175351D01*
X185466714Y-72170056D01*
X185599689Y-72159824D01*
X185599691Y-72159824D01*
X185603300Y-72159546D01*
X185801725Y-72104145D01*
X185833776Y-72087955D01*
X185982376Y-72012892D01*
X185982379Y-72012890D01*
X185985610Y-72011258D01*
X186147951Y-71884424D01*
X186172817Y-71855616D01*
X186280201Y-71731210D01*
X186280203Y-71731208D01*
X186282564Y-71728472D01*
X186284347Y-71725333D01*
X186284350Y-71725329D01*
X186333444Y-71638908D01*
X186384323Y-71549344D01*
X186396812Y-71511803D01*
X186448208Y-71357299D01*
X186449351Y-71353863D01*
X186449820Y-71350155D01*
X186474913Y-71151519D01*
X186474913Y-71151513D01*
X186475171Y-71149474D01*
X186475583Y-71120000D01*
X186465521Y-71017372D01*
X186455833Y-70918570D01*
X186455480Y-70914970D01*
X186395935Y-70717749D01*
X186299218Y-70535849D01*
X186169011Y-70376200D01*
X186010275Y-70244882D01*
X186000161Y-70239413D01*
X185832238Y-70148618D01*
X185829055Y-70146897D01*
X185825605Y-70145829D01*
X185825600Y-70145827D01*
X185700996Y-70107256D01*
X185632254Y-70085977D01*
X185427369Y-70064443D01*
X185423765Y-70064771D01*
X185423764Y-70064771D01*
X185423215Y-70064821D01*
X185222203Y-70083114D01*
X185207165Y-70087540D01*
X185028043Y-70140258D01*
X185028039Y-70140260D01*
X185024572Y-70141280D01*
X184928633Y-70191436D01*
X184845209Y-70235049D01*
X184845206Y-70235051D01*
X184842002Y-70236726D01*
X184839184Y-70238992D01*
X184839182Y-70238993D01*
X184684266Y-70363548D01*
X184684263Y-70363551D01*
X184681447Y-70365815D01*
X184679121Y-70368587D01*
X184679119Y-70368589D01*
X184551351Y-70520856D01*
X184551348Y-70520860D01*
X184549024Y-70523630D01*
X184449776Y-70704162D01*
X184387484Y-70900532D01*
X184387081Y-70904123D01*
X184387081Y-70904124D01*
X184383003Y-70940485D01*
X184364520Y-71105262D01*
X181394138Y-71105262D01*
X181385521Y-71017372D01*
X181384507Y-71007033D01*
X181836040Y-71007033D01*
X181838542Y-71017372D01*
X181842107Y-71020000D01*
X182766952Y-71020000D01*
X182776948Y-71016362D01*
X182780000Y-71011075D01*
X182780000Y-71006952D01*
X182980000Y-71006952D01*
X182983638Y-71016948D01*
X182988925Y-71020000D01*
X183912228Y-71020000D01*
X183922224Y-71016362D01*
X183924528Y-71012371D01*
X183915340Y-70918670D01*
X183913941Y-70911602D01*
X183856516Y-70721403D01*
X183853772Y-70714745D01*
X183760498Y-70539322D01*
X183756512Y-70533323D01*
X183630942Y-70379358D01*
X183625866Y-70374247D01*
X183472789Y-70247610D01*
X183466804Y-70243573D01*
X183292043Y-70149081D01*
X183285405Y-70146290D01*
X183095612Y-70087540D01*
X183088552Y-70086091D01*
X182992977Y-70076045D01*
X182982657Y-70078618D01*
X182980000Y-70082275D01*
X182980000Y-71006952D01*
X182780000Y-71006952D01*
X182780000Y-70087764D01*
X182776362Y-70077768D01*
X182772290Y-70075418D01*
X182685912Y-70083278D01*
X182678818Y-70084631D01*
X182488231Y-70140724D01*
X182481555Y-70143422D01*
X182305483Y-70235469D01*
X182299456Y-70239413D01*
X182144619Y-70363906D01*
X182139471Y-70368947D01*
X182011765Y-70521140D01*
X182007696Y-70527083D01*
X181911980Y-70701191D01*
X181909144Y-70707808D01*
X181849068Y-70897189D01*
X181847572Y-70904228D01*
X181836040Y-71007033D01*
X181384507Y-71007033D01*
X181375833Y-70918570D01*
X181375480Y-70914970D01*
X181315935Y-70717749D01*
X181219218Y-70535849D01*
X181089011Y-70376200D01*
X180930275Y-70244882D01*
X180920161Y-70239413D01*
X180752238Y-70148618D01*
X180749055Y-70146897D01*
X180745605Y-70145829D01*
X180745600Y-70145827D01*
X180620996Y-70107256D01*
X180552254Y-70085977D01*
X180347369Y-70064443D01*
X180343765Y-70064771D01*
X180343764Y-70064771D01*
X180343215Y-70064821D01*
X180142203Y-70083114D01*
X180127165Y-70087540D01*
X179948043Y-70140258D01*
X179948039Y-70140260D01*
X179944572Y-70141280D01*
X179848633Y-70191436D01*
X179765209Y-70235049D01*
X179765206Y-70235051D01*
X179762002Y-70236726D01*
X179759184Y-70238992D01*
X179759182Y-70238993D01*
X179604266Y-70363548D01*
X179604263Y-70363551D01*
X179601447Y-70365815D01*
X179599121Y-70368587D01*
X179599119Y-70368589D01*
X179471351Y-70520856D01*
X179471348Y-70520860D01*
X179469024Y-70523630D01*
X179369776Y-70704162D01*
X179307484Y-70900532D01*
X179307081Y-70904123D01*
X179307081Y-70904124D01*
X179303003Y-70940485D01*
X179284520Y-71105262D01*
X178854138Y-71105262D01*
X178845521Y-71017372D01*
X178835833Y-70918570D01*
X178835480Y-70914970D01*
X178775935Y-70717749D01*
X178679218Y-70535849D01*
X178549011Y-70376200D01*
X178390275Y-70244882D01*
X178380161Y-70239413D01*
X178212238Y-70148618D01*
X178209055Y-70146897D01*
X178205605Y-70145829D01*
X178205600Y-70145827D01*
X178080996Y-70107256D01*
X178012254Y-70085977D01*
X177807369Y-70064443D01*
X177803765Y-70064771D01*
X177803764Y-70064771D01*
X177803215Y-70064821D01*
X177602203Y-70083114D01*
X177587165Y-70087540D01*
X177408043Y-70140258D01*
X177408039Y-70140260D01*
X177404572Y-70141280D01*
X177308633Y-70191436D01*
X177225209Y-70235049D01*
X177225206Y-70235051D01*
X177222002Y-70236726D01*
X177219184Y-70238992D01*
X177219182Y-70238993D01*
X177064266Y-70363548D01*
X177064263Y-70363551D01*
X177061447Y-70365815D01*
X177059121Y-70368587D01*
X177059119Y-70368589D01*
X176931351Y-70520856D01*
X176931348Y-70520860D01*
X176929024Y-70523630D01*
X176829776Y-70704162D01*
X176767484Y-70900532D01*
X176767081Y-70904123D01*
X176767081Y-70904124D01*
X176763003Y-70940485D01*
X176744520Y-71105262D01*
X176314138Y-71105262D01*
X176305521Y-71017372D01*
X176295833Y-70918570D01*
X176295480Y-70914970D01*
X176235935Y-70717749D01*
X176139218Y-70535849D01*
X176009011Y-70376200D01*
X175850275Y-70244882D01*
X175840161Y-70239413D01*
X175672238Y-70148618D01*
X175669055Y-70146897D01*
X175665605Y-70145829D01*
X175665600Y-70145827D01*
X175540996Y-70107256D01*
X175472254Y-70085977D01*
X175267369Y-70064443D01*
X175263765Y-70064771D01*
X175263764Y-70064771D01*
X175263215Y-70064821D01*
X175062203Y-70083114D01*
X175047165Y-70087540D01*
X174868043Y-70140258D01*
X174868039Y-70140260D01*
X174864572Y-70141280D01*
X174768633Y-70191436D01*
X174685209Y-70235049D01*
X174685206Y-70235051D01*
X174682002Y-70236726D01*
X174679184Y-70238992D01*
X174679182Y-70238993D01*
X174524266Y-70363548D01*
X174524263Y-70363551D01*
X174521447Y-70365815D01*
X174519121Y-70368587D01*
X174519119Y-70368589D01*
X174391351Y-70520856D01*
X174391348Y-70520860D01*
X174389024Y-70523630D01*
X174289776Y-70704162D01*
X174227484Y-70900532D01*
X174227081Y-70904123D01*
X174227081Y-70904124D01*
X174223003Y-70940485D01*
X174204520Y-71105262D01*
X173774138Y-71105262D01*
X173765521Y-71017372D01*
X173755833Y-70918570D01*
X173755480Y-70914970D01*
X173695935Y-70717749D01*
X173599218Y-70535849D01*
X173469011Y-70376200D01*
X173310275Y-70244882D01*
X173300161Y-70239413D01*
X173132238Y-70148618D01*
X173129055Y-70146897D01*
X173125605Y-70145829D01*
X173125600Y-70145827D01*
X173000996Y-70107256D01*
X172932254Y-70085977D01*
X172727369Y-70064443D01*
X172723765Y-70064771D01*
X172723764Y-70064771D01*
X172723215Y-70064821D01*
X172522203Y-70083114D01*
X172507165Y-70087540D01*
X172328043Y-70140258D01*
X172328039Y-70140260D01*
X172324572Y-70141280D01*
X172228633Y-70191436D01*
X172145209Y-70235049D01*
X172145206Y-70235051D01*
X172142002Y-70236726D01*
X172139184Y-70238992D01*
X172139182Y-70238993D01*
X171984266Y-70363548D01*
X171984263Y-70363551D01*
X171981447Y-70365815D01*
X171979121Y-70368587D01*
X171979119Y-70368589D01*
X171851351Y-70520856D01*
X171851348Y-70520860D01*
X171849024Y-70523630D01*
X171749776Y-70704162D01*
X171687484Y-70900532D01*
X171687081Y-70904123D01*
X171687081Y-70904124D01*
X171683003Y-70940485D01*
X171664520Y-71105262D01*
X171234138Y-71105262D01*
X171225521Y-71017372D01*
X171215833Y-70918570D01*
X171215480Y-70914970D01*
X171155935Y-70717749D01*
X171059218Y-70535849D01*
X170929011Y-70376200D01*
X170770275Y-70244882D01*
X170760161Y-70239413D01*
X170592238Y-70148618D01*
X170589055Y-70146897D01*
X170585605Y-70145829D01*
X170585600Y-70145827D01*
X170460996Y-70107256D01*
X170392254Y-70085977D01*
X170187369Y-70064443D01*
X170183765Y-70064771D01*
X170183764Y-70064771D01*
X170183215Y-70064821D01*
X169982203Y-70083114D01*
X169967165Y-70087540D01*
X169788043Y-70140258D01*
X169788039Y-70140260D01*
X169784572Y-70141280D01*
X169688633Y-70191436D01*
X169605209Y-70235049D01*
X169605206Y-70235051D01*
X169602002Y-70236726D01*
X169599184Y-70238992D01*
X169599182Y-70238993D01*
X169444266Y-70363548D01*
X169444263Y-70363551D01*
X169441447Y-70365815D01*
X169439121Y-70368587D01*
X169439119Y-70368589D01*
X169311351Y-70520856D01*
X169311348Y-70520860D01*
X169309024Y-70523630D01*
X169209776Y-70704162D01*
X169147484Y-70900532D01*
X169147081Y-70904123D01*
X169147081Y-70904124D01*
X169143003Y-70940485D01*
X169124520Y-71105262D01*
X168694138Y-71105262D01*
X168685521Y-71017372D01*
X168675833Y-70918570D01*
X168675480Y-70914970D01*
X168615935Y-70717749D01*
X168519218Y-70535849D01*
X168389011Y-70376200D01*
X168230275Y-70244882D01*
X168220161Y-70239413D01*
X168052238Y-70148618D01*
X168049055Y-70146897D01*
X168045605Y-70145829D01*
X168045600Y-70145827D01*
X167920996Y-70107256D01*
X167852254Y-70085977D01*
X167647369Y-70064443D01*
X167643765Y-70064771D01*
X167643764Y-70064771D01*
X167643215Y-70064821D01*
X167442203Y-70083114D01*
X167427165Y-70087540D01*
X167248043Y-70140258D01*
X167248039Y-70140260D01*
X167244572Y-70141280D01*
X167148633Y-70191436D01*
X167065209Y-70235049D01*
X167065206Y-70235051D01*
X167062002Y-70236726D01*
X167059184Y-70238992D01*
X167059182Y-70238993D01*
X166904266Y-70363548D01*
X166904263Y-70363551D01*
X166901447Y-70365815D01*
X166899121Y-70368587D01*
X166899119Y-70368589D01*
X166771351Y-70520856D01*
X166771348Y-70520860D01*
X166769024Y-70523630D01*
X166669776Y-70704162D01*
X166607484Y-70900532D01*
X166607081Y-70904123D01*
X166607081Y-70904124D01*
X166603003Y-70940485D01*
X166584520Y-71105262D01*
X166154138Y-71105262D01*
X166145521Y-71017372D01*
X166135833Y-70918570D01*
X166135480Y-70914970D01*
X166075935Y-70717749D01*
X165979218Y-70535849D01*
X165849011Y-70376200D01*
X165690275Y-70244882D01*
X165680161Y-70239413D01*
X165512238Y-70148618D01*
X165509055Y-70146897D01*
X165505605Y-70145829D01*
X165505600Y-70145827D01*
X165380996Y-70107256D01*
X165312254Y-70085977D01*
X165107369Y-70064443D01*
X165103765Y-70064771D01*
X165103764Y-70064771D01*
X165103215Y-70064821D01*
X164902203Y-70083114D01*
X164887165Y-70087540D01*
X164708043Y-70140258D01*
X164708039Y-70140260D01*
X164704572Y-70141280D01*
X164608633Y-70191436D01*
X164525209Y-70235049D01*
X164525206Y-70235051D01*
X164522002Y-70236726D01*
X164519184Y-70238992D01*
X164519182Y-70238993D01*
X164364266Y-70363548D01*
X164364263Y-70363551D01*
X164361447Y-70365815D01*
X164359121Y-70368587D01*
X164359119Y-70368589D01*
X164231351Y-70520856D01*
X164231348Y-70520860D01*
X164229024Y-70523630D01*
X164129776Y-70704162D01*
X164067484Y-70900532D01*
X164067081Y-70904123D01*
X164067081Y-70904124D01*
X164063003Y-70940485D01*
X164044520Y-71105262D01*
X163614138Y-71105262D01*
X163605521Y-71017372D01*
X163595833Y-70918570D01*
X163595480Y-70914970D01*
X163535935Y-70717749D01*
X163439218Y-70535849D01*
X163309011Y-70376200D01*
X163150275Y-70244882D01*
X163140161Y-70239413D01*
X162972238Y-70148618D01*
X162969055Y-70146897D01*
X162965605Y-70145829D01*
X162965600Y-70145827D01*
X162840996Y-70107256D01*
X162772254Y-70085977D01*
X162567369Y-70064443D01*
X162563765Y-70064771D01*
X162563764Y-70064771D01*
X162563215Y-70064821D01*
X162362203Y-70083114D01*
X162347165Y-70087540D01*
X162168043Y-70140258D01*
X162168039Y-70140260D01*
X162164572Y-70141280D01*
X162068633Y-70191436D01*
X161985209Y-70235049D01*
X161985206Y-70235051D01*
X161982002Y-70236726D01*
X161979184Y-70238992D01*
X161979182Y-70238993D01*
X161824266Y-70363548D01*
X161824263Y-70363551D01*
X161821447Y-70365815D01*
X161819121Y-70368587D01*
X161819119Y-70368589D01*
X161691351Y-70520856D01*
X161691348Y-70520860D01*
X161689024Y-70523630D01*
X161589776Y-70704162D01*
X161527484Y-70900532D01*
X161527081Y-70904123D01*
X161527081Y-70904124D01*
X161523003Y-70940485D01*
X161504520Y-71105262D01*
X161074138Y-71105262D01*
X161065521Y-71017372D01*
X161055833Y-70918570D01*
X161055480Y-70914970D01*
X160995935Y-70717749D01*
X160899218Y-70535849D01*
X160769011Y-70376200D01*
X160610275Y-70244882D01*
X160600161Y-70239413D01*
X160432238Y-70148618D01*
X160429055Y-70146897D01*
X160425605Y-70145829D01*
X160425600Y-70145827D01*
X160300996Y-70107256D01*
X160232254Y-70085977D01*
X160027369Y-70064443D01*
X160023765Y-70064771D01*
X160023764Y-70064771D01*
X160023215Y-70064821D01*
X159822203Y-70083114D01*
X159807165Y-70087540D01*
X159628043Y-70140258D01*
X159628039Y-70140260D01*
X159624572Y-70141280D01*
X159528633Y-70191436D01*
X159445209Y-70235049D01*
X159445206Y-70235051D01*
X159442002Y-70236726D01*
X159439184Y-70238992D01*
X159439182Y-70238993D01*
X159284266Y-70363548D01*
X159284263Y-70363551D01*
X159281447Y-70365815D01*
X159279121Y-70368587D01*
X159279119Y-70368589D01*
X159151351Y-70520856D01*
X159151348Y-70520860D01*
X159149024Y-70523630D01*
X159049776Y-70704162D01*
X158987484Y-70900532D01*
X158987081Y-70904123D01*
X158987081Y-70904124D01*
X158983003Y-70940485D01*
X158964520Y-71105262D01*
X158534138Y-71105262D01*
X158525521Y-71017372D01*
X158515833Y-70918570D01*
X158515480Y-70914970D01*
X158455935Y-70717749D01*
X158359218Y-70535849D01*
X158229011Y-70376200D01*
X158070275Y-70244882D01*
X158060161Y-70239413D01*
X157892238Y-70148618D01*
X157889055Y-70146897D01*
X157885605Y-70145829D01*
X157885600Y-70145827D01*
X157760996Y-70107256D01*
X157692254Y-70085977D01*
X157487369Y-70064443D01*
X157483765Y-70064771D01*
X157483764Y-70064771D01*
X157483215Y-70064821D01*
X157282203Y-70083114D01*
X157267165Y-70087540D01*
X157088043Y-70140258D01*
X157088039Y-70140260D01*
X157084572Y-70141280D01*
X156988633Y-70191436D01*
X156905209Y-70235049D01*
X156905206Y-70235051D01*
X156902002Y-70236726D01*
X156899184Y-70238992D01*
X156899182Y-70238993D01*
X156744266Y-70363548D01*
X156744263Y-70363551D01*
X156741447Y-70365815D01*
X156739121Y-70368587D01*
X156739119Y-70368589D01*
X156611351Y-70520856D01*
X156611348Y-70520860D01*
X156609024Y-70523630D01*
X156509776Y-70704162D01*
X156447484Y-70900532D01*
X156447081Y-70904123D01*
X156447081Y-70904124D01*
X156443003Y-70940485D01*
X156424520Y-71105262D01*
X155775500Y-71105262D01*
X155775500Y-68255654D01*
X156329133Y-68255654D01*
X156364941Y-68464047D01*
X156438127Y-68662425D01*
X156546238Y-68844144D01*
X156548469Y-68846688D01*
X156548472Y-68846692D01*
X156624792Y-68933718D01*
X156685655Y-69003119D01*
X156851708Y-69134024D01*
X157038836Y-69232477D01*
X157042075Y-69233483D01*
X157042078Y-69233484D01*
X157237533Y-69294174D01*
X157240773Y-69295180D01*
X157389235Y-69312752D01*
X157410283Y-69315243D01*
X157410284Y-69315243D01*
X157412455Y-69315500D01*
X158534641Y-69315500D01*
X158536325Y-69315345D01*
X158536331Y-69315345D01*
X158688181Y-69301392D01*
X158688186Y-69301391D01*
X158691560Y-69301081D01*
X158694823Y-69300161D01*
X158694827Y-69300160D01*
X158790097Y-69273291D01*
X158895069Y-69243686D01*
X159084710Y-69150165D01*
X159087422Y-69148140D01*
X159087425Y-69148138D01*
X159251412Y-69025683D01*
X159251413Y-69025682D01*
X159254133Y-69023651D01*
X159308990Y-68964306D01*
X159395360Y-68870873D01*
X159395363Y-68870869D01*
X159397663Y-68868381D01*
X159411348Y-68846692D01*
X159508690Y-68692415D01*
X159508691Y-68692414D01*
X159510495Y-68689554D01*
X159520156Y-68665338D01*
X159587590Y-68496314D01*
X159587591Y-68496311D01*
X159588848Y-68493160D01*
X159630099Y-68285775D01*
X159630493Y-68255654D01*
X165854133Y-68255654D01*
X165889941Y-68464047D01*
X165963127Y-68662425D01*
X166071238Y-68844144D01*
X166073469Y-68846688D01*
X166073472Y-68846692D01*
X166149792Y-68933718D01*
X166210655Y-69003119D01*
X166376708Y-69134024D01*
X166563836Y-69232477D01*
X166567075Y-69233483D01*
X166567078Y-69233484D01*
X166762533Y-69294174D01*
X166765773Y-69295180D01*
X166914235Y-69312752D01*
X166935283Y-69315243D01*
X166935284Y-69315243D01*
X166937455Y-69315500D01*
X168059641Y-69315500D01*
X168061325Y-69315345D01*
X168061331Y-69315345D01*
X168213181Y-69301392D01*
X168213186Y-69301391D01*
X168216560Y-69301081D01*
X168219823Y-69300161D01*
X168219827Y-69300160D01*
X168315097Y-69273291D01*
X168420069Y-69243686D01*
X168609710Y-69150165D01*
X168612422Y-69148140D01*
X168612425Y-69148138D01*
X168776412Y-69025683D01*
X168776413Y-69025682D01*
X168779133Y-69023651D01*
X168833990Y-68964306D01*
X168920360Y-68870873D01*
X168920363Y-68870869D01*
X168922663Y-68868381D01*
X168936348Y-68846692D01*
X169033690Y-68692415D01*
X169033691Y-68692414D01*
X169035495Y-68689554D01*
X169045156Y-68665338D01*
X169112590Y-68496314D01*
X169112591Y-68496311D01*
X169113848Y-68493160D01*
X169155099Y-68285775D01*
X169155493Y-68255654D01*
X175379133Y-68255654D01*
X175414941Y-68464047D01*
X175488127Y-68662425D01*
X175596238Y-68844144D01*
X175598469Y-68846688D01*
X175598472Y-68846692D01*
X175674792Y-68933718D01*
X175735655Y-69003119D01*
X175901708Y-69134024D01*
X176088836Y-69232477D01*
X176092075Y-69233483D01*
X176092078Y-69233484D01*
X176287533Y-69294174D01*
X176290773Y-69295180D01*
X176439235Y-69312752D01*
X176460283Y-69315243D01*
X176460284Y-69315243D01*
X176462455Y-69315500D01*
X177584641Y-69315500D01*
X177586325Y-69315345D01*
X177586331Y-69315345D01*
X177738181Y-69301392D01*
X177738186Y-69301391D01*
X177741560Y-69301081D01*
X177744823Y-69300161D01*
X177744827Y-69300160D01*
X177840097Y-69273291D01*
X177945069Y-69243686D01*
X178134710Y-69150165D01*
X178137422Y-69148140D01*
X178137425Y-69148138D01*
X178301412Y-69025683D01*
X178301413Y-69025682D01*
X178304133Y-69023651D01*
X178358990Y-68964306D01*
X178445360Y-68870873D01*
X178445363Y-68870869D01*
X178447663Y-68868381D01*
X178461348Y-68846692D01*
X178558690Y-68692415D01*
X178558691Y-68692414D01*
X178560495Y-68689554D01*
X178570156Y-68665338D01*
X178637590Y-68496314D01*
X178637591Y-68496311D01*
X178638848Y-68493160D01*
X178680099Y-68285775D01*
X178682867Y-68074346D01*
X178647059Y-67865953D01*
X178573873Y-67667575D01*
X178465762Y-67485856D01*
X178463531Y-67483312D01*
X178463528Y-67483308D01*
X178329144Y-67330073D01*
X178326345Y-67326881D01*
X178300300Y-67306349D01*
X178162950Y-67198071D01*
X178162947Y-67198069D01*
X178160292Y-67195976D01*
X178062924Y-67144748D01*
X183699500Y-67144748D01*
X183711133Y-67203231D01*
X183755448Y-67269552D01*
X183761509Y-67273602D01*
X183814252Y-67308844D01*
X183821769Y-67313867D01*
X183866295Y-67322724D01*
X183876682Y-67324790D01*
X183876683Y-67324790D01*
X183880252Y-67325500D01*
X185619748Y-67325500D01*
X185623317Y-67324790D01*
X185623318Y-67324790D01*
X185633705Y-67322724D01*
X185678231Y-67313867D01*
X185685749Y-67308844D01*
X185738491Y-67273602D01*
X185744552Y-67269552D01*
X185788867Y-67203231D01*
X185800500Y-67144748D01*
X185800500Y-65405252D01*
X185788867Y-65346769D01*
X185744552Y-65280448D01*
X185727347Y-65268952D01*
X185684294Y-65240184D01*
X185684293Y-65240184D01*
X185678231Y-65236133D01*
X185633705Y-65227276D01*
X185623318Y-65225210D01*
X185623317Y-65225210D01*
X185619748Y-65224500D01*
X183880252Y-65224500D01*
X183876683Y-65225210D01*
X183876682Y-65225210D01*
X183866295Y-65227276D01*
X183821769Y-65236133D01*
X183815707Y-65240184D01*
X183815706Y-65240184D01*
X183772653Y-65268952D01*
X183755448Y-65280448D01*
X183711133Y-65346769D01*
X183699500Y-65405252D01*
X183699500Y-67144748D01*
X178062924Y-67144748D01*
X177973164Y-67097523D01*
X177969925Y-67096517D01*
X177969922Y-67096516D01*
X177774467Y-67035826D01*
X177771227Y-67034820D01*
X177622765Y-67017248D01*
X177601717Y-67014757D01*
X177601716Y-67014757D01*
X177599545Y-67014500D01*
X176477359Y-67014500D01*
X176475675Y-67014655D01*
X176475669Y-67014655D01*
X176323819Y-67028608D01*
X176323814Y-67028609D01*
X176320440Y-67028919D01*
X176317177Y-67029839D01*
X176317173Y-67029840D01*
X176275288Y-67041653D01*
X176116931Y-67086314D01*
X175927290Y-67179835D01*
X175924578Y-67181860D01*
X175924575Y-67181862D01*
X175760588Y-67304317D01*
X175757867Y-67306349D01*
X175735937Y-67330073D01*
X175616640Y-67459127D01*
X175616637Y-67459131D01*
X175614337Y-67461619D01*
X175612528Y-67464486D01*
X175599045Y-67485856D01*
X175501505Y-67640446D01*
X175500251Y-67643588D01*
X175500250Y-67643591D01*
X175489413Y-67670756D01*
X175423152Y-67836840D01*
X175381901Y-68044225D01*
X175379133Y-68255654D01*
X169155493Y-68255654D01*
X169157867Y-68074346D01*
X169122059Y-67865953D01*
X169048873Y-67667575D01*
X168940762Y-67485856D01*
X168938531Y-67483312D01*
X168938528Y-67483308D01*
X168804144Y-67330073D01*
X168801345Y-67326881D01*
X168775300Y-67306349D01*
X168637950Y-67198071D01*
X168637947Y-67198069D01*
X168635292Y-67195976D01*
X168448164Y-67097523D01*
X168444925Y-67096517D01*
X168444922Y-67096516D01*
X168249467Y-67035826D01*
X168246227Y-67034820D01*
X168097765Y-67017248D01*
X168076717Y-67014757D01*
X168076716Y-67014757D01*
X168074545Y-67014500D01*
X166952359Y-67014500D01*
X166950675Y-67014655D01*
X166950669Y-67014655D01*
X166798819Y-67028608D01*
X166798814Y-67028609D01*
X166795440Y-67028919D01*
X166792177Y-67029839D01*
X166792173Y-67029840D01*
X166750288Y-67041653D01*
X166591931Y-67086314D01*
X166402290Y-67179835D01*
X166399578Y-67181860D01*
X166399575Y-67181862D01*
X166235588Y-67304317D01*
X166232867Y-67306349D01*
X166210937Y-67330073D01*
X166091640Y-67459127D01*
X166091637Y-67459131D01*
X166089337Y-67461619D01*
X166087528Y-67464486D01*
X166074045Y-67485856D01*
X165976505Y-67640446D01*
X165975251Y-67643588D01*
X165975250Y-67643591D01*
X165964413Y-67670756D01*
X165898152Y-67836840D01*
X165856901Y-68044225D01*
X165854133Y-68255654D01*
X159630493Y-68255654D01*
X159632867Y-68074346D01*
X159597059Y-67865953D01*
X159523873Y-67667575D01*
X159415762Y-67485856D01*
X159413531Y-67483312D01*
X159413528Y-67483308D01*
X159279144Y-67330073D01*
X159276345Y-67326881D01*
X159250300Y-67306349D01*
X159112950Y-67198071D01*
X159112947Y-67198069D01*
X159110292Y-67195976D01*
X158923164Y-67097523D01*
X158919925Y-67096517D01*
X158919922Y-67096516D01*
X158724467Y-67035826D01*
X158721227Y-67034820D01*
X158572765Y-67017248D01*
X158551717Y-67014757D01*
X158551716Y-67014757D01*
X158549545Y-67014500D01*
X157427359Y-67014500D01*
X157425675Y-67014655D01*
X157425669Y-67014655D01*
X157273819Y-67028608D01*
X157273814Y-67028609D01*
X157270440Y-67028919D01*
X157267177Y-67029839D01*
X157267173Y-67029840D01*
X157225288Y-67041653D01*
X157066931Y-67086314D01*
X156877290Y-67179835D01*
X156874578Y-67181860D01*
X156874575Y-67181862D01*
X156710588Y-67304317D01*
X156707867Y-67306349D01*
X156685937Y-67330073D01*
X156566640Y-67459127D01*
X156566637Y-67459131D01*
X156564337Y-67461619D01*
X156562528Y-67464486D01*
X156549045Y-67485856D01*
X156451505Y-67640446D01*
X156450251Y-67643588D01*
X156450250Y-67643591D01*
X156439413Y-67670756D01*
X156373152Y-67836840D01*
X156331901Y-68044225D01*
X156329133Y-68255654D01*
X155775500Y-68255654D01*
X155775500Y-65095000D01*
X156525815Y-65095000D01*
X156526220Y-65098853D01*
X156541075Y-65240184D01*
X156544503Y-65272803D01*
X156599750Y-65442835D01*
X156689141Y-65597665D01*
X156808770Y-65730526D01*
X156953407Y-65835612D01*
X156956958Y-65837193D01*
X157113183Y-65906749D01*
X157113188Y-65906750D01*
X157116733Y-65908329D01*
X157291609Y-65945500D01*
X157470391Y-65945500D01*
X157645267Y-65908329D01*
X157648812Y-65906750D01*
X157648817Y-65906749D01*
X157805042Y-65837193D01*
X157808593Y-65835612D01*
X157953230Y-65730526D01*
X158072859Y-65597665D01*
X158162250Y-65442835D01*
X158217497Y-65272803D01*
X158220926Y-65240184D01*
X158235780Y-65098853D01*
X158236185Y-65095000D01*
X166050815Y-65095000D01*
X166051220Y-65098853D01*
X166066075Y-65240184D01*
X166069503Y-65272803D01*
X166124750Y-65442835D01*
X166214141Y-65597665D01*
X166333770Y-65730526D01*
X166478407Y-65835612D01*
X166481958Y-65837193D01*
X166638183Y-65906749D01*
X166638188Y-65906750D01*
X166641733Y-65908329D01*
X166816609Y-65945500D01*
X166995391Y-65945500D01*
X167170267Y-65908329D01*
X167173812Y-65906750D01*
X167173817Y-65906749D01*
X167330042Y-65837193D01*
X167333593Y-65835612D01*
X167478230Y-65730526D01*
X167597859Y-65597665D01*
X167687250Y-65442835D01*
X167742497Y-65272803D01*
X167745926Y-65240184D01*
X167760780Y-65098853D01*
X167761185Y-65095000D01*
X175575815Y-65095000D01*
X175576220Y-65098853D01*
X175591075Y-65240184D01*
X175594503Y-65272803D01*
X175649750Y-65442835D01*
X175739141Y-65597665D01*
X175858770Y-65730526D01*
X176003407Y-65835612D01*
X176006958Y-65837193D01*
X176163183Y-65906749D01*
X176163188Y-65906750D01*
X176166733Y-65908329D01*
X176341609Y-65945500D01*
X176520391Y-65945500D01*
X176695267Y-65908329D01*
X176698812Y-65906750D01*
X176698817Y-65906749D01*
X176855042Y-65837193D01*
X176858593Y-65835612D01*
X177003230Y-65730526D01*
X177122859Y-65597665D01*
X177212250Y-65442835D01*
X177267497Y-65272803D01*
X177270926Y-65240184D01*
X177285780Y-65098853D01*
X177286185Y-65095000D01*
X177267497Y-64917197D01*
X177212250Y-64747165D01*
X177122859Y-64592335D01*
X177003230Y-64459474D01*
X176858593Y-64354388D01*
X176758123Y-64309656D01*
X176698817Y-64283251D01*
X176698811Y-64283249D01*
X176695267Y-64281671D01*
X176520391Y-64244500D01*
X176341609Y-64244500D01*
X176337813Y-64245307D01*
X176337812Y-64245307D01*
X176170528Y-64280864D01*
X176170525Y-64280865D01*
X176166733Y-64281671D01*
X176163191Y-64283248D01*
X176163188Y-64283249D01*
X176034985Y-64340329D01*
X176003408Y-64354388D01*
X175858770Y-64459474D01*
X175739141Y-64592335D01*
X175649750Y-64747165D01*
X175594503Y-64917197D01*
X175575815Y-65095000D01*
X167761185Y-65095000D01*
X167742497Y-64917197D01*
X167687250Y-64747165D01*
X167597859Y-64592335D01*
X167478230Y-64459474D01*
X167333593Y-64354388D01*
X167233123Y-64309656D01*
X167173817Y-64283251D01*
X167173811Y-64283249D01*
X167170267Y-64281671D01*
X166995391Y-64244500D01*
X166816609Y-64244500D01*
X166812813Y-64245307D01*
X166812812Y-64245307D01*
X166645528Y-64280864D01*
X166645525Y-64280865D01*
X166641733Y-64281671D01*
X166638191Y-64283248D01*
X166638188Y-64283249D01*
X166509985Y-64340329D01*
X166478408Y-64354388D01*
X166333770Y-64459474D01*
X166214141Y-64592335D01*
X166124750Y-64747165D01*
X166069503Y-64917197D01*
X166050815Y-65095000D01*
X158236185Y-65095000D01*
X158217497Y-64917197D01*
X158162250Y-64747165D01*
X158072859Y-64592335D01*
X157953230Y-64459474D01*
X157808593Y-64354388D01*
X157708123Y-64309656D01*
X157648817Y-64283251D01*
X157648811Y-64283249D01*
X157645267Y-64281671D01*
X157470391Y-64244500D01*
X157291609Y-64244500D01*
X157287813Y-64245307D01*
X157287812Y-64245307D01*
X157120528Y-64280864D01*
X157120525Y-64280865D01*
X157116733Y-64281671D01*
X157113191Y-64283248D01*
X157113188Y-64283249D01*
X156984985Y-64340329D01*
X156953408Y-64354388D01*
X156808770Y-64459474D01*
X156689141Y-64592335D01*
X156599750Y-64747165D01*
X156544503Y-64917197D01*
X156525815Y-65095000D01*
X155775500Y-65095000D01*
X155775500Y-63720262D01*
X183694520Y-63720262D01*
X183694823Y-63723871D01*
X183694823Y-63723873D01*
X183698404Y-63766519D01*
X183711759Y-63925553D01*
X183768544Y-64123586D01*
X183770196Y-64126800D01*
X183770197Y-64126803D01*
X183849788Y-64281671D01*
X183862712Y-64306818D01*
X183990677Y-64468270D01*
X183993430Y-64470613D01*
X183993433Y-64470616D01*
X184024062Y-64496683D01*
X184147564Y-64601791D01*
X184194266Y-64627892D01*
X184324239Y-64700532D01*
X184324243Y-64700534D01*
X184327398Y-64702297D01*
X184330834Y-64703414D01*
X184330840Y-64703416D01*
X184455152Y-64743807D01*
X184523329Y-64765959D01*
X184587176Y-64773572D01*
X184724294Y-64789922D01*
X184724297Y-64789922D01*
X184727894Y-64790351D01*
X184796714Y-64785056D01*
X184929689Y-64774824D01*
X184929691Y-64774824D01*
X184933300Y-64774546D01*
X185131725Y-64719145D01*
X185162863Y-64703416D01*
X185312376Y-64627892D01*
X185312379Y-64627890D01*
X185315610Y-64626258D01*
X185477951Y-64499424D01*
X185514403Y-64457194D01*
X185610201Y-64346210D01*
X185610203Y-64346208D01*
X185612564Y-64343472D01*
X185614347Y-64340333D01*
X185614350Y-64340329D01*
X185695898Y-64196777D01*
X185714323Y-64164344D01*
X185725660Y-64130266D01*
X185778208Y-63972299D01*
X185779351Y-63968863D01*
X185784823Y-63925553D01*
X185804913Y-63766519D01*
X185804913Y-63766513D01*
X185805171Y-63764474D01*
X185805583Y-63735000D01*
X185785480Y-63529970D01*
X185725935Y-63332749D01*
X185629218Y-63150849D01*
X185499011Y-62991200D01*
X185379800Y-62892580D01*
X185343070Y-62862194D01*
X185343069Y-62862193D01*
X185340275Y-62859882D01*
X185329384Y-62853993D01*
X185162238Y-62763618D01*
X185159055Y-62761897D01*
X185155605Y-62760829D01*
X185155600Y-62760827D01*
X185027894Y-62721296D01*
X184962254Y-62700977D01*
X184757369Y-62679443D01*
X184753765Y-62679771D01*
X184753764Y-62679771D01*
X184753215Y-62679821D01*
X184552203Y-62698114D01*
X184503247Y-62712522D01*
X184358043Y-62755258D01*
X184358039Y-62755260D01*
X184354572Y-62756280D01*
X184258633Y-62806436D01*
X184175209Y-62850049D01*
X184175206Y-62850051D01*
X184172002Y-62851726D01*
X184169184Y-62853992D01*
X184169182Y-62853993D01*
X184014266Y-62978548D01*
X184014263Y-62978551D01*
X184011447Y-62980815D01*
X184009121Y-62983587D01*
X184009119Y-62983589D01*
X183881351Y-63135856D01*
X183881348Y-63135860D01*
X183879024Y-63138630D01*
X183779776Y-63319162D01*
X183717484Y-63515532D01*
X183717081Y-63519123D01*
X183717081Y-63519124D01*
X183715461Y-63533570D01*
X183694520Y-63720262D01*
X155775500Y-63720262D01*
X155775500Y-62595000D01*
X156525815Y-62595000D01*
X156526220Y-62598853D01*
X156543538Y-62763618D01*
X156544503Y-62772803D01*
X156599750Y-62942835D01*
X156689141Y-63097665D01*
X156691732Y-63100542D01*
X156691733Y-63100544D01*
X156737028Y-63150849D01*
X156808770Y-63230526D01*
X156811908Y-63232806D01*
X156945072Y-63329556D01*
X156953407Y-63335612D01*
X156956958Y-63337193D01*
X157113183Y-63406749D01*
X157113188Y-63406750D01*
X157116733Y-63408329D01*
X157291609Y-63445500D01*
X157470391Y-63445500D01*
X157645267Y-63408329D01*
X157648812Y-63406750D01*
X157648817Y-63406749D01*
X157805042Y-63337193D01*
X157808593Y-63335612D01*
X157816929Y-63329556D01*
X157950092Y-63232806D01*
X157953230Y-63230526D01*
X158024972Y-63150849D01*
X158070267Y-63100544D01*
X158070268Y-63100542D01*
X158072859Y-63097665D01*
X158162250Y-62942835D01*
X158217497Y-62772803D01*
X158218463Y-62763618D01*
X158235780Y-62598853D01*
X158236185Y-62595000D01*
X158229765Y-62533922D01*
X158217902Y-62421048D01*
X158217902Y-62421046D01*
X158217497Y-62417197D01*
X158162250Y-62247165D01*
X158105367Y-62148641D01*
X161010500Y-62148641D01*
X161010655Y-62150325D01*
X161010655Y-62150331D01*
X161024608Y-62302181D01*
X161024609Y-62302186D01*
X161024919Y-62305560D01*
X161025839Y-62308823D01*
X161025840Y-62308827D01*
X161052709Y-62404097D01*
X161082314Y-62509069D01*
X161175835Y-62698710D01*
X161177860Y-62701422D01*
X161177862Y-62701425D01*
X161296188Y-62859882D01*
X161302349Y-62868133D01*
X161304844Y-62870439D01*
X161455127Y-63009360D01*
X161455131Y-63009363D01*
X161457619Y-63011663D01*
X161636446Y-63124495D01*
X161639588Y-63125749D01*
X161639591Y-63125750D01*
X161829686Y-63201590D01*
X161829689Y-63201591D01*
X161832840Y-63202848D01*
X161983451Y-63232806D01*
X162036901Y-63243438D01*
X162036903Y-63243438D01*
X162040225Y-63244099D01*
X162133429Y-63245319D01*
X162248261Y-63246823D01*
X162248266Y-63246823D01*
X162251654Y-63246867D01*
X162255000Y-63246292D01*
X162255001Y-63246292D01*
X162363515Y-63227646D01*
X162460047Y-63211059D01*
X162658425Y-63137873D01*
X162840144Y-63029762D01*
X162842688Y-63027531D01*
X162842692Y-63027528D01*
X162996570Y-62892580D01*
X162999119Y-62890345D01*
X163014812Y-62870439D01*
X163127929Y-62726950D01*
X163127931Y-62726947D01*
X163130024Y-62724292D01*
X163198048Y-62595000D01*
X166050815Y-62595000D01*
X166051220Y-62598853D01*
X166068538Y-62763618D01*
X166069503Y-62772803D01*
X166124750Y-62942835D01*
X166214141Y-63097665D01*
X166216732Y-63100542D01*
X166216733Y-63100544D01*
X166262028Y-63150849D01*
X166333770Y-63230526D01*
X166336908Y-63232806D01*
X166470072Y-63329556D01*
X166478407Y-63335612D01*
X166481958Y-63337193D01*
X166638183Y-63406749D01*
X166638188Y-63406750D01*
X166641733Y-63408329D01*
X166816609Y-63445500D01*
X166995391Y-63445500D01*
X167170267Y-63408329D01*
X167173812Y-63406750D01*
X167173817Y-63406749D01*
X167330042Y-63337193D01*
X167333593Y-63335612D01*
X167341929Y-63329556D01*
X167475092Y-63232806D01*
X167478230Y-63230526D01*
X167549972Y-63150849D01*
X167595267Y-63100544D01*
X167595268Y-63100542D01*
X167597859Y-63097665D01*
X167687250Y-62942835D01*
X167742497Y-62772803D01*
X167743463Y-62763618D01*
X167760780Y-62598853D01*
X167761185Y-62595000D01*
X167754765Y-62533922D01*
X167742902Y-62421048D01*
X167742902Y-62421046D01*
X167742497Y-62417197D01*
X167687250Y-62247165D01*
X167630367Y-62148641D01*
X170535500Y-62148641D01*
X170535655Y-62150325D01*
X170535655Y-62150331D01*
X170549608Y-62302181D01*
X170549609Y-62302186D01*
X170549919Y-62305560D01*
X170550839Y-62308823D01*
X170550840Y-62308827D01*
X170577709Y-62404097D01*
X170607314Y-62509069D01*
X170700835Y-62698710D01*
X170702860Y-62701422D01*
X170702862Y-62701425D01*
X170821188Y-62859882D01*
X170827349Y-62868133D01*
X170829844Y-62870439D01*
X170980127Y-63009360D01*
X170980131Y-63009363D01*
X170982619Y-63011663D01*
X171161446Y-63124495D01*
X171164588Y-63125749D01*
X171164591Y-63125750D01*
X171354686Y-63201590D01*
X171354689Y-63201591D01*
X171357840Y-63202848D01*
X171508451Y-63232806D01*
X171561901Y-63243438D01*
X171561903Y-63243438D01*
X171565225Y-63244099D01*
X171658429Y-63245319D01*
X171773261Y-63246823D01*
X171773266Y-63246823D01*
X171776654Y-63246867D01*
X171780000Y-63246292D01*
X171780001Y-63246292D01*
X171888515Y-63227646D01*
X171985047Y-63211059D01*
X172183425Y-63137873D01*
X172365144Y-63029762D01*
X172367688Y-63027531D01*
X172367692Y-63027528D01*
X172521570Y-62892580D01*
X172524119Y-62890345D01*
X172539812Y-62870439D01*
X172652929Y-62726950D01*
X172652931Y-62726947D01*
X172655024Y-62724292D01*
X172723048Y-62595000D01*
X175575815Y-62595000D01*
X175576220Y-62598853D01*
X175593538Y-62763618D01*
X175594503Y-62772803D01*
X175649750Y-62942835D01*
X175739141Y-63097665D01*
X175741732Y-63100542D01*
X175741733Y-63100544D01*
X175787028Y-63150849D01*
X175858770Y-63230526D01*
X175861908Y-63232806D01*
X175995072Y-63329556D01*
X176003407Y-63335612D01*
X176006958Y-63337193D01*
X176163183Y-63406749D01*
X176163188Y-63406750D01*
X176166733Y-63408329D01*
X176341609Y-63445500D01*
X176520391Y-63445500D01*
X176695267Y-63408329D01*
X176698812Y-63406750D01*
X176698817Y-63406749D01*
X176855042Y-63337193D01*
X176858593Y-63335612D01*
X176866929Y-63329556D01*
X177000092Y-63232806D01*
X177003230Y-63230526D01*
X177074972Y-63150849D01*
X177120267Y-63100544D01*
X177120268Y-63100542D01*
X177122859Y-63097665D01*
X177212250Y-62942835D01*
X177267497Y-62772803D01*
X177268463Y-62763618D01*
X177285780Y-62598853D01*
X177286185Y-62595000D01*
X177279765Y-62533922D01*
X177267902Y-62421048D01*
X177267902Y-62421046D01*
X177267497Y-62417197D01*
X177212250Y-62247165D01*
X177155367Y-62148641D01*
X180060500Y-62148641D01*
X180060655Y-62150325D01*
X180060655Y-62150331D01*
X180074608Y-62302181D01*
X180074609Y-62302186D01*
X180074919Y-62305560D01*
X180075839Y-62308823D01*
X180075840Y-62308827D01*
X180102709Y-62404097D01*
X180132314Y-62509069D01*
X180225835Y-62698710D01*
X180227860Y-62701422D01*
X180227862Y-62701425D01*
X180346188Y-62859882D01*
X180352349Y-62868133D01*
X180354844Y-62870439D01*
X180505127Y-63009360D01*
X180505131Y-63009363D01*
X180507619Y-63011663D01*
X180686446Y-63124495D01*
X180689588Y-63125749D01*
X180689591Y-63125750D01*
X180879686Y-63201590D01*
X180879689Y-63201591D01*
X180882840Y-63202848D01*
X181033451Y-63232806D01*
X181086901Y-63243438D01*
X181086903Y-63243438D01*
X181090225Y-63244099D01*
X181183429Y-63245319D01*
X181298261Y-63246823D01*
X181298266Y-63246823D01*
X181301654Y-63246867D01*
X181305000Y-63246292D01*
X181305001Y-63246292D01*
X181413515Y-63227646D01*
X181510047Y-63211059D01*
X181708425Y-63137873D01*
X181890144Y-63029762D01*
X181892688Y-63027531D01*
X181892692Y-63027528D01*
X182046570Y-62892580D01*
X182049119Y-62890345D01*
X182064812Y-62870439D01*
X182177929Y-62726950D01*
X182177931Y-62726947D01*
X182180024Y-62724292D01*
X182278477Y-62537164D01*
X182341180Y-62335227D01*
X182361500Y-62163545D01*
X182361500Y-61180262D01*
X183694520Y-61180262D01*
X183694823Y-61183871D01*
X183694823Y-61183873D01*
X183698404Y-61226519D01*
X183711759Y-61385553D01*
X183768544Y-61583586D01*
X183770196Y-61586800D01*
X183770197Y-61586803D01*
X183791106Y-61627487D01*
X183862712Y-61766818D01*
X183990677Y-61928270D01*
X183993430Y-61930613D01*
X183993433Y-61930616D01*
X184058681Y-61986146D01*
X184147564Y-62061791D01*
X184194266Y-62087892D01*
X184324239Y-62160532D01*
X184324243Y-62160534D01*
X184327398Y-62162297D01*
X184330834Y-62163414D01*
X184330840Y-62163416D01*
X184455256Y-62203841D01*
X184523329Y-62225959D01*
X184587176Y-62233572D01*
X184724294Y-62249922D01*
X184724297Y-62249922D01*
X184727894Y-62250351D01*
X184812942Y-62243807D01*
X184929689Y-62234824D01*
X184929691Y-62234824D01*
X184933300Y-62234546D01*
X185131725Y-62179145D01*
X185162863Y-62163416D01*
X185312376Y-62087892D01*
X185312379Y-62087890D01*
X185315610Y-62086258D01*
X185477951Y-61959424D01*
X185507292Y-61925432D01*
X185610201Y-61806210D01*
X185610203Y-61806208D01*
X185612564Y-61803472D01*
X185614347Y-61800333D01*
X185614350Y-61800329D01*
X185695898Y-61656777D01*
X185714323Y-61624344D01*
X185725660Y-61590266D01*
X185778208Y-61432299D01*
X185779351Y-61428863D01*
X185784823Y-61385553D01*
X185804913Y-61226519D01*
X185804913Y-61226513D01*
X185805171Y-61224474D01*
X185805583Y-61195000D01*
X185796040Y-61097665D01*
X185785833Y-60993570D01*
X185785480Y-60989970D01*
X185725935Y-60792749D01*
X185664866Y-60677894D01*
X185630917Y-60614044D01*
X185630916Y-60614042D01*
X185629218Y-60610849D01*
X185499011Y-60451200D01*
X185340275Y-60319882D01*
X185329384Y-60313993D01*
X185162238Y-60223618D01*
X185159055Y-60221897D01*
X185155605Y-60220829D01*
X185155600Y-60220827D01*
X185012491Y-60176528D01*
X184962254Y-60160977D01*
X184757369Y-60139443D01*
X184753765Y-60139771D01*
X184753764Y-60139771D01*
X184753215Y-60139821D01*
X184552203Y-60158114D01*
X184537396Y-60162472D01*
X184358043Y-60215258D01*
X184358039Y-60215260D01*
X184354572Y-60216280D01*
X184295495Y-60247165D01*
X184175209Y-60310049D01*
X184175206Y-60310051D01*
X184172002Y-60311726D01*
X184169184Y-60313992D01*
X184169182Y-60313993D01*
X184014266Y-60438548D01*
X184014263Y-60438551D01*
X184011447Y-60440815D01*
X184009121Y-60443587D01*
X184009119Y-60443589D01*
X183881351Y-60595856D01*
X183881348Y-60595860D01*
X183879024Y-60598630D01*
X183779776Y-60779162D01*
X183778682Y-60782611D01*
X183726791Y-60946193D01*
X183717484Y-60975532D01*
X183717081Y-60979123D01*
X183717081Y-60979124D01*
X183715461Y-60993570D01*
X183694520Y-61180262D01*
X182361500Y-61180262D01*
X182361500Y-61041359D01*
X182361345Y-61039669D01*
X182347392Y-60887819D01*
X182347391Y-60887814D01*
X182347081Y-60884440D01*
X182337801Y-60851533D01*
X182315596Y-60772803D01*
X182289686Y-60680931D01*
X182196165Y-60491290D01*
X182179300Y-60468704D01*
X182071683Y-60324588D01*
X182071682Y-60324587D01*
X182069651Y-60321867D01*
X181961504Y-60221897D01*
X181916873Y-60180640D01*
X181916869Y-60180637D01*
X181914381Y-60178337D01*
X181885696Y-60160238D01*
X181738415Y-60067310D01*
X181738414Y-60067309D01*
X181735554Y-60065505D01*
X181732412Y-60064251D01*
X181732409Y-60064250D01*
X181542314Y-59988410D01*
X181542311Y-59988409D01*
X181539160Y-59987152D01*
X181382791Y-59956049D01*
X181335099Y-59946562D01*
X181335097Y-59946562D01*
X181331775Y-59945901D01*
X181238571Y-59944681D01*
X181123739Y-59943177D01*
X181123734Y-59943177D01*
X181120346Y-59943133D01*
X181117000Y-59943708D01*
X181116999Y-59943708D01*
X181100390Y-59946562D01*
X180911953Y-59978941D01*
X180713575Y-60052127D01*
X180531856Y-60160238D01*
X180529312Y-60162469D01*
X180529308Y-60162472D01*
X180467952Y-60216280D01*
X180372881Y-60299655D01*
X180370784Y-60302314D01*
X180370783Y-60302316D01*
X180251202Y-60454005D01*
X180241976Y-60465708D01*
X180143523Y-60652836D01*
X180080820Y-60854773D01*
X180060500Y-61026455D01*
X180060500Y-62148641D01*
X177155367Y-62148641D01*
X177122859Y-62092335D01*
X177118859Y-62087892D01*
X177005823Y-61962354D01*
X177003230Y-61959474D01*
X176858593Y-61854388D01*
X176855042Y-61852807D01*
X176698817Y-61783251D01*
X176698811Y-61783249D01*
X176695267Y-61781671D01*
X176520391Y-61744500D01*
X176341609Y-61744500D01*
X176337813Y-61745307D01*
X176337812Y-61745307D01*
X176170528Y-61780864D01*
X176170525Y-61780865D01*
X176166733Y-61781671D01*
X176163191Y-61783248D01*
X176163188Y-61783249D01*
X176007203Y-61852698D01*
X176003408Y-61854388D01*
X176000272Y-61856666D01*
X176000271Y-61856667D01*
X175862611Y-61956683D01*
X175858770Y-61959474D01*
X175856177Y-61962354D01*
X175743142Y-62087892D01*
X175739141Y-62092335D01*
X175649750Y-62247165D01*
X175594503Y-62417197D01*
X175594098Y-62421046D01*
X175594098Y-62421048D01*
X175582235Y-62533922D01*
X175575815Y-62595000D01*
X172723048Y-62595000D01*
X172753477Y-62537164D01*
X172816180Y-62335227D01*
X172836500Y-62163545D01*
X172836500Y-61041359D01*
X172836345Y-61039669D01*
X172822392Y-60887819D01*
X172822391Y-60887814D01*
X172822081Y-60884440D01*
X172812801Y-60851533D01*
X172790596Y-60772803D01*
X172764686Y-60680931D01*
X172722309Y-60595000D01*
X175575815Y-60595000D01*
X175576220Y-60598853D01*
X175584528Y-60677894D01*
X175594503Y-60772803D01*
X175649750Y-60942835D01*
X175739141Y-61097665D01*
X175858770Y-61230526D01*
X176003407Y-61335612D01*
X176006958Y-61337193D01*
X176163183Y-61406749D01*
X176163188Y-61406750D01*
X176166733Y-61408329D01*
X176341609Y-61445500D01*
X176520391Y-61445500D01*
X176695267Y-61408329D01*
X176698812Y-61406750D01*
X176698817Y-61406749D01*
X176855042Y-61337193D01*
X176858593Y-61335612D01*
X177003230Y-61230526D01*
X177122859Y-61097665D01*
X177212250Y-60942835D01*
X177267497Y-60772803D01*
X177277473Y-60677894D01*
X177285780Y-60598853D01*
X177286185Y-60595000D01*
X177272596Y-60465708D01*
X177267902Y-60421048D01*
X177267902Y-60421046D01*
X177267497Y-60417197D01*
X177212250Y-60247165D01*
X177122859Y-60092335D01*
X177100327Y-60067310D01*
X177005823Y-59962354D01*
X177003230Y-59959474D01*
X176858593Y-59854388D01*
X176855042Y-59852807D01*
X176698817Y-59783251D01*
X176698811Y-59783249D01*
X176695267Y-59781671D01*
X176520391Y-59744500D01*
X176341609Y-59744500D01*
X176337813Y-59745307D01*
X176337812Y-59745307D01*
X176170528Y-59780864D01*
X176170525Y-59780865D01*
X176166733Y-59781671D01*
X176163191Y-59783248D01*
X176163188Y-59783249D01*
X176163184Y-59783251D01*
X176003408Y-59854388D01*
X176000272Y-59856666D01*
X176000271Y-59856667D01*
X175876542Y-59946562D01*
X175858770Y-59959474D01*
X175856177Y-59962354D01*
X175761674Y-60067310D01*
X175739141Y-60092335D01*
X175649750Y-60247165D01*
X175594503Y-60417197D01*
X175594098Y-60421046D01*
X175594098Y-60421048D01*
X175589404Y-60465708D01*
X175575815Y-60595000D01*
X172722309Y-60595000D01*
X172671165Y-60491290D01*
X172654300Y-60468704D01*
X172546683Y-60324588D01*
X172546682Y-60324587D01*
X172544651Y-60321867D01*
X172436504Y-60221897D01*
X172391873Y-60180640D01*
X172391869Y-60180637D01*
X172389381Y-60178337D01*
X172360696Y-60160238D01*
X172213415Y-60067310D01*
X172213414Y-60067309D01*
X172210554Y-60065505D01*
X172207412Y-60064251D01*
X172207409Y-60064250D01*
X172017314Y-59988410D01*
X172017311Y-59988409D01*
X172014160Y-59987152D01*
X171857791Y-59956049D01*
X171810099Y-59946562D01*
X171810097Y-59946562D01*
X171806775Y-59945901D01*
X171713571Y-59944681D01*
X171598739Y-59943177D01*
X171598734Y-59943177D01*
X171595346Y-59943133D01*
X171592000Y-59943708D01*
X171591999Y-59943708D01*
X171575390Y-59946562D01*
X171386953Y-59978941D01*
X171188575Y-60052127D01*
X171006856Y-60160238D01*
X171004312Y-60162469D01*
X171004308Y-60162472D01*
X170942952Y-60216280D01*
X170847881Y-60299655D01*
X170845784Y-60302314D01*
X170845783Y-60302316D01*
X170726202Y-60454005D01*
X170716976Y-60465708D01*
X170618523Y-60652836D01*
X170555820Y-60854773D01*
X170535500Y-61026455D01*
X170535500Y-62148641D01*
X167630367Y-62148641D01*
X167597859Y-62092335D01*
X167593859Y-62087892D01*
X167480823Y-61962354D01*
X167478230Y-61959474D01*
X167333593Y-61854388D01*
X167330042Y-61852807D01*
X167173817Y-61783251D01*
X167173811Y-61783249D01*
X167170267Y-61781671D01*
X166995391Y-61744500D01*
X166816609Y-61744500D01*
X166812813Y-61745307D01*
X166812812Y-61745307D01*
X166645528Y-61780864D01*
X166645525Y-61780865D01*
X166641733Y-61781671D01*
X166638191Y-61783248D01*
X166638188Y-61783249D01*
X166482203Y-61852698D01*
X166478408Y-61854388D01*
X166475272Y-61856666D01*
X166475271Y-61856667D01*
X166337611Y-61956683D01*
X166333770Y-61959474D01*
X166331177Y-61962354D01*
X166218142Y-62087892D01*
X166214141Y-62092335D01*
X166124750Y-62247165D01*
X166069503Y-62417197D01*
X166069098Y-62421046D01*
X166069098Y-62421048D01*
X166057235Y-62533922D01*
X166050815Y-62595000D01*
X163198048Y-62595000D01*
X163228477Y-62537164D01*
X163291180Y-62335227D01*
X163311500Y-62163545D01*
X163311500Y-61041359D01*
X163311345Y-61039669D01*
X163297392Y-60887819D01*
X163297391Y-60887814D01*
X163297081Y-60884440D01*
X163287801Y-60851533D01*
X163265596Y-60772803D01*
X163239686Y-60680931D01*
X163197309Y-60595000D01*
X166050815Y-60595000D01*
X166051220Y-60598853D01*
X166059528Y-60677894D01*
X166069503Y-60772803D01*
X166124750Y-60942835D01*
X166214141Y-61097665D01*
X166333770Y-61230526D01*
X166478407Y-61335612D01*
X166481958Y-61337193D01*
X166638183Y-61406749D01*
X166638188Y-61406750D01*
X166641733Y-61408329D01*
X166816609Y-61445500D01*
X166995391Y-61445500D01*
X167170267Y-61408329D01*
X167173812Y-61406750D01*
X167173817Y-61406749D01*
X167330042Y-61337193D01*
X167333593Y-61335612D01*
X167478230Y-61230526D01*
X167597859Y-61097665D01*
X167687250Y-60942835D01*
X167742497Y-60772803D01*
X167752473Y-60677894D01*
X167760780Y-60598853D01*
X167761185Y-60595000D01*
X167747596Y-60465708D01*
X167742902Y-60421048D01*
X167742902Y-60421046D01*
X167742497Y-60417197D01*
X167687250Y-60247165D01*
X167597859Y-60092335D01*
X167575327Y-60067310D01*
X167480823Y-59962354D01*
X167478230Y-59959474D01*
X167333593Y-59854388D01*
X167330042Y-59852807D01*
X167173817Y-59783251D01*
X167173811Y-59783249D01*
X167170267Y-59781671D01*
X166995391Y-59744500D01*
X166816609Y-59744500D01*
X166812813Y-59745307D01*
X166812812Y-59745307D01*
X166645528Y-59780864D01*
X166645525Y-59780865D01*
X166641733Y-59781671D01*
X166638191Y-59783248D01*
X166638188Y-59783249D01*
X166638184Y-59783251D01*
X166478408Y-59854388D01*
X166475272Y-59856666D01*
X166475271Y-59856667D01*
X166351542Y-59946562D01*
X166333770Y-59959474D01*
X166331177Y-59962354D01*
X166236674Y-60067310D01*
X166214141Y-60092335D01*
X166124750Y-60247165D01*
X166069503Y-60417197D01*
X166069098Y-60421046D01*
X166069098Y-60421048D01*
X166064404Y-60465708D01*
X166050815Y-60595000D01*
X163197309Y-60595000D01*
X163146165Y-60491290D01*
X163129300Y-60468704D01*
X163021683Y-60324588D01*
X163021682Y-60324587D01*
X163019651Y-60321867D01*
X162911504Y-60221897D01*
X162866873Y-60180640D01*
X162866869Y-60180637D01*
X162864381Y-60178337D01*
X162835696Y-60160238D01*
X162688415Y-60067310D01*
X162688414Y-60067309D01*
X162685554Y-60065505D01*
X162682412Y-60064251D01*
X162682409Y-60064250D01*
X162492314Y-59988410D01*
X162492311Y-59988409D01*
X162489160Y-59987152D01*
X162332791Y-59956049D01*
X162285099Y-59946562D01*
X162285097Y-59946562D01*
X162281775Y-59945901D01*
X162188571Y-59944681D01*
X162073739Y-59943177D01*
X162073734Y-59943177D01*
X162070346Y-59943133D01*
X162067000Y-59943708D01*
X162066999Y-59943708D01*
X162050390Y-59946562D01*
X161861953Y-59978941D01*
X161663575Y-60052127D01*
X161481856Y-60160238D01*
X161479312Y-60162469D01*
X161479308Y-60162472D01*
X161417952Y-60216280D01*
X161322881Y-60299655D01*
X161320784Y-60302314D01*
X161320783Y-60302316D01*
X161201202Y-60454005D01*
X161191976Y-60465708D01*
X161093523Y-60652836D01*
X161030820Y-60854773D01*
X161010500Y-61026455D01*
X161010500Y-62148641D01*
X158105367Y-62148641D01*
X158072859Y-62092335D01*
X158068859Y-62087892D01*
X157955823Y-61962354D01*
X157953230Y-61959474D01*
X157808593Y-61854388D01*
X157805042Y-61852807D01*
X157648817Y-61783251D01*
X157648811Y-61783249D01*
X157645267Y-61781671D01*
X157470391Y-61744500D01*
X157291609Y-61744500D01*
X157287813Y-61745307D01*
X157287812Y-61745307D01*
X157120528Y-61780864D01*
X157120525Y-61780865D01*
X157116733Y-61781671D01*
X157113191Y-61783248D01*
X157113188Y-61783249D01*
X156957203Y-61852698D01*
X156953408Y-61854388D01*
X156950272Y-61856666D01*
X156950271Y-61856667D01*
X156812611Y-61956683D01*
X156808770Y-61959474D01*
X156806177Y-61962354D01*
X156693142Y-62087892D01*
X156689141Y-62092335D01*
X156599750Y-62247165D01*
X156544503Y-62417197D01*
X156544098Y-62421046D01*
X156544098Y-62421048D01*
X156532235Y-62533922D01*
X156525815Y-62595000D01*
X155775500Y-62595000D01*
X155775500Y-60595000D01*
X156525815Y-60595000D01*
X156526220Y-60598853D01*
X156534528Y-60677894D01*
X156544503Y-60772803D01*
X156599750Y-60942835D01*
X156689141Y-61097665D01*
X156808770Y-61230526D01*
X156953407Y-61335612D01*
X156956958Y-61337193D01*
X157113183Y-61406749D01*
X157113188Y-61406750D01*
X157116733Y-61408329D01*
X157291609Y-61445500D01*
X157470391Y-61445500D01*
X157645267Y-61408329D01*
X157648812Y-61406750D01*
X157648817Y-61406749D01*
X157805042Y-61337193D01*
X157808593Y-61335612D01*
X157953230Y-61230526D01*
X158072859Y-61097665D01*
X158162250Y-60942835D01*
X158217497Y-60772803D01*
X158227473Y-60677894D01*
X158235780Y-60598853D01*
X158236185Y-60595000D01*
X158222596Y-60465708D01*
X158217902Y-60421048D01*
X158217902Y-60421046D01*
X158217497Y-60417197D01*
X158162250Y-60247165D01*
X158072859Y-60092335D01*
X158050327Y-60067310D01*
X157955823Y-59962354D01*
X157953230Y-59959474D01*
X157808593Y-59854388D01*
X157805042Y-59852807D01*
X157648817Y-59783251D01*
X157648811Y-59783249D01*
X157645267Y-59781671D01*
X157470391Y-59744500D01*
X157291609Y-59744500D01*
X157287813Y-59745307D01*
X157287812Y-59745307D01*
X157120528Y-59780864D01*
X157120525Y-59780865D01*
X157116733Y-59781671D01*
X157113191Y-59783248D01*
X157113188Y-59783249D01*
X157113184Y-59783251D01*
X156953408Y-59854388D01*
X156950272Y-59856666D01*
X156950271Y-59856667D01*
X156826542Y-59946562D01*
X156808770Y-59959474D01*
X156806177Y-59962354D01*
X156711674Y-60067310D01*
X156689141Y-60092335D01*
X156599750Y-60247165D01*
X156544503Y-60417197D01*
X156544098Y-60421046D01*
X156544098Y-60421048D01*
X156539404Y-60465708D01*
X156525815Y-60595000D01*
X155775500Y-60595000D01*
X155775500Y-58764748D01*
X156530500Y-58764748D01*
X156542133Y-58823231D01*
X156546184Y-58829293D01*
X156546184Y-58829294D01*
X156582398Y-58883491D01*
X156586448Y-58889552D01*
X156652769Y-58933867D01*
X156697295Y-58942724D01*
X156707682Y-58944790D01*
X156707683Y-58944790D01*
X156711252Y-58945500D01*
X158050748Y-58945500D01*
X158054317Y-58944790D01*
X158054318Y-58944790D01*
X158064705Y-58942724D01*
X158109231Y-58933867D01*
X158175552Y-58889552D01*
X158179602Y-58883491D01*
X158215816Y-58829294D01*
X158215816Y-58829293D01*
X158219867Y-58823231D01*
X158231500Y-58764748D01*
X166055500Y-58764748D01*
X166067133Y-58823231D01*
X166071184Y-58829293D01*
X166071184Y-58829294D01*
X166107398Y-58883491D01*
X166111448Y-58889552D01*
X166177769Y-58933867D01*
X166222295Y-58942724D01*
X166232682Y-58944790D01*
X166232683Y-58944790D01*
X166236252Y-58945500D01*
X167575748Y-58945500D01*
X167579317Y-58944790D01*
X167579318Y-58944790D01*
X167589705Y-58942724D01*
X167634231Y-58933867D01*
X167700552Y-58889552D01*
X167704602Y-58883491D01*
X167740816Y-58829294D01*
X167740816Y-58829293D01*
X167744867Y-58823231D01*
X167756500Y-58764748D01*
X175580500Y-58764748D01*
X175592133Y-58823231D01*
X175596184Y-58829293D01*
X175596184Y-58829294D01*
X175632398Y-58883491D01*
X175636448Y-58889552D01*
X175702769Y-58933867D01*
X175747295Y-58942724D01*
X175757682Y-58944790D01*
X175757683Y-58944790D01*
X175761252Y-58945500D01*
X177100748Y-58945500D01*
X177104317Y-58944790D01*
X177104318Y-58944790D01*
X177114705Y-58942724D01*
X177159231Y-58933867D01*
X177225552Y-58889552D01*
X177229602Y-58883491D01*
X177265816Y-58829294D01*
X177265816Y-58829293D01*
X177269867Y-58823231D01*
X177281500Y-58764748D01*
X177281500Y-58640262D01*
X183694520Y-58640262D01*
X183694823Y-58643871D01*
X183694823Y-58643873D01*
X183705273Y-58768318D01*
X183711759Y-58845553D01*
X183768544Y-59043586D01*
X183770196Y-59046800D01*
X183770197Y-59046803D01*
X183791106Y-59087487D01*
X183862712Y-59226818D01*
X183990677Y-59388270D01*
X183993430Y-59390613D01*
X183993433Y-59390616D01*
X184024062Y-59416683D01*
X184147564Y-59521791D01*
X184194266Y-59547892D01*
X184324239Y-59620532D01*
X184324243Y-59620534D01*
X184327398Y-59622297D01*
X184330834Y-59623414D01*
X184330840Y-59623416D01*
X184455256Y-59663841D01*
X184523329Y-59685959D01*
X184587176Y-59693572D01*
X184724294Y-59709922D01*
X184724297Y-59709922D01*
X184727894Y-59710351D01*
X184796714Y-59705056D01*
X184929689Y-59694824D01*
X184929691Y-59694824D01*
X184933300Y-59694546D01*
X185131725Y-59639145D01*
X185162863Y-59623416D01*
X185312376Y-59547892D01*
X185312379Y-59547890D01*
X185315610Y-59546258D01*
X185477951Y-59419424D01*
X185612564Y-59263472D01*
X185614347Y-59260333D01*
X185614350Y-59260329D01*
X185695898Y-59116777D01*
X185714323Y-59084344D01*
X185725660Y-59050266D01*
X185778208Y-58892299D01*
X185779351Y-58888863D01*
X185784823Y-58845553D01*
X185804913Y-58686519D01*
X185804913Y-58686513D01*
X185805171Y-58684474D01*
X185805583Y-58655000D01*
X185785480Y-58449970D01*
X185725935Y-58252749D01*
X185629218Y-58070849D01*
X185499011Y-57911200D01*
X185340275Y-57779882D01*
X185329384Y-57773993D01*
X185162238Y-57683618D01*
X185159055Y-57681897D01*
X185155605Y-57680829D01*
X185155600Y-57680827D01*
X185030996Y-57642256D01*
X184962254Y-57620977D01*
X184757369Y-57599443D01*
X184753765Y-57599771D01*
X184753764Y-57599771D01*
X184753215Y-57599821D01*
X184552203Y-57618114D01*
X184503247Y-57632522D01*
X184358043Y-57675258D01*
X184358039Y-57675260D01*
X184354572Y-57676280D01*
X184258633Y-57726436D01*
X184175209Y-57770049D01*
X184175206Y-57770051D01*
X184172002Y-57771726D01*
X184169184Y-57773992D01*
X184169182Y-57773993D01*
X184014266Y-57898548D01*
X184014263Y-57898551D01*
X184011447Y-57900815D01*
X184009121Y-57903587D01*
X184009119Y-57903589D01*
X183881351Y-58055856D01*
X183881348Y-58055860D01*
X183879024Y-58058630D01*
X183779776Y-58239162D01*
X183717484Y-58435532D01*
X183717081Y-58439123D01*
X183717081Y-58439124D01*
X183715461Y-58453570D01*
X183694520Y-58640262D01*
X177281500Y-58640262D01*
X177281500Y-57425252D01*
X177269867Y-57366769D01*
X177225552Y-57300448D01*
X177159231Y-57256133D01*
X177114705Y-57247276D01*
X177104318Y-57245210D01*
X177104317Y-57245210D01*
X177100748Y-57244500D01*
X175761252Y-57244500D01*
X175757683Y-57245210D01*
X175757682Y-57245210D01*
X175747295Y-57247276D01*
X175702769Y-57256133D01*
X175636448Y-57300448D01*
X175592133Y-57366769D01*
X175580500Y-57425252D01*
X175580500Y-58764748D01*
X167756500Y-58764748D01*
X167756500Y-57425252D01*
X167744867Y-57366769D01*
X167700552Y-57300448D01*
X167634231Y-57256133D01*
X167589705Y-57247276D01*
X167579318Y-57245210D01*
X167579317Y-57245210D01*
X167575748Y-57244500D01*
X166236252Y-57244500D01*
X166232683Y-57245210D01*
X166232682Y-57245210D01*
X166222295Y-57247276D01*
X166177769Y-57256133D01*
X166111448Y-57300448D01*
X166067133Y-57366769D01*
X166055500Y-57425252D01*
X166055500Y-58764748D01*
X158231500Y-58764748D01*
X158231500Y-57425252D01*
X158219867Y-57366769D01*
X158175552Y-57300448D01*
X158109231Y-57256133D01*
X158064705Y-57247276D01*
X158054318Y-57245210D01*
X158054317Y-57245210D01*
X158050748Y-57244500D01*
X156711252Y-57244500D01*
X156707683Y-57245210D01*
X156707682Y-57245210D01*
X156697295Y-57247276D01*
X156652769Y-57256133D01*
X156586448Y-57300448D01*
X156542133Y-57366769D01*
X156530500Y-57425252D01*
X156530500Y-58764748D01*
X155775500Y-58764748D01*
X155775500Y-55115654D01*
X156329133Y-55115654D01*
X156329708Y-55119000D01*
X156329708Y-55119001D01*
X156332677Y-55136280D01*
X156364941Y-55324047D01*
X156438127Y-55522425D01*
X156439860Y-55525338D01*
X156443139Y-55530849D01*
X156546238Y-55704144D01*
X156548469Y-55706688D01*
X156548472Y-55706692D01*
X156624792Y-55793718D01*
X156685655Y-55863119D01*
X156851708Y-55994024D01*
X157038836Y-56092477D01*
X157042075Y-56093483D01*
X157042078Y-56093484D01*
X157206294Y-56144474D01*
X157240773Y-56155180D01*
X157389235Y-56172752D01*
X157410283Y-56175243D01*
X157410284Y-56175243D01*
X157412455Y-56175500D01*
X158534641Y-56175500D01*
X158536325Y-56175345D01*
X158536331Y-56175345D01*
X158688181Y-56161392D01*
X158688186Y-56161391D01*
X158691560Y-56161081D01*
X158694823Y-56160161D01*
X158694827Y-56160160D01*
X158790097Y-56133291D01*
X158895069Y-56103686D01*
X159084710Y-56010165D01*
X159087422Y-56008140D01*
X159087425Y-56008138D01*
X159251412Y-55885683D01*
X159251413Y-55885682D01*
X159254133Y-55883651D01*
X159308990Y-55824306D01*
X159395360Y-55730873D01*
X159395363Y-55730869D01*
X159397663Y-55728381D01*
X159412218Y-55705313D01*
X159508690Y-55552415D01*
X159508691Y-55552414D01*
X159510495Y-55549554D01*
X159514590Y-55539291D01*
X159587590Y-55356314D01*
X159587591Y-55356311D01*
X159588848Y-55353160D01*
X159620419Y-55194440D01*
X162744901Y-55194440D01*
X162745584Y-55199663D01*
X162745584Y-55199666D01*
X162758037Y-55294894D01*
X162761633Y-55322394D01*
X162813605Y-55440510D01*
X162896639Y-55539291D01*
X163004060Y-55610796D01*
X163009092Y-55612368D01*
X163009094Y-55612369D01*
X163044714Y-55623497D01*
X163127233Y-55649278D01*
X163132501Y-55649375D01*
X163132504Y-55649375D01*
X163186552Y-55650365D01*
X163256255Y-55651643D01*
X163261338Y-55650257D01*
X163261340Y-55650257D01*
X163375671Y-55619086D01*
X163380755Y-55617700D01*
X163490724Y-55550179D01*
X163577322Y-55454507D01*
X163633588Y-55338375D01*
X163635445Y-55339275D01*
X163661409Y-55305679D01*
X163710866Y-55294894D01*
X163755684Y-55318422D01*
X163768686Y-55338424D01*
X163779759Y-55363589D01*
X163813605Y-55440510D01*
X163896639Y-55539291D01*
X164004060Y-55610796D01*
X164009092Y-55612368D01*
X164009094Y-55612369D01*
X164044714Y-55623497D01*
X164127233Y-55649278D01*
X164132501Y-55649375D01*
X164132504Y-55649375D01*
X164186552Y-55650365D01*
X164256255Y-55651643D01*
X164261338Y-55650257D01*
X164261340Y-55650257D01*
X164375671Y-55619086D01*
X164380755Y-55617700D01*
X164490724Y-55550179D01*
X164577322Y-55454507D01*
X164633588Y-55338375D01*
X164651530Y-55231726D01*
X164654522Y-55213944D01*
X164654522Y-55213943D01*
X164654997Y-55211120D01*
X164655133Y-55200000D01*
X164653591Y-55189234D01*
X164643054Y-55115654D01*
X165854133Y-55115654D01*
X165854708Y-55119000D01*
X165854708Y-55119001D01*
X165857677Y-55136280D01*
X165889941Y-55324047D01*
X165963127Y-55522425D01*
X165964860Y-55525338D01*
X165968139Y-55530849D01*
X166071238Y-55704144D01*
X166073469Y-55706688D01*
X166073472Y-55706692D01*
X166149792Y-55793718D01*
X166210655Y-55863119D01*
X166376708Y-55994024D01*
X166563836Y-56092477D01*
X166567075Y-56093483D01*
X166567078Y-56093484D01*
X166731294Y-56144474D01*
X166765773Y-56155180D01*
X166914235Y-56172752D01*
X166935283Y-56175243D01*
X166935284Y-56175243D01*
X166937455Y-56175500D01*
X168059641Y-56175500D01*
X168061325Y-56175345D01*
X168061331Y-56175345D01*
X168213181Y-56161392D01*
X168213186Y-56161391D01*
X168216560Y-56161081D01*
X168219823Y-56160161D01*
X168219827Y-56160160D01*
X168315097Y-56133291D01*
X168420069Y-56103686D01*
X168609710Y-56010165D01*
X168612422Y-56008140D01*
X168612425Y-56008138D01*
X168776412Y-55885683D01*
X168776413Y-55885682D01*
X168779133Y-55883651D01*
X168833990Y-55824306D01*
X168920360Y-55730873D01*
X168920363Y-55730869D01*
X168922663Y-55728381D01*
X168937218Y-55705313D01*
X169033690Y-55552415D01*
X169033691Y-55552414D01*
X169035495Y-55549554D01*
X169039590Y-55539291D01*
X169112590Y-55356314D01*
X169112591Y-55356311D01*
X169113848Y-55353160D01*
X169155099Y-55145775D01*
X169155493Y-55115654D01*
X175379133Y-55115654D01*
X175379708Y-55119000D01*
X175379708Y-55119001D01*
X175382677Y-55136280D01*
X175414941Y-55324047D01*
X175488127Y-55522425D01*
X175489860Y-55525338D01*
X175493139Y-55530849D01*
X175596238Y-55704144D01*
X175598469Y-55706688D01*
X175598472Y-55706692D01*
X175674792Y-55793718D01*
X175735655Y-55863119D01*
X175901708Y-55994024D01*
X176088836Y-56092477D01*
X176092075Y-56093483D01*
X176092078Y-56093484D01*
X176256294Y-56144474D01*
X176290773Y-56155180D01*
X176439235Y-56172752D01*
X176460283Y-56175243D01*
X176460284Y-56175243D01*
X176462455Y-56175500D01*
X177584641Y-56175500D01*
X177586325Y-56175345D01*
X177586331Y-56175345D01*
X177738181Y-56161392D01*
X177738186Y-56161391D01*
X177741560Y-56161081D01*
X177744823Y-56160161D01*
X177744827Y-56160160D01*
X177840097Y-56133291D01*
X177945069Y-56103686D01*
X177952012Y-56100262D01*
X183694520Y-56100262D01*
X183694823Y-56103871D01*
X183694823Y-56103873D01*
X183699165Y-56155578D01*
X183711759Y-56305553D01*
X183768544Y-56503586D01*
X183770196Y-56506800D01*
X183770197Y-56506803D01*
X183791106Y-56547487D01*
X183862712Y-56686818D01*
X183990677Y-56848270D01*
X183993430Y-56850613D01*
X183993433Y-56850616D01*
X184024062Y-56876683D01*
X184147564Y-56981791D01*
X184194266Y-57007892D01*
X184324239Y-57080532D01*
X184324243Y-57080534D01*
X184327398Y-57082297D01*
X184330834Y-57083414D01*
X184330840Y-57083416D01*
X184455256Y-57123841D01*
X184523329Y-57145959D01*
X184587176Y-57153572D01*
X184724294Y-57169922D01*
X184724297Y-57169922D01*
X184727894Y-57170351D01*
X184796714Y-57165056D01*
X184929689Y-57154824D01*
X184929691Y-57154824D01*
X184933300Y-57154546D01*
X185131725Y-57099145D01*
X185162863Y-57083416D01*
X185312376Y-57007892D01*
X185312379Y-57007890D01*
X185315610Y-57006258D01*
X185477951Y-56879424D01*
X185612564Y-56723472D01*
X185614347Y-56720333D01*
X185614350Y-56720329D01*
X185695898Y-56576777D01*
X185714323Y-56544344D01*
X185725660Y-56510266D01*
X185778208Y-56352299D01*
X185779351Y-56348863D01*
X185784823Y-56305553D01*
X185804913Y-56146519D01*
X185804913Y-56146513D01*
X185805171Y-56144474D01*
X185805583Y-56115000D01*
X185803474Y-56093484D01*
X185785833Y-55913570D01*
X185785480Y-55909970D01*
X185725935Y-55712749D01*
X185629218Y-55530849D01*
X185499011Y-55371200D01*
X185340275Y-55239882D01*
X185329384Y-55233993D01*
X185162238Y-55143618D01*
X185159055Y-55141897D01*
X185155605Y-55140829D01*
X185155600Y-55140827D01*
X185019485Y-55098693D01*
X184962254Y-55080977D01*
X184757369Y-55059443D01*
X184753765Y-55059771D01*
X184753764Y-55059771D01*
X184675076Y-55066932D01*
X184552203Y-55078114D01*
X184503247Y-55092522D01*
X184358043Y-55135258D01*
X184358039Y-55135260D01*
X184354572Y-55136280D01*
X184330052Y-55149099D01*
X184175209Y-55230049D01*
X184175206Y-55230051D01*
X184172002Y-55231726D01*
X184169184Y-55233992D01*
X184169182Y-55233993D01*
X184014266Y-55358548D01*
X184014263Y-55358551D01*
X184011447Y-55360815D01*
X184009121Y-55363587D01*
X184009119Y-55363589D01*
X183881351Y-55515856D01*
X183881348Y-55515860D01*
X183879024Y-55518630D01*
X183779776Y-55699162D01*
X183778682Y-55702611D01*
X183721253Y-55883651D01*
X183717484Y-55895532D01*
X183717081Y-55899123D01*
X183717081Y-55899124D01*
X183715461Y-55913570D01*
X183694520Y-56100262D01*
X177952012Y-56100262D01*
X178134710Y-56010165D01*
X178137422Y-56008140D01*
X178137425Y-56008138D01*
X178301412Y-55885683D01*
X178301413Y-55885682D01*
X178304133Y-55883651D01*
X178358990Y-55824306D01*
X178445360Y-55730873D01*
X178445363Y-55730869D01*
X178447663Y-55728381D01*
X178462218Y-55705313D01*
X178558690Y-55552415D01*
X178558691Y-55552414D01*
X178560495Y-55549554D01*
X178564590Y-55539291D01*
X178637590Y-55356314D01*
X178637591Y-55356311D01*
X178638848Y-55353160D01*
X178680099Y-55145775D01*
X178682598Y-54954894D01*
X178682823Y-54937739D01*
X178682823Y-54937734D01*
X178682867Y-54934346D01*
X178647059Y-54725953D01*
X178573873Y-54527575D01*
X178465762Y-54345856D01*
X178463531Y-54343312D01*
X178463528Y-54343308D01*
X178328580Y-54189430D01*
X178326345Y-54186881D01*
X178231851Y-54112388D01*
X178162950Y-54058071D01*
X178162947Y-54058069D01*
X178160292Y-54055976D01*
X177973164Y-53957523D01*
X177969925Y-53956517D01*
X177969922Y-53956516D01*
X177774467Y-53895826D01*
X177771227Y-53894820D01*
X177622765Y-53877248D01*
X177601717Y-53874757D01*
X177601716Y-53874757D01*
X177599545Y-53874500D01*
X176477359Y-53874500D01*
X176475675Y-53874655D01*
X176475669Y-53874655D01*
X176323819Y-53888608D01*
X176323814Y-53888609D01*
X176320440Y-53888919D01*
X176317177Y-53889839D01*
X176317173Y-53889840D01*
X176221903Y-53916709D01*
X176116931Y-53946314D01*
X175927290Y-54039835D01*
X175924578Y-54041860D01*
X175924575Y-54041862D01*
X175760588Y-54164317D01*
X175757867Y-54166349D01*
X175736531Y-54189430D01*
X175616640Y-54319127D01*
X175616637Y-54319131D01*
X175614337Y-54321619D01*
X175612528Y-54324486D01*
X175599045Y-54345856D01*
X175501505Y-54500446D01*
X175500251Y-54503588D01*
X175500250Y-54503591D01*
X175439850Y-54654987D01*
X175423152Y-54696840D01*
X175381901Y-54904225D01*
X175381507Y-54934346D01*
X175379629Y-55077786D01*
X175379133Y-55115654D01*
X169155493Y-55115654D01*
X169157598Y-54954894D01*
X169157823Y-54937739D01*
X169157823Y-54937734D01*
X169157867Y-54934346D01*
X169122059Y-54725953D01*
X169048873Y-54527575D01*
X168940762Y-54345856D01*
X168938531Y-54343312D01*
X168938528Y-54343308D01*
X168803580Y-54189430D01*
X168801345Y-54186881D01*
X168706851Y-54112388D01*
X168637950Y-54058071D01*
X168637947Y-54058069D01*
X168635292Y-54055976D01*
X168448164Y-53957523D01*
X168444925Y-53956517D01*
X168444922Y-53956516D01*
X168249467Y-53895826D01*
X168246227Y-53894820D01*
X168097765Y-53877248D01*
X168076717Y-53874757D01*
X168076716Y-53874757D01*
X168074545Y-53874500D01*
X166952359Y-53874500D01*
X166950675Y-53874655D01*
X166950669Y-53874655D01*
X166798819Y-53888608D01*
X166798814Y-53888609D01*
X166795440Y-53888919D01*
X166792177Y-53889839D01*
X166792173Y-53889840D01*
X166696903Y-53916709D01*
X166591931Y-53946314D01*
X166402290Y-54039835D01*
X166399578Y-54041860D01*
X166399575Y-54041862D01*
X166235588Y-54164317D01*
X166232867Y-54166349D01*
X166211531Y-54189430D01*
X166091640Y-54319127D01*
X166091637Y-54319131D01*
X166089337Y-54321619D01*
X166087528Y-54324486D01*
X166074045Y-54345856D01*
X165976505Y-54500446D01*
X165975251Y-54503588D01*
X165975250Y-54503591D01*
X165914850Y-54654987D01*
X165898152Y-54696840D01*
X165856901Y-54904225D01*
X165856507Y-54934346D01*
X165854629Y-55077786D01*
X165854133Y-55115654D01*
X164643054Y-55115654D01*
X164637586Y-55077472D01*
X164637585Y-55077469D01*
X164636839Y-55072259D01*
X164634417Y-55066932D01*
X164585610Y-54959586D01*
X164585608Y-54959583D01*
X164583428Y-54954788D01*
X164576003Y-54946170D01*
X164502633Y-54861020D01*
X164502632Y-54861019D01*
X164499193Y-54857028D01*
X164494774Y-54854164D01*
X164494772Y-54854162D01*
X164395329Y-54789708D01*
X164395330Y-54789708D01*
X164390906Y-54786841D01*
X164385857Y-54785331D01*
X164385855Y-54785330D01*
X164272326Y-54751377D01*
X164272325Y-54751377D01*
X164267273Y-54749866D01*
X164201771Y-54749466D01*
X164143501Y-54749110D01*
X164143500Y-54749110D01*
X164138231Y-54749078D01*
X164014155Y-54784539D01*
X163905019Y-54853399D01*
X163901531Y-54857348D01*
X163901529Y-54857350D01*
X163898288Y-54861020D01*
X163819596Y-54950122D01*
X163817357Y-54954891D01*
X163817355Y-54954894D01*
X163766603Y-55062994D01*
X163730716Y-55098693D01*
X163680278Y-55102973D01*
X163638890Y-55073831D01*
X163632254Y-55062174D01*
X163585610Y-54959586D01*
X163585608Y-54959583D01*
X163583428Y-54954788D01*
X163576003Y-54946170D01*
X163502633Y-54861020D01*
X163502632Y-54861019D01*
X163499193Y-54857028D01*
X163494774Y-54854164D01*
X163494772Y-54854162D01*
X163395329Y-54789708D01*
X163395330Y-54789708D01*
X163390906Y-54786841D01*
X163385857Y-54785331D01*
X163385855Y-54785330D01*
X163272326Y-54751377D01*
X163272325Y-54751377D01*
X163267273Y-54749866D01*
X163201771Y-54749466D01*
X163143501Y-54749110D01*
X163143500Y-54749110D01*
X163138231Y-54749078D01*
X163014155Y-54784539D01*
X162905019Y-54853399D01*
X162901531Y-54857348D01*
X162901529Y-54857350D01*
X162898288Y-54861020D01*
X162819596Y-54950122D01*
X162817357Y-54954891D01*
X162817355Y-54954894D01*
X162773892Y-55047469D01*
X162764754Y-55066932D01*
X162744901Y-55194440D01*
X159620419Y-55194440D01*
X159630099Y-55145775D01*
X159632598Y-54954894D01*
X159632823Y-54937739D01*
X159632823Y-54937734D01*
X159632867Y-54934346D01*
X159597059Y-54725953D01*
X159523873Y-54527575D01*
X159415762Y-54345856D01*
X159413531Y-54343312D01*
X159413528Y-54343308D01*
X159278580Y-54189430D01*
X159276345Y-54186881D01*
X159181851Y-54112388D01*
X159112950Y-54058071D01*
X159112947Y-54058069D01*
X159110292Y-54055976D01*
X158923164Y-53957523D01*
X158919925Y-53956517D01*
X158919922Y-53956516D01*
X158724467Y-53895826D01*
X158721227Y-53894820D01*
X158572765Y-53877248D01*
X158551717Y-53874757D01*
X158551716Y-53874757D01*
X158549545Y-53874500D01*
X157427359Y-53874500D01*
X157425675Y-53874655D01*
X157425669Y-53874655D01*
X157273819Y-53888608D01*
X157273814Y-53888609D01*
X157270440Y-53888919D01*
X157267177Y-53889839D01*
X157267173Y-53889840D01*
X157171903Y-53916709D01*
X157066931Y-53946314D01*
X156877290Y-54039835D01*
X156874578Y-54041860D01*
X156874575Y-54041862D01*
X156710588Y-54164317D01*
X156707867Y-54166349D01*
X156686531Y-54189430D01*
X156566640Y-54319127D01*
X156566637Y-54319131D01*
X156564337Y-54321619D01*
X156562528Y-54324486D01*
X156549045Y-54345856D01*
X156451505Y-54500446D01*
X156450251Y-54503588D01*
X156450250Y-54503591D01*
X156389850Y-54654987D01*
X156373152Y-54696840D01*
X156331901Y-54904225D01*
X156331507Y-54934346D01*
X156329629Y-55077786D01*
X156329133Y-55115654D01*
X155775500Y-55115654D01*
X155775500Y-49042500D01*
X155792813Y-48994934D01*
X155836650Y-48969624D01*
X155849500Y-48968500D01*
X170123017Y-48968500D01*
X170170583Y-48985813D01*
G37*
%TD.AperFunction*%
%TD*%
M02*
